<svg width="92" height="92" viewBox="0 0 92 92" fill="none" xmlns="http://www.w3.org/2000/svg">
<path d="M29.9034 17.3309C31.0789 16.6356 32.492 15.9707 33.8748 15.5434C34.3804 15.3664 34.9593 15.561 35.1363 16.0666C35.594 17.2117 36.1552 18.4909 36.6129 19.636C37.624 19.2821 38.7389 19.0621 39.75 18.7081C40.8649 18.4881 41.8458 18.3718 42.9606 18.1518C43.0085 16.8296 42.9225 15.6112 42.9705 14.289C43.0311 13.8137 43.3294 13.3688 43.9387 13.3258C45.3948 13.2701 46.8509 13.2144 48.2767 13.3963C48.8859 13.3533 49.3006 13.8893 49.2399 14.3645C49.192 15.6867 49.144 17.0088 48.9924 18.197C50.1805 18.3486 51.1311 18.4699 52.1853 18.7251C53.2394 18.9804 54.2936 19.2357 55.3175 19.7286C55.8407 18.4671 56.3336 17.4432 56.8569 16.1817C56.9175 15.7065 57.6607 15.5598 58.2396 15.7544C59.5011 16.2777 60.8663 16.9349 62.0975 17.6957C62.5424 17.994 62.8231 18.6336 62.5248 19.0785C61.8979 20.2061 61.271 21.3336 60.6441 22.4611C61.534 23.0576 62.4239 23.6542 63.1798 24.3544C63.9357 25.0546 64.7953 25.8888 65.5512 26.589C66.623 25.7598 67.5608 25.0342 68.529 24.071C68.931 23.7601 69.4062 23.8207 69.9548 24.2529C70.918 25.2211 71.8509 26.4269 72.5462 27.6024C72.8571 28.0043 72.7662 28.7172 72.3642 29.0282C71.2924 29.8574 70.3546 30.583 69.1791 31.2783C69.667 32.1858 70.2586 33.2273 70.7466 34.1348C71.2345 35.0424 71.5885 36.0535 71.9425 37.0647C73.1913 36.7411 74.4401 36.4174 75.6889 36.0938C76.1945 35.9168 76.6395 36.2151 76.9201 36.8546C77.3474 38.2374 77.5371 39.5899 77.8304 41.0763C77.8734 41.6856 77.5751 42.1305 77.0695 42.3075C75.8207 42.6312 74.4682 42.8208 73.2498 42.9068C73.3661 43.8877 73.4521 45.1062 73.4345 46.1907C73.4168 47.2752 73.3992 48.3597 73.1439 49.4139C74.4357 49.6995 75.7276 49.9851 76.9157 50.1367C77.391 50.1974 77.8056 50.7333 77.611 51.3122C77.429 52.738 77.0095 54.1335 76.5899 55.5289C76.3953 56.1079 75.8593 56.5225 75.4144 56.2242C74.1226 55.9386 72.9648 55.5494 71.6729 55.2638C71.314 56.184 70.9247 57.3418 70.3282 58.2317C69.8353 59.2555 69.2387 60.1454 68.6422 61.0353C69.6357 61.7659 70.7329 62.6304 71.7264 63.3609C72.1714 63.6592 72.2144 64.2684 71.9161 64.7134C71.0516 65.8106 70.1871 66.9078 69.1886 68.1086C68.8903 68.5536 68.1471 68.7002 67.8361 68.2983C66.8426 67.5677 65.8794 66.5996 65.0198 65.7654C64.3196 66.5213 63.3817 67.2469 62.5779 67.8688C61.774 68.4907 60.8361 69.2163 59.9286 69.7043C60.5202 70.7458 61.0815 72.0249 61.6731 73.0664C61.9841 73.4683 61.7894 74.0473 61.1499 74.3279C59.9744 75.0232 58.5613 75.6881 57.1785 76.1154C56.6729 76.2924 56.094 76.0978 55.917 75.5922C55.4594 74.447 54.8981 73.1679 54.4405 72.0227C53.4293 72.3767 52.3144 72.5967 51.3033 72.9507C50.1884 73.1706 49.2076 73.287 48.0927 73.507C48.0448 74.8291 48.1308 76.0476 48.0828 77.3698C48.0222 77.845 47.7239 78.29 47.1147 78.333C45.6585 78.3887 44.3364 78.3407 42.7766 78.2624C42.1674 78.3054 41.7528 77.7695 41.8134 77.2942C41.8614 75.9721 41.9093 74.65 42.061 73.4618C40.8728 73.3102 39.9222 73.1889 38.8681 72.9336C37.8139 72.6783 36.7597 72.4231 35.7358 71.9302C35.2126 73.1917 34.7197 74.2155 34.1965 75.477C34.1358 75.9523 33.3926 76.099 32.8137 75.9043C31.5522 75.3811 30.187 74.7239 28.9559 73.963C28.5109 73.6647 28.2303 73.0252 28.5286 72.5802C29.1554 71.4527 29.7823 70.3252 30.4092 69.1977C29.5193 68.6011 28.6294 68.0046 27.8735 67.3043C27.1176 66.6041 26.258 65.7699 25.5021 65.0697C24.4303 65.899 23.4925 66.6245 22.5243 67.5878C22.1224 67.8987 21.6471 67.8381 21.0985 67.4058C20.1353 66.4376 19.2024 65.2318 18.5071 64.0564C18.0925 63.5204 18.2872 62.9415 18.6891 62.6306C19.7609 61.8013 20.6987 61.0757 21.8742 60.3805C21.3863 59.473 20.7947 58.4315 20.3067 57.5239C19.8188 56.6164 19.4648 55.6052 19.1108 54.594C17.862 54.9177 16.6132 55.2413 15.3644 55.565C14.8588 55.742 14.4139 55.4437 14.1332 54.8041C13.7059 53.4213 13.5163 52.0689 13.2229 50.5824C13.1799 49.9732 13.4782 49.5282 13.9838 49.3512C15.2326 49.0276 16.5851 48.8379 17.8036 48.7519C17.6872 47.7711 17.6012 46.5526 17.6188 45.4681C17.6365 44.3836 17.6541 43.299 17.9094 42.2449C16.6176 41.9593 15.3258 41.6737 14.1376 41.5221C13.6623 41.4614 13.2477 40.9255 13.4423 40.3466C13.6243 38.9208 14.0439 37.5253 14.4634 36.1298C14.6581 35.5509 15.194 35.1363 15.6389 35.4346C16.9307 35.7202 18.0886 36.1094 19.3804 36.395C19.7393 35.4748 20.1286 34.317 20.7251 33.4271C21.218 32.4032 21.8146 31.5133 22.4112 30.6234C21.4176 29.8929 20.3204 29.0284 19.3269 28.2979C18.8819 27.9996 18.8389 27.3903 19.1372 26.9454C20.0017 25.8482 20.8663 24.751 21.8647 23.5501C22.163 23.1052 22.9063 22.9585 23.2172 23.3605C24.2108 24.091 25.174 25.0592 26.0335 25.8934C26.7338 25.1375 27.6716 24.4119 28.4755 23.79C29.2793 23.168 30.2172 22.4425 31.1247 21.9545C30.5331 20.913 29.9718 19.6339 29.3802 18.5924C29.2032 18.0868 29.3979 17.5078 29.9034 17.3309ZM41.837 44.9359C41.612 45.7525 41.6247 46.5994 41.8751 47.4766C42.406 48.9933 43.9481 50.1561 45.7759 50.0271C47.4696 50.0017 49.0774 48.7579 49.3933 47.2284C49.8432 45.5953 49.2389 43.707 47.9041 42.8121C47.2518 42.2459 46.4353 42.0209 45.4544 42.1372C44.6075 42.1499 43.834 42.5342 43.1641 43.0525C42.5245 43.3331 42.0619 44.1194 41.837 44.9359Z" fill="#DC2D33"/>
<path d="M72.6044 29.0633C71.5325 29.8925 70.5947 30.6181 69.4192 31.3133C69.9071 32.2209 70.4987 33.2624 70.9867 34.1699C71.4746 35.0774 71.8286 36.0886 72.1826 37.0998C73.4314 36.7761 74.6802 36.4525 75.929 36.1288C76.4346 35.9519 76.8796 36.2501 77.1602 36.8897C77.5875 38.2725 77.7772 39.6249 78.0705 41.1114C78.1135 41.7206 77.8152 42.1656 77.3096 42.3426C76.0608 42.6662 74.7084 42.8559 73.4899 42.9419C73.6062 43.9227 73.6922 45.1412 73.6746 46.2258C73.657 47.3103 73.6393 48.3948 73.384 49.449C74.6758 49.7346 75.9677 50.0202 77.1558 50.1718C77.6311 50.2324 78.0457 50.7683 77.8511 51.3473C77.6692 52.7731 77.2496 54.1685 76.83 55.564C76.6354 56.1429 76.0995 56.5575 75.6545 56.2593C74.3627 55.9737 73.2049 55.5844 71.9131 55.2988C71.5541 56.219 71.1649 57.3769 70.5683 58.2668C70.0754 59.2906 69.4788 60.1805 68.8823 61.0704C69.8758 61.8009 70.973 62.6654 71.9666 63.396C72.4115 63.6943 72.4545 64.3035 72.1562 64.7485C71.2917 65.8457 70.4272 66.9428 69.4287 68.1437C69.1304 68.5886 68.3872 68.7353 68.0762 68.3334C67.0827 67.6028 66.1195 66.6347 65.2599 65.8005C64.5597 66.5564 63.6218 67.2819 62.818 67.9039C62.0141 68.5258 61.0763 69.2514 60.1687 69.7393C60.7604 70.7809 61.3216 72.06 61.9132 73.1015C62.2242 73.5034 62.0296 74.0823 61.39 74.363C60.2145 75.0582 58.8014 75.7232 57.4186 76.1505C56.913 76.3275 56.3341 76.1328 56.1571 75.6272C55.6995 74.4821 55.1382 73.2029 54.6806 72.0578C53.6694 72.4118 52.5546 72.6318 51.5434 72.9857C50.4286 73.2057 49.4477 73.3221 48.3329 73.5421C48.2849 74.8642 48.3709 76.0827 48.323 77.4048C48.2623 77.8801 47.964 78.325 47.3548 78.368C45.8987 78.4237 44.5765 78.3758 43.0167 78.2975C42.4075 78.3405 41.9929 77.8046 42.0535 77.3293C42.1015 76.0072 42.1494 74.685 42.3011 73.4969C41.2166 73.4792 40.1624 73.2239 39.1082 72.9687C38.054 72.7134 36.9998 72.4581 35.9759 71.9652C35.4527 73.2267 34.9598 74.2506 34.4366 75.5121C34.3759 75.9873 33.6327 76.134 33.0538 75.9394C31.7923 75.4161 30.4271 74.7589 29.196 73.9981C28.751 73.6998 28.4704 73.0602 28.7687 72.6153C29.3956 71.4878 30.0224 70.3602 30.6493 69.2327C29.7594 68.6362 28.8695 68.0396 28.1136 67.3394C27.3577 66.6392 26.4982 65.805 25.7423 65.1048C24.6704 65.934 23.7326 66.6596 22.7644 67.6228C22.3625 67.9338 21.8872 67.8731 21.3386 67.4409C20.924 66.9049 20.5094 66.369 19.9911 65.6991L27.4939 59.8945C28.5304 61.2343 29.701 62.4704 31.0055 63.6029C33.6145 65.8678 36.6861 67.3465 40.0863 68.1427C43.4865 68.9388 46.9776 69.0221 50.2185 68.2281C53.563 67.5681 56.6572 66.031 59.4707 63.8542C62.1503 61.7811 64.3116 59.0381 66.0279 55.9969C67.5066 52.9253 68.3028 49.5251 68.4897 46.1679C68.5729 42.6767 67.9129 39.3322 66.3757 36.238C65.6071 34.6909 64.7046 33.2475 63.668 31.9077L71.4388 25.8957C71.8534 26.4316 72.268 26.9676 72.7863 27.6374C73.0669 28.277 73.0063 28.7523 72.6044 29.0633Z" fill="#FF4249"/>
<path d="M66.189 46.2364C66.1664 49.2523 65.4006 52.4149 64.0862 55.1452C62.7717 57.8755 60.7747 60.2772 58.2292 62.2466C55.8175 64.1124 52.9913 65.4423 49.8844 66.1326C46.9116 66.7192 43.658 66.6663 40.7331 65.9308C37.8082 65.1953 34.9742 63.7469 32.5725 61.7499C31.3717 60.7514 30.3048 59.6493 29.3719 58.4435L31.1136 57.096C31.9429 58.1678 32.9061 59.136 34.0033 60.0005C36.1977 61.7295 38.6903 63.0136 41.3776 63.7188C44.0649 64.424 46.8432 64.4162 49.5784 63.7993C52.3137 63.1823 54.872 62.0597 57.0156 60.4013C59.1593 58.7428 61.0223 56.4447 62.1724 54.0557C63.4565 51.563 64.058 48.7418 64.1539 46.0975C64.1462 43.3192 63.5292 40.584 62.4067 38.0257C61.8454 36.7466 61.1501 35.5711 60.3209 34.4992L62.0626 33.1517C62.9955 34.3575 63.7944 35.667 64.4594 37.0801C65.5213 40.1136 66.2116 43.2205 66.189 46.2364Z" fill="#FF4249"/>
<path d="M58.0531 37.1092C58.455 36.7982 59.1376 37.1268 59.5219 37.9003C60.4978 39.7154 61.2361 41.5001 61.4687 43.4618C61.6154 44.205 61.2868 44.8876 60.7812 45.0646C59.4287 45.2543 58.3139 45.4743 56.9614 45.6639C57.0475 46.8824 56.8958 48.0706 56.6102 49.3624C56.221 50.5202 55.6978 51.7817 54.9672 52.7753C55.9608 53.5058 56.924 54.474 57.7835 55.3082C58.2285 55.6065 58.1375 56.3194 57.5713 56.9716C56.1708 58.4834 54.6971 59.6236 52.882 60.5995C52.1085 60.9838 51.3956 60.8929 51.2186 60.3873C50.5233 59.2118 50.0657 58.0666 49.4741 57.0251C48.329 57.4827 46.9765 57.6724 45.758 57.7584C44.5395 57.8444 43.2477 57.5588 42.0899 57.1696C41.5666 58.4311 41.1774 59.5889 40.5505 60.7165C40.4898 61.1917 39.7466 61.3384 38.8264 60.9795C36.986 60.2616 35.3402 58.9648 33.932 57.6984C33.2798 57.1321 33.2671 56.2853 33.5351 56.078C34.5032 55.1147 35.3374 54.2552 36.3056 53.292L36.2019 53.158L40.2213 50.0483C40.6359 50.5842 41.1845 51.0165 41.7331 51.4488C42.7266 52.1793 44.1221 52.5989 45.5782 52.5432C46.9004 52.5912 48.1795 52.0299 49.2514 51.2006C50.3232 50.3714 51.084 49.1402 51.4733 47.9824C51.7589 46.6906 51.8068 45.3684 51.3795 43.9856C51.0989 43.3461 50.8183 42.7065 50.4036 42.1706L54.423 39.0609L54.5266 39.1949C55.8361 38.396 56.8776 37.8044 58.0531 37.1092Z" fill="#FF4249"/>
<path d="M32.7202 37.8592C33.8477 38.4861 35.1092 39.0093 36.2367 39.6362C36.9673 38.6426 37.6978 37.6491 38.7696 36.8199C39.7075 36.0943 40.883 35.399 42.1318 35.0753C41.8081 33.8265 41.4845 32.5777 41.2948 31.2253C41.1178 30.7197 41.5501 30.1711 42.5309 30.0547C44.523 29.5844 46.4544 29.5894 48.3554 29.832C49.172 30.0569 49.7206 30.4892 49.6599 30.9644C49.5083 32.1526 49.3264 33.5784 49.0408 34.8702C50.1986 35.2595 51.3565 35.6487 52.35 36.3793C53.3435 37.1098 54.2031 37.944 54.9287 38.8818L50.9093 41.9915C50.4947 41.4556 49.9461 41.0233 49.3975 40.5911C48.404 39.8605 47.0085 39.4409 45.5524 39.4966C44.2302 39.4487 42.9511 40.01 41.8793 40.8392C40.8074 41.6684 40.0466 42.8996 39.6573 44.0574C39.3717 45.3493 39.3238 46.6714 39.7511 48.0542C40.0317 48.6938 40.3124 49.3333 40.727 49.8692L36.7076 52.9789C35.9821 52.041 35.3904 50.9995 34.9328 49.8544C34.4752 48.7092 34.2855 47.3568 34.3032 46.2723C32.981 46.2243 31.7929 46.0727 30.3671 45.8907C29.8918 45.8301 29.4772 45.2942 29.5985 44.3436C29.841 42.4426 30.4553 40.4682 31.2768 38.7617C31.5017 37.9452 32.2753 37.5609 32.7202 37.8592Z" fill="#FF6268"/>
<path d="M50.5285 25.9958C53.4534 26.7313 56.2873 28.1797 58.689 30.1767C59.8899 31.1752 60.9568 32.2773 61.8896 33.4832L60.1479 34.8307C59.3187 33.7588 58.3555 32.7907 57.2583 31.9261C55.0639 30.1971 52.5712 28.913 49.8839 28.2078C47.1966 27.5027 44.4184 27.5104 41.6831 28.1274C38.9479 28.7443 36.3896 29.8669 34.2459 31.5254C32.1023 33.1838 30.2393 35.4819 29.0892 37.8709C27.8051 40.3636 27.2036 43.1848 27.1076 45.8291C27.1154 48.6074 27.7323 51.3426 28.8549 53.9009C29.4162 55.1801 30.1114 56.3556 30.9407 57.4274L29.199 58.7749C28.2661 57.5691 27.4672 56.2596 26.8022 54.8465C25.4723 52.0203 24.8857 49.0474 24.8046 45.8975C24.8272 42.8816 25.593 39.7191 26.9075 36.9888C28.2219 34.2585 30.2189 31.8568 32.7645 29.8873C35.1761 28.0215 38.0023 26.6917 41.1092 26.0014C44.35 25.2074 47.6035 25.2603 50.5285 25.9958Z" fill="#FF6268"/>
<path d="M23.0838 23.4642C24.0774 24.1947 25.0406 25.1629 25.9002 25.9971C26.6004 25.2412 27.5382 24.5156 28.3421 23.8937C29.146 23.2717 30.0838 22.5462 30.9913 22.0582C30.3997 21.0167 29.8384 19.7376 29.2468 18.6961C28.9359 18.2941 29.1305 17.7152 29.7701 17.4346C30.9455 16.7393 32.3587 16.0744 33.7415 15.6471C34.247 15.4701 34.826 15.6647 35.003 16.1703C35.4606 17.3155 36.0219 18.5946 36.4795 19.7398C37.4907 19.3858 38.6055 19.1658 39.6167 18.8118C40.7315 18.5918 41.7124 18.4755 42.8272 18.2555C42.8752 16.9334 42.7891 15.7149 42.8371 14.3927C42.8978 13.9175 43.196 13.4725 43.8053 13.4295C45.2614 13.3738 46.5836 13.4218 48.1433 13.5001C48.7526 13.4571 49.1672 13.993 49.1065 14.4682C49.0586 15.7904 49.0106 17.1125 48.859 18.3007C50.0472 18.4523 50.9977 18.5736 52.0519 18.8289C53.1061 19.0841 54.1603 19.3394 55.1841 19.8323C55.7073 18.5708 56.2002 17.547 56.7235 16.2855C56.7841 15.8102 57.5273 15.6635 58.1063 15.8582C59.3678 16.3814 60.7329 17.0386 61.9641 17.7995C62.409 18.0977 62.6897 18.7373 62.3914 19.1823C61.7645 20.3098 61.1376 21.4373 60.5107 22.5648C61.4006 23.1614 62.2905 23.7579 63.0464 24.4581C63.8023 25.1584 64.6619 25.9925 65.4178 26.6928C66.4896 25.8635 67.4275 25.138 68.3956 24.1747C68.7976 23.8638 69.2728 23.9244 69.8214 24.3567C70.236 24.8926 70.6507 25.4285 71.1689 26.0984L63.6662 31.9031C62.6296 30.5633 61.4591 29.3271 60.1546 28.1947C57.5456 25.9297 54.474 24.451 51.0738 23.6549C47.6736 22.8587 44.1824 22.7755 40.9416 23.5694C37.5971 24.2294 34.5029 25.7666 31.6894 27.9433C29.0098 30.0164 26.8485 32.7594 25.1322 35.8007C23.6534 38.8723 22.8573 42.2725 22.6704 45.6297C22.5872 49.1208 23.2471 52.4653 24.7843 55.5595C25.5529 57.1066 26.4555 58.55 27.492 59.8898L19.7213 65.9018C19.3067 65.3659 18.892 64.83 18.3738 64.1601C18.0628 63.7581 18.1538 63.0452 18.5557 62.7343C19.6275 61.905 20.5654 61.1795 21.7409 60.4842C21.2529 59.5767 20.6613 58.5352 20.1734 57.6276C19.6854 56.7201 19.3314 55.7089 18.9775 54.6978C17.7287 55.0214 16.4799 55.3451 15.231 55.6687C14.7254 55.8457 14.2805 55.5474 13.9999 54.9079C13.5726 53.5251 13.3829 52.1726 13.0896 50.6861C13.0466 50.0769 13.3448 49.632 13.8504 49.455C15.0992 49.1313 16.4517 48.9417 17.6702 48.8556C17.5539 47.8748 17.4678 46.6563 17.4855 45.5718C17.5031 44.4873 17.5208 43.4028 17.776 42.3486C16.4842 42.063 15.1924 41.7774 14.0042 41.6258C13.529 41.5651 13.1143 41.0292 13.309 40.4503C13.4909 39.0245 13.9105 37.629 14.3301 36.2335C14.5247 35.6546 15.0606 35.24 15.5055 35.5383C16.7974 35.8239 17.9552 36.2131 19.247 36.4987C19.6059 35.5785 19.9952 34.4207 20.5918 33.5308C21.0847 32.5069 21.6812 31.617 22.2778 30.7272C21.2842 29.9966 20.187 29.1321 19.1935 28.4016C18.7486 28.1033 18.7056 27.494 19.0038 27.0491C19.8684 25.9519 20.7329 24.8547 21.7314 23.6539C22.1636 23.1053 22.7729 23.0623 23.0838 23.4642Z" fill="#FF6268"/>
</svg>
