<svg width="177" height="178" viewBox="0 0 177 178" fill="none" xmlns="http://www.w3.org/2000/svg">
<path d="M115.396 101.649C108.4 116.676 90.6803 123.139 75.6528 116.143C60.6252 109.147 54.1628 91.4275 61.1585 76.3999C68.1543 61.3724 85.8742 54.91 100.902 61.9057C115.757 68.821 122.311 86.7941 115.396 101.649ZM74.6316 82.672C71.1739 90.0994 74.4051 98.9593 81.8325 102.417C89.2599 105.875 98.1199 102.643 101.578 95.216C105.035 87.7886 101.804 78.9287 94.3766 75.471C86.9491 72.0133 78.0892 75.2446 74.6316 82.672Z" fill="#3263E4"/>
<path d="M102.27 95.5368C98.6515 103.31 89.2852 106.725 81.5124 103.107C73.7395 99.4885 70.3236 90.1223 73.9421 82.3494C77.5606 74.5765 86.9268 71.1607 94.6997 74.7792C102.645 78.4781 105.888 87.7639 102.27 95.5368ZM80.1604 85.2442C78.0697 89.7352 80.0085 95.0512 84.4995 97.1419C88.9905 99.2325 94.3064 97.2938 96.3971 92.8028C98.4878 88.3118 96.5491 82.9958 92.0581 80.9052C87.5671 78.8145 82.2511 80.7532 80.1604 85.2442Z" fill="#4F7EFC"/>
<path d="M102.273 95.5393L96.2274 92.7249C98.3181 88.2339 96.3794 82.9179 91.8884 80.8273C87.3974 78.7366 82.0814 80.6753 79.9907 85.1663L73.9451 82.3519C77.5636 74.5791 86.9299 71.1632 94.7027 74.7817C102.648 78.4806 105.891 87.7664 102.273 95.5393Z" fill="#14B0F2"/>
<path d="M121.419 31.3454C123.066 32.3222 124.713 33.2991 126.279 34.4486C127.846 35.5982 129.412 36.7477 130.898 38.0701C130.898 38.0701 126.139 44.6814 129.296 47.8323C132.453 50.9832 139.055 46.2808 139.055 46.2808C140.288 47.6954 141.441 49.2828 142.593 50.8701C143.746 52.4575 144.645 54.1372 145.717 55.8972C145.717 55.8972 139.023 60.3465 140.925 64.3848C141.837 66.4904 144.151 66.9371 146.453 66.958C148.582 66.8984 150.527 66.3326 150.527 66.3326C151.173 68.1046 151.739 70.0493 152.305 71.994C152.871 73.9388 153.264 75.8031 153.657 77.6674C153.657 77.6674 145.786 79.6775 146.25 84.0971C146.634 88.6893 154.657 89.0617 154.657 89.0617C154.625 90.9379 154.511 92.9868 154.479 94.8631C154.366 96.912 154.16 98.7078 153.701 100.596C153.701 100.596 145.666 99.7978 144.508 104.092C143.269 108.559 150.604 111.764 150.604 111.764C149.973 113.572 149.169 115.299 148.284 117.199C147.48 118.926 146.676 120.654 145.619 122.473C145.619 122.473 138.272 118.843 135.824 122.747C133.283 126.398 139.067 132.033 139.067 132.033C137.744 133.519 136.422 135.005 135.18 136.318C133.685 137.724 132.443 139.037 130.856 140.19C130.856 140.19 125.233 134.21 121.645 136.953C117.964 139.442 121.493 146.76 121.493 146.76C119.813 147.659 118.133 148.558 116.281 149.377C114.428 150.196 112.656 150.843 110.804 151.662C110.804 151.662 109.985 149.809 108.66 148.141C107.335 146.474 105.503 144.99 103.132 145.568C98.8172 146.712 99.7225 154.699 99.7225 154.699C97.8582 155.092 95.9015 155.232 93.8645 155.545C91.9079 155.685 89.9512 155.825 88.075 155.792C88.075 155.792 87.5956 147.793 82.9795 147.325C78.5361 146.938 76.6212 154.663 76.5408 154.836C74.5722 154.55 72.6841 154.091 70.796 153.633C68.9078 153.174 67.1001 152.543 65.2924 151.911C65.2924 151.911 67.6333 144.174 63.4877 142.244C59.3422 140.314 54.9286 147.087 54.9286 147.087C53.2817 146.11 51.6348 145.133 50.0683 143.983C48.5018 142.834 46.9353 141.684 45.4492 140.362C45.4492 140.362 50.2083 133.751 47.0516 130.6C43.8948 127.449 37.2922 132.151 37.2922 132.151C36.0593 130.737 34.9068 129.149 33.7543 127.562C32.6017 125.975 31.7023 124.295 30.6302 122.535C30.6302 122.535 37.3251 118.086 35.4221 114.047C34.5108 111.942 32.1968 111.495 29.8947 111.474C27.7653 111.534 25.8206 112.099 25.8206 112.099C25.1744 110.327 24.6085 108.383 24.0427 106.438C23.4769 104.493 23.0838 102.629 22.6907 100.765C22.6907 100.765 30.5619 98.7545 30.0974 94.335C29.7132 89.7427 21.6901 89.3704 21.6901 89.3704C21.7229 87.4942 21.8361 85.4452 21.8689 83.569C21.982 81.52 22.1875 79.7242 22.6462 77.8361C22.6462 77.8361 30.6812 78.6343 31.8397 74.3399C33.0786 69.8727 25.7435 66.6682 25.7435 66.6682C26.3749 64.8605 27.179 63.1331 28.0635 61.2331C28.8676 59.5058 29.6717 57.7785 30.729 55.9589C30.729 55.9589 38.076 59.5893 40.5241 55.685C43.0644 52.0338 37.2809 46.3992 37.2809 46.3992C38.6032 44.9131 39.9255 43.427 41.1674 42.1136C42.6624 40.708 43.9044 39.3946 45.4917 38.2421C45.4917 38.2421 51.1144 44.2222 54.703 41.4794C58.384 38.9897 54.855 31.6725 54.855 31.6725C56.5347 30.7731 58.2143 29.8737 60.0667 29.0547C61.9191 28.2358 63.5184 27.5091 65.5435 26.7706C65.5435 26.7706 66.3625 28.6229 67.6877 30.2907C69.013 31.9585 70.8445 33.4416 73.2151 32.8639C77.5304 31.7203 76.6251 23.733 76.6251 23.733C78.4894 23.3399 80.4461 23.1999 82.4831 22.8872C84.4398 22.7473 86.3963 22.6073 88.2726 22.6401C88.2726 22.6401 88.752 30.6393 93.3681 31.1069C97.8115 31.4941 99.7264 23.7689 99.8069 23.5961C101.775 23.882 103.664 24.3407 105.552 24.7993C107.44 25.258 109.247 25.8894 111.055 26.5208C111.055 26.5208 108.714 34.2579 112.86 36.1878C116.833 38.0372 121.419 31.3454 121.419 31.3454ZM140.461 84.3442C140.461 84.3442 140.461 84.3442 140.553 84.5974C140.553 84.5974 140.38 84.517 140.461 84.3442ZM124.685 114.62C126.076 112.535 127.547 110.278 128.673 107.859C129.799 105.441 130.672 103.115 131.279 100.456C132.208 97.1054 132.619 93.5138 132.777 90.0145L119.426 91.155C119.188 94.8271 118.271 98.6033 116.582 102.231C114.893 105.858 112.675 108.818 109.938 111.537L117.66 122.488C120.236 120.114 122.72 117.488 124.685 114.62ZM100.057 69.1078C99.3657 68.7862 98.7552 68.2918 98.0643 67.9702C97.3734 67.6485 96.6824 67.3269 95.9111 67.178C89.1984 64.8937 82.0629 65.7752 76.2763 69.1762C75.9428 69.4412 75.6897 69.5335 75.3561 69.7986C75.0226 70.0636 74.7694 70.1559 74.4358 70.421C72.1814 72.1036 70.1116 74.2925 68.4796 76.8954C68.3991 77.0681 68.3991 77.0681 68.3187 77.2408C68.1579 77.5863 67.9167 78.1045 67.7558 78.45C67.595 78.7954 67.5146 78.9682 67.3538 79.3136C61.9663 90.8866 67.0439 104.809 78.6168 110.197C90.1898 115.584 104.113 110.507 109.5 98.9338C109.58 98.7611 109.661 98.5884 109.741 98.4156C110.304 97.2065 110.694 95.917 111.084 94.6275C111.084 94.6275 111.084 94.6275 111.165 94.4547C111.784 92.2212 111.805 89.9191 111.746 87.7897C111.734 87.3638 111.641 87.1107 111.63 86.6848C111.618 86.2589 111.525 86.0058 111.513 85.5799C110.045 78.8017 106.126 72.774 100.057 69.1078ZM84.2096 133.396C89.4243 133.933 94.5228 133.364 99.5976 131.943C102.981 130.996 106.352 129.623 109.458 127.917L101.736 116.966C94.925 120.311 87.018 121.043 79.3732 118.956L73.6641 131.219C77.2795 132.482 80.7103 133.239 84.2096 133.396ZM44.4311 97.8552C45.1249 101.331 46.2447 104.794 47.698 107.993C49.8779 112.791 52.9781 116.966 56.4923 120.703C58.9462 123.107 61.9065 125.326 64.8548 127.118L70.5639 114.855C63.9644 110.521 59.5152 103.826 57.6897 96.4616L44.4311 97.8552ZM51.6503 63.3865C50.2595 65.4712 48.7883 67.7286 47.6625 70.1468C46.5368 72.565 45.6642 74.8909 45.0566 77.5504C44.1274 80.9008 43.7164 84.4924 43.5585 87.9917L56.9095 86.8512C57.1478 83.1791 58.065 79.4029 59.7537 75.7756C61.4423 72.1482 63.661 69.188 66.3979 66.469L58.6757 55.5183C56.0996 57.8919 53.6159 60.5186 51.6503 63.3865ZM91.9534 44.5293C86.7387 43.9932 81.4674 44.4816 76.5654 45.9825C73.1822 46.9295 69.811 48.3024 66.7048 50.0089L74.427 60.9595C81.238 57.6151 89.1449 56.8825 96.7897 58.9703L102.499 46.7064C98.9758 45.6968 95.545 44.9403 91.9534 44.5293ZM105.599 63.0712C112.199 67.4044 116.648 74.0993 118.473 81.4642L131.824 80.3237C131.13 76.8482 130.011 73.3846 128.557 70.1861C126.377 65.3884 123.277 61.213 119.763 57.4754C117.136 54.9917 114.349 52.8533 111.4 51.0605L105.772 63.1516L105.599 63.0712Z" fill="#4F7EFC"/>
<path d="M121.442 31.3276C123.089 32.3044 124.735 33.2813 126.302 34.4308C127.868 35.5804 129.435 36.73 130.921 38.0523C130.921 38.0523 126.162 44.6636 129.319 47.8145C132.475 50.9654 139.078 46.263 139.078 46.263C140.311 47.6776 141.463 49.265 142.616 50.8523C143.768 52.4397 144.668 54.1194 145.74 55.8794C145.74 55.8794 139.045 60.3287 140.948 64.367C141.859 66.4726 144.173 66.9193 146.475 66.9402C148.605 66.8806 150.55 66.3148 150.55 66.3148C151.196 68.0868 151.762 70.0315 152.327 71.9762C152.893 73.921 153.286 75.7853 153.679 77.6496C153.679 77.6496 145.808 79.6597 146.273 84.0793C146.657 88.6716 154.68 89.0439 154.68 89.0439C154.647 90.9201 154.534 92.969 154.501 94.8453C154.388 96.8942 154.183 98.69 153.724 100.578C153.724 100.578 145.689 99.78 144.53 104.074C143.292 108.542 150.627 111.746 150.627 111.746C149.995 113.554 149.191 115.281 148.307 117.181L128.443 107.934C129.568 105.516 130.441 103.19 131.049 100.53C131.978 97.18 132.389 93.5883 132.547 90.089L119.196 91.2296C118.957 94.9016 118.04 98.6778 116.351 102.305L109.097 98.9279C109.177 98.7552 109.258 98.5825 109.338 98.4097C109.901 97.2006 110.291 95.9111 110.681 94.6216C110.681 94.6216 110.681 94.6216 110.762 94.4488C111.381 92.2153 111.402 89.9132 111.342 87.7838C111.33 87.3579 111.238 87.1048 111.226 86.6789C111.214 86.253 111.122 85.9999 111.11 85.574C109.987 78.9566 106.068 72.9289 99.9989 69.2628C99.3079 68.9411 98.6974 68.4468 98.0065 68.1251C97.3156 67.8035 96.6246 67.4818 95.8533 67.3329C89.1406 65.0486 82.0051 65.9301 76.2185 69.3311C75.885 69.5961 75.6319 69.6885 75.2983 69.9535C74.9648 70.2186 74.7116 70.3109 74.378 70.5759C72.1236 72.2585 70.0538 74.4475 68.4217 77.0503C68.3413 77.2231 68.3413 77.2231 68.2609 77.3958C68.1001 77.7412 67.8589 78.2594 67.6981 78.6049C67.5372 78.9504 67.4568 79.1231 67.296 79.4685L60.0413 76.0913C61.7299 72.4639 63.9486 69.5037 66.6856 66.7847L58.9634 55.8341C56.3873 58.2076 53.9035 60.8343 51.9379 63.7023C50.5471 65.7869 49.0759 68.0443 47.9502 70.4625L28.0861 61.2153C28.8902 59.488 29.6944 57.7607 30.7516 55.9411C30.7516 55.9411 38.0986 59.5715 40.5467 55.6672C43.087 52.016 37.3035 46.3814 37.3035 46.3814C38.6258 44.8953 39.9481 43.4092 41.19 42.0959C42.6851 40.6902 43.927 39.3769 45.5143 38.2243C45.5143 38.2243 51.137 44.2045 54.7256 41.4616C58.4066 38.9719 54.8776 31.6547 54.8776 31.6547C56.5573 30.7553 58.2369 29.8559 60.0893 29.0369C61.9417 28.218 63.541 27.4913 65.5661 26.7528C65.5661 26.7528 66.3851 28.6051 67.7103 30.2729C69.0356 31.9407 70.8671 33.4238 73.2377 32.8461C77.553 31.7025 76.6477 23.7152 76.6477 23.7152C78.5121 23.3221 80.4687 23.1821 82.5057 22.8694C84.4624 22.7295 86.419 22.5895 88.2952 22.6223C88.2952 22.6223 88.7746 30.6215 93.3907 31.0891C97.8341 31.4763 99.7491 23.7511 99.8295 23.5783C101.798 23.8642 103.686 24.3229 105.574 24.7815C107.462 25.2402 109.27 25.8716 111.078 26.5029C111.078 26.5029 108.737 34.2401 112.882 36.17C116.855 38.0194 121.442 31.3276 121.442 31.3276ZM91.976 44.5115C86.7613 43.9754 81.49 44.4638 76.588 45.9647C73.2049 46.9117 69.8336 48.2846 66.7274 49.9911L74.4496 60.9417C81.2606 57.5973 89.1675 56.8647 96.8124 58.9525L102.522 46.6886C98.9984 45.679 95.5676 44.9225 91.976 44.5115ZM105.622 63.0534C112.221 67.3866 116.67 74.0815 118.496 81.4464L131.847 80.3059C131.153 76.8304 130.033 73.3669 128.58 70.1683C126.4 65.3706 123.3 61.1952 119.786 57.4576C117.159 54.9739 114.371 52.8355 111.423 51.0427L105.794 63.1338L105.622 63.0534Z" fill="#14B0F2"/>
</svg>
