<svg width="972" height="1061" viewBox="0 0 972 1061" fill="none" xmlns="http://www.w3.org/2000/svg">
<path d="M531.186 397.995C370.71 397.995 426.187 141.496 233.687 109.496C41.1869 77.4966 -3.31323 -197.005 0.186822 267.995C0.186627 396.353 0.186669 615.986 0.186699 769.861L0.186715 885.495C0.186657 981.495 39.1867 870.995 101.187 989.995C163.187 1108.99 247.187 1047.99 270.187 1020.49C293.187 992.994 379.687 848.995 437.187 848.995C593.187 848.995 882.648 933.548 962.186 779.995C998.186 710.495 925.686 574.495 730.686 501.495C609.506 456.13 674.186 397.995 531.186 397.995Z" fill="url(#paint0_linear)"/>
<defs>
<linearGradient id="paint0_linear" x1="1018.9" y1="245.626" x2="263.473" y2="914.836" gradientUnits="userSpaceOnUse">
<stop stop-color="#09B9F0"/>
<stop offset="1" stop-color="#6070FF"/>
</linearGradient>
</defs>
</svg>
