<svg width="1440" height="2044" viewBox="0 0 1440 2044" fill="none" xmlns="http://www.w3.org/2000/svg">
<path d="M2121.34 -216.21C2198.41 -347.884 2369.65 -394.877 2475.07 -365.022C2580.5 -335.167 2762.67 -240.008 2837.27 169.51C2825.73 259.493 2981.51 -394.622 2961.87 -237.207L2777.42 1241.4C2340.97 1063.48 2350.57 1481.42 2225.88 1650.16C2101.2 1818.89 1875.15 1854.47 1558.13 1709.08C1161.84 1527.34 901.296 1494.84 638.209 1624.09C375.122 1753.34 99.1066 1729.93 -372.102 1468.28C-749.069 1258.97 -1039.21 1256.9 -1164.18 1295.33C-1289.15 1333.77 -1607.31 1542.14 -1658.51 1386.92L-1551.52 529.278L-1504.66 153.654C-1489.49 32.0651 -1490.23 356.113 -1375.98 324.06C-1261.73 292.007 -1262.84 159.566 -1006.08 240.107C-749.322 320.649 -551.716 18.1202 -189.27 2.69713C173.176 -12.7259 261.967 168.138 509.226 236.469C756.485 304.8 871.139 260.67 1072.75 120.444C1274.36 -19.7818 1403.83 2.98351 1659.9 53.6716C1915.98 104.36 2007.56 -21.7918 2121.34 -216.21Z" fill="url(#paint0_linear)"/>
<path d="M2104.68 -162.162C2174.87 -364.206 2333.42 -413.825 2467.1 -371.792C2600.77 -329.759 2629.6 -199.378 2738.27 -185.822C2900.03 -165.643 3013.94 -362.887 2999.07 -243.688L2957.97 85.7334C2908.31 483.812 2833.56 1083.04 2819.62 1194.76C2790.37 1429.25 2365.31 771.107 2146.72 1374.47C1928.12 1977.84 1502.12 1804.52 1252.94 1663.19C1003.77 1521.85 637.373 1489.37 362.613 1606.14C87.8531 1722.91 -276.075 1776.74 -520.957 1441.89C-716.863 1174.02 -1128.57 1142.45 -1305.22 1197.42C-1481.86 1252.4 -1683.5 1295.6 -1665.64 1152.46L-1595.06 586.693C-1560.26 307.689 -1557.26 363.189 -1458.19 399.803C-1359.12 436.417 -1325.63 318.216 -1222.36 338.817C-1119.09 359.418 -958.923 613.293 -870.488 452.333C-715.92 171.008 -579.588 303.401 -356.544 123.953C-133.5 -55.4948 193.827 42.6701 464.17 173.417C734.513 304.163 952.394 242.531 1093.81 154.943C1279.01 40.232 1426.11 62.9931 1670.92 133.225C1915.74 203.456 2016.94 90.3942 2104.68 -162.162Z" fill="url(#paint1_linear)"/>
<defs>
<linearGradient id="paint0_linear" x1="2686.51" y1="140.682" x2="-1555.15" y2="1212.39" gradientUnits="userSpaceOnUse">
<stop stop-color="#10B3F1"/>
<stop offset="1" stop-color="#6070FF"/>
</linearGradient>
<linearGradient id="paint1_linear" x1="-1081.11" y1="1433.59" x2="2225.14" y2="162.51" gradientUnits="userSpaceOnUse">
<stop stop-color="#0FF0E3"/>
<stop offset="1" stop-color="#00D1FF"/>
</linearGradient>
</defs>
</svg>
