<svg width="1899" height="911" viewBox="0 0 1899 911" fill="none" xmlns="http://www.w3.org/2000/svg">
<path d="M1546.97 96.5751C1580.48 -0.424919 1768.87 129.5 1805.29 129.5V774C1769.84 815.5 1552.31 889.575 1404.71 841.575C1220.2 781.575 1103.66 781.575 994.899 855.075C886.135 928.575 763.29 933.575 541.392 841.575C363.874 767.975 58.2664 791.333 15.0521 822V346.5C214.129 434 399.125 347.002 541.392 308.575C740.946 254.675 778.342 348.002 890.991 365.002C1003.64 382.002 1022.58 383.575 1103.66 308.575C1184.75 233.575 1243.02 236.575 1358.58 245.075C1474.14 253.575 1513.47 193.575 1546.97 96.5751Z" fill="url(#paint0_linear)"/>
<path d="M1568.34 102.075C1656.22 0 1849.96 248 1899 0V751.575C1872.73 870.621 1770.81 740.575 1700.41 785.002C1572.38 808.49 1485.79 895.348 1304.2 818.075C1186.69 768.075 980.743 763.868 864.285 837.002C736.099 917.502 590.814 914.236 432.143 818.075C285.991 729.502 77.5267 761.169 0 785.002V303.075C21.3644 353.875 167.232 411.118 235.979 427.502C347.171 454.002 385.529 424.428 494.779 357.502C604.029 290.575 738.041 303.075 864.285 347.075C990.529 391.075 1083.1 350.798 1140.57 303.075C1215.83 240.575 1281.86 242.575 1393.54 260.575C1505.22 278.575 1489.62 193.505 1568.34 102.075Z" fill="url(#paint1_linear)"/>
<defs>
<linearGradient id="paint0_linear" x1="-361.931" y1="634.707" x2="1206.02" y2="1377.17" gradientUnits="userSpaceOnUse">
<stop stop-color="#70422E"/>
<stop offset="1" stop-color="#8B6B59"/>
</linearGradient>
<linearGradient id="paint1_linear" x1="1985.94" y1="446.631" x2="1349.36" y2="1747.55" gradientUnits="userSpaceOnUse">
<stop stop-color="#825846"/>
<stop offset="1" stop-color="#9F8475"/>
</linearGradient>
</defs>
</svg>
