<svg width="1440" height="638" viewBox="0 0 1440 638" fill="none" xmlns="http://www.w3.org/2000/svg">
<path d="M1498 624H-60V53.5C-6 125.5 118 212.5 246.5 193.5C368.5 175.461 427.5 95.5 552.5 184C677.5 272.5 837.5 179 868.5 164C899.5 149 960 100.5 1097.5 125C1235 149.5 1267.5 107.5 1327.5 69C1375.5 38.2 1461.17 20.1667 1498 15V624Z" fill="url(#paint0_linear)"/>
<path d="M663.817 254.701C658.326 270.91 640.866 279.534 624.657 274.043C608.448 268.553 599.823 251.093 605.314 234.883C610.805 218.674 628.265 210.05 644.474 215.541C660.497 220.968 669.244 238.678 663.817 254.701ZM619.847 239.806C617.133 247.818 621.445 256.548 629.456 259.261C637.468 261.975 646.198 257.663 648.912 249.652C651.625 241.64 647.313 232.91 639.302 230.196C631.29 227.483 622.56 231.795 619.847 239.806Z" fill="#DC2D33"/>
<path d="M649.659 249.903C646.819 258.287 637.59 262.846 629.206 260.006C620.822 257.166 616.263 247.937 619.103 239.553C621.943 231.169 631.172 226.61 639.556 229.45C648.126 232.353 652.499 241.519 649.659 249.903ZM625.81 241.825C624.169 246.669 626.757 251.907 631.601 253.548C636.445 255.189 641.683 252.601 643.324 247.757C644.965 242.913 642.378 237.675 637.533 236.034C632.689 234.393 627.451 236.981 625.81 241.825Z" fill="#FF4249"/>
<path d="M649.661 249.905L643.14 247.696C644.781 242.852 642.194 237.614 637.35 235.973C632.505 234.332 627.268 236.919 625.627 241.764L619.106 239.555C621.946 231.171 631.174 226.612 639.559 229.452C648.129 232.355 652.501 241.521 649.661 249.905Z" fill="#FF6268"/>
<path d="M662.094 181.87C663.894 182.687 665.694 183.505 667.431 184.508C669.168 185.512 670.905 186.516 672.579 187.706C672.579 187.706 668.438 195.026 672.032 197.905C675.626 200.784 681.874 195.216 681.874 195.216C683.298 196.529 684.659 198.029 686.02 199.528C687.382 201.028 688.494 202.651 689.792 204.337C689.792 204.337 683.421 209.656 685.828 213.586C687 215.645 689.425 215.843 691.79 215.606C693.968 215.305 695.901 214.506 695.901 214.506C696.763 216.252 697.563 218.184 698.362 220.117C699.161 222.049 699.774 223.918 700.387 225.787C700.387 225.787 692.535 228.735 693.508 233.219C694.419 237.889 702.695 237.369 702.695 237.369C702.872 239.298 702.986 241.414 703.163 243.343C703.277 245.459 703.268 247.325 703.01 249.314C703.01 249.314 694.674 249.398 693.967 253.936C693.198 258.66 701.086 261.124 701.086 261.124C700.642 263.051 700.01 264.914 699.316 266.963C698.685 268.826 698.054 270.689 697.173 272.676C697.173 272.676 689.225 269.776 687.151 274.058C684.955 278.091 691.524 283.223 691.524 283.223C690.333 284.897 689.143 286.571 688.016 288.059C686.64 289.669 685.513 291.157 684.014 292.518C684.014 292.518 677.571 287.013 674.196 290.231C670.698 293.2 675.142 300.313 675.142 300.313C673.519 301.425 671.897 302.537 670.088 303.585C668.279 304.634 666.533 305.497 664.723 306.545C664.723 306.545 663.675 304.736 662.127 303.173C660.58 301.611 658.533 300.295 656.165 301.154C651.865 302.813 653.692 310.908 653.692 310.908C651.822 311.521 649.83 311.885 647.775 312.435C645.782 312.798 643.79 313.162 641.861 313.339C641.861 313.339 640.469 305.183 635.679 305.222C631.075 305.324 629.978 313.468 629.915 313.654C627.863 313.582 625.873 313.324 623.884 313.065C621.895 312.807 619.968 312.362 618.042 311.917C618.042 311.917 619.575 303.713 615.103 302.199C610.632 300.684 606.863 308.13 606.863 308.13C605.063 307.313 603.263 306.496 601.526 305.492C599.789 304.488 598.053 303.484 596.379 302.294C596.379 302.294 600.52 294.974 596.926 292.095C593.332 289.216 587.084 294.784 587.084 294.784C585.66 293.471 584.299 291.971 582.937 290.472C581.576 288.972 580.464 287.349 579.166 285.664C579.166 285.664 585.537 280.345 583.13 276.414C581.958 274.355 579.533 274.157 577.168 274.394C574.989 274.695 573.057 275.494 573.057 275.494C572.194 273.748 571.395 271.816 570.596 269.884C569.797 267.951 569.184 266.082 568.571 264.213C568.571 264.213 576.423 261.265 575.449 256.781C574.539 252.112 566.263 252.631 566.263 252.631C566.086 250.702 565.972 248.586 565.794 246.657C565.68 244.541 565.689 242.675 565.948 240.686C565.948 240.686 574.284 240.602 574.99 236.064C575.76 231.34 567.871 228.876 567.871 228.876C568.316 226.95 568.947 225.087 569.642 223.037C570.273 221.174 570.904 219.311 571.784 217.325C571.784 217.325 579.733 220.225 581.806 215.942C584.003 211.91 577.434 206.777 577.434 206.777C578.624 205.103 579.814 203.429 580.941 201.942C582.318 200.331 583.445 198.843 584.944 197.482C584.944 197.482 591.387 202.988 594.762 199.769C598.26 196.8 593.815 189.687 593.815 189.687C595.438 188.575 597.061 187.464 598.87 186.415C600.679 185.366 602.239 184.441 604.234 183.455C604.234 183.455 605.283 185.264 606.831 186.827C608.378 188.389 610.425 189.706 612.793 188.846C617.093 187.188 615.266 179.092 615.266 179.092C617.135 178.479 619.128 178.115 621.183 177.565C623.176 177.202 625.168 176.838 627.097 176.661C627.097 176.661 628.488 184.817 633.278 184.778C637.882 184.676 638.979 176.532 639.042 176.346C641.095 176.418 643.084 176.677 645.074 176.935C647.063 177.194 648.989 177.638 650.916 178.083C650.916 178.083 649.383 186.287 653.854 187.802C658.139 189.253 662.094 181.87 662.094 181.87ZM687.594 234.123C687.594 234.123 687.594 234.123 687.717 234.373C687.717 234.373 687.531 234.309 687.594 234.123ZM674.807 266.968C676 264.673 677.256 262.19 678.139 259.582C679.023 256.974 679.657 254.488 679.982 251.691C680.559 248.148 680.577 244.415 680.346 240.806L666.772 243.477C666.94 247.273 666.423 251.252 665.097 255.164C663.772 259.077 661.828 262.364 659.324 265.462L668.481 275.833C670.858 273.108 673.112 270.133 674.807 266.968ZM644.414 223.027C643.669 222.775 642.987 222.336 642.242 222.083C641.496 221.831 640.751 221.579 639.943 221.512C632.797 219.923 625.572 221.629 620.016 225.77C619.703 226.08 619.454 226.203 619.141 226.512C618.829 226.822 618.579 226.945 618.267 227.255C616.142 229.235 614.264 231.714 612.882 234.569C612.818 234.755 612.818 234.755 612.755 234.941C612.629 235.314 612.44 235.873 612.314 236.246C612.187 236.618 612.124 236.805 611.998 237.177C607.769 249.66 614.546 263.379 627.029 267.607C639.512 271.836 653.23 265.06 657.459 252.577C657.522 252.39 657.585 252.204 657.648 252.018C658.09 250.713 658.345 249.346 658.601 247.979C658.601 247.979 658.601 247.979 658.664 247.793C659.048 245.431 658.811 243.066 658.511 240.887C658.451 240.451 658.327 240.202 658.267 239.766C658.207 239.33 658.084 239.081 658.024 238.645C655.755 231.853 651.055 226.108 644.414 223.027ZM635.376 290.789C640.788 290.753 645.957 289.596 651.006 287.568C654.371 286.216 657.677 284.428 660.673 282.327L651.517 271.956C644.903 276.154 636.87 277.795 628.789 276.511L624.308 289.74C628.161 290.629 631.767 291.02 635.376 290.789ZM590.556 258.783C591.659 262.272 593.197 265.701 595.048 268.82C597.825 273.499 601.476 277.436 605.503 280.877C608.291 283.068 611.579 285.012 614.806 286.521L619.287 273.293C612.027 269.587 606.708 263.216 604.007 255.863L590.556 258.783ZM594.091 222.596C592.898 224.892 591.642 227.374 590.758 229.982C589.875 232.591 589.24 235.076 588.916 237.874C588.339 241.417 588.321 245.149 588.552 248.758L602.126 246.087C601.958 242.292 602.475 238.313 603.8 234.4C605.125 230.488 607.07 227.2 609.573 224.102L600.417 213.731C598.04 216.457 595.786 219.432 594.091 222.596ZM633.335 198.713C627.923 198.749 622.568 199.842 617.706 201.934C614.34 203.286 611.034 205.074 608.038 207.174L617.194 217.545C623.809 213.347 631.841 211.707 639.922 212.99L644.403 199.762C640.674 199.122 637.067 198.731 633.335 198.713ZM649.424 216.209C656.684 219.914 662.003 226.285 664.704 233.639L678.278 230.968C677.176 227.479 675.637 224.05 673.786 220.93C671.01 216.251 667.358 212.315 663.332 208.874C660.357 206.62 657.256 204.738 654.028 203.23L649.61 216.272L649.424 216.209Z" fill="#FF4249"/>
<path d="M662.117 181.85C663.917 182.667 665.717 183.485 667.454 184.488C669.191 185.492 670.928 186.496 672.602 187.686C672.602 187.686 668.46 195.006 672.055 197.885C675.649 200.764 681.896 195.196 681.896 195.196C683.321 196.509 684.682 198.009 686.043 199.508C687.404 201.008 688.516 202.631 689.814 204.317C689.814 204.317 683.443 209.635 685.85 213.566C687.022 215.625 689.447 215.823 691.813 215.586C693.991 215.285 695.924 214.486 695.924 214.486C696.786 216.232 697.585 218.164 698.385 220.097C699.184 222.029 699.797 223.898 700.41 225.767C700.41 225.767 692.557 228.715 693.531 233.199C694.441 237.869 702.717 237.349 702.717 237.349C702.895 239.278 703.009 241.394 703.186 243.323C703.3 245.439 703.291 247.305 703.033 249.294C703.033 249.294 694.696 249.378 693.99 253.916C693.221 258.64 701.109 261.104 701.109 261.104C700.664 263.03 700.033 264.894 699.339 266.943L677.913 259.685C678.796 257.077 679.43 254.592 679.755 251.794C680.332 248.251 680.35 244.519 680.119 240.909L666.545 243.581C666.713 247.376 666.196 251.355 664.871 255.267L657.046 252.617C657.109 252.43 657.172 252.244 657.235 252.058C657.677 250.753 657.932 249.386 658.188 248.019C658.188 248.019 658.188 248.019 658.251 247.833C658.635 245.471 658.398 243.106 658.098 240.927C658.038 240.491 657.914 240.242 657.854 239.806C657.794 239.37 657.671 239.121 657.611 238.685C655.715 232.02 651.015 226.274 644.374 223.193C643.629 222.941 642.946 222.502 642.201 222.25C641.456 221.997 640.711 221.745 639.902 221.679C632.756 220.089 625.532 221.795 619.975 225.936C619.663 226.246 619.414 226.369 619.101 226.679C618.788 226.988 618.539 227.111 618.226 227.421C616.102 229.401 614.224 231.88 612.841 234.735C612.778 234.921 612.778 234.921 612.715 235.108C612.589 235.48 612.399 236.039 612.273 236.412C612.147 236.785 612.084 236.971 611.958 237.343L604.132 234.693C605.458 230.78 607.402 227.493 609.905 224.394L600.749 214.024C598.372 216.749 596.118 219.724 594.423 222.889C593.23 225.184 591.974 227.667 591.09 230.275L569.664 223.017C570.295 221.154 570.926 219.291 571.807 217.304C571.807 217.304 579.755 220.205 581.829 215.922C584.026 211.89 577.457 206.757 577.457 206.757C578.647 205.083 579.837 203.409 580.964 201.922C582.34 200.311 583.467 198.823 584.967 197.462C584.967 197.462 591.41 202.968 594.784 199.749C598.282 196.78 593.838 189.667 593.838 189.667C595.461 188.555 597.084 187.443 598.893 186.395C600.702 185.346 602.262 184.421 604.257 183.435C604.257 183.435 605.306 185.244 606.853 186.807C608.401 188.369 610.447 189.686 612.815 188.826C617.116 187.168 615.289 179.072 615.289 179.072C617.158 178.459 619.15 178.095 621.206 177.545C623.198 177.182 625.191 176.818 627.12 176.641C627.12 176.641 628.511 184.797 633.301 184.758C637.905 184.656 639.002 176.512 639.065 176.326C641.118 176.398 643.107 176.656 645.096 176.915C647.086 177.173 649.012 177.618 650.938 178.063C650.938 178.063 649.405 186.267 653.877 187.782C658.162 189.233 662.117 181.85 662.117 181.85ZM633.358 198.693C627.946 198.728 622.591 199.822 617.728 201.914C614.363 203.266 611.057 205.054 608.061 207.154L617.217 217.525C623.831 213.327 631.864 211.687 639.945 212.97L644.426 199.742C640.696 199.101 637.09 198.711 633.358 198.693ZM649.447 216.189C656.707 219.894 662.026 226.265 664.727 233.619L678.301 230.947C677.198 227.459 675.66 224.03 673.809 220.91C671.032 216.231 667.381 212.295 663.354 208.854C660.379 206.6 657.278 204.718 654.051 203.21L649.633 216.252L649.447 216.189Z" fill="#FF6268"/>
<path d="M325 166.721C364.833 143.221 461.6 108.821 530 159.221C501 131.054 419.4 93.1208 325 166.721Z" fill="url(#paint1_linear)"/>
<path d="M325 166.721C364.833 143.221 461.6 108.821 530 159.221C501 131.054 419.4 93.1208 325 166.721Z" fill="url(#paint2_linear)"/>
<path d="M12 108.662C48.3524 142.615 147.769 204.514 254.617 180.491C211.68 184.976 103.045 176.889 12 108.662Z" fill="url(#paint3_linear)"/>
<path d="M12 108.662C48.3524 142.615 147.769 204.514 254.617 180.491C211.68 184.976 103.045 176.889 12 108.662Z" fill="url(#paint4_linear)"/>
<path d="M1471.5 637.5H-17.5H-67V111.5C70.5 111.5 135 303 290 218.5C407.96 154.193 477.522 154.554 526 183C586.5 218.5 646.5 331 779 255.5C911.5 180 960.5 189.5 1006.5 198.5C1052.5 207.5 1206.4 307.264 1270 165.5C1329 34 1430.83 0.666667 1471.5 0V637.5Z" fill="url(#paint5_linear)"/>
<defs>
<linearGradient id="paint0_linear" x1="-1218" y1="171.5" x2="-473.156" y2="1682.26" gradientUnits="userSpaceOnUse">
<stop stop-color="#FF7B01"/>
<stop offset="1" stop-color="#FFC9A3"/>
</linearGradient>
<linearGradient id="paint1_linear" x1="214" y1="124" x2="234.72" y2="228.908" gradientUnits="userSpaceOnUse">
<stop stop-color="#FFBF01"/>
<stop offset="1" stop-color="#FFE8A3"/>
</linearGradient>
<linearGradient id="paint2_linear" x1="317.658" y1="142.104" x2="332.571" y2="217.381" gradientUnits="userSpaceOnUse">
<stop stop-color="#FF7B01"/>
<stop offset="1" stop-color="#FFC9A3"/>
</linearGradient>
<linearGradient id="paint3_linear" x1="-31.084" y1="134.544" x2="19.6997" y2="276.886" gradientUnits="userSpaceOnUse">
<stop stop-color="#FFBF01"/>
<stop offset="1" stop-color="#FFE8A3"/>
</linearGradient>
<linearGradient id="paint4_linear" x1="3.86711" y1="142.768" x2="48.0315" y2="275.644" gradientUnits="userSpaceOnUse">
<stop stop-color="#FF7B01"/>
<stop offset="1" stop-color="#FFC9A3"/>
</linearGradient>
<linearGradient id="paint5_linear" x1="1123.5" y1="687.5" x2="165.677" y2="-955.981" gradientUnits="userSpaceOnUse">
<stop offset="0.0001" stop-color="#E45E13"/>
<stop offset="1" stop-color="#F3943C"/>
</linearGradient>
</defs>
</svg>
