<svg width="2005" height="636" viewBox="0 0 2005 636" fill="none" xmlns="http://www.w3.org/2000/svg">
<path d="M1778.37 621.554H9.87094C9.87094 621.554 -26.1289 143.554 39.371 172.054C104.871 200.554 114.871 85.0537 214.371 85.0537C313.871 85.0537 402.871 215.054 520.871 198.554C643.009 181.475 707.871 93.0537 832.871 181.554C957.871 270.054 1117.87 176.554 1148.87 161.554C1179.87 146.554 1240.37 98.0537 1377.87 122.554C1515.37 147.054 1547.87 105.054 1607.87 66.5537C1655.87 35.7537 1741.54 17.7204 1778.37 12.5537V621.554Z" fill="url(#paint0_linear)"/>
<path d="M608 164.275C647.833 140.775 744.6 106.375 813 156.775C784 128.608 702.4 90.6745 608 164.275Z" fill="url(#paint1_linear)"/>
<path d="M313.781 93.5537C347.034 130.548 440.673 200.883 549.209 186.271C506.044 186.993 398.529 169.462 313.781 93.5537Z" fill="url(#paint2_linear)"/>
<path d="M929.396 242.203C922.4 257.23 904.68 263.693 889.653 256.697C874.625 249.701 868.163 231.981 875.159 216.954C882.154 201.926 899.874 195.464 914.902 202.459C929.757 209.375 936.311 227.348 929.396 242.203ZM888.632 223.226C885.174 230.653 888.405 239.513 895.832 242.971C903.26 246.428 912.12 243.197 915.578 235.77C919.035 228.342 915.804 219.482 908.377 216.025C900.949 212.567 892.089 215.798 888.632 223.226Z" fill="#3263E4"/>
<path d="M916.27 236.09C912.651 243.863 903.285 247.279 895.512 243.661C887.739 240.042 884.324 230.676 887.942 222.903C891.561 215.13 900.927 211.714 908.7 215.333C916.645 219.032 919.888 228.318 916.27 236.09ZM894.16 225.798C892.07 230.289 894.008 235.605 898.499 237.696C902.99 239.786 908.306 237.848 910.397 233.357C912.488 228.866 910.549 223.55 906.058 221.459C901.567 219.368 896.251 221.307 894.16 225.798Z" fill="#4F7EFC"/>
<path d="M916.273 236.093L910.227 233.279C912.318 228.788 910.379 223.472 905.888 221.381C901.397 219.29 896.081 221.229 893.991 225.72L887.945 222.906C891.564 215.133 900.93 211.717 908.703 215.335C916.648 219.034 919.891 228.32 916.273 236.093Z" fill="#14B0F2"/>
<path d="M935.419 171.899C937.066 172.876 938.713 173.853 940.279 175.002C941.846 176.152 943.412 177.301 944.898 178.624C944.898 178.624 940.139 185.235 943.296 188.386C946.453 191.537 953.055 186.835 953.055 186.835C954.288 188.249 955.441 189.836 956.593 191.424C957.746 193.011 958.645 194.691 959.717 196.451C959.717 196.451 953.023 200.9 954.925 204.939C955.837 207.044 958.151 207.491 960.453 207.512C962.582 207.452 964.527 206.886 964.527 206.886C965.173 208.658 965.739 210.603 966.305 212.548C966.871 214.492 967.264 216.357 967.657 218.221C967.657 218.221 959.786 220.231 960.25 224.651C960.634 229.243 968.657 229.615 968.657 229.615C968.625 231.492 968.511 233.541 968.479 235.417C968.366 237.466 968.16 239.262 967.701 241.15C967.701 241.15 959.666 240.351 958.508 244.646C957.269 249.113 964.604 252.318 964.604 252.318C963.973 254.125 963.169 255.853 962.284 257.753C961.48 259.48 960.676 261.207 959.619 263.027C959.619 263.027 952.272 259.397 949.824 263.301C947.283 266.952 953.067 272.587 953.067 272.587C951.744 274.073 950.422 275.559 949.18 276.872C947.685 278.278 946.443 279.591 944.856 280.744C944.856 280.744 939.233 274.764 935.645 277.506C931.964 279.996 935.493 287.313 935.493 287.313C933.813 288.213 932.133 289.112 930.281 289.931C928.428 290.75 926.656 291.396 924.804 292.215C924.804 292.215 923.985 290.363 922.66 288.695C921.335 287.027 919.503 285.544 917.132 286.122C912.817 287.265 913.722 295.253 913.722 295.253C911.858 295.646 909.902 295.786 907.864 296.099C905.908 296.239 903.951 296.378 902.075 296.346C902.075 296.346 901.596 288.346 896.98 287.879C892.536 287.492 890.621 295.217 890.541 295.39C888.572 295.104 886.684 294.645 884.796 294.186C882.908 293.728 881.1 293.096 879.292 292.465C879.292 292.465 881.633 284.728 877.488 282.798C873.342 280.868 868.929 287.64 868.929 287.64C867.282 286.664 865.635 285.687 864.068 284.537C862.502 283.388 860.935 282.238 859.449 280.916C859.449 280.916 864.208 274.304 861.052 271.153C857.895 268.003 851.292 272.705 851.292 272.705C850.059 271.29 848.907 269.703 847.754 268.116C846.602 266.528 845.702 264.849 844.63 263.089C844.63 263.089 851.325 258.639 849.422 254.601C848.511 252.495 846.197 252.049 843.895 252.028C841.765 252.087 839.821 252.653 839.821 252.653C839.174 250.881 838.609 248.936 838.043 246.992C837.477 245.047 837.084 243.183 836.691 241.318C836.691 241.318 844.562 239.308 844.097 234.889C843.713 230.296 835.69 229.924 835.69 229.924C835.723 228.048 835.836 225.999 835.869 224.123C835.982 222.074 836.188 220.278 836.646 218.39C836.646 218.39 844.681 219.188 845.84 214.894C847.079 210.426 839.744 207.222 839.744 207.222C840.375 205.414 841.179 203.687 842.064 201.787C842.868 200.06 843.672 198.332 844.729 196.513C844.729 196.513 852.076 200.143 854.524 196.239C857.064 192.588 851.281 186.953 851.281 186.953C852.603 185.467 853.926 183.981 855.167 182.667C856.662 181.262 857.904 179.948 859.492 178.796C859.492 178.796 865.114 184.776 868.703 182.033C872.384 179.543 868.855 172.226 868.855 172.226C870.535 171.327 872.214 170.427 874.067 169.608C875.919 168.789 877.518 168.063 879.543 167.324C879.543 167.324 880.362 169.177 881.688 170.844C883.013 172.512 884.845 173.995 887.215 173.418C891.53 172.274 890.625 164.287 890.625 164.287C892.489 163.894 894.446 163.754 896.483 163.441C898.44 163.301 900.396 163.161 902.273 163.194C902.273 163.194 902.752 171.193 907.368 171.661C911.811 172.048 913.726 164.323 913.807 164.15C915.775 164.436 917.664 164.894 919.552 165.353C921.44 165.812 923.247 166.443 925.055 167.074C925.055 167.074 922.714 174.812 926.86 176.741C930.833 178.591 935.419 171.899 935.419 171.899ZM954.461 224.898C954.461 224.898 954.461 224.898 954.553 225.151C954.553 225.151 954.38 225.071 954.461 224.898ZM938.685 255.173C940.076 253.089 941.547 250.831 942.673 248.413C943.799 245.995 944.672 243.669 945.279 241.01C946.208 237.659 946.619 234.068 946.777 230.568L933.426 231.709C933.188 235.381 932.271 239.157 930.582 242.784C928.893 246.412 926.675 249.372 923.938 252.091L931.66 263.042C934.236 260.668 936.72 258.041 938.685 255.173ZM914.057 209.662C913.366 209.34 912.755 208.846 912.064 208.524C911.373 208.202 910.682 207.881 909.911 207.732C903.198 205.447 896.063 206.329 890.276 209.73C889.943 209.995 889.69 210.087 889.356 210.352C889.023 210.617 888.769 210.71 888.436 210.975C886.181 212.657 884.112 214.846 882.48 217.449C882.399 217.622 882.399 217.622 882.319 217.795C882.158 218.14 881.917 218.658 881.756 219.004C881.595 219.349 881.515 219.522 881.354 219.867C875.966 231.44 881.044 245.363 892.617 250.751C904.19 256.138 918.113 251.06 923.5 239.488C923.58 239.315 923.661 239.142 923.741 238.969C924.304 237.76 924.694 236.471 925.084 235.181C925.084 235.181 925.084 235.181 925.165 235.008C925.784 232.775 925.805 230.473 925.746 228.343C925.734 227.918 925.641 227.664 925.63 227.239C925.618 226.813 925.525 226.56 925.513 226.134C924.045 219.355 920.126 213.328 914.057 209.662ZM898.21 273.95C903.424 274.486 908.523 273.918 913.598 272.497C916.981 271.55 920.352 270.177 923.458 268.471L915.736 257.52C908.925 260.864 901.018 261.597 893.373 259.509L887.664 271.773C891.279 273.036 894.71 273.792 898.21 273.95ZM858.431 238.409C859.125 241.884 860.245 245.348 861.698 248.547C863.878 253.344 866.978 257.52 870.492 261.257C872.946 263.661 875.906 265.879 878.855 267.672L884.564 255.408C877.964 251.075 873.515 244.38 871.69 237.015L858.431 238.409ZM865.65 203.94C864.259 206.025 862.788 208.282 861.663 210.701C860.537 213.119 859.664 215.445 859.057 218.104C858.127 221.454 857.716 225.046 857.559 228.545L870.909 227.405C871.148 223.733 872.065 219.957 873.754 216.329C875.442 212.702 877.661 209.742 880.398 207.023L872.676 196.072C870.1 198.446 867.616 201.072 865.65 203.94ZM905.953 185.083C900.739 184.547 895.467 185.035 890.565 186.536C887.182 187.483 883.811 188.856 880.705 190.563L888.427 201.513C895.238 198.169 903.145 197.436 910.79 199.524L916.499 187.26C912.976 186.251 909.545 185.494 905.953 185.083ZM919.599 203.625C926.199 207.958 930.648 214.653 932.473 222.018L945.824 220.877C945.13 217.402 944.011 213.938 942.557 210.74C940.377 205.942 937.277 201.767 933.763 198.029C931.136 195.545 928.349 193.407 925.4 191.614L919.772 203.705L919.599 203.625Z" fill="#4F7EFC"/>
<path d="M935.442 171.881C937.089 172.858 938.735 173.835 940.302 174.985C941.868 176.134 943.435 177.284 944.921 178.606C944.921 178.606 940.162 185.217 943.319 188.368C946.475 191.519 953.078 186.817 953.078 186.817C954.311 188.231 955.463 189.819 956.616 191.406C957.768 192.993 958.668 194.673 959.74 196.433C959.74 196.433 953.045 200.882 954.948 204.921C955.859 207.026 958.173 207.473 960.475 207.494C962.605 207.434 964.55 206.869 964.55 206.869C965.196 208.641 965.762 210.585 966.327 212.53C966.893 214.475 967.286 216.339 967.679 218.203C967.679 218.203 959.808 220.213 960.273 224.633C960.657 229.225 968.68 229.598 968.68 229.598C968.647 231.474 968.534 233.523 968.501 235.399C968.388 237.448 968.183 239.244 967.724 241.132C967.724 241.132 959.689 240.334 958.53 244.628C957.292 249.095 964.627 252.3 964.627 252.3C963.995 254.108 963.191 255.835 962.307 257.735L942.443 248.488C943.568 246.069 944.441 243.744 945.049 241.084C945.978 237.734 946.389 234.142 946.547 230.643L933.196 231.783C932.957 235.455 932.04 239.232 930.351 242.859L923.097 239.482C923.177 239.309 923.258 239.136 923.338 238.963C923.901 237.754 924.291 236.465 924.681 235.175C924.681 235.175 924.681 235.175 924.762 235.003C925.381 232.769 925.402 230.467 925.342 228.338C925.33 227.912 925.238 227.659 925.226 227.233C925.214 226.807 925.122 226.554 925.11 226.128C923.987 219.51 920.068 213.483 913.999 209.816C913.308 209.495 912.697 209 912.007 208.679C911.316 208.357 910.625 208.036 909.853 207.887C903.141 205.602 896.005 206.484 890.219 209.885C889.885 210.15 889.632 210.242 889.298 210.507C888.965 210.772 888.712 210.865 888.378 211.13C886.124 212.812 884.054 215.001 882.422 217.604C882.341 217.777 882.341 217.777 882.261 217.949C882.1 218.295 881.859 218.813 881.698 219.159C881.537 219.504 881.457 219.677 881.296 220.022L874.041 216.645C875.73 213.018 877.949 210.057 880.686 207.338L872.963 196.388C870.387 198.761 867.904 201.388 865.938 204.256C864.547 206.341 863.076 208.598 861.95 211.016L842.086 201.769C842.89 200.042 843.694 198.314 844.752 196.495C844.752 196.495 852.099 200.125 854.547 196.221C857.087 192.57 851.304 186.935 851.304 186.935C852.626 185.449 853.948 183.963 855.19 182.65C856.685 181.244 857.927 179.931 859.514 178.778C859.514 178.778 865.137 184.758 868.726 182.015C872.407 179.526 868.878 172.208 868.878 172.208C870.557 171.309 872.237 170.41 874.089 169.591C875.942 168.772 877.541 168.045 879.566 167.306C879.566 167.306 880.385 169.159 881.71 170.827C883.036 172.494 884.867 173.978 887.238 173.4C891.553 172.256 890.648 164.269 890.648 164.269C892.512 163.876 894.469 163.736 896.506 163.423C898.462 163.283 900.419 163.143 902.295 163.176C902.295 163.176 902.775 171.175 907.391 171.643C911.834 172.03 913.749 164.305 913.829 164.132C915.798 164.418 917.686 164.877 919.574 165.335C921.462 165.794 923.27 166.425 925.078 167.057C925.078 167.057 922.737 174.794 926.882 176.724C930.855 178.573 935.442 171.881 935.442 171.881ZM905.976 185.065C900.761 184.529 895.49 185.017 890.588 186.518C887.205 187.465 883.834 188.838 880.727 190.545L888.45 201.495C895.261 198.151 903.168 197.418 910.812 199.506L916.522 187.242C912.998 186.233 909.568 185.476 905.976 185.065ZM919.622 203.607C926.221 207.94 930.67 214.635 932.496 222L945.847 220.86C945.153 217.384 944.033 213.921 942.58 210.722C940.4 205.924 937.3 201.749 933.786 198.011C931.159 195.528 928.371 193.389 925.423 191.596L919.794 203.688L919.622 203.607Z" fill="#14B0F2"/>
<path d="M1988 635.053H272.5H0L4.57764e-05 181.554C4.57764e-05 12.0537 4.49993 174.554 66.5 176.554C133.465 178.714 128 96.5537 220.5 96.5537C313 96.5537 425 300.553 580 216.053C697.96 151.746 767.522 152.108 816 180.553C876.5 216.053 936.501 328.553 1069 253.053C1201.5 177.553 1250.5 187.053 1296.5 196.053C1342.5 205.053 1496.4 304.817 1560 163.053C1619 31.5533 1753.5 5.09181 1784 1.55427C1814.5 -1.98326 1919.2 -5.07668 1962 59.5519C2038.5 175.052 1988 635.053 1988 635.053Z" fill="#C4C4C4"/>
<path d="M1988 635.053H272.5H0L4.57764e-05 181.554C4.57764e-05 12.0537 4.49993 174.554 66.5 176.554C133.465 178.714 128 96.5537 220.5 96.5537C313 96.5537 425 300.553 580 216.053C697.96 151.746 767.522 152.108 816 180.553C876.5 216.053 936.501 328.553 1069 253.053C1201.5 177.553 1250.5 187.053 1296.5 196.053C1342.5 205.053 1496.4 304.817 1560 163.053C1619 31.5533 1753.5 5.09181 1784 1.55427C1814.5 -1.98326 1919.2 -5.07668 1962 59.5519C2038.5 175.052 1988 635.053 1988 635.053Z" fill="url(#paint3_linear)"/>
<defs>
<linearGradient id="paint0_linear" x1="-359.629" y1="625.554" x2="1613.94" y2="988.99" gradientUnits="userSpaceOnUse">
<stop stop-color="#0FF0E3"/>
<stop offset="1" stop-color="#00D1FF"/>
</linearGradient>
<linearGradient id="paint1_linear" x1="808.5" y1="148.274" x2="614.5" y2="151.774" gradientUnits="userSpaceOnUse">
<stop stop-color="#06DDF4"/>
<stop offset="1" stop-color="#09E3EF"/>
</linearGradient>
<linearGradient id="paint2_linear" x1="313.06" y1="103.528" x2="581.3" y2="193.102" gradientUnits="userSpaceOnUse">
<stop stop-color="#0BE8EB"/>
<stop offset="1" stop-color="#09E3EF"/>
</linearGradient>
<linearGradient id="paint3_linear" x1="245.324" y1="169.623" x2="1460.07" y2="972.047" gradientUnits="userSpaceOnUse">
<stop stop-color="#10B3F1"/>
<stop offset="1" stop-color="#6070FF"/>
</linearGradient>
</defs>
</svg>
