<svg width="1565" height="638" viewBox="0 0 1565 638" fill="none" xmlns="http://www.w3.org/2000/svg">
<path d="M1565 624H7V53.5C61 125.5 185 212.5 313.5 193.5C435.5 175.461 494.5 95.5 619.5 184C744.5 272.5 904.5 179 935.5 164C966.5 149 1027 100.5 1164.5 125C1302 149.5 1334.5 107.5 1394.5 69C1442.5 38.2 1528.17 20.1667 1565 15V624Z" fill="url(#paint0_linear)"/>
<path d="M735.629 259.422C728.668 275.294 710.297 282.463 694.426 275.502C678.555 268.541 671.386 250.17 678.347 234.299C685.308 218.427 703.678 211.258 719.55 218.219C735.239 225.1 742.51 243.733 735.629 259.422ZM692.576 240.54C689.136 248.384 692.72 257.569 700.565 261.01C708.409 264.45 717.594 260.866 721.035 253.021C724.475 245.177 720.891 235.992 713.046 232.551C705.202 229.111 696.017 232.695 692.576 240.54Z" fill="#ECB513"/>
<path d="M721.766 253.341C718.166 261.55 708.455 265.339 700.246 261.739C692.037 258.138 688.247 248.428 691.848 240.219C695.448 232.009 705.159 228.22 713.368 231.82C721.76 235.501 725.367 245.131 721.766 253.341ZM698.415 243.099C696.335 247.842 698.486 253.353 703.229 255.434C707.972 257.514 713.483 255.363 715.563 250.62C717.644 245.877 715.493 240.366 710.75 238.285C706.007 236.205 700.495 238.356 698.415 243.099Z" fill="#FFBF01"/>
<path d="M721.77 253.343L715.385 250.542C717.465 245.799 715.314 240.288 710.571 238.208C705.828 236.127 700.316 238.278 698.236 243.021L691.851 240.221C695.452 232.012 705.162 228.222 713.371 231.823C721.763 235.503 725.37 245.133 721.77 253.343Z" fill="#FFD862"/>
<path d="M740.281 185.796C742.025 186.778 743.77 187.761 745.434 188.926C747.098 190.091 748.763 191.256 750.347 192.603C750.347 192.603 745.527 199.625 748.9 202.845C752.274 206.064 759.065 200.995 759.065 200.995C760.387 202.445 761.629 204.077 762.87 205.709C764.112 207.341 765.092 209.076 766.253 210.891C766.253 210.891 759.359 215.698 761.443 219.875C762.445 222.054 764.874 222.467 767.281 222.435C769.505 222.323 771.525 221.686 771.525 221.686C772.242 223.523 772.878 225.543 773.515 227.562C774.152 229.582 774.607 231.521 775.061 233.461C775.061 233.461 766.881 235.746 767.47 240.355C767.979 245.146 776.373 245.347 776.373 245.347C776.383 247.309 776.313 249.454 776.322 251.416C776.252 253.56 776.079 255.442 775.644 257.426C775.644 257.426 767.226 256.78 766.116 261.296C764.925 265.994 772.667 269.172 772.667 269.172C772.05 271.076 771.25 272.901 770.369 274.907C769.569 276.732 768.769 278.556 767.707 280.483C767.707 280.483 759.942 276.86 757.475 280.998C754.905 284.874 761.082 290.628 761.082 290.628C759.734 292.212 758.387 293.797 757.119 295.198C755.59 296.703 754.322 298.105 752.69 299.346C752.69 299.346 746.673 293.227 742.986 296.178C739.197 298.866 743.056 306.432 743.056 306.432C741.322 307.412 739.587 308.391 737.67 309.29C735.753 310.19 733.916 310.907 731.999 311.806C731.999 311.806 731.099 309.889 729.675 308.177C728.251 306.464 726.302 304.957 723.837 305.616C719.354 306.912 720.487 315.24 720.487 315.24C718.547 315.695 716.505 315.887 714.383 316.261C712.341 316.453 710.299 316.645 708.337 316.655C708.337 316.655 707.649 308.305 702.813 307.924C698.16 307.623 696.339 315.743 696.259 315.925C694.194 315.672 692.21 315.237 690.226 314.802C688.242 314.367 686.337 313.749 684.433 313.131C684.433 313.131 686.699 304.989 682.321 303.069C677.942 301.149 673.487 308.33 673.487 308.33C671.743 307.348 669.999 306.365 668.334 305.2C666.67 304.035 665.006 302.87 663.422 301.523C663.422 301.523 668.242 294.501 664.868 291.281C661.495 288.062 654.703 293.131 654.703 293.131C653.382 291.682 652.14 290.049 650.898 288.417C649.656 286.785 648.677 285.05 647.515 283.235C647.515 283.235 654.409 278.428 652.325 274.252C651.324 272.072 648.894 271.659 646.488 271.691C644.263 271.803 642.244 272.44 642.244 272.44C641.527 270.603 640.89 268.584 640.253 266.564C639.616 264.545 639.162 262.605 638.707 260.666C638.707 260.666 646.888 258.38 646.299 253.772C645.79 248.98 637.395 248.779 637.395 248.779C637.385 246.817 637.456 244.673 637.446 242.711C637.516 240.566 637.689 238.684 638.125 236.7C638.125 236.7 646.542 237.347 647.652 232.831C648.843 228.132 641.101 224.954 641.101 224.954C641.719 223.05 642.519 221.226 643.399 219.219C644.199 217.395 644.999 215.57 646.062 213.644C646.062 213.644 653.826 217.267 656.294 213.128C658.864 209.253 652.687 203.498 652.687 203.498C654.034 201.914 655.381 200.33 656.649 198.928C658.179 197.424 659.446 196.022 661.078 194.78C661.078 194.78 667.095 200.899 670.782 197.948C674.572 195.26 670.712 187.694 670.712 187.694C672.447 186.715 674.181 185.735 676.098 184.836C678.015 183.937 679.67 183.14 681.77 182.32C681.77 182.32 682.669 184.237 684.093 185.95C685.517 187.662 687.466 189.169 689.931 188.51C694.415 187.214 693.282 178.886 693.282 178.886C695.221 178.432 697.263 178.24 699.385 177.865C701.427 177.673 703.469 177.481 705.431 177.471C705.431 177.471 706.119 185.822 710.955 186.202C715.609 186.503 717.43 178.384 717.51 178.201C719.574 178.454 721.558 178.889 723.543 179.324C725.527 179.76 727.431 180.377 729.335 180.995C729.335 180.995 727.07 189.137 731.448 191.057C735.644 192.898 740.281 185.796 740.281 185.796ZM761.424 240.748C761.424 240.748 761.424 240.748 761.526 241.011C761.526 241.011 761.344 240.931 761.424 240.748ZM745.642 272.763C747.047 270.551 748.532 268.157 749.653 265.603C750.773 263.049 751.63 260.598 752.203 257.804C753.096 254.28 753.442 250.516 753.525 246.855L739.597 248.359C739.433 252.203 738.563 256.172 736.883 260.003C735.202 263.834 732.952 266.98 730.155 269.886L738.483 281.152C741.12 278.61 743.655 275.807 745.642 272.763ZM718.835 225.767C718.105 225.447 717.455 224.944 716.726 224.624C715.996 224.304 715.266 223.984 714.456 223.847C707.387 221.616 699.949 222.704 693.98 226.394C693.637 226.679 693.375 226.782 693.032 227.066C692.69 227.351 692.427 227.454 692.085 227.739C689.768 229.55 687.655 231.886 686.01 234.645C685.93 234.828 685.93 234.828 685.85 235.01C685.69 235.375 685.45 235.922 685.29 236.287C685.13 236.652 685.05 236.834 684.89 237.199C679.529 249.422 685.162 263.856 697.385 269.217C709.608 274.578 724.042 268.945 729.403 256.722C729.483 256.54 729.563 256.357 729.643 256.175C730.203 254.898 730.581 253.541 730.958 252.184C730.958 252.184 730.958 252.184 731.038 252.001C731.634 249.652 731.602 247.245 731.49 245.021C731.467 244.576 731.365 244.314 731.342 243.869C731.32 243.424 731.218 243.162 731.195 242.717C729.502 235.666 725.265 229.457 718.835 225.767ZM703.773 293.336C709.237 293.774 714.553 293.061 719.824 291.457C723.338 290.388 726.83 288.874 730.037 287.018L721.709 275.752C714.668 279.407 706.42 280.358 698.381 278.354L692.7 291.307C696.508 292.542 700.112 293.253 703.773 293.336ZM661.363 257.116C662.17 260.733 663.421 264.327 665.015 267.636C667.406 272.6 670.744 276.892 674.505 280.717C677.126 283.171 680.272 285.421 683.396 287.226L689.077 274.274C682.077 269.899 677.27 263.005 675.19 255.349L661.363 257.116ZM668.104 220.918C666.699 223.13 665.214 225.524 664.093 228.078C662.973 230.632 662.115 233.084 661.543 235.878C660.65 239.401 660.304 243.165 660.221 246.826L674.149 245.322C674.313 241.478 675.183 237.51 676.863 233.679C678.544 229.848 680.794 226.702 683.591 223.796L675.263 212.53C672.626 215.071 670.091 217.875 668.104 220.918ZM709.79 200.265C704.327 199.827 698.828 200.461 693.74 202.144C690.225 203.213 686.734 204.727 683.527 206.583L691.854 217.849C698.896 214.194 707.143 213.243 715.183 215.247L720.864 202.294C717.158 201.322 713.554 200.611 709.79 200.265ZM724.487 219.327C731.486 223.703 736.294 230.596 738.374 238.252L752.302 236.748C751.496 233.131 750.245 229.537 748.651 226.228C746.26 221.264 742.922 216.972 739.161 213.147C736.357 210.613 733.394 208.443 730.27 206.637L724.669 219.407L724.487 219.327Z" fill="#FFBF01"/>
<path d="M740.304 185.777C742.049 186.759 743.793 187.742 745.457 188.907C747.121 190.072 748.786 191.237 750.37 192.584C750.37 192.584 745.55 199.606 748.923 202.826C752.297 206.045 759.088 200.976 759.088 200.976C760.41 202.426 761.652 204.058 762.894 205.69C764.135 207.322 765.115 209.057 766.276 210.872C766.276 210.872 759.383 215.679 761.466 219.856C762.468 222.035 764.897 222.448 767.304 222.416C769.528 222.304 771.548 221.667 771.548 221.667C772.265 223.504 772.902 225.524 773.538 227.543C774.175 229.563 774.63 231.502 775.084 233.442C775.084 233.442 766.904 235.727 767.493 240.336C768.002 245.127 776.397 245.328 776.397 245.328C776.406 247.29 776.336 249.435 776.345 251.396C776.275 253.541 776.102 255.423 775.667 257.407C775.667 257.407 767.25 256.761 766.139 261.276C764.948 265.975 772.691 269.153 772.691 269.153C772.073 271.057 771.273 272.881 770.393 274.888L749.413 265.687C750.533 263.133 751.391 260.681 751.964 257.887C752.857 254.363 753.203 250.6 753.286 246.938L739.357 248.443C739.194 252.286 738.323 256.255 736.643 260.086L728.981 256.726C729.061 256.543 729.141 256.361 729.221 256.178C729.781 254.901 730.159 253.544 730.537 252.187C730.537 252.187 730.537 252.187 730.617 252.005C731.212 249.656 731.18 247.249 731.068 245.024C731.045 244.58 730.943 244.317 730.921 243.872C730.898 243.427 730.796 243.165 730.773 242.72C729.445 235.829 725.208 229.62 718.778 225.93C718.048 225.61 717.398 225.108 716.669 224.788C715.939 224.468 715.209 224.148 714.4 224.01C707.33 221.779 699.892 222.867 693.923 226.558C693.58 226.843 693.318 226.945 692.975 227.23C692.633 227.515 692.371 227.617 692.028 227.902C689.711 229.713 687.599 232.05 685.954 234.809C685.874 234.991 685.874 234.991 685.794 235.174C685.634 235.538 685.393 236.086 685.233 236.45C685.073 236.815 684.993 236.998 684.833 237.363L677.171 234.002C678.852 230.171 681.102 227.025 683.899 224.119L675.571 212.853C672.934 215.394 670.399 218.198 668.412 221.242C667.007 223.453 665.522 225.847 664.401 228.401L643.422 219.2C644.222 217.376 645.022 215.551 646.085 213.625C646.085 213.625 653.849 217.248 656.317 213.109C658.887 209.234 652.71 203.479 652.71 203.479C654.057 201.895 655.405 200.311 656.672 198.909C658.202 197.404 659.469 196.003 661.102 194.761C661.102 194.761 667.118 200.88 670.805 197.929C674.595 195.241 670.735 187.675 670.735 187.675C672.47 186.696 674.204 185.716 676.121 184.817C678.039 183.917 679.693 183.121 681.793 182.301C681.793 182.301 682.692 184.218 684.116 185.931C685.54 187.643 687.49 189.15 689.954 188.491C694.438 187.195 693.305 178.867 693.305 178.867C695.244 178.413 697.286 178.221 699.408 177.846C701.45 177.654 703.492 177.462 705.454 177.452C705.454 177.452 706.142 185.802 710.978 186.183C715.632 186.484 717.453 178.364 717.533 178.182C719.597 178.435 721.581 178.87 723.566 179.305C725.55 179.741 727.454 180.358 729.359 180.976C729.359 180.976 727.093 189.118 731.471 191.038C735.667 192.879 740.304 185.777 740.304 185.777ZM709.813 200.246C704.35 199.808 698.851 200.442 693.763 202.125C690.249 203.194 686.757 204.708 683.55 206.564L691.878 217.83C698.919 214.175 707.166 213.224 715.206 215.228L720.887 202.275C717.181 201.302 713.577 200.592 709.813 200.246ZM724.51 219.308C731.509 223.684 736.317 230.577 738.397 238.233L752.326 236.729C751.519 233.112 750.268 229.518 748.674 226.209C746.283 221.245 742.945 216.953 739.184 213.128C736.381 210.593 733.417 208.423 730.293 206.618L724.692 219.388L724.51 219.308Z" fill="#FFD862"/>
<path d="M392 166.721C431.833 143.221 528.6 108.821 597 159.221C568 131.054 486.4 93.1208 392 166.721Z" fill="url(#paint1_linear)"/>
<path d="M79 108.662C115.352 142.615 214.769 204.514 321.617 180.491C278.68 184.976 170.045 176.889 79 108.662Z" fill="url(#paint2_linear)"/>
<path d="M1538.5 637.5H49.5H0V111.5C137.5 111.5 202 303 357 218.5C474.96 154.193 544.522 154.554 593 183C653.5 218.5 713.5 331 846 255.5C978.5 180 1027.5 189.5 1073.5 198.5C1119.5 207.5 1273.4 307.264 1337 165.5C1396 34 1497.83 0.666667 1538.5 0V637.5Z" fill="url(#paint3_linear)"/>
<defs>
<linearGradient id="paint0_linear" x1="-1008" y1="194.5" x2="-377.833" y2="1539.35" gradientUnits="userSpaceOnUse">
<stop stop-color="#FF4249"/>
<stop offset="1" stop-color="#FB8185"/>
</linearGradient>
<linearGradient id="paint1_linear" x1="204.5" y1="103" x2="220.701" y2="213.866" gradientUnits="userSpaceOnUse">
<stop stop-color="#FF4249"/>
<stop offset="1" stop-color="#FB8185"/>
</linearGradient>
<linearGradient id="paint2_linear" x1="-142.456" y1="72.6021" x2="-92.4687" y2="273.466" gradientUnits="userSpaceOnUse">
<stop stop-color="#FF4249"/>
<stop offset="1" stop-color="#FB8185"/>
</linearGradient>
<linearGradient id="paint3_linear" x1="1930" y1="524" x2="1568.4" y2="-865.955" gradientUnits="userSpaceOnUse">
<stop offset="0.0001" stop-color="#CA113D"/>
<stop offset="1" stop-color="#FF506F"/>
</linearGradient>
</defs>
</svg>
