<svg width="322" height="306" viewBox="0 0 322 306" fill="none" xmlns="http://www.w3.org/2000/svg">
<path d="M15.501 153.453C15.501 141.953 6.50098 125.953 0.000976562 117.953C18.001 150.953 3.50098 182.953 0.000976562 196.953C6.00098 185.453 15.501 166.453 15.501 153.453Z" fill="#C4C4C4"/>
<path d="M15.501 153.453C15.501 141.953 6.50098 125.953 0.000976562 117.953C18.001 150.953 3.50098 182.953 0.000976562 196.953C6.00098 185.453 15.501 166.453 15.501 153.453Z" fill="url(#paint0_linear)"/>
<path d="M37.5009 26.9531C87.0009 -22.5471 173.001 7.61981 205.501 26.9531C239.334 43.7864 309.201 86.8529 318.001 124.453C329.001 171.453 315.5 228.514 228.501 247.453C155 263.453 104.5 330.453 46.0008 296.453C-12.4991 262.453 13.387 203.197 26.0009 166.453C37.501 132.953 -27.0523 91.5065 37.5009 26.9531Z" fill="url(#paint1_linear)"/>
<defs>
<linearGradient id="paint0_linear" x1="-8.59646" y1="112.152" x2="32.7312" y2="194.594" gradientUnits="userSpaceOnUse">
<stop stop-color="#4D8FF8"/>
<stop offset="1" stop-color="#1BDDE7"/>
</linearGradient>
<linearGradient id="paint1_linear" x1="20.5004" y1="321.453" x2="333.502" y2="417.007" gradientUnits="userSpaceOnUse">
<stop stop-color="#02D1FD"/>
<stop offset="1" stop-color="#0FF0E3"/>
</linearGradient>
</defs>
</svg>
