<svg width="1899" height="1115" viewBox="0 0 1899 1115" fill="none" xmlns="http://www.w3.org/2000/svg">
<path d="M409.472 133.497C384.326 70.2343 315.746 39.6279 270.483 47.1069C225.22 54.5859 148.121 2.80241 96 182C96.1278 222.935 1.00009 6.91945 1 78.5C0.999939 195.497 8.50001 656.283 8.5 731.5C198.695 676.21 226.592 880.822 269.569 963.338C312.545 1045.85 404.442 1074.41 543.431 1027.02C717.167 967.781 826.895 967.781 929.308 1040.35C1031.72 1112.92 1147.39 1117.85 1356.33 1027.02C1523.48 954.353 1643.91 969.636 1693.75 993.825C1743.58 1018.01 1864.74 1129.09 1894 1062.44V672.453V501.647C1894 446.358 1877.54 591.493 1831.82 570.76C1786.1 550.026 1793.42 490.787 1682.77 512.508C1572.13 534.229 1505.84 387.732 1356.33 360.58C1206.83 333.429 1160.65 409.453 1054.58 426.237C948.51 443.021 903.248 416.857 826.895 342.809C750.543 268.76 695.679 271.722 586.865 280.114C478.052 288.506 446.599 226.905 409.472 133.497Z" fill="url(#paint0_linear)"/>
<path d="M373.925 121.235C354.903 22.8749 290.468 -9.50683 231.722 2.32498C172.975 14.1568 153.903 73.3148 107.236 73.3148C37.7656 73.3148 5.44585e-05 -25.3509 5.78491e-05 31.1335L3.83156e-05 187.235C7.69012e-06 375.871 -3.84103e-05 659.824 5.7851e-05 712.762C0.000259905 823.881 214.471 541.53 275.082 835.788C335.694 1130.05 524.987 1073.97 637.818 1022.53C750.648 971.085 907.305 977.259 1017.34 1047.74C1127.37 1118.21 1278.43 1164.51 1399.66 1022.53C1496.63 908.941 1672.41 918.174 1744.21 954.109C1816.01 990.044 1899 1021.94 1899 954.109V686.012C1899 553.801 1894.8 579.523 1850.98 590.841C1807.15 602.158 1799.22 545.056 1754.46 548.657C1709.71 552.258 1628.58 661.394 1599.67 581.142C1549.15 440.877 1484.51 494.717 1399.66 398.002C1314.8 301.288 1171.2 328.039 1049.97 373.309C928.752 418.58 839.864 377.14 784.684 328.039C712.416 263.734 649.007 265.792 541.772 284.312C434.537 302.832 397.704 244.186 373.925 121.235Z" fill="url(#paint1_linear)"/>
<defs>
<linearGradient id="paint0_linear" x1="2722.99" y1="786.159" x2="792.562" y2="-1910.25" gradientUnits="userSpaceOnUse">
<stop offset="0.0001" stop-color="#E45E13"/>
<stop offset="1" stop-color="#F3943C"/>
</linearGradient>
<linearGradient id="paint1_linear" x1="-68.0115" y1="472.503" x2="800.927" y2="2029.33" gradientUnits="userSpaceOnUse">
<stop stop-color="#FF7B01"/>
<stop offset="1" stop-color="#FFC9A3"/>
</linearGradient>
</defs>
</svg>
