<svg width="1440" height="638" viewBox="0 0 1440 638" fill="none" xmlns="http://www.w3.org/2000/svg">
<path d="M1498 624H-60V53.5C-6 125.5 118 212.5 246.5 193.5C368.5 175.461 427.5 95.5 552.5 184C677.5 272.5 837.5 179 868.5 164C899.5 149 960 100.5 1097.5 125C1235 149.5 1267.5 107.5 1327.5 69C1375.5 38.2 1461.17 20.1667 1498 15V624Z" fill="url(#paint0_linear)"/>
<path d="M668.628 259.422C661.667 275.293 643.296 282.463 627.425 275.502C611.554 268.541 604.385 250.17 611.346 234.298C618.307 218.427 636.677 211.258 652.549 218.219C668.238 225.1 675.509 243.733 668.628 259.422ZM625.575 240.539C622.135 248.384 625.719 257.569 633.564 261.01C641.408 264.45 650.593 260.866 654.034 253.021C657.474 245.177 653.89 235.991 646.045 232.551C638.201 229.11 629.016 232.695 625.575 240.539Z" fill="#ECB513"/>
<path d="M654.766 253.34C651.166 261.55 641.455 265.339 633.246 261.738C625.037 258.138 621.247 248.428 624.848 240.218C628.448 232.009 638.159 228.22 646.368 231.82C654.76 235.501 658.367 245.131 654.766 253.34ZM631.415 243.099C629.335 247.842 631.486 253.353 636.229 255.433C640.972 257.514 646.483 255.363 648.563 250.62C650.644 245.877 648.493 240.365 643.75 238.285C639.007 236.205 633.495 238.356 631.415 243.099Z" fill="#FFBF01"/>
<path d="M654.768 253.343L648.383 250.542C650.463 245.799 648.312 240.288 643.569 238.207C638.826 236.127 633.315 238.278 631.234 243.021L624.849 240.221C628.45 232.011 638.16 228.222 646.369 231.822C654.761 235.503 658.368 245.133 654.768 253.343Z" fill="#FFD862"/>
<path d="M673.279 185.795C675.024 186.778 676.768 187.761 678.432 188.926C680.096 190.091 681.761 191.255 683.345 192.603C683.345 192.603 678.525 199.625 681.898 202.845C685.272 206.064 692.063 200.995 692.063 200.995C693.385 202.444 694.627 204.077 695.868 205.709C697.11 207.341 698.09 209.076 699.251 210.891C699.251 210.891 692.358 215.698 694.441 219.874C695.443 222.054 697.872 222.467 700.279 222.435C702.503 222.323 704.523 221.686 704.523 221.686C705.24 223.523 705.876 225.542 706.513 227.562C707.15 229.581 707.605 231.521 708.059 233.46C708.059 233.46 699.879 235.746 700.468 240.354C700.977 245.145 709.372 245.347 709.372 245.347C709.381 247.309 709.311 249.453 709.32 251.415C709.25 253.56 709.077 255.441 708.642 257.426C708.642 257.426 700.225 256.779 699.114 261.295C697.923 265.994 705.665 269.172 705.665 269.172C705.048 271.076 704.248 272.9 703.367 274.907C702.567 276.731 701.767 278.556 700.705 280.482C700.705 280.482 692.94 276.859 690.473 280.998C687.903 284.873 694.08 290.628 694.08 290.628C692.732 292.212 691.385 293.796 690.117 295.198C688.588 296.702 687.32 298.104 685.688 299.346C685.688 299.346 679.671 293.227 675.984 296.178C672.195 298.866 676.055 306.432 676.055 306.432C674.32 307.411 672.585 308.391 670.668 309.29C668.751 310.189 666.914 310.906 664.997 311.806C664.997 311.806 664.097 309.889 662.673 308.176C661.249 306.464 659.3 304.957 656.836 305.616C652.352 306.912 653.485 315.24 653.485 315.24C651.545 315.694 649.503 315.886 647.381 316.261C645.339 316.453 643.297 316.645 641.336 316.655C641.336 316.655 640.647 308.304 635.811 307.924C631.158 307.623 629.337 315.742 629.257 315.925C627.193 315.672 625.208 315.237 623.224 314.802C621.24 314.366 619.335 313.749 617.431 313.131C617.431 313.131 619.697 304.989 615.319 303.069C610.94 301.148 606.485 308.33 606.485 308.33C604.741 307.348 602.997 306.365 601.332 305.2C599.668 304.035 598.004 302.87 596.42 301.523C596.42 301.523 601.24 294.501 597.866 291.281C594.493 288.061 587.701 293.131 587.701 293.131C586.38 291.681 585.138 290.049 583.896 288.417C582.654 286.784 581.675 285.05 580.513 283.235C580.513 283.235 587.407 278.428 585.323 274.251C584.322 272.072 581.892 271.659 579.486 271.691C577.261 271.803 575.242 272.44 575.242 272.44C574.525 270.603 573.888 268.583 573.251 266.564C572.614 264.544 572.16 262.605 571.705 260.665C571.705 260.665 579.886 258.38 579.297 253.771C578.788 248.98 570.393 248.779 570.393 248.779C570.383 246.817 570.454 244.672 570.444 242.71C570.514 240.566 570.687 238.684 571.123 236.7C571.123 236.7 579.54 237.346 580.65 232.83C581.841 228.132 574.099 224.954 574.099 224.954C574.717 223.05 575.517 221.225 576.397 219.219C577.197 217.394 577.997 215.57 579.06 213.643C579.06 213.643 586.824 217.266 589.292 213.128C591.862 209.252 585.685 203.498 585.685 203.498C587.032 201.914 588.38 200.329 589.647 198.927C591.177 197.423 592.444 196.021 594.076 194.78C594.076 194.78 600.093 200.899 603.78 197.948C607.57 195.26 603.71 187.694 603.71 187.694C605.445 186.714 607.179 185.735 609.096 184.836C611.013 183.936 612.668 183.139 614.768 182.32C614.768 182.32 615.667 184.237 617.091 185.949C618.515 187.662 620.465 189.169 622.929 188.51C627.413 187.213 626.28 178.886 626.28 178.886C628.219 178.431 630.261 178.239 632.383 177.865C634.425 177.673 636.467 177.481 638.429 177.471C638.429 177.471 639.117 185.821 643.953 186.202C648.607 186.503 650.428 178.383 650.508 178.201C652.572 178.454 654.556 178.889 656.541 179.324C658.525 179.759 660.429 180.377 662.333 180.995C662.333 180.995 660.068 189.137 664.446 191.057C668.642 192.897 673.279 185.795 673.279 185.795ZM694.422 240.748C694.422 240.748 694.422 240.748 694.524 241.01C694.524 241.01 694.342 240.93 694.422 240.748ZM678.64 272.763C680.045 270.551 681.53 268.157 682.651 265.603C683.771 263.049 684.629 260.598 685.201 257.804C686.094 254.28 686.44 250.516 686.523 246.855L672.595 248.359C672.431 252.203 671.561 256.171 669.881 260.002C668.2 263.833 665.95 266.979 663.153 269.886L671.481 281.151C674.118 278.61 676.653 275.806 678.64 272.763ZM651.833 225.767C651.103 225.447 650.453 224.944 649.724 224.624C648.994 224.304 648.264 223.984 647.455 223.846C640.385 221.616 632.947 222.704 626.978 226.394C626.635 226.679 626.373 226.781 626.03 227.066C625.688 227.351 625.425 227.453 625.083 227.738C622.766 229.55 620.654 231.886 619.008 234.645C618.928 234.827 618.928 234.827 618.848 235.01C618.688 235.375 618.448 235.922 618.288 236.287C618.128 236.652 618.048 236.834 617.888 237.199C612.528 249.422 618.16 263.856 630.383 269.217C642.606 274.578 657.04 268.945 662.401 256.722C662.481 256.539 662.561 256.357 662.641 256.175C663.201 254.898 663.579 253.541 663.956 252.184C663.956 252.184 663.956 252.184 664.036 252.001C664.632 249.652 664.6 247.245 664.488 245.021C664.465 244.576 664.363 244.313 664.34 243.869C664.318 243.424 664.216 243.161 664.193 242.716C662.5 235.666 658.263 229.457 651.833 225.767ZM636.772 293.336C642.235 293.774 647.551 293.06 652.822 291.457C656.336 290.388 659.828 288.874 663.035 287.018L654.707 275.752C647.666 279.407 639.418 280.358 631.379 278.354L625.698 291.307C629.506 292.542 633.11 293.253 636.772 293.336ZM594.362 257.116C595.168 260.732 596.419 264.327 598.013 267.636C600.404 272.6 603.742 276.892 607.503 280.716C610.124 283.171 613.27 285.421 616.394 287.226L622.075 274.274C615.075 269.899 610.268 263.005 608.188 255.349L594.362 257.116ZM601.102 220.918C599.697 223.13 598.212 225.524 597.091 228.078C595.971 230.632 595.114 233.083 594.541 235.877C593.648 239.401 593.302 243.165 593.219 246.826L607.147 245.322C607.311 241.478 608.181 237.509 609.861 233.678C611.542 229.847 613.792 226.701 616.589 223.795L608.261 212.53C605.624 215.071 603.089 217.874 601.102 220.918ZM642.788 200.265C637.325 199.827 631.826 200.46 626.738 202.144C623.223 203.213 619.732 204.727 616.525 206.583L624.853 217.849C631.894 214.194 640.141 213.243 648.181 215.247L653.862 202.294C650.156 201.321 646.552 200.611 642.788 200.265ZM657.485 219.327C664.484 223.702 669.292 230.596 671.372 238.252L685.3 236.747C684.494 233.131 683.243 229.537 681.649 226.227C679.258 221.263 675.92 216.972 672.159 213.147C669.356 210.612 666.392 208.442 663.268 206.637L657.667 219.407L657.485 219.327Z" fill="#FFBF01"/>
<path d="M673.304 185.776C675.049 186.759 676.793 187.742 678.457 188.907C680.121 190.072 681.786 191.236 683.37 192.584C683.37 192.584 678.55 199.606 681.923 202.826C685.297 206.045 692.088 200.976 692.088 200.976C693.41 202.425 694.652 204.058 695.894 205.69C697.135 207.322 698.115 209.057 699.276 210.872C699.276 210.872 692.383 215.679 694.466 219.855C695.468 222.035 697.897 222.448 700.304 222.416C702.528 222.304 704.548 221.667 704.548 221.667C705.265 223.504 705.902 225.523 706.538 227.543C707.175 229.562 707.63 231.502 708.084 233.441C708.084 233.441 699.904 235.727 700.493 240.335C701.002 245.126 709.397 245.328 709.397 245.328C709.406 247.29 709.336 249.434 709.345 251.396C709.275 253.541 709.102 255.422 708.667 257.407C708.667 257.407 700.25 256.76 699.139 261.276C697.948 265.975 705.691 269.153 705.691 269.153C705.073 271.057 704.273 272.881 703.393 274.888L682.413 265.687C683.533 263.133 684.391 260.681 684.964 257.887C685.857 254.363 686.203 250.599 686.286 246.938L672.357 248.442C672.194 252.286 671.323 256.255 669.643 260.086L661.981 256.725C662.061 256.543 662.141 256.36 662.221 256.178C662.781 254.901 663.159 253.544 663.537 252.187C663.537 252.187 663.537 252.187 663.617 252.005C664.212 249.655 664.18 247.249 664.068 245.024C664.045 244.579 663.943 244.317 663.921 243.872C663.898 243.427 663.796 243.165 663.773 242.72C662.445 235.829 658.208 229.62 651.778 225.93C651.048 225.61 650.398 225.108 649.669 224.788C648.939 224.467 648.209 224.147 647.4 224.01C640.33 221.779 632.892 222.867 626.923 226.557C626.58 226.842 626.318 226.945 625.975 227.23C625.633 227.514 625.371 227.617 625.028 227.902C622.711 229.713 620.599 232.05 618.954 234.808C618.874 234.991 618.874 234.991 618.794 235.173C618.634 235.538 618.393 236.085 618.233 236.45C618.073 236.815 617.993 236.998 617.833 237.362L610.171 234.002C611.852 230.171 614.102 227.025 616.899 224.119L608.571 212.853C605.934 215.394 603.399 218.198 601.412 221.242C600.007 223.453 598.522 225.847 597.401 228.401L576.422 219.2C577.222 217.375 578.022 215.551 579.085 213.624C579.085 213.624 586.849 217.247 589.317 213.109C591.887 209.233 585.71 203.479 585.71 203.479C587.057 201.895 588.405 200.31 589.672 198.908C591.202 197.404 592.469 196.002 594.102 194.761C594.102 194.761 600.118 200.88 603.805 197.929C607.595 195.241 603.735 187.675 603.735 187.675C605.47 186.695 607.204 185.716 609.121 184.817C611.039 183.917 612.693 183.12 614.793 182.301C614.793 182.301 615.692 184.218 617.116 185.93C618.54 187.643 620.49 189.15 622.954 188.491C627.438 187.194 626.305 178.867 626.305 178.867C628.244 178.412 630.286 178.22 632.408 177.846C634.45 177.654 636.492 177.462 638.454 177.452C638.454 177.452 639.142 185.802 643.978 186.183C648.632 186.484 650.453 178.364 650.533 178.182C652.597 178.435 654.581 178.87 656.566 179.305C658.55 179.74 660.454 180.358 662.359 180.976C662.359 180.976 660.093 189.118 664.471 191.038C668.667 192.878 673.304 185.776 673.304 185.776ZM642.813 200.246C637.35 199.808 631.851 200.441 626.763 202.125C623.249 203.194 619.757 204.708 616.55 206.564L624.878 217.83C631.919 214.175 640.166 213.224 648.206 215.228L653.887 202.275C650.181 201.302 646.577 200.592 642.813 200.246ZM657.51 219.308C664.509 223.683 669.317 230.577 671.397 238.233L685.326 236.728C684.519 233.112 683.268 229.518 681.674 226.208C679.283 221.244 675.945 216.953 672.184 213.128C669.381 210.593 666.417 208.423 663.293 206.618L657.692 219.388L657.51 219.308Z" fill="#FFD862"/>
<path d="M325 166.721C364.833 143.221 461.6 108.821 530 159.221C501 131.054 419.4 93.1208 325 166.721Z" fill="url(#paint1_linear)"/>
<path d="M12 108.662C48.3524 142.615 147.769 204.514 254.617 180.491C211.68 184.976 103.045 176.889 12 108.662Z" fill="url(#paint2_linear)"/>
<path d="M1471.5 637.5H-17.5H-67V111.5C70.5 111.5 135 303 290 218.5C407.96 154.193 477.522 154.554 526 183C586.5 218.5 646.5 331 779 255.5C911.5 180 960.5 189.5 1006.5 198.5C1052.5 207.5 1206.4 307.264 1270 165.5C1329 34 1430.83 0.666667 1471.5 0V637.5Z" fill="url(#paint3_linear)"/>
<defs>
<linearGradient id="paint0_linear" x1="-907.5" y1="-434" x2="-555.942" y2="864.502" gradientUnits="userSpaceOnUse">
<stop stop-color="#B64563"/>
<stop offset="1" stop-color="#F590AB"/>
</linearGradient>
<linearGradient id="paint1_linear" x1="62.5" y1="124" x2="99.0504" y2="269.681" gradientUnits="userSpaceOnUse">
<stop stop-color="#B64563"/>
<stop offset="1" stop-color="#F590AB"/>
</linearGradient>
<linearGradient id="paint2_linear" x1="-112" y1="71" x2="-67.5475" y2="251.339" gradientUnits="userSpaceOnUse">
<stop stop-color="#B64563"/>
<stop offset="1" stop-color="#F590AB"/>
</linearGradient>
<linearGradient id="paint3_linear" x1="1471.5" y1="454.691" x2="1075.4" y2="-391.329" gradientUnits="userSpaceOnUse">
<stop stop-color="#AB2D4F"/>
<stop offset="1" stop-color="#D95B7D"/>
</linearGradient>
</defs>
</svg>
