<svg width="1440" height="638" viewBox="0 0 1440 638" fill="none" xmlns="http://www.w3.org/2000/svg">
<path d="M1498 624H-60V53.5C-6 125.5 118 212.5 246.5 193.5C368.5 175.461 427.5 95.5 552.5 184C677.5 272.5 837.5 179 868.5 164C899.5 149 960 100.5 1097.5 125C1235 149.5 1267.5 107.5 1327.5 69C1375.5 38.2 1461.17 20.1667 1498 15V624Z" fill="url(#paint0_linear)"/>
<path d="M668.629 259.422C661.668 275.294 643.297 282.463 627.426 275.502C611.555 268.541 604.386 250.17 611.347 234.299C618.308 218.427 636.678 211.258 652.55 218.219C668.239 225.1 675.51 243.733 668.629 259.422ZM625.576 240.539C622.136 248.384 625.72 257.569 633.565 261.01C641.409 264.45 650.594 260.866 654.035 253.021C657.475 245.177 653.891 235.991 646.046 232.551C638.202 229.11 629.017 232.695 625.576 240.539Z" fill="#ECB513"/>
<path d="M654.766 253.34C651.166 261.55 641.455 265.339 633.246 261.739C625.037 258.138 621.247 248.428 624.848 240.218C628.448 232.009 638.159 228.22 646.368 231.82C654.76 235.501 658.367 245.131 654.766 253.34ZM631.415 243.099C629.335 247.842 631.486 253.353 636.229 255.434C640.972 257.514 646.483 255.363 648.563 250.62C650.644 245.877 648.493 240.366 643.75 238.285C639.007 236.205 633.495 238.356 631.415 243.099Z" fill="#FFBF01"/>
<path d="M654.77 253.343L648.385 250.542C650.465 245.799 648.314 240.288 643.571 238.207C638.828 236.127 633.316 238.278 631.236 243.021L624.851 240.221C628.452 232.011 638.162 228.222 646.371 231.822C654.763 235.503 658.37 245.133 654.77 253.343Z" fill="#FFD862"/>
<path d="M673.281 185.796C675.025 186.778 676.77 187.761 678.434 188.926C680.098 190.091 681.763 191.256 683.347 192.603C683.347 192.603 678.527 199.625 681.9 202.845C685.274 206.064 692.065 200.995 692.065 200.995C693.387 202.445 694.629 204.077 695.87 205.709C697.112 207.341 698.092 209.076 699.253 210.891C699.253 210.891 692.359 215.698 694.443 219.874C695.445 222.054 697.874 222.467 700.281 222.435C702.505 222.323 704.525 221.686 704.525 221.686C705.242 223.523 705.878 225.543 706.515 227.562C707.152 229.582 707.607 231.521 708.061 233.461C708.061 233.461 699.881 235.746 700.47 240.354C700.979 245.146 709.373 245.347 709.373 245.347C709.383 247.309 709.313 249.453 709.322 251.415C709.252 253.56 709.079 255.442 708.644 257.426C708.644 257.426 700.226 256.779 699.116 261.295C697.925 265.994 705.667 269.172 705.667 269.172C705.05 271.076 704.25 272.9 703.369 274.907C702.569 276.731 701.769 278.556 700.707 280.482C700.707 280.482 692.942 276.859 690.475 280.998C687.905 284.873 694.082 290.628 694.082 290.628C692.734 292.212 691.387 293.796 690.119 295.198C688.59 296.703 687.322 298.104 685.69 299.346C685.69 299.346 679.673 293.227 675.986 296.178C672.197 298.866 676.056 306.432 676.056 306.432C674.322 307.411 672.587 308.391 670.67 309.29C668.753 310.19 666.916 310.906 664.999 311.806C664.999 311.806 664.099 309.889 662.675 308.176C661.251 306.464 659.302 304.957 656.837 305.616C652.354 306.912 653.487 315.24 653.487 315.24C651.547 315.694 649.505 315.887 647.383 316.261C645.341 316.453 643.299 316.645 641.337 316.655C641.337 316.655 640.649 308.305 635.813 307.924C631.16 307.623 629.339 315.743 629.259 315.925C627.194 315.672 625.21 315.237 623.226 314.802C621.242 314.366 619.337 313.749 617.433 313.131C617.433 313.131 619.699 304.989 615.321 303.069C610.942 301.148 606.487 308.33 606.487 308.33C604.743 307.348 602.999 306.365 601.334 305.2C599.67 304.035 598.006 302.87 596.422 301.523C596.422 301.523 601.242 294.501 597.868 291.281C594.495 288.062 587.703 293.131 587.703 293.131C586.382 291.681 585.14 290.049 583.898 288.417C582.656 286.785 581.677 285.05 580.515 283.235C580.515 283.235 587.409 278.428 585.325 274.251C584.324 272.072 581.894 271.659 579.488 271.691C577.263 271.803 575.244 272.44 575.244 272.44C574.527 270.603 573.89 268.583 573.253 266.564C572.616 264.544 572.162 262.605 571.707 260.665C571.707 260.665 579.888 258.38 579.299 253.771C578.79 248.98 570.395 248.779 570.395 248.779C570.385 246.817 570.456 244.672 570.446 242.711C570.516 240.566 570.689 238.684 571.125 236.7C571.125 236.7 579.542 237.346 580.652 232.831C581.843 228.132 574.101 224.954 574.101 224.954C574.719 223.05 575.519 221.226 576.399 219.219C577.199 217.395 577.999 215.57 579.062 213.644C579.062 213.644 586.826 217.266 589.294 213.128C591.864 209.252 585.687 203.498 585.687 203.498C587.034 201.914 588.381 200.329 589.649 198.928C591.179 197.423 592.446 196.022 594.078 194.78C594.078 194.78 600.095 200.899 603.782 197.948C607.572 195.26 603.712 187.694 603.712 187.694C605.447 186.714 607.181 185.735 609.098 184.836C611.015 183.936 612.67 183.139 614.77 182.32C614.77 182.32 615.669 184.237 617.093 185.949C618.517 187.662 620.466 189.169 622.931 188.51C627.415 187.214 626.282 178.886 626.282 178.886C628.221 178.431 630.263 178.239 632.385 177.865C634.427 177.673 636.469 177.481 638.431 177.471C638.431 177.471 639.119 185.821 643.955 186.202C648.609 186.503 650.43 178.383 650.51 178.201C652.574 178.454 654.558 178.889 656.543 179.324C658.527 179.76 660.431 180.377 662.335 180.995C662.335 180.995 660.07 189.137 664.448 191.057C668.644 192.898 673.281 185.796 673.281 185.796ZM694.424 240.748C694.424 240.748 694.424 240.748 694.526 241.011C694.526 241.011 694.344 240.931 694.424 240.748ZM678.642 272.763C680.047 270.551 681.532 268.157 682.653 265.603C683.773 263.049 684.63 260.598 685.203 257.804C686.096 254.28 686.442 250.516 686.525 246.855L672.597 248.359C672.433 252.203 671.563 256.171 669.883 260.002C668.202 263.833 665.952 266.98 663.155 269.886L671.483 281.151C674.12 278.61 676.655 275.807 678.642 272.763ZM651.835 225.767C651.105 225.447 650.455 224.944 649.726 224.624C648.996 224.304 648.266 223.984 647.456 223.846C640.387 221.616 632.949 222.704 626.98 226.394C626.637 226.679 626.375 226.781 626.032 227.066C625.69 227.351 625.427 227.454 625.085 227.738C622.768 229.55 620.655 231.886 619.01 234.645C618.93 234.828 618.93 234.827 618.85 235.01C618.69 235.375 618.45 235.922 618.29 236.287C618.13 236.652 618.05 236.834 617.89 237.199C612.529 249.422 618.162 263.856 630.385 269.217C642.608 274.578 657.042 268.945 662.403 256.722C662.483 256.54 662.563 256.357 662.643 256.175C663.203 254.898 663.581 253.541 663.958 252.184C663.958 252.184 663.958 252.184 664.038 252.001C664.634 249.652 664.602 247.245 664.49 245.021C664.467 244.576 664.365 244.314 664.342 243.869C664.32 243.424 664.218 243.161 664.195 242.717C662.502 235.666 658.265 229.457 651.835 225.767ZM636.773 293.336C642.237 293.774 647.553 293.061 652.824 291.457C656.338 290.388 659.83 288.874 663.037 287.018L654.709 275.752C647.668 279.407 639.42 280.358 631.381 278.354L625.7 291.307C629.508 292.542 633.112 293.253 636.773 293.336ZM594.363 257.116C595.17 260.732 596.421 264.327 598.015 267.636C600.406 272.6 603.744 276.892 607.505 280.716C610.126 283.171 613.272 285.421 616.396 287.226L622.077 274.274C615.077 269.899 610.27 263.005 608.19 255.349L594.363 257.116ZM601.104 220.918C599.699 223.13 598.214 225.524 597.093 228.078C595.973 230.632 595.115 233.083 594.543 235.877C593.65 239.401 593.304 243.165 593.221 246.826L607.149 245.322C607.313 241.478 608.183 237.51 609.863 233.679C611.544 229.848 613.794 226.701 616.591 223.795L608.263 212.53C605.626 215.071 603.091 217.875 601.104 220.918ZM642.79 200.265C637.327 199.827 631.828 200.46 626.74 202.144C623.225 203.213 619.734 204.727 616.527 206.583L624.854 217.849C631.896 214.194 640.143 213.243 648.183 215.247L653.864 202.294C650.158 201.321 646.554 200.611 642.79 200.265ZM657.487 219.327C664.486 223.702 669.294 230.596 671.374 238.252L685.302 236.748C684.496 233.131 683.245 229.537 681.651 226.228C679.26 221.264 675.922 216.972 672.161 213.147C669.357 210.612 666.394 208.442 663.27 206.637L657.669 219.407L657.487 219.327Z" fill="#FFBF01"/>
<path d="M673.304 185.777C675.049 186.759 676.793 187.742 678.457 188.907C680.121 190.072 681.786 191.237 683.37 192.584C683.37 192.584 678.55 199.606 681.923 202.826C685.297 206.045 692.088 200.976 692.088 200.976C693.41 202.426 694.652 204.058 695.894 205.69C697.135 207.322 698.115 209.057 699.276 210.872C699.276 210.872 692.383 215.679 694.466 219.855C695.468 222.035 697.897 222.448 700.304 222.416C702.528 222.304 704.548 221.667 704.548 221.667C705.265 223.504 705.902 225.524 706.538 227.543C707.175 229.563 707.63 231.502 708.084 233.442C708.084 233.442 699.904 235.727 700.493 240.335C701.002 245.127 709.397 245.328 709.397 245.328C709.406 247.29 709.336 249.434 709.345 251.396C709.275 253.541 709.102 255.423 708.667 257.407C708.667 257.407 700.25 256.76 699.139 261.276C697.948 265.975 705.691 269.153 705.691 269.153C705.073 271.057 704.273 272.881 703.393 274.888L682.413 265.687C683.533 263.133 684.391 260.681 684.964 257.887C685.857 254.363 686.203 250.6 686.286 246.938L672.357 248.442C672.194 252.286 671.323 256.255 669.643 260.086L661.981 256.725C662.061 256.543 662.141 256.361 662.221 256.178C662.781 254.901 663.159 253.544 663.537 252.187C663.537 252.187 663.537 252.187 663.617 252.005C664.212 249.655 664.18 247.249 664.068 245.024C664.045 244.579 663.943 244.317 663.921 243.872C663.898 243.427 663.796 243.165 663.773 242.72C662.445 235.829 658.208 229.62 651.778 225.93C651.048 225.61 650.398 225.108 649.669 224.788C648.939 224.468 648.209 224.148 647.4 224.01C640.33 221.779 632.892 222.867 626.923 226.558C626.58 226.842 626.318 226.945 625.975 227.23C625.633 227.515 625.371 227.617 625.028 227.902C622.711 229.713 620.599 232.05 618.954 234.809C618.874 234.991 618.874 234.991 618.794 235.173C618.634 235.538 618.393 236.086 618.233 236.45C618.073 236.815 617.993 236.998 617.833 237.363L610.171 234.002C611.852 230.171 614.102 227.025 616.899 224.119L608.571 212.853C605.934 215.394 603.399 218.198 601.412 221.242C600.007 223.453 598.522 225.847 597.401 228.401L576.422 219.2C577.222 217.376 578.022 215.551 579.085 213.625C579.085 213.625 586.849 217.248 589.317 213.109C591.887 209.233 585.71 203.479 585.71 203.479C587.057 201.895 588.405 200.31 589.672 198.909C591.202 197.404 592.469 196.003 594.102 194.761C594.102 194.761 600.118 200.88 603.805 197.929C607.595 195.241 603.735 187.675 603.735 187.675C605.47 186.695 607.204 185.716 609.121 184.817C611.039 183.917 612.693 183.12 614.793 182.301C614.793 182.301 615.692 184.218 617.116 185.93C618.54 187.643 620.49 189.15 622.954 188.491C627.438 187.195 626.305 178.867 626.305 178.867C628.244 178.412 630.286 178.22 632.408 177.846C634.45 177.654 636.492 177.462 638.454 177.452C638.454 177.452 639.142 185.802 643.978 186.183C648.632 186.484 650.453 178.364 650.533 178.182C652.597 178.435 654.581 178.87 656.566 179.305C658.55 179.741 660.454 180.358 662.359 180.976C662.359 180.976 660.093 189.118 664.471 191.038C668.667 192.879 673.304 185.777 673.304 185.777ZM642.813 200.246C637.35 199.808 631.851 200.441 626.763 202.125C623.249 203.194 619.757 204.708 616.55 206.564L624.878 217.83C631.919 214.175 640.166 213.224 648.206 215.228L653.887 202.275C650.181 201.302 646.577 200.592 642.813 200.246ZM657.51 219.308C664.509 223.683 669.317 230.577 671.397 238.233L685.326 236.729C684.519 233.112 683.268 229.518 681.674 226.209C679.283 221.245 675.945 216.953 672.184 213.128C669.381 210.593 666.417 208.423 663.293 206.618L657.692 219.388L657.51 219.308Z" fill="#FFD862"/>
<path d="M325 166.721C364.833 143.221 461.6 108.821 530 159.221C501 131.054 419.4 93.1208 325 166.721Z" fill="url(#paint1_linear)"/>
<path d="M12 108.662C48.3524 142.615 147.769 204.514 254.617 180.491C211.68 184.976 103.045 176.889 12 108.662Z" fill="url(#paint2_linear)"/>
<path d="M1471.5 637.5H-17.5H-67V111.5C70.5 111.5 135 303 290 218.5C407.96 154.193 477.522 154.554 526 183C586.5 218.5 646.5 331 779 255.5C911.5 180 960.5 189.5 1006.5 198.5C1052.5 207.5 1206.4 307.264 1270 165.5C1329 34 1430.83 0.666667 1471.5 0V637.5Z" fill="url(#paint3_linear)"/>
<defs>
<linearGradient id="paint0_linear" x1="1655" y1="164" x2="710.355" y2="-792.451" gradientUnits="userSpaceOnUse">
<stop stop-color="#9428FF"/>
<stop offset="1" stop-color="#C780FE"/>
</linearGradient>
<linearGradient id="paint1_linear" x1="543.102" y1="152.34" x2="470.698" y2="21.9971" gradientUnits="userSpaceOnUse">
<stop stop-color="#9428FF"/>
<stop offset="1" stop-color="#C780FE"/>
</linearGradient>
<linearGradient id="paint2_linear" x1="269.712" y1="157.95" x2="108.132" y2="-19.138" gradientUnits="userSpaceOnUse">
<stop stop-color="#9428FF"/>
<stop offset="1" stop-color="#C780FE"/>
</linearGradient>
<linearGradient id="paint3_linear" x1="1500.5" y1="613.5" x2="-61.6856" y2="-334.644" gradientUnits="userSpaceOnUse">
<stop offset="0.0001" stop-color="#6E07D6"/>
<stop offset="1" stop-color="#9C53C9"/>
</linearGradient>
</defs>
</svg>
