<svg width="1440" height="638" viewBox="0 0 1440 638" fill="none" xmlns="http://www.w3.org/2000/svg">
<path d="M1498 624H-60V53.5C-6 125.5 118 212.5 246.5 193.5C368.5 175.461 427.5 95.5 552.5 184C677.5 272.5 837.5 179 868.5 164C899.5 149 960 100.5 1097.5 125C1235 149.5 1267.5 107.5 1327.5 69C1375.5 38.2 1461.17 20.1667 1498 15V624Z" fill="url(#paint0_linear)"/>
<path d="M663.817 254.701C658.326 270.91 640.866 279.534 624.657 274.043C608.448 268.553 599.823 251.093 605.314 234.883C610.805 218.674 628.265 210.05 644.474 215.541C660.497 220.968 669.244 238.678 663.817 254.701ZM619.847 239.806C617.133 247.818 621.445 256.548 629.456 259.261C637.468 261.975 646.198 257.663 648.912 249.652C651.625 241.64 647.313 232.91 639.302 230.196C631.29 227.483 622.56 231.795 619.847 239.806Z" fill="#DC2D33"/>
<path d="M649.658 249.903C646.818 258.287 637.589 262.846 629.205 260.006C620.821 257.166 616.262 247.937 619.102 239.553C621.942 231.169 631.171 226.61 639.555 229.45C648.126 232.353 652.498 241.519 649.658 249.903ZM625.809 241.825C624.168 246.669 626.756 251.907 631.6 253.548C636.444 255.189 641.682 252.601 643.323 247.757C644.964 242.913 642.377 237.675 637.532 236.034C632.688 234.393 627.45 236.981 625.809 241.825Z" fill="#FF4249"/>
<path d="M649.66 249.905L643.139 247.696C644.78 242.852 642.193 237.614 637.349 235.973C632.505 234.332 627.267 236.919 625.626 241.764L619.105 239.555C621.945 231.171 631.173 226.612 639.558 229.452C648.128 232.355 652.5 241.521 649.66 249.905Z" fill="#FF6268"/>
<path d="M662.095 181.87C663.895 182.687 665.695 183.505 667.432 184.508C669.169 185.512 670.906 186.516 672.58 187.706C672.58 187.706 668.439 195.026 672.033 197.905C675.627 200.784 681.875 195.216 681.875 195.216C683.299 196.529 684.66 198.029 686.021 199.528C687.383 201.028 688.495 202.651 689.793 204.337C689.793 204.337 683.422 209.656 685.829 213.586C687.001 215.645 689.426 215.843 691.791 215.606C693.969 215.305 695.902 214.506 695.902 214.506C696.764 216.252 697.564 218.184 698.363 220.117C699.162 222.049 699.775 223.918 700.388 225.787C700.388 225.787 692.536 228.735 693.509 233.219C694.42 237.889 702.696 237.369 702.696 237.369C702.873 239.298 702.987 241.414 703.164 243.343C703.278 245.459 703.269 247.325 703.011 249.314C703.011 249.314 694.675 249.398 693.968 253.936C693.199 258.66 701.087 261.124 701.087 261.124C700.642 263.051 700.011 264.914 699.317 266.963C698.686 268.826 698.055 270.689 697.174 272.676C697.174 272.676 689.226 269.776 687.152 274.058C684.955 278.091 691.524 283.223 691.524 283.223C690.334 284.897 689.144 286.571 688.017 288.059C686.641 289.669 685.514 291.157 684.014 292.518C684.014 292.518 677.572 287.013 674.197 290.231C670.699 293.2 675.143 300.313 675.143 300.313C673.52 301.425 671.898 302.537 670.089 303.585C668.28 304.634 666.534 305.497 664.724 306.545C664.724 306.545 663.676 304.736 662.128 303.173C660.581 301.611 658.534 300.295 656.166 301.154C651.866 302.813 653.693 310.908 653.693 310.908C651.823 311.521 649.831 311.885 647.776 312.435C645.783 312.798 643.791 313.162 641.861 313.339C641.861 313.339 640.47 305.183 635.68 305.222C631.076 305.324 629.979 313.468 629.916 313.654C627.864 313.582 625.874 313.324 623.885 313.065C621.896 312.807 619.969 312.362 618.043 311.917C618.043 311.917 619.576 303.713 615.104 302.199C610.633 300.684 606.864 308.13 606.864 308.13C605.064 307.313 603.264 306.496 601.527 305.492C599.79 304.488 598.053 303.484 596.38 302.294C596.38 302.294 600.521 294.974 596.927 292.095C593.333 289.216 587.085 294.784 587.085 294.784C585.661 293.471 584.299 291.971 582.938 290.472C581.577 288.972 580.465 287.349 579.167 285.664C579.167 285.664 585.538 280.345 583.131 276.414C581.959 274.355 579.534 274.157 577.169 274.394C574.99 274.695 573.058 275.494 573.058 275.494C572.195 273.748 571.396 271.816 570.597 269.884C569.798 267.951 569.185 266.082 568.572 264.213C568.572 264.213 576.424 261.265 575.45 256.781C574.54 252.112 566.264 252.631 566.264 252.631C566.087 250.702 565.973 248.586 565.795 246.657C565.681 244.541 565.69 242.675 565.949 240.686C565.949 240.686 574.285 240.602 574.991 236.064C575.761 231.34 567.872 228.876 567.872 228.876C568.317 226.95 568.948 225.087 569.642 223.037C570.274 221.174 570.905 219.311 571.785 217.325C571.785 217.325 579.734 220.225 581.807 215.942C584.004 211.91 577.435 206.777 577.435 206.777C578.625 205.103 579.815 203.429 580.942 201.942C582.319 200.331 583.446 198.843 584.945 197.482C584.945 197.482 591.388 202.988 594.763 199.769C598.261 196.8 593.816 189.687 593.816 189.687C595.439 188.575 597.062 187.464 598.871 186.415C600.68 185.366 602.24 184.441 604.235 183.455C604.235 183.455 605.284 185.264 606.832 186.827C608.379 188.389 610.426 189.706 612.794 188.846C617.094 187.188 615.267 179.092 615.267 179.092C617.136 178.479 619.129 178.115 621.184 177.565C623.177 177.202 625.169 176.838 627.098 176.661C627.098 176.661 628.489 184.817 633.279 184.778C637.883 184.676 638.98 176.532 639.043 176.346C641.096 176.418 643.085 176.677 645.075 176.935C647.064 177.194 648.99 177.638 650.917 178.083C650.917 178.083 649.384 186.287 653.855 187.802C658.14 189.253 662.095 181.87 662.095 181.87ZM687.595 234.123C687.595 234.123 687.595 234.123 687.718 234.373C687.718 234.373 687.532 234.309 687.595 234.123ZM674.808 266.968C676.001 264.673 677.257 262.19 678.14 259.582C679.024 256.974 679.658 254.488 679.983 251.691C680.56 248.148 680.578 244.415 680.347 240.806L666.773 243.477C666.941 247.273 666.424 251.252 665.098 255.164C663.773 259.077 661.829 262.364 659.325 265.462L668.482 275.833C670.859 273.108 673.113 270.133 674.808 266.968ZM644.415 223.027C643.67 222.775 642.988 222.336 642.243 222.083C641.497 221.831 640.752 221.579 639.944 221.512C632.798 219.923 625.573 221.629 620.017 225.77C619.704 226.08 619.455 226.203 619.142 226.512C618.83 226.822 618.58 226.945 618.268 227.255C616.143 229.235 614.265 231.714 612.882 234.569C612.819 234.755 612.819 234.755 612.756 234.941C612.63 235.314 612.441 235.873 612.314 236.246C612.188 236.618 612.125 236.805 611.999 237.177C607.77 249.66 614.547 263.379 627.03 267.607C639.513 271.836 653.231 265.06 657.46 252.577C657.523 252.39 657.586 252.204 657.649 252.018C658.091 250.713 658.346 249.346 658.602 247.979C658.602 247.979 658.602 247.979 658.665 247.793C659.049 245.431 658.812 243.066 658.512 240.887C658.452 240.451 658.328 240.202 658.268 239.766C658.208 239.33 658.085 239.081 658.025 238.645C655.756 231.853 651.056 226.108 644.415 223.027ZM635.377 290.789C640.789 290.753 645.958 289.596 651.007 287.568C654.372 286.216 657.678 284.428 660.674 282.327L651.518 271.956C644.904 276.154 636.871 277.795 628.79 276.511L624.309 289.74C628.162 290.629 631.768 291.02 635.377 290.789ZM590.557 258.783C591.66 262.272 593.198 265.701 595.049 268.82C597.826 273.499 601.477 277.436 605.504 280.877C608.292 283.068 611.58 285.012 614.807 286.521L619.288 273.293C612.028 269.587 606.709 263.216 604.008 255.863L590.557 258.783ZM594.092 222.596C592.899 224.892 591.643 227.374 590.759 229.982C589.876 232.591 589.241 235.076 588.917 237.874C588.34 241.417 588.322 245.149 588.553 248.758L602.127 246.087C601.959 242.292 602.476 238.313 603.801 234.4C605.126 230.488 607.071 227.2 609.574 224.102L600.418 213.731C598.041 216.457 595.787 219.432 594.092 222.596ZM633.336 198.713C627.924 198.749 622.569 199.842 617.707 201.934C614.341 203.286 611.035 205.074 608.039 207.174L617.195 217.545C623.81 213.347 631.842 211.707 639.923 212.99L644.404 199.762C640.675 199.122 637.068 198.731 633.336 198.713ZM649.425 216.209C656.685 219.914 662.004 226.285 664.705 233.639L678.279 230.968C677.177 227.479 675.638 224.05 673.787 220.93C671.011 216.251 667.359 212.315 663.333 208.874C660.358 206.62 657.257 204.738 654.029 203.23L649.611 216.272L649.425 216.209Z" fill="#FF4249"/>
<path d="M662.118 181.85C663.918 182.667 665.718 183.485 667.455 184.488C669.192 185.492 670.929 186.496 672.603 187.686C672.603 187.686 668.461 195.006 672.055 197.885C675.65 200.764 681.897 195.196 681.897 195.196C683.322 196.509 684.683 198.009 686.044 199.508C687.405 201.008 688.517 202.631 689.815 204.317C689.815 204.317 683.444 209.635 685.851 213.566C687.023 215.625 689.448 215.823 691.813 215.586C693.992 215.285 695.924 214.486 695.924 214.486C696.787 216.232 697.586 218.164 698.386 220.097C699.185 222.029 699.798 223.898 700.411 225.767C700.411 225.767 692.558 228.715 693.532 233.199C694.442 237.869 702.718 237.349 702.718 237.349C702.896 239.278 703.01 241.394 703.187 243.323C703.301 245.439 703.292 247.305 703.034 249.294C703.034 249.294 694.697 249.378 693.991 253.916C693.222 258.64 701.11 261.104 701.11 261.104C700.665 263.03 700.034 264.894 699.34 266.943L677.914 259.685C678.797 257.077 679.431 254.592 679.756 251.794C680.333 248.251 680.351 244.519 680.12 240.909L666.546 243.581C666.714 247.376 666.197 251.355 664.872 255.267L657.047 252.617C657.11 252.43 657.173 252.244 657.236 252.058C657.678 250.753 657.933 249.386 658.189 248.019C658.189 248.019 658.189 248.019 658.252 247.833C658.636 245.471 658.399 243.106 658.099 240.927C658.039 240.491 657.915 240.242 657.855 239.806C657.795 239.37 657.672 239.121 657.612 238.685C655.716 232.02 651.016 226.274 644.375 223.193C643.63 222.941 642.947 222.502 642.202 222.25C641.457 221.997 640.712 221.745 639.903 221.679C632.757 220.089 625.533 221.795 619.976 225.936C619.664 226.246 619.414 226.369 619.102 226.679C618.789 226.988 618.54 227.111 618.227 227.421C616.103 229.401 614.225 231.88 612.842 234.735C612.779 234.921 612.779 234.921 612.716 235.108C612.59 235.48 612.4 236.039 612.274 236.412C612.148 236.785 612.085 236.971 611.959 237.343L604.133 234.693C605.459 230.78 607.403 227.493 609.906 224.394L600.75 214.024C598.373 216.749 596.119 219.724 594.424 222.889C593.231 225.184 591.975 227.667 591.091 230.275L569.665 223.017C570.296 221.154 570.927 219.291 571.808 217.304C571.808 217.304 579.756 220.205 581.83 215.922C584.027 211.89 577.458 206.757 577.458 206.757C578.648 205.083 579.838 203.409 580.965 201.922C582.341 200.311 583.468 198.823 584.968 197.462C584.968 197.462 591.411 202.968 594.785 199.749C598.283 196.78 593.839 189.667 593.839 189.667C595.462 188.555 597.085 187.443 598.894 186.395C600.703 185.346 602.263 184.421 604.258 183.435C604.258 183.435 605.307 185.244 606.854 186.807C608.402 188.369 610.448 189.686 612.816 188.826C617.117 187.168 615.29 179.072 615.29 179.072C617.159 178.459 619.151 178.095 621.207 177.545C623.199 177.182 625.192 176.818 627.121 176.641C627.121 176.641 628.512 184.797 633.302 184.758C637.906 184.656 639.003 176.512 639.066 176.326C641.119 176.398 643.108 176.656 645.097 176.915C647.087 177.173 649.013 177.618 650.939 178.063C650.939 178.063 649.406 186.267 653.878 187.782C658.163 189.233 662.118 181.85 662.118 181.85ZM633.359 198.693C627.947 198.728 622.592 199.822 617.729 201.914C614.364 203.266 611.058 205.054 608.062 207.154L617.218 217.525C623.832 213.327 631.865 211.687 639.946 212.97L644.427 199.742C640.697 199.101 637.091 198.711 633.359 198.693ZM649.448 216.189C656.708 219.894 662.027 226.265 664.728 233.619L678.302 230.947C677.199 227.459 675.661 224.03 673.81 220.91C671.033 216.231 667.382 212.295 663.355 208.854C660.38 206.6 657.279 204.718 654.052 203.21L649.634 216.252L649.448 216.189Z" fill="#FF6268"/>
<path d="M325 166.721C364.833 143.221 461.6 108.821 530 159.221C501 131.054 419.4 93.1208 325 166.721Z" fill="url(#paint1_linear)"/>
<path d="M325 166.721C364.833 143.221 461.6 108.821 530 159.221C501 131.054 419.4 93.1208 325 166.721Z" fill="url(#paint2_linear)"/>
<path d="M325 166.721C364.833 143.221 461.6 108.821 530 159.221C501 131.054 419.4 93.1208 325 166.721Z" fill="url(#paint3_linear)"/>
<path d="M325 166.721C364.833 143.221 461.6 108.821 530 159.221C501 131.054 419.4 93.1208 325 166.721Z" fill="url(#paint4_linear)"/>
<path d="M12 108.662C48.3524 142.615 147.769 204.514 254.617 180.491C211.68 184.976 103.045 176.889 12 108.662Z" fill="url(#paint5_linear)"/>
<path d="M12 108.662C48.3524 142.615 147.769 204.514 254.617 180.491C211.68 184.976 103.045 176.889 12 108.662Z" fill="url(#paint6_linear)"/>
<path d="M12 108.662C48.3524 142.615 147.769 204.514 254.617 180.491C211.68 184.976 103.045 176.889 12 108.662Z" fill="url(#paint7_linear)"/>
<path d="M12 108.662C48.3524 142.615 147.769 204.514 254.617 180.491C211.68 184.976 103.045 176.889 12 108.662Z" fill="url(#paint8_linear)"/>
<path d="M1471.5 637.5H-17.5H-67V111.5C70.5 111.5 135 303 290 218.5C407.96 154.193 477.522 154.554 526 183C586.5 218.5 646.5 331 779 255.5C911.5 180 960.5 189.5 1006.5 198.5C1052.5 207.5 1206.4 307.264 1270 165.5C1329 34 1430.83 0.666667 1471.5 0V637.5Z" fill="url(#paint9_linear)"/>
<defs>
<linearGradient id="paint0_linear" x1="1429.5" y1="81.5" x2="794.286" y2="-791.001" gradientUnits="userSpaceOnUse">
<stop stop-color="#825846"/>
<stop offset="1" stop-color="#9F8475"/>
</linearGradient>
<linearGradient id="paint1_linear" x1="214" y1="124" x2="234.72" y2="228.908" gradientUnits="userSpaceOnUse">
<stop stop-color="#FFBF01"/>
<stop offset="1" stop-color="#FFE8A3"/>
</linearGradient>
<linearGradient id="paint2_linear" x1="317.658" y1="142.104" x2="332.571" y2="217.381" gradientUnits="userSpaceOnUse">
<stop stop-color="#FF7B01"/>
<stop offset="1" stop-color="#FFC9A3"/>
</linearGradient>
<linearGradient id="paint3_linear" x1="313.636" y1="143.84" x2="326.333" y2="211.199" gradientUnits="userSpaceOnUse">
<stop stop-color="#945902"/>
<stop offset="1" stop-color="#A28253"/>
</linearGradient>
<linearGradient id="paint4_linear" x1="315.615" y1="145.342" x2="331.555" y2="218.936" gradientUnits="userSpaceOnUse">
<stop stop-color="#825846"/>
<stop offset="1" stop-color="#9F8475"/>
</linearGradient>
<linearGradient id="paint5_linear" x1="-31.084" y1="134.544" x2="19.6997" y2="276.886" gradientUnits="userSpaceOnUse">
<stop stop-color="#FFBF01"/>
<stop offset="1" stop-color="#FFE8A3"/>
</linearGradient>
<linearGradient id="paint6_linear" x1="3.86711" y1="142.768" x2="48.0315" y2="275.644" gradientUnits="userSpaceOnUse">
<stop stop-color="#FF7B01"/>
<stop offset="1" stop-color="#FFC9A3"/>
</linearGradient>
<linearGradient id="paint7_linear" x1="-0.821176" y1="146.098" x2="37.0593" y2="265.624" gradientUnits="userSpaceOnUse">
<stop stop-color="#945902"/>
<stop offset="1" stop-color="#A28253"/>
</linearGradient>
<linearGradient id="paint8_linear" x1="1.55282" y1="148.881" x2="48.0988" y2="277.41" gradientUnits="userSpaceOnUse">
<stop stop-color="#825846"/>
<stop offset="1" stop-color="#9F8475"/>
</linearGradient>
<linearGradient id="paint9_linear" x1="1447.5" y1="541.5" x2="-1231.77" y2="1786.13" gradientUnits="userSpaceOnUse">
<stop stop-color="#70422E"/>
<stop offset="1" stop-color="#8B6B59"/>
</linearGradient>
</defs>
</svg>
