<svg width="1440" height="638" viewBox="0 0 1440 638" fill="none" xmlns="http://www.w3.org/2000/svg">
<path d="M1498 624H-60V53.5C-6 125.5 118 212.5 246.5 193.5C368.5 175.461 427.5 95.5 552.5 184C677.5 272.5 837.5 179 868.5 164C899.5 149 960 100.5 1097.5 125C1235 149.5 1267.5 107.5 1327.5 69C1375.5 38.2 1461.17 20.1667 1498 15V624Z" fill="url(#paint0_linear)"/>
<path d="M668.63 259.422C661.669 275.294 643.298 282.463 627.427 275.502C611.555 268.541 604.386 250.17 611.347 234.299C618.308 218.427 636.679 211.258 652.55 218.219C668.239 225.1 675.511 243.734 668.63 259.422ZM625.577 240.54C622.136 248.384 625.721 257.569 633.565 261.01C641.409 264.451 650.595 260.866 654.035 253.021C657.476 245.177 653.891 235.992 646.047 232.551C638.202 229.111 629.017 232.695 625.577 240.54Z" fill="#ECB513"/>
<path d="M654.767 253.341C651.166 261.55 641.456 265.339 633.246 261.739C625.037 258.138 621.248 248.428 624.848 240.219C628.449 232.009 638.159 228.22 646.368 231.82C654.76 235.501 658.367 245.131 654.767 253.341ZM631.416 243.099C629.335 247.842 631.486 253.353 636.229 255.434C640.972 257.514 646.484 255.363 648.564 250.62C650.644 245.877 648.494 240.366 643.75 238.285C639.007 236.205 633.496 238.356 631.416 243.099Z" fill="#FFBF01"/>
<path d="M654.769 253.343L648.384 250.542C650.464 245.799 648.314 240.288 643.57 238.208C638.827 236.127 633.316 238.278 631.236 243.021L624.851 240.221C628.451 232.012 638.162 228.222 646.371 231.823C654.763 235.503 658.37 245.134 654.769 253.343Z" fill="#FFD862"/>
<path d="M673.281 185.796C675.025 186.778 676.769 187.761 678.434 188.926C680.098 190.091 681.762 191.256 683.346 192.603C683.346 192.603 678.526 199.625 681.9 202.845C685.273 206.064 692.064 200.995 692.064 200.995C693.386 202.445 694.628 204.077 695.87 205.709C697.112 207.341 698.091 209.076 699.253 210.891C699.253 210.891 692.359 215.698 694.443 219.875C695.444 222.054 697.873 222.467 700.28 222.435C702.505 222.323 704.524 221.686 704.524 221.686C705.241 223.523 705.878 225.543 706.515 227.562C707.152 229.582 707.606 231.521 708.061 233.461C708.061 233.461 699.88 235.746 700.469 240.355C700.978 245.146 709.373 245.347 709.373 245.347C709.383 247.309 709.312 249.454 709.322 251.416C709.251 253.56 709.079 255.442 708.643 257.426C708.643 257.426 700.226 256.78 699.115 261.296C697.925 265.994 705.667 269.172 705.667 269.172C705.049 271.076 704.249 272.901 703.369 274.907C702.569 276.732 701.769 278.556 700.706 280.483C700.706 280.483 692.942 276.86 690.474 280.998C687.904 284.874 694.081 290.628 694.081 290.628C692.734 292.212 691.386 293.797 690.119 295.198C688.589 296.703 687.322 298.105 685.689 299.346C685.689 299.346 679.673 293.227 675.986 296.178C672.196 298.866 676.056 306.432 676.056 306.432C674.321 307.412 672.587 308.391 670.67 309.29C668.752 310.19 666.915 310.907 664.998 311.806C664.998 311.806 664.099 309.889 662.675 308.177C661.25 306.464 659.301 304.957 656.837 305.616C652.353 306.912 653.486 315.24 653.486 315.24C651.547 315.695 649.505 315.887 647.383 316.261C645.341 316.453 643.299 316.645 641.337 316.655C641.337 316.655 640.649 308.305 635.813 307.924C631.159 307.623 629.338 315.743 629.258 315.925C627.194 315.672 625.21 315.237 623.225 314.802C621.241 314.367 619.337 313.749 617.432 313.131C617.432 313.131 619.698 304.989 615.32 303.069C610.942 301.149 606.487 308.33 606.487 308.33C604.742 307.348 602.998 306.365 601.334 305.2C599.67 304.035 598.005 302.87 596.421 301.523C596.421 301.523 601.241 294.501 597.868 291.281C594.494 288.062 587.703 293.131 587.703 293.131C586.381 291.682 585.139 290.049 583.897 288.417C582.656 286.785 581.676 285.05 580.515 283.235C580.515 283.235 587.408 278.428 585.325 274.252C584.323 272.072 581.894 271.659 579.487 271.691C577.263 271.803 575.243 272.44 575.243 272.44C574.526 270.603 573.889 268.584 573.252 266.564C572.616 264.545 572.161 262.605 571.707 260.666C571.707 260.666 579.887 258.38 579.298 253.772C578.789 248.98 570.394 248.779 570.394 248.779C570.385 246.817 570.455 244.673 570.446 242.711C570.516 240.566 570.689 238.684 571.124 236.7C571.124 236.7 579.541 237.347 580.652 232.831C581.842 228.132 574.1 224.954 574.1 224.954C574.718 223.05 575.518 221.226 576.398 219.219C577.199 217.395 577.999 215.57 579.061 213.644C579.061 213.644 586.826 217.267 589.293 213.128C591.863 209.253 585.686 203.498 585.686 203.498C587.034 201.914 588.381 200.33 589.648 198.928C591.178 197.424 592.446 196.022 594.078 194.78C594.078 194.78 600.095 200.899 603.782 197.948C607.571 195.26 603.711 187.694 603.711 187.694C605.446 186.715 607.181 185.735 609.098 184.836C611.015 183.937 612.67 183.14 614.769 182.32C614.769 182.32 615.668 184.237 617.093 185.95C618.517 187.662 620.466 189.169 622.93 188.51C627.414 187.214 626.281 178.886 626.281 178.886C628.221 178.432 630.263 178.24 632.385 177.865C634.427 177.673 636.468 177.481 638.43 177.471C638.43 177.471 639.119 185.822 643.955 186.202C648.608 186.503 650.429 178.384 650.509 178.201C652.573 178.454 654.558 178.889 656.542 179.324C658.526 179.76 660.431 180.377 662.335 180.995C662.335 180.995 660.069 189.137 664.447 191.057C668.643 192.898 673.281 185.796 673.281 185.796ZM694.423 240.748C694.423 240.748 694.423 240.748 694.526 241.011C694.526 241.011 694.343 240.931 694.423 240.748ZM678.642 272.763C680.047 270.551 681.532 268.157 682.652 265.603C683.772 263.049 684.63 260.598 685.203 257.804C686.096 254.28 686.441 250.516 686.525 246.855L672.596 248.359C672.433 252.203 671.562 256.172 669.882 260.003C668.202 263.834 665.952 266.98 663.155 269.886L671.482 281.152C674.12 278.61 676.654 275.807 678.642 272.763ZM651.834 225.767C651.105 225.447 650.455 224.944 649.725 224.624C648.995 224.304 648.266 223.984 647.456 223.847C640.386 221.616 632.948 222.704 626.979 226.394C626.637 226.679 626.374 226.782 626.032 227.066C625.689 227.351 625.427 227.454 625.084 227.739C622.767 229.55 620.655 231.886 619.01 234.645C618.93 234.828 618.93 234.828 618.85 235.01C618.69 235.375 618.45 235.922 618.29 236.287C618.13 236.652 618.05 236.834 617.89 237.199C612.529 249.422 618.162 263.856 630.385 269.217C642.607 274.578 657.042 268.945 662.402 256.722C662.482 256.54 662.562 256.357 662.642 256.175C663.203 254.898 663.58 253.541 663.958 252.184C663.958 252.184 663.958 252.184 664.038 252.001C664.633 249.652 664.601 247.245 664.489 245.021C664.467 244.576 664.364 244.314 664.342 243.869C664.319 243.424 664.217 243.162 664.195 242.717C662.502 235.666 658.264 229.457 651.834 225.767ZM636.773 293.336C642.236 293.774 647.552 293.061 652.823 291.457C656.338 290.388 659.829 288.874 663.036 287.018L654.709 275.752C647.667 279.407 639.42 280.358 631.38 278.354L625.699 291.307C629.508 292.542 633.112 293.253 636.773 293.336ZM594.363 257.116C595.17 260.733 596.421 264.327 598.015 267.636C600.406 272.6 603.744 276.892 607.504 280.717C610.126 283.171 613.272 285.421 616.395 287.226L622.076 274.274C615.077 269.899 610.27 263.005 608.189 255.349L594.363 257.116ZM601.103 220.918C599.698 223.13 598.213 225.524 597.093 228.078C595.973 230.632 595.115 233.084 594.542 235.878C593.649 239.401 593.304 243.165 593.22 246.826L607.149 245.322C607.312 241.478 608.183 237.51 609.863 233.679C611.543 229.848 613.793 226.702 616.59 223.796L608.263 212.53C605.625 215.071 603.091 217.875 601.103 220.918ZM642.79 200.265C637.326 199.827 631.828 200.461 626.739 202.144C623.225 203.213 619.733 204.727 616.526 206.583L624.854 217.849C631.895 214.194 640.143 213.243 648.182 215.247L653.863 202.294C650.157 201.322 646.553 200.611 642.79 200.265ZM657.486 219.327C664.486 223.703 669.293 230.596 671.373 238.252L685.302 236.748C684.495 233.131 683.244 229.537 681.65 226.228C679.259 221.264 675.921 216.972 672.161 213.147C669.357 210.613 666.393 208.443 663.27 206.637L657.669 219.407L657.486 219.327Z" fill="#FFBF01"/>
<path d="M673.305 185.777C675.049 186.759 676.793 187.742 678.458 188.907C680.122 190.072 681.786 191.237 683.37 192.584C683.37 192.584 678.55 199.606 681.924 202.826C685.297 206.046 692.089 200.976 692.089 200.976C693.41 202.426 694.652 204.058 695.894 205.69C697.136 207.322 698.115 209.057 699.277 210.872C699.277 210.872 692.383 215.679 694.467 219.856C695.468 222.035 697.898 222.448 700.304 222.416C702.529 222.304 704.548 221.667 704.548 221.667C705.265 223.504 705.902 225.524 706.539 227.543C707.176 229.563 707.63 231.502 708.085 233.442C708.085 233.442 699.904 235.727 700.493 240.336C701.002 245.127 709.397 245.328 709.397 245.328C709.407 247.29 709.336 249.435 709.346 251.397C709.276 253.541 709.103 255.423 708.667 257.407C708.667 257.407 700.25 256.761 699.14 261.277C697.949 265.975 705.691 269.153 705.691 269.153C705.073 271.057 704.273 272.882 703.393 274.888L682.414 265.687C683.534 263.133 684.392 260.681 684.965 257.887C685.857 254.364 686.203 250.6 686.286 246.938L672.358 248.443C672.194 252.286 671.324 256.255 669.644 260.086L661.982 256.726C662.062 256.543 662.142 256.361 662.222 256.178C662.782 254.901 663.159 253.544 663.537 252.187C663.537 252.187 663.537 252.187 663.617 252.005C664.212 249.656 664.18 247.249 664.068 245.025C664.046 244.58 663.944 244.317 663.921 243.872C663.899 243.427 663.796 243.165 663.774 242.72C662.446 235.829 658.208 229.621 651.778 225.93C651.049 225.61 650.399 225.108 649.669 224.788C648.94 224.468 648.21 224.148 647.4 224.01C640.33 221.779 632.892 222.868 626.923 226.558C626.581 226.843 626.318 226.945 625.976 227.23C625.634 227.515 625.371 227.617 625.029 227.902C622.711 229.713 620.599 232.05 618.954 234.809C618.874 234.991 618.874 234.991 618.794 235.174C618.634 235.538 618.394 236.086 618.234 236.451C618.074 236.815 617.994 236.998 617.834 237.363L610.172 234.002C611.852 230.171 614.102 227.025 616.899 224.119L608.572 212.853C605.934 215.395 603.4 218.198 601.412 221.242C600.007 223.453 598.522 225.847 597.402 228.401L576.422 219.2C577.223 217.376 578.023 215.551 579.085 213.625C579.085 213.625 586.85 217.248 589.317 213.109C591.887 209.234 585.71 203.479 585.71 203.479C587.058 201.895 588.405 200.311 589.673 198.909C591.202 197.405 592.47 196.003 594.102 194.761C594.102 194.761 600.119 200.88 603.806 197.929C607.595 195.241 603.735 187.675 603.735 187.675C605.47 186.696 607.205 185.716 609.122 184.817C611.039 183.918 612.694 183.121 614.793 182.301C614.793 182.301 615.693 184.218 617.117 185.931C618.541 187.643 620.49 189.15 622.955 188.491C627.438 187.195 626.305 178.867 626.305 178.867C628.245 178.413 630.287 178.221 632.409 177.846C634.451 177.654 636.493 177.462 638.454 177.452C638.454 177.452 639.143 185.803 643.979 186.183C648.632 186.484 650.453 178.365 650.533 178.182C652.598 178.435 654.582 178.87 656.566 179.305C658.55 179.741 660.455 180.358 662.359 180.976C662.359 180.976 660.093 189.118 664.471 191.038C668.667 192.879 673.305 185.777 673.305 185.777ZM642.814 200.246C637.35 199.808 631.852 200.442 626.763 202.125C623.249 203.194 619.757 204.708 616.55 206.564L624.878 217.83C631.919 214.175 640.167 213.224 648.207 215.228L653.887 202.275C650.181 201.303 646.577 200.592 642.814 200.246ZM657.51 219.309C664.51 223.684 669.317 230.577 671.398 238.233L685.326 236.729C684.52 233.112 683.268 229.518 681.674 226.209C679.283 221.245 675.945 216.953 672.185 213.128C669.381 210.594 666.417 208.424 663.294 206.618L657.693 219.389L657.51 219.309Z" fill="#FFD862"/>
<path d="M325 166.721C364.833 143.221 461.6 108.821 530 159.221C501 131.054 419.4 93.1208 325 166.721Z" fill="url(#paint1_linear)"/>
<path d="M12 108.662C48.3524 142.615 147.769 204.514 254.617 180.491C211.68 184.976 103.045 176.889 12 108.662Z" fill="url(#paint2_linear)"/>
<path d="M1471.5 637.5H-17.5H-67V111.5C70.5 111.5 135 303 290 218.5C407.96 154.193 477.522 154.554 526 183C586.5 218.5 646.5 331 779 255.5C911.5 180 960.5 189.5 1006.5 198.5C1052.5 207.5 1206.4 307.264 1270 165.5C1329 34 1430.83 0.666667 1471.5 0V637.5Z" fill="url(#paint3_linear)"/>
<defs>
<linearGradient id="paint0_linear" x1="-1210.5" y1="215" x2="-650.365" y2="1545.69" gradientUnits="userSpaceOnUse">
<stop stop-color="#26C248"/>
<stop offset="1" stop-color="#9BF7AF"/>
</linearGradient>
<linearGradient id="paint1_linear" x1="0.499999" y1="88.5" x2="21.2205" y2="244.557" gradientUnits="userSpaceOnUse">
<stop stop-color="#26C248"/>
<stop offset="1" stop-color="#9BF7AF"/>
</linearGradient>
<linearGradient id="paint2_linear" x1="-186.5" y1="105" x2="-132.544" y2="309.022" gradientUnits="userSpaceOnUse">
<stop stop-color="#26C248"/>
<stop offset="1" stop-color="#9BF7AF"/>
</linearGradient>
<linearGradient id="paint3_linear" x1="1780.09" y1="476.614" x2="1462.09" y2="-715.554" gradientUnits="userSpaceOnUse">
<stop stop-color="#009C22"/>
<stop offset="0.0001" stop-color="#019B22"/>
<stop offset="1" stop-color="#18D241"/>
</linearGradient>
</defs>
</svg>
