<svg width="116" height="116" viewBox="0 0 116 116" fill="none" xmlns="http://www.w3.org/2000/svg">
<path d="M25.8708 69.0608C32.2192 86.8055 51.7492 96.0434 69.4939 89.695C87.2387 83.3466 96.4766 63.8166 90.1282 46.0719C83.7798 28.3272 64.2498 19.0893 46.5051 25.4377C28.7604 31.786 19.5224 51.3161 25.8708 69.0608ZM85.0199 47.8995C90.3583 62.8212 82.5881 79.2483 67.6664 84.5867C52.7447 89.9251 36.3176 82.1549 30.9791 67.2332C25.6407 52.3115 33.411 35.8844 48.3327 30.546C63.2543 25.2075 79.6814 32.9778 85.0199 47.8995Z" fill="#15B9D7"/>
<path d="M36.1766 17.76C34.3907 18.7021 32.7874 19.7306 31.0978 20.9417C30.3874 21.4991 30.2246 22.3155 30.6858 22.7571C31.6662 24.2259 32.6466 25.6948 33.6271 27.1637C32.427 28.0479 31.2751 29.0666 30.3057 30.1716C29.3363 31.2765 28.2325 32.4296 27.2631 33.5346C25.8412 32.527 24.2848 31.5674 22.7284 30.6079C22.1327 30.2145 21.2781 30.3686 20.9327 31.0987C19.8388 32.7031 18.7929 34.4421 17.8814 36.1329C17.5361 36.863 17.6902 37.7176 18.2378 37.9767C19.7942 38.9362 21.3024 39.7613 22.8588 40.7209C22.12 42.0466 21.5638 43.4587 21.19 44.9571C20.6338 46.3692 20.26 47.8677 20.0207 49.318C18.2535 49.0405 16.4862 48.7629 14.767 48.6198C14.1331 48.5433 13.4227 49.1007 13.2599 49.9171C12.896 51.867 12.7146 53.9031 12.6196 55.7568C12.5912 56.5251 13.1486 57.2355 13.7825 57.312C15.5017 57.4551 17.3554 57.5501 19.0746 57.6932C19.0178 59.2299 19.2298 60.6704 19.3075 62.1589C19.5196 63.5994 19.7797 65.1744 20.1263 66.5667C18.3787 67.192 16.7174 67.6347 14.9698 68.2599C14.2977 68.5003 13.9523 69.2304 14.2409 70.037C14.7798 71.9671 15.4531 73.8492 16.2128 75.5486C16.5013 76.3552 17.3658 76.6525 17.9036 76.4601C19.6511 75.8349 21.2162 75.1233 22.9638 74.4981C23.5792 75.7943 24.3771 77.1768 25.1269 78.425C25.8766 79.6731 26.7609 80.8731 27.7795 82.025C26.5413 83.2262 25.1686 84.4755 23.9303 85.6766C23.4888 86.1379 23.4604 86.9062 24.0178 87.6166C25.3152 89.1237 26.6989 90.4483 28.2652 91.8592C28.9089 92.3871 29.8117 92.3674 30.2532 91.9062C31.4434 90.5706 32.6816 89.3694 33.8718 88.0338C35.1112 88.9551 36.3506 89.8764 37.542 90.6633C38.8677 91.402 40.1935 92.1408 41.5192 92.8796C40.9247 94.6086 40.2821 96.2032 39.6876 97.9323C39.4286 98.4799 39.7172 99.2865 40.5817 99.5837C42.3589 100.313 44.2705 100.993 46.1339 101.54C46.9504 101.703 47.7569 101.414 47.8334 100.78C48.4279 99.0512 48.888 97.3702 49.4825 95.6412C50.9809 96.0149 52.4312 96.2542 53.9679 96.311C55.5527 96.5022 56.9549 96.6071 58.4435 96.5294C58.6173 98.2869 58.7912 100.044 58.965 101.802C59.023 102.388 59.7148 103.05 60.4351 102.944C62.375 102.856 64.4013 102.586 66.3795 102.182C67.2342 102.028 67.7621 101.384 67.5216 100.712C67.3478 98.9544 66.9914 97.1106 66.6831 95.4012C68.0755 95.0547 69.6023 94.6601 71.0811 94.1311C72.5598 93.6021 73.856 92.9867 75.2866 92.3232C76.1326 93.8402 77.1611 95.4435 78.0071 96.9605C78.382 97.5845 79.1984 97.7473 79.8225 97.3724C81.6083 96.4303 83.2116 95.4018 84.9013 94.1907C85.6117 93.6333 85.7745 92.8169 85.3132 92.3753C84.3328 90.9065 83.3524 89.4376 82.372 87.9687C83.572 87.0845 84.7239 86.0658 85.6933 84.9609C86.6627 83.8559 87.7666 82.7028 88.736 81.5978C90.1579 82.6054 91.7143 83.565 93.2707 84.5245C93.8663 84.9179 94.721 84.7638 95.0663 84.0337C96.1603 82.4293 97.2062 80.6903 98.1177 78.9995C98.463 78.2694 98.3088 77.4148 97.7613 77.1557C96.2049 76.1962 94.6966 75.3711 93.1402 74.4115C93.879 73.0858 94.4353 71.6737 94.809 70.1753C95.3653 68.7632 95.739 67.2647 95.9783 65.8144C97.7456 66.0919 99.5129 66.3695 101.232 66.5126C101.866 66.5891 102.576 66.0317 102.739 65.2153C103.103 63.2654 103.284 61.2293 103.379 59.3757C103.408 58.6073 102.85 57.8969 102.217 57.8205C100.497 57.6773 98.6437 57.5823 96.9245 57.4392C96.9813 55.9025 96.7692 54.462 96.6916 52.9735C96.4795 51.533 96.2193 49.9581 95.8728 48.5657C97.6204 47.9404 99.2817 47.4977 101.029 46.8725C101.701 46.6321 102.047 45.902 101.758 45.0954C101.219 43.1653 100.546 41.2832 99.7863 39.5838C99.4978 38.7772 98.6332 38.4799 98.0955 38.6723C96.3479 39.2975 94.7828 40.0091 93.0353 40.6343C92.4199 39.3381 91.622 37.9556 90.8722 36.7075C90.1224 35.4593 89.2382 34.2593 88.2195 33.1074C89.4578 31.9062 90.8305 30.6569 92.0687 29.4558C92.5103 28.9945 92.5386 28.2262 91.9812 27.5158C90.6838 26.0087 89.3002 24.6841 87.782 23.4076C87.1383 22.8797 86.2355 22.8994 85.794 23.3607C84.6038 24.6963 83.3655 25.8975 82.1754 27.2331C80.936 26.3118 79.6965 25.3905 78.5052 24.6036C77.1795 23.8648 75.8537 23.126 74.5279 22.3873C75.1705 20.7926 75.765 19.0636 76.3595 17.3345C76.6185 16.7869 76.33 15.9804 75.4655 15.6831C73.6883 14.9542 71.7767 14.2733 69.9132 13.7269C69.0968 13.5641 68.2903 13.8527 68.2138 14.4866C67.6193 16.2156 67.1592 17.8966 66.5647 19.6257C65.0662 19.2519 63.6159 19.0126 62.0793 18.9558C60.4945 18.7646 59.0922 18.6597 57.6037 18.7374C57.4298 16.9799 57.256 15.2225 57.0822 13.4651C57.1586 12.8312 56.3323 12.217 55.6121 12.323C53.6721 12.4105 51.6459 12.6806 49.6676 13.085C48.813 13.2391 48.2851 13.8829 48.5256 14.555C48.6994 16.3125 49.0558 18.1563 49.364 19.8656C47.9716 20.2121 46.4448 20.6067 44.9661 21.1357C43.4874 21.6648 42.1912 22.2801 40.7605 22.9436C39.9146 21.4266 38.886 19.8233 38.04 18.3063C37.7515 17.4998 36.9351 17.337 36.1766 17.76ZM26.379 67.5141C25.792 65.4496 25.2531 63.5194 25.1175 61.4451C24.5578 56.4897 25.0352 51.4665 26.6941 46.7789C26.9914 45.9144 27.3367 45.1843 27.6821 44.4542L30.4199 45.7492C30.0746 46.4793 29.8637 47.1613 29.6527 47.8433C28.1665 52.1659 27.6792 56.7377 28.2291 61.2417C28.4511 63.1335 28.8074 64.9773 29.4326 66.7249L26.379 67.5141ZM64.4637 41.303C61.0919 39.9315 57.2022 39.6551 53.3419 40.7329L49.6387 30.3818C53.3164 29.2177 57.1482 28.9083 61.038 29.1847C63.8906 29.5289 66.5705 30.2381 69.0777 31.3123L64.4637 41.303ZM71.268 32.3484C71.8156 32.6074 72.4113 33.0008 72.9588 33.2598C76.6192 35.4379 79.7134 38.5767 81.9147 42.1866C82.8951 43.6555 83.6067 45.2206 84.3182 46.7857L73.9671 50.4889C72.3997 46.9555 69.7186 44.1237 66.4715 42.2527L71.268 32.3484ZM51.0566 41.5505C47.5232 43.1179 44.5571 45.8471 42.8205 49.0462L32.9642 44.384C34.221 41.9631 35.9773 39.6668 37.8298 37.6394C40.479 34.8719 43.82 32.7668 47.4015 31.3339L51.0566 41.5505ZM30.8152 65.927C30.3725 64.2658 29.9298 62.6045 29.7559 60.8471C29.3022 56.612 29.7513 52.3571 31.0168 48.2651C31.2277 47.5831 31.4867 47.0355 31.6976 46.3535L41.5539 51.0157C40.2304 54.5219 39.9541 58.4117 40.9837 62.1374L30.7671 65.7926L30.8152 65.927ZM40.5069 85.8116C36.251 83.2401 32.6955 79.6597 29.9849 75.4739C28.9083 73.7361 27.918 71.8159 27.1102 69.9819L29.9333 68.972C30.5585 70.7195 31.4526 72.3709 32.4811 73.9742C34.913 77.8049 38.1897 81.0301 42.0807 83.4289C42.6763 83.8224 43.4064 84.1677 44.0021 84.5612L42.7071 87.299C42.0152 86.6367 41.2851 86.2914 40.5069 85.8116ZM65.0769 73.5338C68.6103 71.9664 71.442 69.2853 73.313 66.0382L83.1692 70.7003C81.9124 73.1212 80.2043 75.5519 78.1693 77.4931C75.5201 80.2605 72.1791 82.3656 68.5976 83.7985L64.9424 73.5819L65.0769 73.5338ZM66.4948 84.7025C62.8171 85.8666 58.8508 86.2241 55.0955 85.8996C52.291 85.6899 49.563 84.8462 47.0557 83.772L51.7179 73.9157C55.2241 75.2391 59.1138 75.5155 62.8396 74.4858L66.4948 84.7025ZM44.8655 82.7359C44.3179 82.4769 43.7222 82.0835 43.1266 81.69C39.4662 79.5119 36.372 76.3731 34.1707 72.7632C33.1903 71.2943 32.4787 69.7293 31.7672 68.1642L42.1183 64.461C43.7338 68.1288 46.4148 70.9606 49.6139 72.6971L44.8655 82.7359ZM54.5218 90.6539C51.2179 90.3196 48.0385 89.4858 44.9837 88.1525L46.2787 85.4147C48.9685 86.5753 51.9653 87.3228 54.9524 87.6188C59.0727 88.116 63.3079 87.6623 67.2544 86.402L68.2644 89.225C63.7801 90.6776 59.0936 91.1412 54.5218 90.6539ZM87.5979 72.9068C86.0821 75.8752 84.0187 78.5847 81.8111 80.8909C78.5859 84.1676 74.8034 86.7339 70.5497 88.4074L69.5397 85.5844C73.3901 84.0552 76.8175 81.7676 79.6874 78.7696C81.8088 76.6459 83.5169 74.2152 84.9464 71.4292L87.5979 72.9068ZM89.7545 47.5702C90.3415 49.6347 90.8804 51.5649 91.016 53.6393C91.5757 58.5946 91.0983 63.6178 89.4394 68.3054C89.094 69.0355 88.9312 69.8519 88.5858 70.582L85.848 69.287C86.0589 68.605 86.4042 67.8749 86.6633 67.3274C88.1495 63.0047 88.6368 58.433 88.0869 53.929C87.865 52.0371 87.5086 50.1933 86.8834 48.4457L89.7545 47.5702ZM85.1358 49.0709C85.7129 50.6841 86.0212 52.3934 86.195 54.1509C86.6488 58.386 86.1997 62.6408 84.9342 66.7328C84.7233 67.4148 84.4643 67.9624 84.2053 68.51L74.349 63.8479C75.6724 60.3417 75.9969 56.5863 74.9191 52.7261L85.1358 49.0709ZM62.0394 68.8583C55.8557 71.0706 48.9197 67.7899 46.7074 61.6061C44.4951 55.4223 47.7759 48.4864 53.9597 46.2741C60.2779 44.0137 67.0793 47.3425 69.2916 53.5263C71.6384 59.662 68.3576 66.5979 62.0394 68.8583ZM75.5785 29.1383C79.8345 31.7098 83.3899 35.2902 86.1005 39.476C87.1772 41.2138 88.1674 43.134 88.9752 44.9679L86.1521 45.9779C85.5269 44.2303 84.6328 42.5789 83.6043 40.9756C81.1724 37.145 77.8957 33.9198 74.0047 31.5209C73.4091 31.1275 72.8134 30.7341 72.1314 30.5231L73.4264 27.7853C74.1183 28.4476 74.8484 28.7929 75.5785 29.1383ZM61.6117 24.4304C64.9156 24.7647 68.1431 25.7329 71.1498 26.9318L69.8548 29.6696C67.165 28.509 64.1681 27.7616 61.133 27.331C57.0126 26.8339 52.9601 27.374 48.9654 28.4998L47.9554 25.6768C52.3534 24.4067 57.0399 23.9431 61.6117 24.4304ZM46.7282 29.4518C42.8778 30.981 39.316 33.3167 36.4461 36.3147C34.3248 38.4384 32.6166 40.8692 31.139 43.5207L28.4011 42.2256C29.9169 39.2572 31.8459 36.5958 34.188 34.2415C37.4131 30.9648 41.3301 28.3504 45.5838 26.6769L46.7282 29.4518Z" fill="#0BDBD8"/>
<path d="M36.1768 17.7605C34.391 18.7027 32.7877 19.7312 31.098 20.9422C30.3877 21.4996 30.2248 22.3161 30.6861 22.7576C31.6665 24.2265 32.6469 25.6954 33.6273 27.1642C32.4273 28.0485 31.2754 29.0671 30.306 30.1721C29.3366 31.2771 28.2328 32.4302 27.2634 33.5352C25.8414 32.5275 24.285 31.568 22.7287 30.6084C22.133 30.215 21.2783 30.3691 20.933 31.0992C19.839 32.7037 18.7931 34.4426 17.8817 36.1334C17.5363 36.8635 17.6905 37.7182 18.238 37.9772C19.7944 38.9367 21.3027 39.7618 22.8591 40.7214C22.1203 42.0472 21.564 43.4592 21.1903 44.9577C20.634 46.3698 20.2603 47.8682 20.021 49.3185C18.2537 49.041 16.4864 48.7634 14.7672 48.6203C14.1333 48.5438 13.4229 49.1013 13.2601 49.9177C12.8962 51.8675 12.7149 53.9037 12.6199 55.7573C12.5915 56.5256 13.1489 57.236 13.7828 57.3125C15.502 57.4556 17.3556 57.5506 19.0748 57.6937C19.018 59.2304 19.2301 60.6709 19.3077 62.1595C19.5198 63.6 19.78 65.1749 20.1265 66.5673C18.3789 67.1925 16.7177 67.6352 14.9701 68.2604C14.2979 68.5009 13.9526 69.231 14.2412 70.0376C14.5778 70.9786 14.78 71.9677 15.1167 72.9087L46.4388 61.7028C44.2265 55.5191 47.5073 48.5832 53.6911 46.3708C60.0093 44.1104 66.8107 47.4393 69.023 53.6231L100.345 42.4172C100.008 41.4762 99.6719 40.5352 99.2008 39.6422C98.9122 38.8357 98.0476 38.5384 97.5099 38.7308C95.7623 39.356 94.1973 40.0676 92.4497 40.6928C91.8343 39.3966 91.0365 38.014 90.2867 36.7659C89.5369 35.5178 88.6526 34.3178 87.634 33.1659C88.8722 31.9647 90.2449 30.7154 91.4832 29.5142C91.9247 29.053 91.9531 28.2847 91.3957 27.5743C90.0983 26.0672 88.7146 24.7426 87.1965 23.4661C86.5527 22.9382 85.6499 22.9579 85.2084 23.4191C84.0182 24.7548 82.78 25.9559 81.5898 27.2916C80.3504 26.3703 79.111 25.4489 77.9197 24.6621C76.5939 23.9233 75.2681 23.1845 73.9424 22.4457C74.585 20.8511 75.1795 19.1221 75.774 17.393C76.033 16.8455 75.7444 16.0389 74.8799 15.7416C73.1027 15.0127 71.1912 14.3318 69.3277 13.7854C68.5113 13.6226 67.7047 13.9112 67.6282 14.5451C67.0337 16.2741 66.5736 17.9551 65.9791 19.6841C64.4807 19.3104 63.0304 19.0711 61.4937 19.0143C59.9089 18.8231 58.5067 18.7183 57.0181 18.7959C56.8443 17.0385 56.6704 15.281 56.4966 13.5236C56.5731 12.8897 55.7468 12.2755 55.0265 12.3815C53.0866 12.469 51.0603 12.739 49.0821 13.1435C48.2274 13.2976 47.6995 13.9414 47.94 14.6135C48.1138 16.3709 48.4702 18.2147 48.7785 19.9241C47.3861 20.2706 45.8593 20.6652 44.3805 21.1942C42.9018 21.7232 41.6056 22.3386 40.175 23.0021C39.329 21.4851 38.3005 19.8818 37.4545 18.3648C37.7517 17.5003 36.9353 17.3375 36.1768 17.7605ZM26.3793 67.5147C25.7923 65.4501 25.2534 63.52 25.1178 61.4456C24.558 56.4902 25.0355 51.4671 26.6944 46.7794C26.9916 45.9149 27.337 45.1848 27.6823 44.4547L30.4202 45.7498C30.0748 46.4799 29.8639 47.1618 29.653 47.8438C28.1668 52.1665 27.6795 56.7382 28.2294 61.2422C28.4513 63.1341 28.8077 64.9778 29.4329 66.7254L26.3793 67.5147ZM51.0569 41.551C47.5235 43.1184 44.5573 45.8476 42.8208 49.0467L32.9645 44.3846C34.2213 41.9637 35.9776 39.6674 37.83 37.6399C40.4792 34.8725 43.8203 32.7674 47.4018 31.3344L51.0569 41.551ZM49.639 30.3824C53.3167 29.2183 57.1485 28.9088 61.0383 29.1852C63.8909 29.5294 66.5707 30.2386 69.078 31.3129L64.4159 41.1692C61.0441 39.7977 57.1543 39.5213 53.2941 40.5991L49.639 30.3824ZM41.7367 51.1026C40.4132 54.6088 40.1369 58.4985 41.1665 62.2243L30.8154 65.9276C30.3727 64.2663 29.93 62.6051 29.7562 60.8476C29.3025 56.6125 29.7515 52.3577 31.017 48.2657C31.2279 47.5837 31.4869 47.0361 31.6979 46.3541L41.7367 51.1026ZM73.9674 50.4894C72.4 46.956 69.7189 44.1243 66.4717 42.2533L71.1338 32.397C71.6814 32.656 72.2771 33.0495 72.8246 33.3085C76.485 35.4866 79.5792 38.6254 81.7805 42.2353C82.7609 43.7042 83.4725 45.2692 84.184 46.8343L73.9674 50.4894ZM75.5787 29.1388C79.8347 31.7104 83.3902 35.2907 86.1008 39.4766C87.1774 41.2143 88.1677 43.1346 88.9754 44.9685L86.1524 45.9785C85.5272 44.2309 84.6331 42.5795 83.6046 40.9762C81.1727 37.1455 77.8959 33.9204 74.005 31.5215C73.4093 31.1281 72.8136 30.7346 72.1316 30.5237L73.4267 27.7858C74.1185 28.4481 74.8486 28.7935 75.5787 29.1388ZM61.6119 24.4309C64.9159 24.7652 68.1434 25.7335 71.1501 26.9323L69.855 29.6702C67.1653 28.5096 64.1684 27.7621 61.1333 27.3316C57.0129 26.8344 52.9603 27.3745 48.9657 28.5004L47.9557 25.6773C52.3536 24.4072 57.0401 23.9436 61.6119 24.4309ZM46.7284 29.4524C42.8781 30.9815 39.3163 33.3173 36.4463 36.3153C34.325 38.4389 32.6168 40.8697 31.1393 43.5212L28.4014 42.2262C29.9172 39.2577 31.8462 36.5963 34.1883 34.2421C37.4134 30.9653 41.3304 28.3509 45.584 26.6775L46.7284 29.4524Z" fill="#0EEEE5"/>
<path d="M46.7057 61.6073C48.9661 67.9255 55.8539 71.0718 62.0377 68.8595C68.3559 66.5991 71.5022 59.7113 69.2899 53.5275C67.0295 47.2093 60.1417 44.063 53.9579 46.2753C47.7742 48.4876 44.4453 55.2891 46.7057 61.6073ZM64.316 55.307C65.5184 58.6678 63.7053 62.5008 60.3446 63.7031C56.9838 64.9055 53.1508 63.0924 51.9485 59.7317C50.7461 56.3709 52.5592 52.5379 55.9199 51.3356C59.2807 50.1332 63.0656 51.8118 64.316 55.307Z" fill="#15B9D7"/>
</svg>
