<svg width="80" height="81" viewBox="0 0 80 81" fill="none" xmlns="http://www.w3.org/2000/svg">
<path d="M13.833 52.4364C13.2801 51.3578 12.7669 50.0703 12.4626 48.8224C12.333 48.3651 12.5364 47.8627 12.9938 47.733C14.0328 47.3891 15.196 46.9605 16.235 46.6166C15.9757 45.7018 15.8407 44.7024 15.5813 43.7877C15.4463 42.7883 15.3959 41.9132 15.2608 40.9138C14.0922 40.8004 13.0081 40.8112 11.8395 40.6977C11.4217 40.6185 11.0436 40.3304 11.0382 39.7884C11.067 38.4955 11.0958 37.2026 11.3335 35.9493C11.328 35.4073 11.825 35.0688 12.2428 35.148C13.4114 35.2615 14.5801 35.3749 15.6245 35.573C15.8226 34.5286 15.981 33.693 16.2637 32.7729C16.5464 31.8527 16.8291 30.9326 17.3207 30.052C16.2313 29.5208 15.3507 29.0293 14.2613 28.4981C13.8435 28.4188 13.7535 27.7526 13.957 27.2502C14.4882 26.1608 15.1436 24.9867 15.8837 23.9369C16.1718 23.5588 16.7534 23.3445 17.1316 23.6326C18.0967 24.2484 19.0619 24.8642 20.0271 25.4801C20.6033 24.7238 21.1795 23.9675 21.8403 23.3354C22.5012 22.7034 23.2863 21.9867 23.9471 21.3547C23.2701 20.3607 22.6776 19.491 21.8763 18.5816C21.6224 18.2089 21.7016 17.7911 22.114 17.3283C23.0233 16.527 24.1415 15.7653 25.2202 15.2125C25.5929 14.9586 26.2195 15.0774 26.4734 15.4502C27.1505 16.4442 27.7429 17.3139 28.2958 18.3925C29.1259 18.0089 30.0802 17.5407 30.9104 17.1572C31.7405 16.7736 32.6552 16.5143 33.57 16.255C33.3503 15.1314 33.1306 14.0078 32.9109 12.8841C32.7812 12.4268 33.0693 12.0486 33.6509 11.8343C34.8988 11.53 36.1071 11.4346 37.4396 11.2545C37.9816 11.2491 38.3597 11.5372 38.4894 11.9946C38.7091 13.1182 38.8045 14.3264 38.8154 15.4105C39.6905 15.36 40.7745 15.3492 41.7343 15.423C42.694 15.4969 43.6538 15.5707 44.574 15.8534C44.8963 14.7243 45.2186 13.5953 45.4166 12.5509C45.4959 12.1331 45.9929 11.7946 46.4952 11.9981C47.7485 12.2358 48.9622 12.6823 50.1759 13.1289C50.6782 13.3324 51.0168 13.8293 50.7287 14.2075C50.4064 15.3365 49.9994 16.3413 49.6771 17.4703C50.473 17.8377 51.4778 18.2446 52.2341 18.8208C53.1146 19.3124 53.8709 19.8886 54.6272 20.4648C55.3277 19.6239 56.1524 18.6983 56.8529 17.8574C57.141 17.4793 57.683 17.4739 58.0611 17.762C58.9867 18.5867 59.9122 19.4114 60.9224 20.3603C61.3006 20.6484 61.3906 21.3147 61.0179 21.5686C60.3174 22.4095 59.4081 23.2108 58.623 23.9275C59.255 24.5884 59.8475 25.4581 60.3553 26.2036C60.8631 26.9491 61.4555 27.8188 61.8391 28.6489C62.7934 28.1807 63.9566 27.7521 64.911 27.284C65.2837 27.0301 65.7862 27.2335 66.0004 27.8151C66.5533 28.8937 67.0665 30.1812 67.3708 31.4291C67.5004 31.8865 67.297 32.3889 66.8396 32.5185C65.8006 32.8625 64.6374 33.291 63.5984 33.635C63.8577 34.5497 63.9927 35.5491 64.252 36.4639C64.3871 37.4632 64.4375 38.3384 64.5726 39.3378C65.7412 39.4512 66.8253 39.4404 67.9939 39.5538C68.4117 39.633 68.7898 39.9211 68.7952 40.4631C68.7664 41.756 68.653 42.9247 68.4999 44.3022C68.5053 44.8442 68.0084 45.1827 67.5906 45.1035C66.4219 44.9901 65.2533 44.8767 64.2089 44.6786C64.0108 45.723 63.8524 46.5585 63.5697 47.4787C63.287 48.3988 63.0043 49.319 62.5127 50.1995C63.6021 50.7307 64.4827 51.2223 65.5721 51.7535C65.9898 51.8327 66.0799 52.499 65.8764 53.0013C65.3452 54.0908 64.6898 55.2648 63.9497 56.3146C63.6616 56.6928 63.08 56.9071 62.7018 56.619C61.7367 56.0031 60.7715 55.3873 59.8063 54.7715C59.2301 55.5278 58.6539 56.2841 57.9931 56.9161C57.3322 57.5482 56.5471 58.2649 55.8863 58.8969C56.5633 59.8909 57.1558 60.7606 57.9571 61.6699C58.211 62.0427 58.1317 62.4604 57.7194 62.9232C56.81 63.7245 55.6918 64.4862 54.6132 65.039C54.1162 65.3776 53.6139 65.1741 53.36 64.8014C52.6829 63.8074 52.0904 62.9377 51.5376 61.8591C50.7075 62.2426 49.7532 62.7108 48.923 63.0944C48.0929 63.4779 47.1782 63.7372 46.2634 63.9965C46.4831 65.1202 46.7028 66.2438 46.9225 67.3674C47.0522 67.8248 46.7641 68.2029 46.1824 68.4172C44.9346 68.7215 43.7263 68.817 42.3938 68.9971C41.8518 69.0025 41.4736 68.7144 41.344 68.257C41.1243 67.1334 41.0289 65.9251 41.018 64.8411C40.1429 64.8915 39.0589 64.9023 38.0991 64.8285C37.1394 64.7547 36.1796 64.6809 35.2594 64.3982C34.9371 65.5272 34.6148 66.6562 34.4168 67.7006C34.3375 68.1184 33.8405 68.4569 33.3381 68.2535C32.0849 68.0158 30.8712 67.5692 29.6575 67.1227C29.1551 66.9192 28.8166 66.4222 29.1047 66.0441C29.427 64.915 29.834 63.9102 30.1563 62.7812C29.3604 62.4139 28.3556 62.0069 27.5993 61.4307C26.7187 60.9391 25.9625 60.3629 25.2062 59.7867C24.5057 60.6276 23.681 61.5532 22.9805 62.3941C22.6924 62.7723 22.1504 62.7777 21.7723 62.4896C20.8467 61.6649 19.9212 60.8402 18.911 59.8912C18.5328 59.6031 18.4428 58.9368 18.8155 58.6829C19.516 57.842 20.4253 57.0407 21.2104 56.324C20.5784 55.6632 19.9859 54.7935 19.4781 54.048C18.9703 53.3025 18.3779 52.4328 17.9943 51.6026C17.04 52.0708 15.8767 52.4994 14.9224 52.9676C14.465 53.0972 13.9626 52.8938 13.833 52.4364ZM38.9272 43.3463C39.6385 43.5894 40.3894 43.6236 41.1799 43.4489C42.552 43.06 43.6648 41.7563 43.6486 40.1302C43.717 38.6285 42.7014 37.1375 41.3635 36.7756C39.941 36.2894 38.2357 36.7234 37.3714 37.8578C36.8348 38.4052 36.5917 39.1165 36.6421 39.9917C36.6079 40.7425 36.9069 41.4484 37.33 42.0696C37.5443 42.6513 38.216 43.1032 38.9272 43.3463Z" fill="#DC2D33"/>
<path d="M26.5174 15.2398C27.1945 16.2338 27.7869 17.1035 28.3397 18.1821C29.1698 17.7986 30.1242 17.3304 30.9543 16.9468C31.7844 16.5633 32.6992 16.304 33.6139 16.0447C33.3942 14.921 33.1745 13.7974 32.9548 12.6738C32.8252 12.2164 33.1133 11.8383 33.6949 11.624C34.9428 11.3197 36.151 11.2242 37.4835 11.0441C38.0255 11.0387 38.4037 11.3268 38.5333 11.7842C38.753 12.9078 38.8485 14.1161 38.8593 15.2001C39.7344 15.1497 40.8184 15.1389 41.7782 15.2127C42.738 15.2865 43.6977 15.3603 44.6179 15.643C44.9402 14.514 45.2625 13.3849 45.4606 12.3405C45.5398 11.9228 46.0368 11.5843 46.5392 11.7877C47.7925 12.0254 49.0062 12.472 50.2198 12.9185C50.7222 13.122 51.0607 13.619 50.7726 13.9971C50.4503 15.1262 50.0434 16.1309 49.7211 17.26C50.517 17.6273 51.5218 18.0343 52.2781 18.6105C53.1586 19.1021 53.9149 19.6783 54.6712 20.2545C55.3716 19.4135 56.1963 18.488 56.8968 17.6471C57.1849 17.2689 57.7269 17.2635 58.1051 17.5516C59.0306 18.3763 59.9562 19.201 60.9664 20.15C61.3445 20.4381 61.4346 21.1043 61.0618 21.3582C60.3614 22.1992 59.452 23.0005 58.667 23.7172C59.299 24.378 59.8914 25.2477 60.3992 25.9932C60.907 26.7387 61.4995 27.6084 61.883 28.4385C62.8374 27.9703 64.0006 27.5418 64.955 27.0736C65.3277 26.8197 65.8301 27.0232 66.0444 27.6048C66.5972 28.6834 67.1104 29.9709 67.4148 31.2187C67.5444 31.6761 67.3409 32.1785 66.8836 32.3082C65.8446 32.6521 64.6813 33.0807 63.6423 33.4246C63.9016 34.3394 64.0367 35.3387 64.296 36.2535C64.4311 37.2529 64.4815 38.128 64.6166 39.1274C65.7852 39.2408 66.8692 39.23 68.0379 39.3434C68.4556 39.4227 68.8338 39.7108 68.8392 40.2528C68.8104 41.5457 68.6969 42.7143 68.5439 44.0919C68.5493 44.6339 68.0523 44.9724 67.6346 44.8932C66.4659 44.7797 65.2973 44.6663 64.2529 44.4682C64.179 45.428 63.8963 46.3482 63.6136 47.2683C63.3309 48.1885 63.0482 49.1086 62.5567 49.9892C63.6461 50.5204 64.5266 51.0119 65.616 51.5431C66.0338 51.6223 66.1238 52.2886 65.9204 52.791C65.3892 53.8804 64.7337 55.0545 63.9937 56.1043C63.7056 56.4824 63.1239 56.6967 62.7458 56.4086C61.7806 55.7928 60.8154 55.177 59.8503 54.5611C59.2741 55.3174 58.6978 56.0737 58.037 56.7058C57.3761 57.3378 56.5911 58.0545 55.9302 58.6865C56.6073 59.6805 57.1997 60.5502 58.001 61.4596C58.2549 61.8323 58.1757 62.2501 57.7633 62.7129C57.2664 63.0514 56.7694 63.3899 56.1481 63.8131L51.4087 56.8553C52.6511 56.0089 53.809 55.0384 54.8822 53.9435C57.0286 51.7539 58.5033 49.1122 59.391 46.1429C60.2787 43.1736 60.5398 40.0854 60.0104 37.1719C59.6052 34.1737 58.4095 31.3503 56.6322 28.7411C54.9395 26.2562 52.6256 24.1944 50.0236 22.5108C47.382 21.036 44.4127 20.1483 41.4487 19.8026C38.3606 19.5416 35.3624 19.9467 32.5389 21.1424C31.1272 21.7403 29.8001 22.4624 28.5576 23.3087L23.6489 16.1024C24.1459 15.7638 24.6429 15.4253 25.2641 15.0021C25.8457 14.7879 26.2635 14.8671 26.5174 15.2398Z" fill="#FF4249"/>
<path d="M41.3859 21.8442C44.0563 22.0261 46.8167 22.8742 49.1648 24.185C51.5129 25.4959 53.5333 27.3938 55.1414 29.7545C56.6648 31.991 57.6912 34.5659 58.136 37.3552C58.4961 40.0202 58.2747 42.8995 57.4662 45.4511C56.6577 48.0027 55.2226 50.4354 53.3247 52.4558C52.3757 53.466 51.3421 54.3519 50.2239 55.1136L49.1237 53.4984C50.1177 52.8214 51.027 52.02 51.8517 51.0945C53.5011 49.2434 54.7724 47.1041 55.5413 44.7614C56.3101 42.4187 56.4524 39.9572 56.0526 37.5011C55.6528 35.0449 54.7957 32.7184 53.4415 30.7305C52.0874 28.7425 50.1516 26.9689 48.097 25.8219C45.9578 24.5506 43.4909 23.8664 41.1536 23.6395C38.692 23.4973 36.2359 23.897 33.9094 24.7542C32.7462 25.1828 31.6676 25.7356 30.6736 26.4127L29.5734 24.7974C30.6916 24.0357 31.8944 23.3983 33.1819 22.8851C35.9262 22.1072 38.7154 21.6624 41.3859 21.8442Z" fill="#FF4249"/>
<path d="M32.8638 28.5605C32.6099 28.1878 32.9377 27.6008 33.6435 27.3018C35.3037 26.5347 36.9244 25.9765 38.6746 25.8756C39.3409 25.7856 39.9279 26.1133 40.0576 26.5707C40.153 27.779 40.2881 28.7783 40.3835 29.9866C41.4675 29.9758 42.5119 30.1739 43.641 30.4962C44.6458 30.9031 45.7352 31.4343 46.5761 32.1348C47.2766 31.2938 48.1859 30.4925 48.971 29.7758C49.2591 29.3977 49.8857 29.5165 50.4331 30.0531C51.6972 31.3748 52.6282 32.7415 53.3953 34.4018C53.6942 35.1076 53.5754 35.7343 53.118 35.8639C52.0394 36.4168 51.0004 36.7607 50.0461 37.2289C50.39 38.2679 50.4855 39.4761 50.4963 40.5601C50.5071 41.6442 50.1848 42.7732 49.7778 43.778C50.8672 44.3092 51.872 44.7161 52.8372 45.3319C53.255 45.4112 53.345 46.0774 52.9777 46.8733C52.243 48.4651 51.0059 49.8535 49.8085 51.0329C49.2719 51.5804 48.521 51.5462 48.3518 51.2977C47.5504 50.3883 46.8338 49.6032 46.0324 48.6939L45.9082 48.7785L43.3692 45.0511C43.8662 44.7126 44.2785 44.2498 44.6909 43.787C45.3913 42.9461 45.8379 41.7324 45.8667 40.4395C45.9801 39.2709 45.5516 38.1077 44.8745 37.1137C44.1974 36.1197 43.1476 35.3796 42.1428 34.9727C41.0138 34.6504 39.8451 34.537 38.5973 34.8413C38.0157 35.0556 37.434 35.2699 36.9371 35.6084L34.398 31.881L34.5223 31.7964C33.8849 30.5935 33.4167 29.6391 32.8638 28.5605Z" fill="#FF4249"/>
<path d="M32.1683 51.0421C32.7842 50.077 33.3153 48.9875 33.9312 48.0224C33.0902 47.3219 32.2493 46.6215 31.5723 45.6275C30.9798 44.7578 30.427 43.6791 30.2073 42.5555C29.0837 42.7752 27.9601 42.9949 26.7518 43.0903C26.2944 43.22 25.8316 42.8077 25.7812 41.9325C25.4715 40.1426 25.5795 38.432 25.8964 36.7609C26.1395 36.0497 26.5518 35.5869 26.9696 35.6661C28.014 35.8642 29.2673 36.1019 30.3963 36.4242C30.8033 35.4194 31.2102 34.4146 31.9107 33.5737C32.6111 32.7328 33.3962 32.0161 34.266 31.4236L36.805 35.151C36.308 35.4896 35.8956 35.9523 35.4833 36.4151C34.7828 37.2561 34.3362 38.4697 34.3074 39.7626C34.194 40.9313 34.6226 42.0945 35.2997 43.0885C35.9767 44.0824 37.0265 44.8225 38.0313 45.2295C39.1603 45.5518 40.329 45.6652 41.5769 45.3609C42.1585 45.1466 42.7401 44.9323 43.2371 44.5938L45.7761 48.3212C44.9064 48.9136 43.952 49.3818 42.913 49.7257C41.874 50.0697 40.6658 50.1651 39.706 50.0913C39.5926 51.26 39.3945 52.3044 39.1568 53.5576C39.0776 53.9754 38.5806 54.3139 37.7451 54.1555C36.074 53.8386 34.358 53.1885 32.8904 52.3692C32.1791 52.1261 31.8802 51.4203 32.1683 51.0421Z" fill="#FF6268"/>
<path d="M22.6151 34.6289C23.4236 32.0773 24.8588 29.6445 26.7567 27.6241C27.7056 26.6139 28.7392 25.728 29.8574 24.9663L30.9577 26.5815C29.9637 27.2586 29.0543 28.0599 28.2296 28.9855C26.5802 30.8366 25.309 32.9758 24.5401 35.3185C23.7712 37.6612 23.629 40.1227 24.0288 42.5789C24.4285 45.035 25.2857 47.3615 26.6398 49.3494C27.9939 51.3374 29.9297 53.111 31.9843 54.2581C34.1235 55.5293 36.5905 56.2136 38.9278 56.4404C41.3893 56.5827 43.8454 56.1829 46.1719 55.3257C47.3351 54.8972 48.4138 54.3443 49.4077 53.6673L50.508 55.2825C49.3898 56.0442 48.1869 56.6816 46.8994 57.1948C44.3244 58.2212 41.6594 58.5814 38.8647 58.4842C36.1943 58.3024 33.4339 57.4543 31.0858 56.1434C28.7377 54.8325 26.7173 52.9346 25.1092 50.5739C23.5858 48.3375 22.5594 45.7625 22.1146 42.9732C21.5852 40.0597 21.8066 37.1804 22.6151 34.6289Z" fill="#FF6268"/>
<path d="M18.8998 58.8059C19.6003 57.965 20.5096 57.1637 21.2947 56.447C20.6626 55.7861 20.0702 54.9164 19.5624 54.1709C19.0546 53.4255 18.4622 52.5557 18.0786 51.7256C17.1243 52.1938 15.961 52.6224 15.0067 53.0906C14.6339 53.3445 14.1315 53.141 13.9172 52.5594C13.3644 51.4808 12.8512 50.1933 12.5469 48.9454C12.4172 48.488 12.6207 47.9856 13.0781 47.856C14.1171 47.512 15.2803 47.0835 16.3193 46.7395C16.06 45.8248 15.9249 44.8254 15.6656 43.9107C15.5306 42.9113 15.4801 42.0361 15.3451 41.0368C14.1764 40.9233 13.0924 40.9342 11.9238 40.8207C11.506 40.7415 11.1279 40.4534 11.1224 39.9114C11.1512 38.6185 11.2647 37.4498 11.4177 36.0723C11.4123 35.5303 11.9093 35.1918 12.3271 35.271C13.4957 35.3844 14.6644 35.4979 15.7088 35.6959C15.9068 34.6515 16.0653 33.816 16.348 32.8959C16.6307 31.9757 16.9134 31.0555 17.405 30.175C16.3155 29.6438 15.435 29.1522 14.3456 28.621C13.9278 28.5418 13.8378 27.8756 14.0412 27.3732C14.5724 26.2838 15.2279 25.1097 15.968 24.0599C16.2561 23.6817 16.8377 23.4674 17.2158 23.7556C18.181 24.3714 19.1462 24.9872 20.1113 25.603C20.6876 24.8467 21.2638 24.0904 21.9246 23.4584C22.5855 22.8263 23.3706 22.1097 24.0314 21.4776C23.3543 20.4837 22.7619 19.6139 21.9606 18.7046C21.7067 18.3318 21.7859 17.9141 22.1983 17.4513C22.6953 17.1128 23.1922 16.7742 23.8135 16.3511L28.5529 23.3089C27.3105 24.1552 26.1527 25.1258 25.0795 26.2206C22.9331 28.4103 21.4583 31.0519 20.5706 34.0212C19.6829 36.9906 19.4218 40.0788 19.9513 42.9923C20.3564 45.9904 21.5521 48.8139 23.3294 51.4231C25.0221 53.908 27.336 55.9698 29.938 57.6534C32.5796 59.1281 35.549 60.0158 38.5129 60.3615C41.6011 60.6226 44.5992 60.2174 47.4227 59.0217C48.8344 58.4239 50.1615 57.7018 51.404 56.8555L56.3127 64.0618C55.8157 64.4003 55.3187 64.7389 54.6975 65.162C54.3248 65.4159 53.6981 65.2971 53.4442 64.9243C52.7672 63.9304 52.1747 63.0606 51.6219 61.982C50.7918 62.3656 49.8374 62.8338 49.0073 63.2173C48.1772 63.6009 47.2625 63.8602 46.3477 64.1195C46.5674 65.2431 46.7871 66.3667 47.0068 67.4904C47.1365 67.9477 46.8483 68.3259 46.2667 68.5402C45.0189 68.8445 43.8106 68.94 42.4781 69.12C41.9361 69.1254 41.5579 68.8373 41.4283 68.38C41.2086 67.2563 41.1131 66.0481 41.1023 64.9641C40.2272 65.0145 39.1432 65.0253 38.1834 64.9515C37.2236 64.8777 36.2639 64.8038 35.3437 64.5211C35.0214 65.6502 34.6991 66.7792 34.501 67.8236C34.4218 68.2414 33.9248 68.5799 33.4224 68.3764C32.1691 68.1388 30.9555 67.6922 29.7418 67.2456C29.2394 67.0422 28.9009 66.5452 29.189 66.167C29.5113 65.038 29.9183 64.0332 30.2406 62.9042C29.4447 62.5368 28.4399 62.1299 27.6836 61.5537C26.803 61.0621 26.0467 60.4859 25.2904 59.9097C24.59 60.7506 23.7653 61.6762 23.0648 62.5171C22.7767 62.8952 22.2347 62.9006 21.8566 62.6125C20.931 61.7878 20.0054 60.9631 18.9952 60.0142C18.5325 59.6018 18.5271 59.0598 18.8998 58.8059Z" fill="#FF6268"/>
</svg>
