<svg width="195" height="196" viewBox="0 0 195 196" fill="none" xmlns="http://www.w3.org/2000/svg">
<path d="M121.995 79.0368C132.6 92.7441 130.104 112.306 116.397 122.911C102.689 133.515 83.1277 131.019 72.5228 117.312C61.9179 103.605 64.4141 84.0431 78.1214 73.4381C91.6712 62.9551 111.512 65.487 121.995 79.0368ZM84.8122 107.804C90.0537 114.579 99.8344 115.827 106.609 110.586C113.384 105.344 114.632 95.5633 109.391 88.7884C104.149 82.0135 94.3685 80.7654 87.5936 86.0069C80.8187 91.2484 79.5707 101.029 84.8122 107.804Z" fill="#05C4E4"/>
<path d="M110.021 88.299C115.506 95.389 114.187 105.729 107.097 111.214C100.007 116.699 89.6669 115.38 84.1816 108.29C78.6963 101.2 80.0157 90.8602 87.1057 85.3749C94.3532 79.7677 104.535 81.209 110.021 88.299ZM89.8536 103.902C93.0229 107.998 98.8914 108.747 102.988 105.578C107.084 102.408 107.833 96.5399 104.664 92.4435C101.495 88.347 95.626 87.5982 91.5296 90.7674C87.4332 93.9367 86.6843 99.8052 89.8536 103.902Z" fill="#07E0F2"/>
<path d="M110.024 88.2976L104.51 92.564C101.341 88.4675 95.4722 87.7186 91.3758 90.8879C87.2793 94.0572 86.5305 99.9257 89.6998 104.022L84.1853 108.288C78.7 101.198 80.0194 90.8588 87.1094 85.3735C94.357 79.7663 104.539 81.2076 110.024 88.2976Z" fill="#0DECE7"/>
<path d="M59.5721 39.7192C61.2696 38.6578 62.967 37.5964 64.7864 36.6925C66.6057 35.7887 68.4251 34.8848 70.3663 34.1385C70.3663 34.1385 74.2255 41.731 78.6668 40.3098C83.1082 38.8885 81.9068 30.4992 81.9068 30.4992C83.8124 30.0323 85.8398 29.723 87.8673 29.4138C89.8948 29.1045 91.8866 29.0747 94.036 28.9229C94.036 28.9229 94.958 37.2766 99.6224 37.4458C102.016 37.6092 103.541 35.6738 104.664 33.5452C105.63 31.5384 106.037 29.4604 106.037 29.4604C107.994 29.71 110.072 30.1172 112.15 30.5244C114.228 30.9315 116.148 31.4606 118.069 31.9897C118.069 31.9897 116.161 40.2662 120.489 41.9546C124.94 43.8005 129.134 36.5257 129.134 36.5257C130.861 37.4561 132.71 38.5441 134.438 39.4745C136.287 40.5625 137.857 41.6148 139.391 42.9465C139.391 42.9465 134.795 50.0281 138.229 53.1643C141.785 56.4581 148.28 51.1809 148.28 51.1809C149.656 52.6346 150.875 54.2101 152.216 55.9432C153.435 57.5188 154.654 59.0943 155.837 60.9493C155.837 60.9493 148.941 66.0333 151.394 70.1803C153.567 74.2917 161.576 71.6216 161.576 71.6216C162.322 73.5628 163.068 75.5041 163.693 77.2878C164.281 79.3509 164.906 81.1346 165.215 83.1621C165.215 83.1621 156.963 85.517 157.789 90.1665C158.336 94.7804 166.827 95.0118 166.827 95.0118C166.857 97.0036 166.887 98.9954 166.759 101.109C166.631 103.223 166.382 105.179 166.254 107.293C166.254 107.293 164.14 107.165 161.955 107.596C159.77 108.027 157.514 109.017 156.913 111.497C155.906 116.054 163.76 119.045 163.76 119.045C163.231 120.965 162.423 122.85 161.736 124.892C160.927 126.777 160.119 128.662 159.189 130.389C159.189 130.389 151.527 126.998 148.879 131.062C146.388 135.004 152.646 140.488 152.768 140.646C151.558 142.338 150.226 143.872 148.894 145.406C147.563 146.94 146.109 148.316 144.655 149.693C144.655 149.693 138.59 143.807 134.809 146.732C131.028 149.658 135.202 157.007 135.202 157.007C133.504 158.068 131.807 159.129 129.988 160.033C128.168 160.937 126.349 161.841 124.408 162.587C124.408 162.587 120.549 154.995 116.107 156.416C111.666 157.837 112.867 166.227 112.867 166.227C110.962 166.693 108.934 167.003 106.907 167.312C104.879 167.621 102.887 167.651 100.738 167.803C100.738 167.803 99.816 159.449 95.1516 159.28C92.7584 159.117 91.2334 161.052 90.1098 163.181C89.1437 165.187 88.7366 167.265 88.7366 167.265C86.7804 167.016 84.7024 166.609 82.6243 166.201C80.5463 165.794 78.6258 165.265 76.7053 164.736C76.7053 164.736 78.6134 156.459 74.2849 154.771C69.8344 152.925 65.6401 160.2 65.6401 160.2C63.9128 159.27 62.0636 158.182 60.3363 157.251C58.4871 156.163 56.9174 155.111 55.3833 153.779C55.3833 153.779 59.979 146.698 56.5452 143.561C52.9895 140.268 46.4941 145.545 46.4941 145.545C45.1175 144.091 43.8986 142.516 42.5577 140.783C41.3388 139.207 40.1198 137.631 38.9365 135.776C38.9365 135.776 45.8333 130.692 43.3805 126.545C41.2071 122.434 33.1984 125.104 33.1984 125.104C32.4521 123.163 31.7058 121.222 31.0814 119.438C30.4926 117.375 29.8682 115.591 29.559 113.564C29.559 113.564 37.8115 111.209 36.9848 106.559C36.4376 101.945 27.9471 101.714 27.9471 101.714C27.9172 99.7221 27.8874 97.7303 28.0151 95.6166C28.1428 93.5029 28.2349 91.6686 28.5202 89.433C28.5202 89.433 30.6339 89.5607 32.8189 89.1295C35.0039 88.6984 37.2603 87.7083 37.8607 85.2289C38.8683 80.6714 31.0138 77.6811 31.0138 77.6811C31.5429 75.7606 32.3514 73.8758 33.038 71.8334C33.8466 69.9485 34.6551 68.0637 35.5855 66.3365C35.5855 66.3365 43.2467 69.7281 45.8953 65.664C48.3864 61.7219 42.1282 56.2373 42.0063 56.0797C43.2162 54.3881 44.548 52.854 45.8797 51.32C47.2115 49.7859 48.6652 48.4094 50.1188 47.0329C50.1188 47.0329 56.1838 52.9189 59.9651 49.9934C63.5889 47.1898 59.5721 39.7192 59.5721 39.7192ZM117.942 47.4515C117.942 47.4515 117.942 47.4515 118.221 47.4872C118.221 47.4872 118.064 47.6091 117.942 47.4515ZM138.501 76.6291C137.231 74.3371 135.84 71.8875 134.133 69.6818C132.427 67.476 130.684 65.5496 128.505 63.7096C125.838 61.2392 122.699 59.1346 119.524 57.3095L114.179 70.2595C117.476 72.2423 120.544 74.9058 123.104 78.2144C125.664 81.5231 127.35 85.0042 128.563 88.8511L142.44 86.9299C141.471 83.3982 140.222 79.8308 138.501 76.6291ZM84.4064 77.6784C83.7762 78.1659 83.0241 78.496 82.3939 78.9835C81.7636 79.4711 81.1334 79.9587 80.6251 80.6039C75.2831 85.7442 72.6793 92.796 73.0631 99.803C73.1494 100.24 73.1137 100.519 73.2 100.956C73.2862 101.393 73.2505 101.673 73.3367 102.11C73.8185 105.011 74.8592 107.984 76.4944 110.749C76.6163 110.906 76.6163 110.906 76.7382 111.064C76.9819 111.379 77.3477 111.852 77.5914 112.167C77.8352 112.482 77.9571 112.64 78.2009 112.955C86.3679 123.511 101.738 125.472 112.294 117.305C122.85 109.138 124.811 93.7684 116.644 83.2122C116.523 83.0546 116.401 82.8971 116.279 82.7395C115.425 81.6366 114.415 80.6556 113.404 79.6746C113.404 79.6746 113.404 79.6746 113.282 79.5171C111.504 77.8702 109.375 76.7466 107.369 75.7805C106.967 75.5873 106.688 75.5516 106.287 75.3584C105.885 75.1652 105.606 75.1295 105.204 74.9363C98.2032 73.0489 90.7236 73.7984 84.4064 77.6784ZM136.529 123.238C139.528 118.65 141.446 113.641 142.56 108.245C143.303 104.648 143.645 100.858 143.55 97.1535L129.672 99.0747C129.512 107.006 126.4 114.703 120.794 120.804L129.448 131.99C132.355 129.237 134.704 126.413 136.529 123.238ZM84.4306 143.144C87.9922 144.166 91.7469 144.787 95.4155 144.972C100.918 145.248 106.284 144.37 111.442 142.899C114.852 141.772 118.333 140.086 121.413 138.207L112.758 127.02C105.567 131.073 97.2134 131.995 89.4957 130.158L84.4306 143.144ZM55.8721 119.903C57.1416 122.195 58.5331 124.645 60.2396 126.851C61.9462 129.057 63.6883 130.983 65.8675 132.823C68.5343 135.293 71.6738 137.398 74.8489 139.223L80.1934 126.273C76.8964 124.29 73.8283 121.627 71.2685 118.318C68.7087 115.009 67.0229 111.528 65.8098 107.681L51.9325 109.603C52.9019 113.134 54.1506 116.702 55.8721 119.903ZM57.6861 73.4167C54.6867 78.004 52.6119 83.1352 51.6549 88.4091C50.9119 92.0063 50.5703 95.7967 50.6656 99.5009L64.5428 97.5798C64.7029 89.6481 67.8151 81.9512 73.4216 75.8506L64.767 64.6642C62.1392 67.4529 59.7907 70.2772 57.6861 73.4167ZM81.4569 69.6339C88.6481 65.5815 97.0018 64.6595 104.719 66.4964L110.064 53.5463C106.502 52.5238 102.748 51.9027 99.0791 51.7186C93.5763 51.4424 88.2104 52.3197 83.0525 53.7915C79.4852 55.0403 76.1616 56.6042 73.0818 58.4832L81.6145 69.512L81.4569 69.6339Z" fill="#07E0F2"/>
<path d="M59.5668 39.6892C61.2643 38.6278 62.9617 37.5664 64.781 36.6626C66.6004 35.7587 68.4197 34.8549 70.361 34.1086C70.361 34.1086 74.2201 41.7011 78.6615 40.2798C83.1029 38.8586 81.9014 30.4692 81.9014 30.4692C83.807 30.0024 85.8345 29.6931 87.862 29.3838C89.8894 29.0745 91.8813 29.0447 94.0306 28.893C94.0306 28.893 94.9526 37.2467 99.6171 37.4159C102.01 37.5793 103.535 35.6438 104.659 33.5152C105.625 31.5085 106.032 29.4304 106.032 29.4304C107.988 29.6801 110.066 30.0872 112.144 30.4944C114.222 30.9016 116.143 31.4306 118.063 31.9597C118.063 31.9597 116.155 40.2362 120.484 41.9246C124.934 43.7705 129.129 36.4957 129.129 36.4957C130.856 37.4261 132.705 38.5141 134.432 39.4445C136.282 40.5325 137.851 41.5848 139.385 42.9166C139.385 42.9166 134.79 49.9982 138.223 53.1344C141.779 56.4281 148.275 51.151 148.275 51.151C149.651 52.6046 150.87 54.1802 152.211 55.9133L134.092 69.9313C132.386 67.7255 130.643 65.7992 128.464 63.9591C125.797 61.4888 122.658 59.3841 119.483 57.559L114.138 70.509C117.435 72.4918 120.503 75.1553 123.063 78.4639L116.446 83.5836C116.324 83.426 116.202 83.2684 116.08 83.1109C115.227 82.008 114.216 81.027 113.205 80.046C113.205 80.046 113.205 80.046 113.083 79.8885C111.306 78.2416 109.177 77.1179 107.17 76.1519C106.769 75.9586 106.489 75.923 106.088 75.7298C105.687 75.5366 105.407 75.5009 105.006 75.3077C98.3198 73.1765 90.8401 73.9261 84.523 77.806C83.8928 78.2935 83.1407 78.6236 82.5104 79.1111C81.8802 79.5987 81.25 80.0863 80.7417 80.7315C75.3997 85.8718 72.7958 92.9236 73.1797 99.9306C73.2659 100.368 73.2303 100.647 73.3165 101.084C73.4028 101.521 73.3671 101.801 73.4533 102.238C73.9351 105.139 74.9757 108.112 76.6109 110.876C76.7328 111.034 76.7328 111.034 76.8547 111.192C77.0985 111.507 77.4642 111.979 77.708 112.294C77.9518 112.61 78.0737 112.767 78.3175 113.082L71.7001 118.202C69.1403 114.893 67.4545 111.412 66.2414 107.565L52.3642 109.486C53.3335 113.018 54.5824 116.586 56.3038 119.787C57.5733 122.079 58.9647 124.529 60.6713 126.735L42.5524 140.753C41.3334 139.177 40.1145 137.601 38.9312 135.746C38.9312 135.746 45.828 130.662 43.3752 126.515C41.2018 122.404 33.193 125.074 33.193 125.074C32.4467 123.133 31.7004 121.192 31.076 119.408C30.4873 117.345 29.8629 115.561 29.5536 113.534C29.5536 113.534 37.8062 111.179 36.9795 106.529C36.4322 101.915 27.9417 101.684 27.9417 101.684C27.9119 99.6921 27.8821 97.7003 28.0098 95.5866C28.1375 93.4729 28.2296 91.6386 28.5149 89.403C28.5149 89.403 30.6286 89.5308 32.8136 89.0996C34.9986 88.6684 37.255 87.6783 37.8554 85.1989C38.8629 80.6415 31.0085 77.6512 31.0085 77.6512C31.5376 75.7307 32.3461 73.8458 33.0327 71.8034C33.8412 69.9186 34.6497 68.0338 35.5801 66.3065C35.5801 66.3065 43.2414 69.6981 45.89 65.6341C48.3811 61.6919 42.1229 56.2073 42.001 56.0498C43.2109 54.3581 44.5426 52.8241 45.8744 51.29C47.2062 49.756 48.6598 48.3795 50.1135 47.0029C50.1135 47.0029 56.1784 52.8889 59.9598 49.9634C63.5835 47.1598 59.5668 39.6892 59.5668 39.6892ZM57.6808 73.3867C54.6814 77.974 52.6066 83.1053 51.6496 88.3792C50.9066 91.9764 50.5649 95.7668 50.6603 99.471L64.5374 97.5498C64.6976 89.6182 67.8098 81.9213 73.4163 75.8207L64.7617 64.6342C62.1338 67.4229 59.7854 70.2473 57.6808 73.3867ZM81.4516 69.604C88.6427 65.5516 96.9964 64.6296 104.714 66.4664L110.059 53.5164C106.497 52.4939 102.742 51.8727 99.0738 51.6886C93.571 51.4124 88.2051 52.2897 83.0472 53.7615C79.4798 55.0103 76.1562 56.5742 73.0764 58.4532L81.6091 69.4821L81.4516 69.604Z" fill="#0DECE7"/>
</svg>
