<svg width="154" height="154" viewBox="0 0 154 154" fill="none" xmlns="http://www.w3.org/2000/svg">
<path d="M62.7888 56.4016C74.2135 48.6194 89.6673 51.5502 97.4495 62.9749C105.232 74.3995 102.301 89.8534 90.8762 97.6355C79.4516 105.418 63.9977 102.487 56.2155 91.0623C48.5228 79.7689 51.4954 64.0944 62.7888 56.4016ZM83.8991 87.3927C89.5458 83.5463 91.0111 75.8195 87.1648 70.1728C83.3184 64.5261 75.5915 63.0607 69.9448 66.9071C64.2982 70.7534 62.8328 78.4803 66.6792 84.127C70.5255 89.7737 78.2524 91.2391 83.8991 87.3927Z" fill="#DC2D33"/>
<path d="M69.5854 66.3823C75.4947 62.357 83.6632 63.9061 87.6884 69.8155C91.7137 75.7248 90.1646 83.8932 84.2553 87.9185C78.346 91.9438 70.1775 90.3946 66.1522 84.4853C62.0375 78.4447 63.6761 70.4076 69.5854 66.3823ZM81.0351 83.191C84.4494 80.8653 85.3286 76.2292 83.0029 72.8149C80.6771 69.4006 76.041 68.5214 72.6267 70.8471C69.2125 73.1728 68.3332 77.809 70.6589 81.2232C72.9846 84.6375 77.6208 85.5167 81.0351 83.191Z" fill="#FF4249"/>
<path d="M69.5845 66.3813L72.7152 70.9775C69.301 73.3032 68.4217 77.9393 70.7474 81.3536C73.0731 84.7679 77.7093 85.6471 81.1236 83.3214L84.2543 87.9175C78.345 91.9428 70.1766 90.3937 66.1513 84.4844C62.0366 78.4437 63.6752 70.4066 69.5845 66.3813Z" fill="#FF6268"/>
<path d="M28.4755 104.206C27.7124 102.804 26.9492 101.401 26.3173 99.9089C25.6854 98.4169 25.0536 96.9248 24.553 95.3432C24.553 95.3432 30.784 92.6369 29.8666 89.0323C28.9493 85.4277 22.212 85.9796 22.212 85.9796C21.9323 84.44 21.7838 82.8109 21.6353 81.1818C21.4869 79.5526 21.5592 77.9654 21.542 76.2468C21.542 76.2468 28.2374 75.9156 28.5971 72.2101C28.8426 70.3127 27.3752 69.0052 25.7346 68.008C24.1836 67.142 22.5487 66.7176 22.5487 66.7176C22.8418 65.1722 23.2662 63.5374 23.6906 61.9026C24.115 60.2677 24.6288 58.7642 25.1427 57.2607C25.1427 57.2607 31.6401 59.1791 33.1931 55.8142C34.8773 52.36 29.2877 48.6698 29.2877 48.6698C30.1118 47.3394 31.0671 45.9197 31.8912 44.5893C32.8466 43.1696 33.7601 41.9705 34.8944 40.8134C34.8944 40.8134 40.3108 44.8138 42.9734 42.2312C45.7672 39.5591 41.879 34.1332 41.879 34.1332C43.1027 33.1074 44.4159 32.2129 45.8604 31.2289C47.1736 30.3344 48.4867 29.4399 50.0207 28.5873C50.0207 28.5873 53.7357 34.3234 57.1557 32.5706C60.5339 31.0385 58.7943 24.5334 58.7943 24.5334C60.3758 24.0329 61.9573 23.5323 63.4076 23.1213C65.0785 22.752 66.5288 22.3409 68.1579 22.1925C68.1579 22.1925 69.6348 28.8764 73.3764 28.4424C77.0762 28.2292 77.6699 21.4806 77.6699 21.4806C79.2572 21.5529 80.8444 21.6252 82.5211 21.8288C84.1978 22.0324 85.7432 22.3255 87.4199 22.5291C87.4199 22.5291 87.2163 24.2058 87.4542 25.9663C87.6921 27.7267 88.3716 29.5709 90.3166 30.1685C93.8965 31.1904 96.656 25.0812 96.656 25.0812C98.1595 25.595 99.6212 26.3297 101.214 26.9748C102.676 27.7094 104.137 28.444 105.468 29.2681C105.468 29.2681 102.398 35.2041 105.506 37.5089C108.524 39.6823 113.193 34.9642 113.324 34.8748C114.613 35.9196 115.77 37.0539 116.927 38.1882C118.084 39.3225 119.11 40.5462 120.136 41.7699C120.136 41.7699 115.157 46.3147 117.304 49.4664C119.451 52.618 125.503 49.649 125.503 49.649C126.266 51.0516 127.029 52.4543 127.661 53.9464C128.293 55.4384 128.925 56.9305 129.425 58.5121C129.425 58.5121 123.194 61.2184 124.112 64.823C125.029 68.4276 131.766 67.8757 131.766 67.8757C132.046 69.4153 132.194 71.0444 132.343 72.6735C132.491 74.3027 132.419 75.8899 132.436 77.6085C132.436 77.6085 125.741 77.9397 125.381 81.6452C125.136 83.5427 126.603 84.8501 128.244 85.8474C129.795 86.7133 131.429 87.1377 131.429 87.1377C131.136 88.6831 130.712 90.3179 130.288 91.9527C129.863 93.5876 129.349 95.0911 128.836 96.5946C128.836 96.5946 122.338 94.6762 120.785 98.0411C119.101 101.495 124.691 105.186 124.691 105.186C123.866 106.516 122.911 107.936 122.087 109.266C121.132 110.686 120.218 111.885 119.084 113.042C119.084 113.042 113.667 109.041 111.005 111.624C108.211 114.296 112.099 119.722 112.099 119.722C110.876 120.748 109.562 121.642 108.118 122.626C106.805 123.521 105.491 124.415 103.958 125.268C103.958 125.268 100.242 119.532 96.8225 121.285C93.4444 122.817 95.184 129.322 95.184 129.322C93.6024 129.822 92.0209 130.323 90.5707 130.734C88.8997 131.103 87.4494 131.514 85.8203 131.663C85.8203 131.663 84.3434 124.979 80.6018 125.413C76.902 125.626 76.3083 132.375 76.3083 132.375C74.721 132.302 73.1338 132.23 71.4571 132.026C69.7804 131.823 68.3245 131.661 66.5583 131.326C66.5583 131.326 66.7619 129.649 66.524 127.889C66.2861 126.129 65.6067 124.284 63.6616 123.687C60.0817 122.665 57.3222 128.774 57.3222 128.774C55.8187 128.26 54.357 127.526 52.764 126.88C51.3024 126.146 49.8408 125.411 48.5105 124.587C48.5105 124.587 51.5802 118.651 48.4723 116.346C45.4538 114.173 40.7854 118.891 40.6541 118.981C39.3656 117.936 38.2085 116.801 37.0514 115.667C35.8942 114.533 34.8684 113.309 33.8426 112.085C33.8426 112.085 38.8212 107.541 36.6744 104.389C34.6171 101.369 28.4755 104.206 28.4755 104.206ZM37.4467 58.1075C37.4467 58.1075 37.4467 58.1075 37.4886 57.8868C37.4886 57.8868 37.578 58.0181 37.4467 58.1075ZM61.6682 43.1464C59.7822 44.0467 57.7649 45.0363 55.9264 46.2886C54.088 47.5409 52.4703 48.8351 50.9002 50.4814C48.8048 52.4854 46.9777 54.8835 45.3715 57.3233L55.4241 62.203C57.1617 59.6737 59.4303 57.3594 62.1879 55.4809C64.9456 53.6025 67.7985 52.4282 70.9197 51.6479L70.0593 40.5067C67.2008 41.1081 64.3003 41.9303 61.6682 43.1464ZM59.8949 86.2648C60.2527 86.79 60.4792 87.4048 60.837 87.93C61.1948 88.4553 61.5526 88.9806 62.0417 89.4164C65.8766 93.9174 71.3654 96.3306 76.9626 96.3629C77.3147 96.3153 77.5355 96.3571 77.8876 96.3095C78.2397 96.262 78.4605 96.3039 78.8125 96.2563C81.1458 96.0127 83.5628 95.3275 85.8428 94.1589C85.9741 94.0695 85.9741 94.0695 86.1055 93.98C86.3681 93.8011 86.7621 93.5328 87.0247 93.3539C87.2873 93.175 87.4187 93.0855 87.6813 92.9066C96.4796 86.9134 98.7823 74.7712 92.7892 65.9728C86.796 57.1745 74.6537 54.8718 65.8554 60.865C65.7241 60.9544 65.5928 61.0439 65.4614 61.1333C64.5422 61.7595 63.7124 62.5169 62.8827 63.2744C62.8827 63.2744 62.8827 63.2744 62.7514 63.3639C61.3544 64.6999 60.3572 66.3404 59.4912 67.8915C59.3181 68.2018 59.2762 68.4225 59.103 68.7327C58.9298 69.043 58.888 69.2637 58.7148 69.574C56.8745 75.057 57.1105 81.0482 59.8949 86.2648ZM98.6812 46.9639C95.1736 44.3547 91.2778 42.5867 87.0356 41.4391C84.2075 40.674 81.2062 40.2192 78.2525 40.1164L79.1128 51.2576C85.4199 51.7676 91.3978 54.6166 95.9845 59.3745L105.308 53.0235C103.256 50.5761 101.121 48.5701 98.6812 46.9639ZM112.017 89.4026C113.003 86.6164 113.679 83.6569 114.002 80.7451C114.487 76.3773 114.048 72.0628 113.125 67.8853C112.392 65.1162 111.218 62.2634 109.87 59.7208L100.547 66.0717C103.426 71.9925 103.757 78.6878 101.923 84.7438L112.017 89.4026ZM92.1368 111.019C94.0228 110.119 96.0402 109.129 97.8786 107.877C99.7171 106.625 101.335 105.33 102.905 103.684C105 101.68 106.827 99.2821 108.434 96.8422L98.3809 91.9625C96.6433 94.4919 94.3748 96.8061 91.6171 98.6846C88.8594 100.563 86.0066 101.737 82.8854 102.518L83.7457 113.659C86.6043 113.057 89.5047 112.235 92.1368 111.019ZM55.2133 107.333C58.7209 109.942 62.7061 111.842 66.8588 112.858C69.687 113.623 72.6883 114.078 75.642 114.18L74.7817 103.039C68.4746 102.529 62.4966 99.6802 57.9099 94.9223L48.5864 101.273C50.6799 103.5 52.8153 105.506 55.2133 107.333ZM53.348 88.2251C50.4684 82.3044 50.1372 75.609 51.9718 69.5531L41.9192 64.6734C40.9334 67.4597 40.2578 70.4191 39.9343 73.331C39.449 77.6988 39.8887 82.0133 40.8118 86.1907C41.634 89.0911 42.7188 91.8127 44.0663 94.3553L53.2585 88.0938L53.348 88.2251Z" fill="#FF4249"/>
<path d="M28.4511 104.207C27.6879 102.805 26.9247 101.402 26.2929 99.91C25.661 98.4179 25.0291 96.9258 24.5286 95.3443C24.5286 95.3443 30.7595 92.6379 29.8422 89.0333C28.9248 85.4287 22.1876 85.9807 22.1876 85.9807C21.9078 84.441 21.7593 82.8119 21.6109 81.1828C21.4624 79.5537 21.5347 77.9664 21.5176 76.2479C21.5176 76.2479 28.2129 75.9167 28.5726 72.2112C28.8181 70.3137 27.3508 69.0063 25.7102 68.009C24.1591 67.1431 22.5243 66.7187 22.5243 66.7187C22.8174 65.1733 23.2417 63.5385 23.6661 61.9036C24.0905 60.2688 24.6044 58.7653 25.1182 57.2618C25.1182 57.2618 31.6157 59.1801 33.1686 55.8153C34.8529 52.361 29.2632 48.6708 29.2632 48.6708C30.0873 47.3405 31.0427 45.9207 31.8668 44.5904C32.8221 43.1706 33.7357 41.9716 34.8699 40.8144C34.8699 40.8144 40.2864 44.8149 42.9489 42.2322C45.7428 39.5602 41.8545 34.1342 41.8545 34.1342C43.0783 33.1084 44.3914 32.2139 45.8359 31.23L56.1227 46.3316C54.2843 47.5839 52.6666 48.878 51.0965 50.5243C49.0011 52.5284 47.1741 54.9264 45.5678 57.3663L55.6204 62.2459C57.358 59.7166 59.6266 57.4023 62.3843 55.5238L66.1412 61.0392C66.0099 61.1287 65.8785 61.2181 65.7472 61.3076C64.828 61.9337 63.9982 62.6912 63.1684 63.4486C63.1684 63.4486 63.1684 63.4486 63.0371 63.5381C61.6402 64.8741 60.6429 66.5147 59.777 68.0658C59.6038 68.376 59.562 68.5968 59.3888 68.907C59.2156 69.2172 59.1737 69.438 59.0005 69.7482C56.9813 74.9686 57.2174 80.9598 60.0018 86.1764C60.3596 86.7016 60.586 87.3164 60.9438 87.8416C61.3016 88.3669 61.6595 88.8922 62.1486 89.328C65.9835 93.829 71.4723 96.2422 77.0695 96.2745C77.4216 96.2269 77.6424 96.2687 77.9944 96.2212C78.3465 96.1736 78.5673 96.2155 78.9194 96.1679C81.2527 95.9243 83.6697 95.2391 85.9497 94.0705C86.081 93.9811 86.081 93.9811 86.2124 93.8916C86.475 93.7127 86.8689 93.4444 87.1316 93.2655C87.3942 93.0866 87.5255 92.9971 87.7882 92.8182L91.5451 98.3336C88.7874 100.212 85.9346 101.386 82.8134 102.167L83.6737 113.308C86.5323 112.706 89.4327 111.884 92.0648 110.668C93.9508 109.768 95.9682 108.778 97.8066 107.526L108.093 122.627C106.78 123.522 105.467 124.416 103.933 125.269C103.933 125.269 100.218 119.533 96.7981 121.286C93.4199 122.818 95.1595 129.323 95.1595 129.323C93.578 129.823 91.9964 130.324 90.5462 130.735C88.8752 131.104 87.425 131.515 85.7959 131.664C85.7959 131.664 84.319 124.98 80.5773 125.414C76.8776 125.627 76.2838 132.376 76.2838 132.376C74.6966 132.303 73.1094 132.231 71.4327 132.028C69.756 131.824 68.3 131.662 66.5339 131.327C66.5339 131.327 66.7375 129.651 66.4996 127.89C66.2617 126.13 65.5822 124.285 63.6372 123.688C60.0573 122.666 57.2977 128.775 57.2977 128.775C55.7942 128.261 54.3326 127.527 52.7396 126.882C51.278 126.147 49.8163 125.412 48.486 124.588C48.486 124.588 51.5558 118.652 48.4478 116.347C45.4294 114.174 40.761 118.892 40.6296 118.982C39.3412 117.937 38.184 116.802 37.0269 115.668C35.8698 114.534 34.8439 113.31 33.8181 112.086C33.8181 112.086 38.7968 107.542 36.65 104.39C34.5926 101.37 28.4511 104.207 28.4511 104.207ZM55.1888 107.334C58.6964 109.943 62.6817 111.843 66.8344 112.859C69.6625 113.624 72.6638 114.079 75.6176 114.181L74.7572 103.04C68.4501 102.53 62.4722 99.6813 57.8855 94.9234L48.5619 101.274C50.6554 103.501 52.7908 105.507 55.1888 107.334ZM53.3235 88.2262C50.444 82.3054 50.1128 75.61 51.9474 69.5541L41.8948 64.6745C40.909 67.4607 40.2333 70.4202 39.9098 73.332C39.4246 77.6998 39.8642 82.0143 40.7873 86.1918C41.6095 89.0922 42.6943 91.8138 44.0418 94.3564L53.2341 88.0949L53.3235 88.2262Z" fill="#FF6268"/>
</svg>
