<svg width="1915" height="836" viewBox="0 0 1915 836" fill="none" xmlns="http://www.w3.org/2000/svg">
<path d="M1584.5 35.1747C1619 -61.8253 1810.5 67.6735 1914.5 113.673V698.674C1722.5 655.174 1628 867.174 1464.5 831.674C1269.79 789.397 1210.5 685.174 1044 763.748C987.312 790.499 896.383 823.087 712 737.674C508 643.174 251 827.6 0 720.674V183.674C121.5 281.247 390 293.174 553.5 235.675C709.906 180.669 771 282.675 887 299.675C1003 316.675 1047.7 294.97 1143 235.675C1278 151.675 1299.5 195.248 1418.5 203.748C1537.5 212.248 1550 132.175 1584.5 35.1747Z" fill="url(#paint0_linear)"/>
<path d="M1631.52 50.3882C1651.43 -44.4472 1908.16 121.243 1908.16 177.787L1908.16 631.174C1803.26 833.542 1631.63 839.365 1390.02 736.781C1224.13 666.349 1220.72 801.757 958.228 745.286C827.974 717.263 721.587 632.856 558.153 720.982C311.766 853.837 77.9009 639.234 0.00012207 662.877V308.732C21.4675 359.126 205.006 290.38 342.015 290.38C440.57 290.38 438.619 337.077 540.589 293.429C642.559 249.781 797.222 249.781 924.075 293.429C1050.93 337.077 1143.94 297.122 1201.69 249.781C1277.31 187.781 1343.24 99.2829 1436.37 165.388C1531.99 233.267 1606.64 168.933 1631.52 50.3882Z" fill="url(#paint1_linear)"/>
<defs>
<linearGradient id="paint0_linear" x1="2095.96" y1="115.907" x2="628.399" y2="1395.43" gradientUnits="userSpaceOnUse">
<stop offset="0.0001" stop-color="#6E07D6"/>
<stop offset="1" stop-color="#9C53C9"/>
</linearGradient>
<linearGradient id="paint1_linear" x1="-121.957" y1="539.47" x2="1430.4" y2="-884.222" gradientUnits="userSpaceOnUse">
<stop stop-color="#9428FF"/>
<stop offset="1" stop-color="#C780FE"/>
</linearGradient>
</defs>
</svg>
