<svg width="458" height="668" viewBox="0 0 458 668" fill="none" xmlns="http://www.w3.org/2000/svg">
<g clip-path="url(#clip0)">
<path d="M310.905 169.831L289.649 150.428L286.928 152.153L309.382 172.649L310.905 169.831Z" fill="#455A64"/>
<path d="M286.928 152.153L279.689 156.735L305.321 180.132L309.382 172.649L286.928 152.153Z" fill="#546E7A"/>
<path d="M305.17 183.437L276.412 157.186C275.891 156.711 275.855 155.913 276.331 155.391C276.807 154.87 277.605 154.833 278.126 155.308L306.884 181.559C307.405 182.034 307.441 182.832 306.965 183.354C306.541 183.923 305.691 183.913 305.17 183.437Z" fill="#455A64"/>
<path d="M277.454 158.138C267.341 163.252 261.673 175.007 261.349 178.92L265.207 178.041C260.778 182.893 259.041 196.515 259.508 204.688L290.796 170.412L277.406 158.19L277.454 158.138Z" fill="#FE5722"/>
<path d="M304.179 182.533C300.005 193.069 288.815 199.783 284.949 200.462L285.472 196.54C281.043 201.392 267.636 204.361 259.455 204.64L290.742 170.364L304.132 182.585L304.179 182.533Z" fill="#F3511E"/>
<path d="M282.299 162.56C275.899 165.804 272.337 173.264 272.05 175.776L274.473 175.214C271.663 178.292 270.552 186.938 270.885 192.119L290.743 170.364L282.251 162.612L282.299 162.56Z" fill="#FEC928"/>
<path d="M299.282 178.063C296.633 184.731 289.528 188.958 287.053 189.472L287.392 187.008C284.583 190.086 276.074 191.979 270.884 192.119L290.742 170.364L299.234 178.115L299.282 178.063Z" fill="#FEC007"/>
<path d="M377.52 101.141L364.651 89.3953L355.032 99.9337L300.124 160.086L315.649 174.258C318.098 176.493 321.887 176.318 324.125 173.866L363.366 130.877C370.937 122.582 375.87 112.26 377.52 101.141Z" fill="#CED7DB"/>
<path d="M351.837 77.697C340.914 80.3511 331.032 86.1548 323.46 94.4499L284.219 137.438C281.981 139.89 282.151 143.68 284.6 145.915L300.125 160.087L355.033 99.9341L364.653 89.3957L351.837 77.697Z" fill="#EBEEF0"/>
<path d="M377.521 101.142L379.553 87.4072C380.12 83.3337 378.606 79.6562 375.896 77.1833L364.705 89.4434L377.521 101.142Z" fill="#455A64"/>
<path d="M375.844 77.1357C373.135 74.6628 369.283 73.442 365.33 74.4244L351.837 77.6971L364.705 89.4433L375.897 77.1832L375.844 77.1357Z" fill="#546E7A"/>
<path d="M325.74 131.919C332.531 138.117 343.067 137.63 349.274 130.83C355.481 124.03 355.008 113.493 348.218 107.294C341.428 101.096 330.891 101.584 324.684 108.384C318.477 115.183 318.95 125.721 325.74 131.919Z" fill="#455A64"/>
<path d="M346.878 128.642C349.259 126.034 350.412 122.783 350.364 119.487C350.174 119.696 350.031 119.852 349.84 120.061C344.078 126.374 336.23 129.635 328.296 129.852C333.8 134.494 342.021 133.964 346.878 128.642Z" fill="#25C5D9"/>
<path d="M349.892 120.108C350.082 119.899 350.273 119.691 350.416 119.534C350.394 116.837 349.571 114.077 347.868 111.757C347.63 112.018 347.444 112.327 347.158 112.64C341.634 118.691 332.308 119.073 326.317 113.604C326.056 113.366 325.744 113.081 325.531 112.791C322.373 118.134 323.19 125.191 327.983 129.566C328.139 129.709 328.243 129.804 328.399 129.947C336.282 129.682 344.13 126.421 349.892 120.108Z" fill="#4DCFE1"/>
<path d="M347.106 112.592C347.344 112.331 347.63 112.018 347.816 111.71C347.333 110.983 346.704 110.312 346.027 109.694C340.556 104.701 332.08 105.093 327.08 110.571C326.461 111.249 325.894 111.975 325.479 112.744C325.739 112.981 325.952 113.271 326.264 113.557C332.308 119.073 341.629 118.592 347.106 112.592Z" fill="#80DDE9"/>
<path d="M344.413 151.641L326.46 171.309L330.471 174.971L346.52 157.39L344.413 151.641Z" fill="#AFBDC4"/>
<path d="M350.878 182.121C352.878 179.93 353.537 176.802 352.51 173.951L346.521 157.39L330.52 174.919L341.929 185.334C343.752 186.998 346.545 186.869 348.211 185.043L350.878 182.121Z" fill="#CED7DB"/>
<path d="M304.508 115.214L286.554 134.882L282.543 131.22L298.591 113.639L304.508 115.214Z" fill="#AFBDC4"/>
<path d="M273.566 111.549C275.567 109.358 278.622 108.417 281.554 109.181L298.592 113.639L282.591 131.168L271.234 120.801C269.41 119.136 269.285 116.344 270.952 114.518L273.619 111.597L273.566 111.549Z" fill="#CED7DB"/>
<path opacity="0.15" d="M316.148 145.255L317.499 175.372C316.992 175.195 316.484 175.019 314.505 173.212C312.525 171.405 301.167 161.038 301.167 161.038L316.148 145.255Z" fill="#8FA3AD"/>
<path d="M296.22 164.364C295.022 163.271 294.937 161.376 296.032 160.176L311.081 143.69C312.176 142.49 314.071 142.402 315.269 143.496C316.467 144.59 316.552 146.485 315.457 147.685L300.409 164.17C299.266 165.423 297.419 165.458 296.22 164.364Z" fill="#AFBDC4"/>
<path d="M297.359 163.012C296.786 162.489 296.745 161.592 297.269 161.018L304.936 152.618C305.46 152.044 306.358 152.003 306.931 152.526C307.504 153.049 307.544 153.947 307.02 154.521L299.353 162.92C298.829 163.494 297.932 163.535 297.359 163.012Z" fill="white"/>
</g>
<path d="M253.5 212.5C229.001 239.5 195.5 267 155.5 279.5C129.902 287.5 68.7242 287.298 61.3302 244.417C52.0878 190.816 140.564 223.535 89.7025 305.092C70.7877 333.562 38.6324 402.3 61.3302 449.5C89.7025 508.5 155.5 520.5 238 496.5C320.5 472.5 184 387.5 205.5 518C227 648.5 314 665 358 664" stroke="white" stroke-dasharray="4 6"/>
<defs>
<clipPath id="clip0">
<rect x="291.34" width="225.019" height="175.533" transform="rotate(42.3902 291.34 0)" fill="white"/>
</clipPath>
</defs>
</svg>
