<svg width="407" height="611" viewBox="0 0 407 611" fill="none" xmlns="http://www.w3.org/2000/svg">
<path d="M346 156.5C342 156.5 342 154.167 342 153H350C350 154.167 350 156.5 346 156.5Z" fill="black"/>
<path d="M163.5 245.5L161.5 229L185 227L187 245.5H163.5Z" fill="#CEE1E8"/>
<path d="M79 283.5L33 291.5L37 305.5L83 297.5L79 283.5Z" fill="#CEE1E8"/>
<path d="M328 250L269 261L272 276L332 265L328 250Z" fill="#CEE1E8"/>
<path d="M280.5 278C280.1 257.6 262.5 256.5 254 258V298C259.5 299.5 280.5 298 280.5 278Z" fill="#77959D"/>
<path d="M75.5 284.5C75.5 267.7 90.5 264.5 97.5 264V304.5C90.5 305.833 75.5 301.3 75.5 284.5Z" fill="#77959D"/>
<path d="M217.5 503H205.5L203 465L215 464.5L217.5 503Z" fill="#CEE1E8"/>
<path d="M114 497.5L131 465L141.5 470L124 503L114 497.5Z" fill="#CEE1E8"/>
<path d="M98.5 530.5L88 556L86 561L98 573L112 536L98.5 530.5Z" fill="#CEE1E8"/>
<path d="M202 578L203.5 538H219L218 569L202 578Z" fill="#CEE1E8"/>
<path d="M132 248C132 246.343 133.343 245 135 245H223C224.657 245 226 246.343 226 248V253H132V248Z" fill="#77959D"/>
<path d="M129 452.5C107 444.5 105 434.833 106.5 431H241V436.5C241 443.3 227.333 450.333 220.5 453C221 455.5 220 466 212 468C199.2 470.8 194.667 463.333 194 459.5H157C156.167 464.667 150.6 474.4 139 472C127.4 469.6 127.667 458 129 452.5Z" fill="#77959D"/>
<path d="M95 268C95 259.163 102.163 252 111 252H244C252.837 252 260 259.163 260 268V427C260 434.18 254.18 440 247 440H108C100.82 440 95 434.18 95 427V268Z" fill="#CEE1E8"/>
<path d="M288 87H303" stroke="#FFD862" stroke-width="5" stroke-linecap="round"/>
<path d="M295 57.5L308 63.5" stroke="#FFD862" stroke-width="5" stroke-linecap="round"/>
<path d="M316.5 36.5L323.5 48.5" stroke="#FFD862" stroke-width="5" stroke-linecap="round"/>
<path d="M345.5 31V44.5" stroke="#FFD862" stroke-width="5" stroke-linecap="round"/>
<path d="M376.5 36L369 48" stroke="#FFD862" stroke-width="5" stroke-linecap="round"/>
<path d="M398 58L385.5 63.5" stroke="#FFD862" stroke-width="5" stroke-linecap="round"/>
<path d="M404.5 87H390.5" stroke="#FFD862" stroke-width="5" stroke-linecap="round"/>
<path d="M358.5 137.5C371.5 147.5 363.5 162 356 166L359 170C377.5 157.5 369.5 136 358.5 132V137.5Z" fill="#77959D"/>
<path d="M336.534 137.5C325.046 149.5 332 161.5 339.5 165.5L336.034 170C317.534 157.5 326 135.5 336.534 132V137.5Z" fill="#77959D"/>
<path d="M36.5 310.5L59.5 329.5L50.5 338.5L28 319L36.5 310.5Z" fill="#CEE1E8"/>
<path d="M55 552.5L94.5 591.5C102 583.999 102 563 84 552C69.6 543.2 58.6667 548.666 55 552.5Z" fill="#77959D"/>
<path d="M249.5 575.5L198 596.001C193.767 586.275 201.5 567.5 222 564.001C240.961 560.763 246.5 569 249.5 575.5Z" fill="#77959D"/>
<path d="M334 233.5L339 188.5L351 189L346.5 234L334 233.5Z" fill="#CEE1E8"/>
<path d="M250 90.4991L240 90.9991L250.5 182.499C251.833 182.666 256.1 182.399 260.5 181.999C264.9 181.599 265.667 177.333 265.5 175.499C263 151.166 257.3 100.7 256.5 95.5C255.7 90.3 252 90.4991 250 90.4991Z" fill="#77959D"/>
<path d="M67 110.5L75.5 110H80L89 200.5C85.5 200.833 77.8 201.5 75 201.5C72.2 201.5 70.3191 199.5 70 196.5C67.5 173 62.3 124.4 61.5 118C60.7 111.6 64.8333 110.333 67 110.5Z" fill="#77959D"/>
<path d="M196 223.5L195.5 218.002L148 223.5C148 224.331 148.5 227.499 149 229.5C149.58 231.822 152.042 231.666 153 231.5C177 229 192 226.998 194 226.5C195.913 226.023 196 224.331 196 223.5Z" fill="#77959D"/>
<path d="M230 76.5L79.5 93.5C74.3 94.0874 73.3333 97.7447 73.5 99.5L84 195C86.8 229.4 106.833 229.833 130 227.5C153.167 225.167 204.8 219.8 226 217C252 213.566 253.72 195 252 179C248.667 148 241.9 85 241.5 81C241 76 239.5 76 238 76C236.8 76 232.167 76.3333 230 76.5Z" fill="#CEE1E8"/>
<path d="M194.5 204.5C187.7 208.5 175.5 210.5 170.5 211C159.333 211.834 139 212 136.5 200.5C134.543 191.5 142.5 187.458 149 188C153.594 188.384 161.019 189.499 167.5 189C174 188.5 178.5 187 185 184.5C191.5 182 197 184.5 199.5 188C202 191.5 203 199.5 194.5 204.5Z" fill="#77959D"/>
<path d="M150 73L147.5 45.5L157 44.5L159.5 72L150 73Z" fill="#CEE1E8"/>
<path d="M127.5 75.9999V82.4999L186 75.9999C186 75.1666 185 72.4996 184.5 70.9998C183.741 68.723 181.167 68.3333 180 68.4999C164.5 70.1666 132.9 73.4999 130.5 73.4999C128.1 73.4999 127.5 75.1666 127.5 75.9999Z" fill="#77959D"/>
<path d="M84.5 90.0007V93.0007L228.5 77C228.5 73.9997 225 71.5004 220.5 71.9993C181.167 75.8327 100.5 84.5 93.5 85.5C86 86.5714 84.5 88 84.5 90.0007Z" fill="#4E646F"/>
<path d="M139 287V412.5" stroke="#7F7A80" stroke-width="5" stroke-linecap="round"/>
<path d="M111.5 385H237.5" stroke="#7F7A80" stroke-width="5" stroke-linecap="round"/>
<path d="M111.5 367H237.5" stroke="#7F7A80" stroke-width="5" stroke-linecap="round"/>
<path d="M111.5 350H237.5" stroke="#7F7A80" stroke-width="5" stroke-linecap="round"/>
<path d="M111.5 332H237.5" stroke="#7F7A80" stroke-width="5" stroke-linecap="round"/>
<path d="M111.5 314H237.5" stroke="#7F7A80" stroke-width="5" stroke-linecap="round"/>
<path d="M157 287V412.5" stroke="#7F7A80" stroke-width="5" stroke-linecap="round"/>
<path d="M174.5 287V412.5" stroke="#7F7A80" stroke-width="5" stroke-linecap="round"/>
<path d="M192.5 287V412.5" stroke="#7F7A80" stroke-width="5" stroke-linecap="round"/>
<path d="M210 287V412.5" stroke="#7F7A80" stroke-width="5" stroke-linecap="round"/>
<circle cx="126" cy="153" r="29" fill="#77959D"/>
<circle cx="201" cy="145" r="29" fill="#77959D"/>
<circle cx="149.5" cy="23.5" r="23.5" fill="#FF4249"/>
<circle cx="126.5" cy="152.5" r="22.5" fill="white"/>
<circle cx="201.5" cy="144.5" r="22.5" fill="white"/>
<circle cx="126.5" cy="152.5" r="17.5" fill="#4D636E"/>
<circle cx="20" cy="304" r="20" fill="#77959D"/>
<circle cx="111" cy="517" r="20" fill="#77959D"/>
<circle cx="212.5" cy="520.5" r="20.5" fill="#77959D"/>
<path d="M89.4999 374.501L91.5 378.5C73.0001 383 62.5 372 63 356.5C63.4059 343.917 65.5555 342.311 73 338C82.5 332.5 90.9999 335.5 94.9999 337.001V342.5C83 334.5 66 342.5 67.4999 360.501C68.7045 374.958 83 376.5 89.4999 374.501Z" fill="#77959D"/>
<circle cx="62.5" cy="342.5" r="14.5" fill="#77959D"/>
<circle cx="339.5" cy="251.5" r="20.5" fill="#77959D"/>
<circle cx="347.5" cy="177.5" r="14.5" fill="#77959D"/>
<circle cx="201.5" cy="144.5" r="17.5" fill="#4D636E"/>
<circle cx="20" cy="304" r="11" fill="#CEE1E8"/>
<circle cx="111" cy="517" r="11" fill="#CEE1E8"/>
<circle cx="212.5" cy="520.5" r="11.5" fill="#CEE1E8"/>
<circle cx="62.5" cy="342.5" r="7.5" fill="#CEE1E8"/>
<circle cx="340" cy="252" r="11" fill="#CEE1E8"/>
<circle cx="348" cy="177" r="7" fill="#CEE1E8"/>
<rect x="125" y="302" width="96" height="96" rx="19" fill="#373246"/>
<rect x="131" y="309" width="83" height="83" rx="12" fill="white"/>
<rect x="136" y="313" width="74" height="75" rx="11" fill="#373246"/>
<rect x="149" y="326" width="48" height="48" rx="6" fill="#CEE1E8"/>
<path d="M364.798 108.953C364.37 109.35 363.931 109.734 363.48 110.103L364.798 108.953ZM364.798 108.953C370.45 103.704 374 96.1217 374 87.6897C374 71.8448 361.464 59 346 59C330.536 59 318 71.8448 318 87.6897C318 96.7593 321.733 104.425 328.565 110.14C329.476 110.843 330.084 111.316 330.489 111.633L331.533 112.554C332.707 113.51 334.188 115.901 334.188 117.276V127H357.812V116.857C357.812 115.774 357.877 115.017 360 113.032C360.3 112.752 362.687 110.751 363.435 110.14L364.798 108.953Z" stroke="#FFD862" stroke-width="4"/>
<path d="M332 144.5V125H360V144.5C359.833 147.667 356 154.5 346 154.5C336 154.5 332.333 147.667 332 144.5Z" fill="#95A9A1"/>
<path d="M333 146L359.5 144" stroke="#C5E0CF" stroke-width="4" stroke-linecap="round"/>
<path d="M332.5 138.5L359.5 136.5" stroke="#C5E0CF" stroke-width="4" stroke-linecap="round"/>
<path d="M332.5 131L359.5 129" stroke="#C5E0CF" stroke-width="4" stroke-linecap="round"/>
</svg>
