<svg width="633" height="781" viewBox="0 0 633 781" fill="none" xmlns="http://www.w3.org/2000/svg">
<g clip-path="url(#clip0)">
<path d="M448.899 241.896L441.901 217.236L439.032 217.266L446.424 243.316L448.899 241.896Z" fill="#455A64"/>
<path d="M439.032 217.267L431.401 217.342L439.84 247.079L446.424 243.317L439.032 217.267Z" fill="#546E7A"/>
<path d="M438.175 249.51L428.707 216.147C428.535 215.542 428.882 214.921 429.488 214.75C430.093 214.578 430.714 214.924 430.886 215.528L440.354 248.892C440.525 249.496 440.178 250.117 439.573 250.289C438.985 250.521 438.346 250.114 438.175 249.51Z" fill="#455A64"/>
<path d="M429.051 217.356C418.995 216.487 409.191 222.731 407.111 225.541L410.444 226.685C404.815 228.283 397.113 237.783 393.634 244.191L433.399 232.906L428.991 217.373L429.051 217.356Z" fill="#FE5722"/>
<path d="M437.85 248.361C429.749 254.383 418.127 254.22 414.881 252.92L417.116 250.196C411.487 251.794 399.943 247.755 393.616 244.13L433.381 232.845L437.789 248.379L437.85 248.361Z" fill="#F3511E"/>
<path d="M430.646 222.977C424.278 222.432 418.083 226.411 416.688 228.178L418.786 228.889C415.215 229.903 410.32 235.929 408.142 240.008L433.381 232.846L430.585 222.994L430.646 222.977Z" fill="#FEC928"/>
<path d="M436.237 242.68C431.105 246.488 423.743 246.356 421.627 245.585L423.04 243.878C419.469 244.892 412.138 242.335 408.142 240.008L433.381 232.845L436.177 242.697L436.237 242.68Z" fill="#FEC007"/>
<path d="M531.552 221.117L527.315 206.188L515.089 209.658L445.304 229.461L450.415 247.473C451.221 250.314 454.173 251.958 457.017 251.15L506.89 236.997C516.514 234.266 525.089 228.763 531.552 221.117Z" fill="#CED7DB"/>
<path d="M523.096 191.32C513.581 188.208 503.376 187.97 493.752 190.701L443.88 204.854C441.035 205.661 439.387 208.61 440.193 211.451L445.305 229.462L515.09 209.658L527.316 206.189L523.096 191.32Z" fill="#EBEEF0"/>
<path d="M531.553 221.118L539.532 211.67C541.871 208.851 542.449 205.356 541.557 202.213L527.333 206.25L531.553 221.118Z" fill="#455A64"/>
<path d="M541.54 202.153C540.648 199.01 538.303 196.279 534.849 195.17L523.097 191.321L527.334 206.25L541.557 202.214L541.54 202.153Z" fill="#546E7A"/>
<path d="M477.91 220.143C480.145 228.021 488.353 232.592 496.242 230.354C504.13 228.115 508.713 219.914 506.478 212.036C504.242 204.158 496.035 199.587 488.146 201.826C480.257 204.064 475.674 212.265 477.91 220.143Z" fill="#455A64"/>
<path d="M495.453 227.573C498.479 226.714 500.877 224.793 502.386 222.275C502.144 222.344 501.962 222.395 501.72 222.464C494.396 224.542 486.924 223.332 480.814 219.776C482.806 225.872 489.279 229.325 495.453 227.573Z" fill="#25C5D9"/>
<path d="M501.737 222.524C501.979 222.455 502.221 222.387 502.402 222.335C503.651 220.283 504.322 217.807 504.12 215.252C503.817 215.337 503.532 215.484 503.169 215.587C496.148 217.579 488.907 213.495 486.934 206.545C486.848 206.242 486.745 205.88 486.72 205.56C481.824 208.125 479.133 213.852 480.711 219.413C480.762 219.594 480.796 219.715 480.848 219.897C486.941 223.392 494.413 224.602 501.737 222.524Z" fill="#4DCFE1"/>
<path d="M503.151 215.526C503.454 215.44 503.817 215.337 504.103 215.191C504.078 214.414 503.916 213.611 503.693 212.826C501.892 206.479 495.289 202.802 488.934 204.605C488.148 204.829 487.378 205.112 486.703 205.5C486.789 205.802 486.814 206.121 486.917 206.484C488.907 213.495 496.191 217.501 503.151 215.526Z" fill="#80DDE9"/>
<path d="M482.802 243.834L459.984 250.309L461.305 254.963L481.702 249.175L482.802 243.834Z" fill="#AFBDC4"/>
<path d="M473.405 269.947C475.947 269.225 477.913 267.165 478.472 264.525L481.702 249.175L461.366 254.946L465.122 268.183C465.722 270.298 467.897 271.51 470.016 270.909L473.405 269.947Z" fill="#CED7DB"/>
<path d="M469.664 197.537L446.847 204.012L445.526 199.358L465.923 193.57L469.664 197.537Z" fill="#AFBDC4"/>
<path d="M447.952 180.253C450.494 179.532 453.249 180.252 455.111 182.205L465.923 193.57L445.586 199.341L441.847 186.165C441.247 184.05 442.461 181.877 444.58 181.275L447.969 180.314L447.952 180.253Z" fill="#CED7DB"/>
<path opacity="0.15" d="M464.392 225.744L451.293 249.184C450.992 248.812 450.69 248.441 450.038 246.144C449.387 243.847 445.647 230.671 445.647 230.671L464.392 225.744Z" fill="#8FA3AD"/>
<path d="M440.341 230.87C439.947 229.48 440.771 228.005 442.163 227.61L461.289 222.183C462.681 221.788 464.157 222.61 464.551 224C464.946 225.39 464.122 226.865 462.73 227.26L443.604 232.687C442.151 233.1 440.736 232.26 440.341 230.87Z" fill="#AFBDC4"/>
<path d="M441.837 230.38C441.649 229.716 442.039 229.017 442.705 228.828L452.449 226.063C453.115 225.874 453.814 226.263 454.003 226.928C454.191 227.593 453.801 228.291 453.135 228.48L443.391 231.246C442.725 231.435 442.026 231.045 441.837 230.38Z" fill="white"/>
</g>
<path d="M385.623 244.191C356.851 245.718 308.613 249.772 291.344 299.482C274.075 349.192 367.69 329.789 307.536 264.621C247.383 199.453 138.943 278.521 123.753 369.403C108.563 460.284 154.971 550.567 225.781 527.902C296.59 505.238 204.108 383.245 128.078 510.012C52.047 636.779 146.371 696.628 181.513 702.642" stroke="#08DFF2" stroke-dasharray="4 6"/>
<defs>
<clipPath id="clip0">
<rect x="513.718" y="104.117" width="200.419" height="156.344" transform="rotate(74.1569 513.718 104.117)" fill="white"/>
</clipPath>
</defs>
</svg>
