<svg width="60" height="72" viewBox="0 0 60 72" fill="none" xmlns="http://www.w3.org/2000/svg">
<path d="M48.7975 51.9533C48.3701 52.3502 47.9306 52.7338 47.4798 53.1034L48.7975 51.9533ZM48.7975 51.9533C54.4498 46.7041 58 39.1217 58 30.6897C58 14.8448 45.464 2 30 2C14.536 2 2 14.8448 2 30.6897C2 39.7593 5.73333 47.4253 12.5648 53.1399C13.4755 53.8426 14.0845 54.3156 14.4886 54.6329L15.5333 55.554C16.7073 56.5103 18.1875 58.9012 18.1875 60.2759V70H41.8125V59.8575C41.8125 58.7745 41.8769 58.0174 44 56.0322C44.3002 55.7515 46.687 53.7508 47.4352 53.1399L48.7975 51.9533Z" stroke="#FFD862" stroke-width="4"/>
</svg>
