<svg width="727" height="660" viewBox="0 0 727 660" fill="none" xmlns="http://www.w3.org/2000/svg">
<ellipse opacity="0.2" cx="330.5" cy="619.5" rx="139.5" ry="40.5" fill="#5D72FF"/>
<path d="M523 188.5C519 188.5 519 186.167 519 185H527C527 186.167 527 188.5 523 188.5Z" fill="black"/>
<path d="M340.5 277.5L338.5 261L362 259L364 277.5H340.5Z" fill="#CEE1E8"/>
<path d="M256 315.5L210 323.5L214 337.5L260 329.5L256 315.5Z" fill="#CEE1E8"/>
<path d="M505 282L446 293L449 308L509 297L505 282Z" fill="#CEE1E8"/>
<path d="M457.5 310C457.1 289.6 439.5 288.5 431 290V330C436.5 331.5 457.5 330 457.5 310Z" fill="#77959D"/>
<path d="M252.5 316.5C252.5 299.7 267.5 296.5 274.5 296V336.5C267.5 337.833 252.5 333.3 252.5 316.5Z" fill="#77959D"/>
<path d="M394.5 535H382.5L380 497L392 496.5L394.5 535Z" fill="#CEE1E8"/>
<path d="M291 529.5L308 497L318.5 502L301 535L291 529.5Z" fill="#CEE1E8"/>
<path d="M275.5 562.5L265 588L263 593L275 605L289 568L275.5 562.5Z" fill="#CEE1E8"/>
<path d="M379 610L380.5 570H396L395 601L379 610Z" fill="#CEE1E8"/>
<path d="M309 280C309 278.343 310.343 277 312 277H400C401.657 277 403 278.343 403 280V285H309V280Z" fill="#77959D"/>
<path d="M306 484.5C284 476.5 282 466.833 283.5 463H418V468.5C418 475.3 404.333 482.333 397.5 485C398 487.5 397 498 389 500C376.2 502.8 371.667 495.333 371 491.5H334C333.167 496.667 327.6 506.4 316 504C304.4 501.6 304.667 490 306 484.5Z" fill="#77959D"/>
<path d="M272 300C272 291.163 279.163 284 288 284H421C429.837 284 437 291.163 437 300V459C437 466.18 431.18 472 424 472H285C277.82 472 272 466.18 272 459V300Z" fill="#CEE1E8"/>
<path d="M465 119H480" stroke="#FFD862" stroke-width="5" stroke-linecap="round"/>
<path d="M472 89.5L485 95.5" stroke="#FFD862" stroke-width="5" stroke-linecap="round"/>
<path d="M493.5 68.5L500.5 80.5" stroke="#FFD862" stroke-width="5" stroke-linecap="round"/>
<path d="M522.5 63V76.5" stroke="#FFD862" stroke-width="5" stroke-linecap="round"/>
<path d="M553.5 68L546 80" stroke="#FFD862" stroke-width="5" stroke-linecap="round"/>
<path d="M575 90L562.5 95.5" stroke="#FFD862" stroke-width="5" stroke-linecap="round"/>
<path d="M581.5 119H567.5" stroke="#FFD862" stroke-width="5" stroke-linecap="round"/>
<path d="M535.5 169.5C548.5 179.5 540.5 194 533 198L536 202C554.5 189.5 546.5 168 535.5 164V169.5Z" fill="#77959D"/>
<path d="M513.534 169.5C502.046 181.5 509 193.5 516.5 197.5L513.034 202C494.534 189.5 503 167.5 513.534 164V169.5Z" fill="#77959D"/>
<path d="M213.5 342.5L236.5 361.5L227.5 370.5L205 351L213.5 342.5Z" fill="#CEE1E8"/>
<path d="M232 584.5L271.5 623.5C279 615.999 279 595 261 584C246.6 575.2 235.667 580.666 232 584.5Z" fill="#77959D"/>
<path d="M426.5 607.5L375 628.001C370.767 618.275 378.5 599.5 399 596.001C417.961 592.763 423.5 601 426.5 607.5Z" fill="#77959D"/>
<path d="M511 265.5L516 220.5L528 221L523.5 266L511 265.5Z" fill="#CEE1E8"/>
<path d="M427 122.499L417 122.999L427.5 214.499C428.833 214.666 433.1 214.399 437.5 213.999C441.9 213.599 442.667 209.333 442.5 207.499C440 183.166 434.3 132.7 433.5 127.5C432.7 122.3 429 122.499 427 122.499Z" fill="#77959D"/>
<path d="M244 142.5L252.5 142H257L266 232.5C262.5 232.833 254.8 233.5 252 233.5C249.2 233.5 247.319 231.5 247 228.5C244.5 205 239.3 156.4 238.5 150C237.7 143.6 241.833 142.333 244 142.5Z" fill="#77959D"/>
<path d="M373 255.5L372.5 250.002L325 255.5C325 256.331 325.5 259.499 326 261.5C326.58 263.822 329.042 263.666 330 263.5C354 261 369 258.998 371 258.5C372.913 258.023 373 256.331 373 255.5Z" fill="#77959D"/>
<path d="M407 108.5L256.5 125.5C251.3 126.087 250.333 129.745 250.5 131.5L261 227C263.8 261.4 283.833 261.833 307 259.5C330.167 257.167 381.8 251.8 403 249C429 245.566 430.72 227 429 211C425.667 180 418.9 117 418.5 113C418 108 416.5 108 415 108C413.8 108 409.167 108.333 407 108.5Z" fill="#CEE1E8"/>
<path d="M371.5 236.5C364.7 240.5 352.5 242.5 347.5 243C336.333 243.834 316 244 313.5 232.5C311.543 223.5 319.5 219.458 326 220C330.594 220.384 338.019 221.499 344.5 221C351 220.5 355.5 219 362 216.5C368.5 214 374 216.5 376.5 220C379 223.5 380 231.5 371.5 236.5Z" fill="#77959D"/>
<path d="M327 105L324.5 77.5L334 76.5L336.5 104L327 105Z" fill="#CEE1E8"/>
<path d="M304.5 108V114.5L363 108C363 107.167 362 104.5 361.5 103C360.741 100.723 358.167 100.333 357 100.5C341.5 102.167 309.9 105.5 307.5 105.5C305.1 105.5 304.5 107.167 304.5 108Z" fill="#77959D"/>
<path d="M261.5 122.001V125.001L405.5 109C405.5 106 402 103.5 397.5 103.999C358.167 107.833 277.5 116.5 270.5 117.5C263 118.571 261.5 120 261.5 122.001Z" fill="#4E646F"/>
<path d="M316 319V444.5" stroke="#7F7A80" stroke-width="5" stroke-linecap="round"/>
<path d="M288.5 417H414.5" stroke="#7F7A80" stroke-width="5" stroke-linecap="round"/>
<path d="M288.5 399H414.5" stroke="#7F7A80" stroke-width="5" stroke-linecap="round"/>
<path d="M288.5 382H414.5" stroke="#7F7A80" stroke-width="5" stroke-linecap="round"/>
<path d="M288.5 364H414.5" stroke="#7F7A80" stroke-width="5" stroke-linecap="round"/>
<path d="M288.5 346H414.5" stroke="#7F7A80" stroke-width="5" stroke-linecap="round"/>
<path d="M334 319V444.5" stroke="#7F7A80" stroke-width="5" stroke-linecap="round"/>
<path d="M351.5 319V444.5" stroke="#7F7A80" stroke-width="5" stroke-linecap="round"/>
<path d="M369.5 319V444.5" stroke="#7F7A80" stroke-width="5" stroke-linecap="round"/>
<path d="M387 319V444.5" stroke="#7F7A80" stroke-width="5" stroke-linecap="round"/>
<circle cx="303" cy="185" r="29" fill="#77959D"/>
<circle cx="378" cy="177" r="29" fill="#77959D"/>
<circle cx="326.5" cy="55.5" r="23.5" fill="#FF4249"/>
<circle cx="303.5" cy="184.5" r="22.5" fill="white"/>
<circle cx="378.5" cy="176.5" r="22.5" fill="white"/>
<circle cx="303.5" cy="184.5" r="17.5" fill="#4D636E"/>
<circle cx="197" cy="336" r="20" fill="#77959D"/>
<circle cx="288" cy="549" r="20" fill="#77959D"/>
<circle cx="389.5" cy="552.5" r="20.5" fill="#77959D"/>
<path d="M266.5 406.501L268.5 410.5C250 415 239.5 404 240 388.5C240.406 375.917 242.556 374.311 250 370C259.5 364.5 268 367.5 272 369.001V374.5C260 366.5 243 374.5 244.5 392.501C245.704 406.958 260 408.5 266.5 406.501Z" fill="#77959D"/>
<circle cx="239.5" cy="374.5" r="14.5" fill="#77959D"/>
<circle cx="516.5" cy="283.5" r="20.5" fill="#77959D"/>
<circle cx="524.5" cy="209.5" r="14.5" fill="#77959D"/>
<circle cx="378.5" cy="176.5" r="17.5" fill="#4D636E"/>
<circle cx="197" cy="336" r="11" fill="#CEE1E8"/>
<circle cx="288" cy="549" r="11" fill="#CEE1E8"/>
<circle cx="389.5" cy="552.5" r="11.5" fill="#CEE1E8"/>
<circle cx="239.5" cy="374.5" r="7.5" fill="#CEE1E8"/>
<circle cx="517" cy="284" r="11" fill="#CEE1E8"/>
<circle cx="525" cy="209" r="7" fill="#CEE1E8"/>
<rect x="302" y="334" width="96" height="96" rx="19" fill="#373246"/>
<rect x="308" y="341" width="83" height="83" rx="12" fill="white"/>
<rect x="313" y="345" width="74" height="75" rx="11" fill="#373246"/>
<rect x="326" y="358" width="48" height="48" rx="6" fill="#CEE1E8"/>
<path d="M509 176.5V157H537V176.5C536.833 179.667 533 186.5 523 186.5C513 186.5 509.333 179.667 509 176.5Z" fill="#95A9A1"/>
<path d="M510 178L536.5 176" stroke="#C5E0CF" stroke-width="4" stroke-linecap="round"/>
<path d="M509.5 170.5L536.5 168.5" stroke="#C5E0CF" stroke-width="4" stroke-linecap="round"/>
<path d="M509.5 163L536.5 161" stroke="#C5E0CF" stroke-width="4" stroke-linecap="round"/>
<path d="M169.998 122.5C125.998 135.833 49.1983 190.6 93.9983 303C83.3311 263 83.597 170.9 169.998 122.5Z" fill="white" fill-opacity="0.2"/>
<path d="M74.0213 196C49.0947 244.961 32.5987 356.252 166.027 409.723C122.904 386.135 44.1299 310.366 74.0213 196Z" fill="white" fill-opacity="0.2"/>
<path d="M494.002 535.337C553.061 536.806 668.675 501.183 658.653 346.942C655.774 399.718 618.813 511.282 494.002 535.337Z" fill="white" fill-opacity="0.2"/>
<path d="M122.939 203C102.357 230.552 80.4063 297.607 157.253 345.406C133.083 326.055 92.381 270.482 122.939 203Z" fill="white" fill-opacity="0.2"/>
<path d="M640.717 481.407C677.261 450.181 727.834 365.521 637.782 276.693C664.777 310.518 703.156 398.815 640.717 481.407Z" fill="white" fill-opacity="0.2"/>
</svg>
