<svg width="1440" height="400" viewBox="0 0 1440 400" fill="none" xmlns="http://www.w3.org/2000/svg">
<path d="M19.0949 -617.167C-8.41156 -682.842 -83.4303 -714.615 -132.943 -706.851C-182.456 -699.087 -270.477 -665.418 -327.491 -479.387C-327.351 -436.891 -361 -749.977 -361 -675.667L-361 22.3342C-152.948 -35.0638 -180.955 158.655 -133.943 244.317C-86.9317 329.98 13.5933 359.626 165.631 310.428C355.679 248.93 475.709 248.93 587.737 324.265C699.765 399.6 826.296 404.724 1054.85 310.428C1237.7 234.99 1369.43 250.856 1423.95 275.967C1478.46 301.079 1610.99 416.388 1643 347.202V-57.6591V-234.978C1643 -292.376 1625 -141.706 1574.98 -163.231C1524.97 -184.755 1532.97 -246.253 1411.94 -223.704C1290.91 -201.154 1218.39 -353.238 1054.85 -381.424C891.312 -409.611 840.8 -330.689 724.771 -313.264C608.742 -295.84 559.23 -323.001 475.709 -399.874C392.188 -476.746 332.173 -473.671 213.143 -464.959C94.1135 -456.247 59.7083 -520.197 19.0949 -617.167Z" fill="url(#paint0_linear)"/>
<path d="M-17.8283 -593.765C-38.644 -692.125 -109.152 -724.507 -173.436 -712.675C-237.72 -700.843 -258.59 -641.685 -309.656 -641.685C-385.675 -641.685 -427 -740.351 -427 -683.867L-427 -527.765C-427 -339.129 -427 -55.1759 -427 -2.23767C-427 108.881 -192.313 -173.47 -125.988 120.788C-59.6639 415.046 147.473 358.973 270.938 307.529C394.404 256.085 565.828 262.259 686.233 332.736C806.637 403.214 971.938 449.514 1104.59 307.529C1210.71 193.941 1403.05 203.174 1481.62 239.109C1560.19 275.044 1651 306.939 1651 239.109V-28.9884C1651 -161.199 1646.41 -135.477 1598.45 -124.159C1550.49 -112.842 1541.82 -169.944 1492.84 -166.343C1443.86 -162.742 1355.09 -53.6058 1323.46 -133.858C1268.17 -274.123 1197.44 -220.283 1104.59 -316.998C1011.73 -413.712 854.595 -386.961 721.946 -341.691C589.297 -296.42 492.03 -337.86 431.648 -386.961C352.569 -451.266 283.183 -449.208 165.839 -430.688C48.496 -412.168 8.19131 -470.814 -17.8283 -593.765Z" fill="url(#paint1_linear)"/>
<defs>
<linearGradient id="paint0_linear" x1="-257.474" y1="-484.045" x2="1617.77" y2="229.106" gradientUnits="userSpaceOnUse">
<stop stop-color="#10B3F1"/>
<stop offset="1" stop-color="#6070FF"/>
</linearGradient>
<linearGradient id="paint1_linear" x1="1364.28" y1="336.262" x2="-97.6621" y2="-439.201" gradientUnits="userSpaceOnUse">
<stop stop-color="#0FF0E3"/>
<stop offset="1" stop-color="#00D1FF"/>
</linearGradient>
</defs>
</svg>
