<svg width="650" height="514" viewBox="0 0 650 514" fill="none" xmlns="http://www.w3.org/2000/svg">
<path d="M280.54 447.599C339.841 490.045 420.513 463.756 466.511 446.1C612.91 389.907 634.339 270.602 614.623 190.024C594.907 109.445 495.213 6.28074 309.785 39.0926C124.357 71.9044 54.3463 136.567 45.2243 224.691C36.1022 312.815 82.8719 345.038 124.543 363C211.543 400.5 210.545 397.5 280.54 447.599Z" fill="url(#paint0_linear)"/>
<path d="M39.5432 213.5C28.3763 257.27 32.4424 350.609 138.043 373.809C86.876 373.27 -4.45687 340.453 39.5432 213.5Z" fill="url(#paint1_linear)"/>
<defs>
<linearGradient id="paint0_linear" x1="84.396" y1="460.054" x2="662.201" y2="621.904" gradientUnits="userSpaceOnUse">
<stop stop-color="#CA4467"/>
<stop offset="1" stop-color="#F590AB"/>
</linearGradient>
<linearGradient id="paint1_linear" x1="84.396" y1="460.054" x2="662.201" y2="621.904" gradientUnits="userSpaceOnUse">
<stop stop-color="#CA4467"/>
<stop offset="1" stop-color="#F590AB"/>
</linearGradient>
</defs>
</svg>
