<svg width="2037" height="1084" viewBox="0 0 2037 1084" fill="none" xmlns="http://www.w3.org/2000/svg">
<path d="M1635.5 117.906C1655.9 22.3062 1725 -9.16679 1788 2.33297C1851 13.8327 1871.45 71.3306 1921.5 71.3306C1996 71.3306 2036.5 -24.5662 2036.5 30.333L2036.5 182.054C2036.5 365.396 2036.5 641.38 2036.5 692.833C2036.5 800.833 1806.5 526.406 1741.5 812.406C1676.5 1098.41 1473.5 1043.91 1352.5 993.906C1231.5 943.906 1063.5 949.906 945.5 1018.41C827.5 1086.91 665.501 1131.91 535.501 993.906C431.501 883.506 243.001 892.48 166.001 927.406C89.0006 962.333 0 993.333 0 927.406V666.833C0 538.333 4.50061 563.333 51.5006 574.333C98.5006 585.333 107.001 529.833 155.001 533.333C203.001 536.833 290.001 642.906 321.001 564.906C375.182 428.578 444.501 480.906 535.501 386.906C626.501 292.906 780.5 318.906 910.5 362.906C1040.5 406.906 1135.82 366.629 1195 318.906C1272.5 256.406 1340.5 258.406 1455.5 276.406C1570.5 294.406 1610 237.406 1635.5 117.906Z" fill="url(#paint0_linear)"/>
<defs>
<linearGradient id="paint0_linear" x1="280.999" y1="1021.83" x2="1708.5" y2="258.333" gradientUnits="userSpaceOnUse">
<stop stop-color="#0FF0E3"/>
<stop offset="1" stop-color="#00D1FF"/>
</linearGradient>
</defs>
</svg>
