<svg width="2078" height="1115" viewBox="0 0 2078 1115" fill="none" xmlns="http://www.w3.org/2000/svg">
<path d="M409.172 121.235C388.356 22.8749 317.848 -9.50683 253.564 2.32498C189.28 14.1568 168.41 73.3148 117.344 73.3148C41.3254 73.3148 5.95918e-05 -25.3509 6.3302e-05 31.1335L4.19272e-05 187.235C8.41499e-06 375.871 -4.20309e-05 659.824 6.3304e-05 712.762C0.000284404 823.881 234.687 541.53 301.012 835.788C367.336 1130.05 574.473 1073.97 697.938 1022.53C821.404 971.085 992.828 977.259 1113.23 1047.74C1233.64 1118.21 1398.94 1164.51 1531.59 1022.53C1637.71 908.941 1830.05 918.174 1908.62 954.109C1987.19 990.044 2078 1021.94 2078 954.109V686.012C2078 553.801 2073.41 579.523 2025.45 590.841C1977.49 602.158 1968.82 545.056 1919.84 548.657C1870.86 552.258 1782.09 661.394 1750.46 581.142C1695.17 440.877 1624.44 494.717 1531.59 398.002C1438.73 301.288 1281.59 328.039 1148.95 373.309C1016.3 418.58 919.03 377.14 858.648 328.039C779.569 263.734 710.183 265.792 592.839 284.312C475.496 302.832 435.191 244.186 409.172 121.235Z" fill="url(#paint0_linear)"/>
<defs>
<linearGradient id="paint0_linear" x1="1791.28" y1="1051.26" x2="329.338" y2="275.799" gradientUnits="userSpaceOnUse">
<stop stop-color="#0FF0E3"/>
<stop offset="1" stop-color="#00D1FF"/>
</linearGradient>
</defs>
</svg>
