<svg width="2004" height="1064" viewBox="0 0 2004 1064" fill="none" xmlns="http://www.w3.org/2000/svg">
<path d="M1624 89.452C1651.5 25.3765 1726.5 -5.62308 1776 1.95197C1825.5 9.52703 1913.5 42.3761 1970.5 223.876C1970.36 265.336 2004 -40.1239 2004 32.3761L2004 713.376C1796 657.376 1824 846.376 1777 929.952C1730 1013.53 1629.5 1042.45 1477.5 994.452C1287.5 934.452 1167.5 934.452 1055.5 1007.95C943.5 1081.45 817 1086.45 588.5 994.452C405.7 920.852 274 936.331 219.5 960.831C165 985.331 32.5 1097.83 0.5 1030.33V635.331V462.331C0.5 406.331 18.5 553.331 68.5 532.331C118.5 511.331 110.5 451.331 231.5 473.331C352.5 495.331 425 346.952 588.5 319.452C752 291.952 802.5 368.952 918.5 385.952C1034.5 402.952 1084 376.452 1167.5 301.452C1251 226.452 1311 229.452 1430 237.952C1549 246.452 1583.4 184.06 1624 89.452Z" fill="url(#paint0_linear)"/>
<defs>
<linearGradient id="paint0_linear" x1="1900.5" y1="219.331" x2="37.5004" y2="945.332" gradientUnits="userSpaceOnUse">
<stop stop-color="#10B3F1"/>
<stop offset="1" stop-color="#6070FF"/>
</linearGradient>
</defs>
</svg>
