<svg width="2004" height="1089" viewBox="0 0 2004 1089" fill="none" xmlns="http://www.w3.org/2000/svg">
<path d="M380.095 90.8334C352.588 25.1582 277.569 -6.61527 228.057 1.14891C178.544 8.91308 90.5228 42.5823 33.5085 228.613C33.6484 271.109 0.000123801 -41.9774 2.15295e-05 32.3326L5.01469e-05 730.334C208.052 672.936 180.045 866.655 227.057 952.317C274.068 1037.98 374.593 1067.63 526.631 1018.43C716.678 956.93 836.708 956.93 948.736 1032.26C1060.76 1107.6 1187.3 1112.72 1415.85 1018.43C1598.7 942.99 1730.43 958.856 1784.95 983.967C1839.46 1009.08 1971.99 1124.39 2004 1055.2V650.341V473.022C2004 415.624 1986 566.294 1935.98 544.769C1885.97 523.245 1893.97 461.747 1772.94 484.296C1651.91 506.846 1579.39 354.762 1415.85 326.576C1252.31 298.389 1201.8 377.311 1085.77 394.736C969.741 412.16 920.229 384.999 836.708 308.126C753.188 231.254 693.173 234.329 574.143 243.041C455.113 251.753 420.708 187.803 380.095 90.8334Z" fill="url(#paint0_linear)"/>
<defs>
<linearGradient id="paint0_linear" x1="103.526" y1="223.955" x2="1978.77" y2="937.106" gradientUnits="userSpaceOnUse">
<stop stop-color="#10B3F1"/>
<stop offset="1" stop-color="#6070FF"/>
</linearGradient>
</defs>
</svg>
