<svg width="2005" height="636" viewBox="0 0 2005 636" fill="none" xmlns="http://www.w3.org/2000/svg">
<path d="M1782.37 621.554H13.8709C13.8709 621.554 -22.1289 143.554 43.371 172.054C108.871 200.554 118.871 85.0537 218.371 85.0537C317.871 85.0537 406.871 215.054 524.871 198.554C647.009 181.475 711.871 93.0537 836.871 181.554C961.871 270.054 1121.87 176.554 1152.87 161.554C1183.87 146.554 1244.37 98.0537 1381.87 122.554C1519.37 147.054 1551.87 105.054 1611.87 66.5537C1659.87 35.7537 1745.54 17.7204 1782.37 12.5537V621.554Z" fill="url(#paint0_linear)"/>
<path d="M608 164.275C647.833 140.775 744.6 106.375 813 156.775C784 128.608 702.4 90.6745 608 164.275Z" fill="url(#paint1_linear)"/>
<path d="M313.781 93.5537C347.034 130.548 440.673 200.883 549.209 186.271C506.044 186.993 398.529 169.462 313.781 93.5537Z" fill="url(#paint2_linear)"/>
<path d="M1988 635.053H272.5H0L4.57764e-05 181.554C4.57764e-05 12.0537 4.49993 174.554 66.5 176.554C133.465 178.714 128 96.5537 220.5 96.5537C313 96.5537 425 300.553 580 216.053C697.96 151.746 767.522 152.108 816 180.553C876.5 216.053 936.501 328.553 1069 253.053C1201.5 177.553 1250.5 187.053 1296.5 196.053C1342.5 205.053 1496.4 304.817 1560 163.053C1619 31.5533 1753.5 5.09181 1784 1.55427C1814.5 -1.98326 1919.2 -5.07668 1962 59.5519C2038.5 175.052 1988 635.053 1988 635.053Z" fill="#C4C4C4"/>
<path d="M1988 635.053H272.5H0L4.57764e-05 181.554C4.57764e-05 12.0537 4.49993 174.554 66.5 176.554C133.465 178.714 128 96.5537 220.5 96.5537C313 96.5537 425 300.553 580 216.053C697.96 151.746 767.522 152.108 816 180.553C876.5 216.053 936.501 328.553 1069 253.053C1201.5 177.553 1250.5 187.053 1296.5 196.053C1342.5 205.053 1496.4 304.817 1560 163.053C1619 31.5533 1753.5 5.09181 1784 1.55427C1814.5 -1.98326 1919.2 -5.07668 1962 59.5519C2038.5 175.052 1988 635.053 1988 635.053Z" fill="url(#paint3_linear)"/>
<defs>
<linearGradient id="paint0_linear" x1="-355.629" y1="625.554" x2="1617.94" y2="988.99" gradientUnits="userSpaceOnUse">
<stop stop-color="#0FF0E3"/>
<stop offset="1" stop-color="#00D1FF"/>
</linearGradient>
<linearGradient id="paint1_linear" x1="808.5" y1="148.274" x2="614.5" y2="151.774" gradientUnits="userSpaceOnUse">
<stop stop-color="#06DDF4"/>
<stop offset="1" stop-color="#09E3EF"/>
</linearGradient>
<linearGradient id="paint2_linear" x1="313.06" y1="103.528" x2="581.3" y2="193.102" gradientUnits="userSpaceOnUse">
<stop stop-color="#0BE8EB"/>
<stop offset="1" stop-color="#09E3EF"/>
</linearGradient>
<linearGradient id="paint3_linear" x1="245.324" y1="169.623" x2="1460.07" y2="972.047" gradientUnits="userSpaceOnUse">
<stop stop-color="#10B3F1"/>
<stop offset="1" stop-color="#6070FF"/>
</linearGradient>
</defs>
</svg>
