<svg width="64" height="66" viewBox="0 0 64 66" fill="none" xmlns="http://www.w3.org/2000/svg">
<path d="M24.2634 4.59118L4.84648 21.3262L6.08266 23.9153L26.5942 6.2369L24.2634 4.59118Z" fill="#455A64"/>
<path d="M6.08247 23.915L9.36528 30.8034L32.7799 10.623L26.594 6.23661L6.08247 23.915Z" fill="#546E7A"/>
<path d="M35.6859 11.1093L9.41589 33.7508C8.93998 34.161 8.23066 34.1078 7.81991 33.6313C7.40917 33.1547 7.46129 32.4453 7.9372 32.0351L34.2072 9.39368C34.6831 8.98351 35.3924 9.03663 35.8032 9.5132C36.2615 9.94876 36.1618 10.6992 35.6859 11.1093Z" fill="#455A64"/>
<path d="M10.3676 32.9291C13.8161 42.4157 23.6085 48.677 27.0339 49.3793L26.6674 45.8746C30.4873 50.3067 42.3482 53.2902 49.6253 53.746L22.6394 22.4354L10.4086 32.9768L10.3676 32.9291Z" fill="#FE5722"/>
<path d="M34.7811 11.8878C43.6549 16.6984 48.4027 27.3076 48.5919 30.7991L45.1796 29.9194C48.9995 34.3515 50.2002 46.5228 49.5772 53.7875L22.5914 22.4769L34.8221 11.9355L34.7811 11.8878Z" fill="#F3511E"/>
<path d="M14.7938 29.1151C16.9826 35.1191 23.201 39.0621 25.3916 39.5828L25.1522 37.3804C27.5756 40.1921 35.1031 42.0933 39.7201 42.3499L22.5922 22.4769L14.8349 29.1627L14.7938 29.1151Z" fill="#FEC928"/>
<path d="M30.308 15.7439C35.9234 18.7947 38.9056 25.5269 39.0974 27.7703L36.9544 27.2086C39.3778 30.0203 40.1473 37.7459 39.7198 42.3503L22.5919 22.4773L30.3491 15.7916L30.308 15.7439Z" fill="#FEC007"/>
</svg>
