<svg width="48" height="42" viewBox="0 0 48 42" fill="none" xmlns="http://www.w3.org/2000/svg">
<path d="M24.1008 0.299805C23.7008 0.299805 23.3008 0.599805 23.3008 1.0998V4.0998C23.3008 4.4998 23.6008 4.8998 24.1008 4.8998C24.6008 4.8998 24.9008 4.5998 24.9008 4.0998V1.0998C24.9008 0.599805 24.5008 0.299805 24.1008 0.299805Z" fill="#FFE289"/>
<path d="M47.2004 23.2998H44.2004C43.8004 23.2998 43.4004 23.5998 43.4004 24.0998C43.4004 24.5998 43.7004 24.8998 44.2004 24.8998H47.2004C47.6004 24.8998 48.0004 24.5998 48.0004 24.0998C48.0004 23.5998 47.6004 23.2998 47.2004 23.2998Z" fill="#FFE289"/>
<path d="M4.10078 23.2998H1.10078C0.700777 23.2998 0.300781 23.5998 0.300781 24.0998C0.300781 24.5998 0.600777 24.8998 1.10078 24.8998H4.10078C4.50078 24.8998 4.90078 24.5998 4.90078 24.0998C4.90078 23.5998 4.50078 23.2998 4.10078 23.2998Z" fill="#FFE289"/>
</svg>
