<svg width="48" height="42" viewBox="0 0 48 42" fill="none" xmlns="http://www.w3.org/2000/svg">
<path d="M39.9012 7.3L37.8012 9.4C37.5012 9.7 37.5012 10.2 37.8012 10.5C38.0012 10.7 38.2012 10.7 38.3012 10.7C38.5012 10.7 38.7012 10.6 38.8012 10.5L40.9012 8.4C41.2012 8.1 41.2012 7.6 40.9012 7.3C40.7012 6.9 40.2012 6.9 39.9012 7.3Z" fill="#FFE289"/>
<path d="M9.40116 37.6996L7.30117 39.7996C7.00117 40.0996 7.00117 40.5996 7.30117 40.8996C7.50117 41.0996 7.70117 41.0996 7.80117 41.0996C8.00117 41.0996 8.20117 40.9996 8.30117 40.8996L10.4012 38.7996C10.7012 38.4996 10.7012 37.9996 10.4012 37.6996C10.2012 37.3996 9.70116 37.3996 9.40116 37.6996Z" fill="#FFE289"/>
<path d="M38.8016 37.6996C38.5016 37.3996 38.0016 37.3996 37.7016 37.6996C37.4016 37.9996 37.4016 38.4996 37.7016 38.7996L39.8016 40.8996C40.0016 41.0996 40.2016 41.0996 40.3016 41.0996C40.5016 41.0996 40.7016 40.9996 40.8016 40.8996C41.1016 40.5996 41.1016 40.0996 40.8016 39.7996L38.8016 37.6996Z" fill="#FFE289"/>
<path d="M8.40116 7.29971C8.10116 6.99971 7.60117 6.99971 7.30117 7.29971C7.00117 7.59971 7.00117 8.09971 7.30117 8.39971L9.40116 10.4997C9.60116 10.6997 9.80116 10.6997 9.90116 10.6997C10.1012 10.6997 10.3012 10.5997 10.4012 10.4997C10.7012 10.1997 10.7012 9.69971 10.4012 9.39971L8.40116 7.29971Z" fill="#FFE289"/>
</svg>
