<svg width="293" height="54" viewBox="0 0 293 54" fill="none" xmlns="http://www.w3.org/2000/svg">
<path d="M146.901 53.2998C145.701 53.2998 144.701 52.2998 144.701 51.0998V37.2998H155.401V51.0998C155.401 52.2998 154.401 53.2998 153.201 53.2998H146.901Z" fill="#78909C"/>
<path d="M153.301 53.2998C154.501 53.2998 155.501 52.2998 155.501 51.0998V37.2998H152.301V51.0998C152.301 52.2998 151.301 53.2998 150.101 53.2998H153.301Z" fill="#607D8B"/>
<path d="M150.101 39.2998C158.937 39.2998 166.101 32.1364 166.101 23.2998C166.101 14.4632 158.937 7.2998 150.101 7.2998C141.264 7.2998 134.101 14.4632 134.101 23.2998C134.101 32.1364 141.264 39.2998 150.101 39.2998Z" fill="#FFE287"/>
<path d="M150.101 13.2998C155.601 13.2998 160.101 17.7998 160.101 23.2998C160.101 28.7998 155.601 33.2998 150.101 33.2998C144.601 33.2998 140.101 28.7998 140.101 23.2998C140.101 17.7998 144.601 13.2998 150.101 13.2998ZM150.101 7.2998C141.301 7.2998 134.101 14.4998 134.101 23.2998C134.101 32.0998 141.301 39.2998 150.101 39.2998C158.901 39.2998 166.101 32.0998 166.101 23.2998C166.101 14.4998 159.001 7.2998 150.101 7.2998Z" fill="#FFD44F"/>
<path d="M150.101 0.299805C149.701 0.299805 149.301 0.599805 149.301 1.0998V4.0998C149.301 4.4998 149.601 4.8998 150.101 4.8998C150.601 4.8998 150.901 4.5998 150.901 4.0998V1.0998C150.901 0.599805 150.501 0.299805 150.101 0.299805Z" fill="#FFE289"/>
<path d="M165.901 7.3L163.801 9.4C163.501 9.7 163.501 10.2 163.801 10.5C164.001 10.7 164.201 10.7 164.301 10.7C164.501 10.7 164.701 10.6 164.801 10.5L166.901 8.4C167.201 8.1 167.201 7.6 166.901 7.3C166.701 6.9 166.201 6.9 165.901 7.3Z" fill="#FFE289"/>
<path d="M135.401 37.6996L133.301 39.7996C133.001 40.0996 133.001 40.5996 133.301 40.8996C133.501 41.0996 133.701 41.0996 133.801 41.0996C134.001 41.0996 134.201 40.9996 134.301 40.8996L136.401 38.7996C136.701 38.4996 136.701 37.9996 136.401 37.6996C136.201 37.3996 135.701 37.3996 135.401 37.6996Z" fill="#FFE289"/>
<path d="M173.2 23.2998H170.2C169.8 23.2998 169.4 23.5998 169.4 24.0998C169.4 24.5998 169.7 24.8998 170.2 24.8998H173.2C173.6 24.8998 174 24.5998 174 24.0998C174 23.5998 173.6 23.2998 173.2 23.2998Z" fill="#FFE289"/>
<path d="M130.101 23.2998H127.101C126.701 23.2998 126.301 23.5998 126.301 24.0998C126.301 24.5998 126.601 24.8998 127.101 24.8998H130.101C130.501 24.8998 130.901 24.5998 130.901 24.0998C130.901 23.5998 130.501 23.2998 130.101 23.2998Z" fill="#FFE289"/>
<path d="M164.801 37.6996C164.501 37.3996 164.001 37.3996 163.701 37.6996C163.401 37.9996 163.401 38.4996 163.701 38.7996L165.801 40.8996C166.001 41.0996 166.201 41.0996 166.301 41.0996C166.501 41.0996 166.701 40.9996 166.801 40.8996C167.101 40.5996 167.101 40.0996 166.801 39.7996L164.801 37.6996Z" fill="#FFE289"/>
<path d="M134.401 7.29971C134.101 6.99971 133.601 6.99971 133.301 7.29971C133.001 7.59971 133.001 8.09971 133.301 8.39971L135.401 10.4997C135.601 10.6997 135.801 10.6997 135.901 10.6997C136.101 10.6997 136.301 10.5997 136.401 10.4997C136.701 10.1997 136.701 9.69971 136.401 9.39971L134.401 7.29971Z" fill="#FFE289"/>
<path d="M155.501 42.4998H144.801C143.901 42.4998 143.201 41.7998 143.201 40.8998C143.201 39.9998 143.901 39.2998 144.801 39.2998H155.501C156.401 39.2998 157.101 39.9998 157.101 40.8998C157.101 41.7998 156.301 42.4998 155.501 42.4998Z" fill="#90A4AE"/>
<path d="M155.501 39.2998H152.301C153.201 39.2998 153.901 39.9998 153.901 40.8998C153.901 41.7998 153.201 42.4998 152.301 42.4998H155.501C156.401 42.4998 157.101 41.7998 157.101 40.8998C157.101 39.9998 156.301 39.2998 155.501 39.2998Z" fill="#78909C"/>
<path d="M155.501 48.8997H144.801C143.901 48.8997 143.201 48.1997 143.201 47.2997C143.201 46.3997 143.901 45.6997 144.801 45.6997H155.501C156.401 45.6997 157.101 46.3997 157.101 47.2997C157.101 48.1997 156.301 48.8997 155.501 48.8997Z" fill="#90A4AE"/>
<path d="M155.501 45.6997H152.301C153.201 45.6997 153.901 46.3997 153.901 47.2997C153.901 48.1997 153.201 48.8997 152.301 48.8997H155.501C156.401 48.8997 157.101 48.1997 157.101 47.2997C157.101 46.3997 156.301 45.6997 155.501 45.6997Z" fill="#78909C"/>
<path d="M26.6 8.2002V37.2002H19.9V25.3002H6.7V37.2002H0V8.2002H6.7V19.6002H19.9V8.2002H26.6Z" fill="#FFE287"/>
<path d="M58.6998 34.7002C57.2998 35.6002 55.5998 36.4002 53.4998 36.9002C51.3998 37.4002 49.1998 37.7002 46.8998 37.7002C43.9998 37.7002 41.4998 37.3002 39.4998 36.6002C37.4998 35.9002 35.8998 34.8002 34.8998 33.5002C33.8998 32.2002 33.2998 30.7002 33.2998 29.0002C33.2998 27.5002 33.6998 26.1002 34.5998 24.9002C35.4998 23.7002 36.5998 22.8002 38.0998 22.3002C36.9998 21.7002 36.0998 20.9002 35.4998 19.8002C34.8998 18.8002 34.5998 17.6002 34.5998 16.3002C34.5998 14.7002 35.0998 13.3002 35.9998 12.0002C36.9998 10.7002 38.3998 9.7002 40.3998 8.9002C42.3998 8.1002 44.7998 7.7002 47.5998 7.7002C49.4998 7.7002 51.2998 7.9002 53.0998 8.3002C54.8998 8.7002 56.4998 9.2002 57.7998 9.8002L55.8998 14.9002C53.3998 13.7002 50.6998 13.1002 47.7998 13.1002C45.5998 13.1002 43.9998 13.4002 42.8998 14.1002C41.7998 14.7002 41.2998 15.6002 41.2998 16.7002C41.2998 17.7002 41.6998 18.5002 42.3998 19.0002C43.0998 19.5002 44.1998 19.8002 45.6998 19.8002H53.5998V25.1002H45.2998C43.5998 25.1002 42.2998 25.4002 41.3998 26.0002C40.4998 26.6002 39.9998 27.4002 39.9998 28.5002C39.9998 29.7002 40.5998 30.6002 41.7998 31.2002C42.9998 31.8002 44.7998 32.2002 47.1998 32.2002C48.8998 32.2002 50.5998 32.0002 52.2998 31.5002C53.9998 31.0002 55.4998 30.4002 56.5998 29.6002L58.6998 34.7002Z" fill="#FFE287"/>
<path d="M89.9998 8.2V37.2H83.4998V33.7C81.4998 36.4 78.5998 37.7 74.6998 37.7C71.2998 37.7 68.5998 36.6 66.6998 34.5C64.7998 32.3 63.7998 29.3 63.7998 25.2V8.2H70.4998V25C70.4998 27.3 70.9998 29.1 72.0998 30.2C73.1998 31.4 74.6998 32 76.4998 32C78.4998 32 80.0998 31.4 81.2998 30.1C82.4998 28.8 83.0998 27 83.0998 24.5V8.2H89.9998ZM69.0998 0H73.6998C73.7998 2 74.8998 3 77.0998 3C78.1998 3 78.9998 2.7 79.5998 2.2C80.1998 1.7 80.4998 1 80.4998 0H85.0998C85.0998 2.1 84.3998 3.6 83.0998 4.7C81.7998 5.8 79.7998 6.3 77.0998 6.3C71.7998 6.3 69.0998 4.2 69.0998 0Z" fill="#FFE287"/>
<path d="M120 10.8999C122.3 12.8999 123.4 15.6999 123.4 19.2999C123.4 22.6999 122.4 25.3999 120.3 27.2999C118.2 29.1999 115.4 30.1999 111.7 30.1999C110.5 30.1999 109.3 30.0999 108.2 29.7999C107.1 29.5999 105.8 29.0999 104.5 28.5999V37.1999H97.9004V19.9999C97.9004 16.0999 99.0004 13.0999 101.1 10.9999C103.3 8.8999 106.4 7.8999 110.5 7.8999C114.5 7.8999 117.7 8.8999 120 10.8999ZM115 23.5999C116.1 22.5999 116.6 21.1999 116.6 19.3999C116.6 17.5999 116.1 16.0999 115 15.0999C113.9 14.0999 112.5 13.5999 110.6 13.5999C108.6 13.5999 107.1 14.1999 106 15.2999C104.9 16.3999 104.4 17.9999 104.4 20.0999V23.2999C105.2 23.8999 106.2 24.2999 107.2 24.6999C108.2 25.0999 109.3 25.1999 110.4 25.1999C112.5 25.0999 114 24.5999 115 23.5999Z" fill="#FFE287"/>
<path d="M198.602 16.3002C196.102 14.9002 193.502 13.9002 190.602 13.5002V37.1002H183.902V13.5002C181.102 13.9002 178.402 14.8002 175.902 16.3002L173.602 11.3002C175.602 10.1002 177.702 9.2002 180.102 8.6002C182.502 8.0002 184.802 7.7002 187.302 7.7002C189.802 7.7002 192.202 8.0002 194.502 8.6002C196.802 9.2002 199.002 10.1002 200.902 11.3002L198.602 16.3002Z" fill="white"/>
<path d="M227.401 10.8999C229.701 12.8999 230.801 15.6999 230.801 19.2999C230.801 22.6999 229.801 25.3999 227.701 27.2999C225.601 29.1999 222.801 30.1999 219.101 30.1999C217.901 30.1999 216.701 30.0999 215.601 29.7999C214.501 29.5999 213.201 29.0999 211.901 28.5999V37.1999H205.301V19.9999C205.301 16.0999 206.401 13.0999 208.501 10.9999C210.601 8.8999 213.801 7.8999 217.901 7.8999C221.901 7.8999 225.101 8.8999 227.401 10.8999ZM222.501 23.5999C223.601 22.5999 224.101 21.1999 224.101 19.3999C224.101 17.5999 223.601 16.0999 222.501 15.0999C221.401 14.0999 220.001 13.5999 218.101 13.5999C216.101 13.5999 214.601 14.1999 213.501 15.2999C212.401 16.3999 211.901 17.9999 211.901 20.0999V23.2999C212.701 23.8999 213.701 24.2999 214.701 24.6999C215.801 24.9999 216.801 25.1999 217.901 25.1999C219.901 25.0999 221.401 24.5999 222.501 23.5999Z" fill="white"/>
<path d="M260.5 34.7002C259.1 35.6002 257.4 36.4002 255.3 36.9002C253.2 37.4002 251 37.7002 248.7 37.7002C245.8 37.7002 243.3 37.3002 241.3 36.6002C239.3 35.9002 237.7 34.8002 236.7 33.5002C235.7 32.2002 235 30.7002 235 29.0002C235 27.5002 235.4 26.1002 236.3 24.9002C237.2 23.7002 238.3 22.8002 239.8 22.3002C238.7 21.7002 237.8 20.9002 237.2 19.8002C236.6 18.8002 236.3 17.6002 236.3 16.3002C236.3 14.7002 236.8 13.3002 237.7 12.0002C238.6 10.7002 240.1 9.7002 242.1 8.9002C244.1 8.1002 246.5 7.7002 249.3 7.7002C251.2 7.7002 253 7.9002 254.8 8.3002C256.6 8.7002 258.2 9.2002 259.5 9.8002L257.6 14.9002C255.1 13.7002 252.4 13.1002 249.5 13.1002C247.3 13.1002 245.7 13.4002 244.6 14.1002C243.5 14.8002 243 15.6002 243 16.7002C243 17.7002 243.4 18.5002 244.1 19.0002C244.8 19.5002 245.9 19.8002 247.4 19.8002H255.3V25.1002H247C245.3 25.1002 244 25.4002 243.1 26.0002C242.2 26.6002 241.7 27.4002 241.7 28.5002C241.7 29.7002 242.3 30.6002 243.5 31.2002C244.7 31.8002 246.5 32.2002 248.9 32.2002C250.6 32.2002 252.3 32.0002 254 31.5002C255.7 31.0002 257.2 30.4002 258.3 29.6002L260.5 34.7002Z" fill="white"/>
<path d="M277.198 25.5002H272.598V37.2002H265.898V8.2002H272.598V19.9002H277.398L284.998 8.2002H292.098L282.598 22.2002L292.398 37.2002H284.798L277.198 25.5002Z" fill="white"/>
</svg>
