<svg width="141" height="142" viewBox="0 0 141 142" fill="none" xmlns="http://www.w3.org/2000/svg">
<path d="M57.5996 32.3829L45.8447 42.5142L54.1417 52.1409L101.5 107.089L115.682 94.8662C117.919 92.9384 118.167 89.5688 116.236 87.3289L82.3911 48.0596C75.8603 40.4821 67.257 35.0231 57.5996 32.3829Z" fill="#CED7DB"/>
<path d="M34.1381 52.6033C35.3243 62.5445 39.4065 71.9002 45.9373 79.4777L79.7825 118.747C81.713 120.987 85.0823 121.239 87.319 119.311L101.501 107.088L54.1424 52.1398L45.8454 42.5131L34.1381 52.6033Z" fill="#EBEEF0"/>
<path d="M57.6005 32.3812L45.6704 29.125C42.1283 28.191 38.7154 29.1391 36.2407 31.272L45.8932 42.4714L57.6005 32.3812Z" fill="#455A64"/>
<path d="M36.1931 31.3126C33.7184 33.4455 32.2295 36.7222 32.6782 40.3222L34.1383 52.6022L45.8932 42.471L36.2407 31.2716L36.1931 31.3126Z" fill="#546E7A"/>
<path d="M79.3138 81.443C85.5167 76.0968 86.2052 66.7274 80.8516 60.5159C75.498 54.3043 66.1296 53.6027 59.9267 58.9489C53.7238 64.295 53.0353 73.6644 58.3889 79.876C63.7425 86.0875 73.1109 86.7891 79.3138 81.443Z" fill="#455A64"/>
<path d="M78.6629 62.4024C76.6092 60.0195 73.8566 58.6543 70.9372 58.3465C71.1015 58.5371 71.2247 58.6801 71.389 58.8707C76.359 64.6372 78.409 71.9237 77.758 78.9633C82.4479 74.5889 82.8525 67.2634 78.6629 62.4024Z" fill="#25C5D9"/>
<path d="M71.4363 58.83C71.272 58.6394 71.1077 58.4488 70.9844 58.3058C68.597 58.0379 66.0688 58.4727 63.8366 59.7321C64.0419 59.9704 64.2949 60.1676 64.5413 60.4536C69.306 65.9818 68.6524 74.2695 63.1794 78.9865C62.9415 79.1916 62.6559 79.4376 62.3769 79.5951C66.7659 82.9553 73.0937 82.9833 77.4721 79.2098C77.6148 79.0867 77.71 79.0047 77.8528 78.8816C78.4562 71.883 76.4063 64.5965 71.4363 58.83Z" fill="#4DCFE1"/>
<path d="M64.4936 60.4948C64.2883 60.2565 64.0418 59.9706 63.7889 59.7733C63.0946 60.1225 62.4348 60.6081 61.8161 61.1413C56.8191 65.4481 56.2652 72.9854 60.5781 77.9894C61.112 78.6089 61.6936 79.1875 62.3292 79.6363C62.5672 79.4312 62.8462 79.2738 63.1318 79.0277C68.6523 74.2697 69.2172 65.9754 64.4936 60.4948Z" fill="#80DDE9"/>
<path d="M98.7388 67.0259L114.224 84.9926L117.888 81.8342L104.046 65.7738L98.7388 67.0259Z" fill="#AFBDC4"/>
<path d="M126.38 64.5482C124.655 62.5466 121.958 61.6313 119.329 62.2369L104.046 65.7734L117.847 81.7862L128.27 72.8034C129.935 71.3678 130.118 68.885 128.68 67.217L126.38 64.5482Z" fill="#CED7DB"/>
<path d="M62.2846 98.4447L77.7696 116.411L74.1051 119.57L60.2631 103.509L62.2846 98.4447Z" fill="#AFBDC4"/>
<path d="M55.7554 125.417C54.0303 123.416 53.523 120.614 54.5099 118.102L60.2628 103.509L74.0638 119.522L63.6891 128.463C62.0234 129.899 59.5408 129.713 58.1032 128.045L55.803 125.376L55.7554 125.417Z" fill="#CED7DB"/>
<path opacity="0.15" d="M90.0873 91.3437L116.864 93.349C116.654 93.7791 116.444 94.2091 114.636 95.7678C112.827 97.3264 102.453 106.268 102.453 106.268L90.0873 91.3437Z" fill="#8FA3AD"/>
<path d="M104.869 110.996C103.774 111.94 102.09 111.814 101.145 110.717L88.1655 95.6578C87.2208 94.5617 87.3446 92.8769 88.4392 91.9335C89.5338 90.9901 91.2184 91.1163 92.1632 92.2124L105.143 107.272C106.128 108.416 105.964 110.053 104.869 110.996Z" fill="#AFBDC4"/>
<path d="M103.794 109.846C103.271 110.297 102.473 110.238 102.021 109.713L95.4079 102.041C94.9561 101.516 95.0147 100.718 95.5382 100.267C96.0617 99.8159 96.8597 99.8756 97.3115 100.4L103.925 108.073C104.376 108.597 104.318 109.395 103.794 109.846Z" fill="white"/>
</svg>
