<svg width="117" height="116" viewBox="0 0 117 116" fill="none" xmlns="http://www.w3.org/2000/svg">
<path d="M26.8649 69.0608C33.2133 86.8055 52.7434 96.0434 70.4881 89.695C88.2328 83.3466 97.4707 63.8166 91.1224 46.0719C84.774 28.3272 65.2439 19.0893 47.4992 25.4377C29.7545 31.786 20.5166 51.3161 26.8649 69.0608ZM86.014 47.8995C91.3524 62.8212 83.5822 79.2483 68.6605 84.5867C53.7388 89.9251 37.3117 82.1549 31.9733 67.2332C26.6349 52.3115 34.4051 35.8844 49.3268 30.546C64.2485 25.2075 80.6756 32.9778 86.014 47.8995Z" fill="#DC2D33"/>
<path d="M37.1697 17.76C35.3839 18.7021 33.7806 19.7306 32.091 20.9417C31.3806 21.4991 31.2178 22.3155 31.679 22.7571C32.6594 24.2259 33.6398 25.6948 34.6202 27.1637C33.4202 28.0479 32.2683 29.0666 31.2989 30.1716C30.3295 31.2765 29.2257 32.4296 28.2563 33.5346C26.8343 32.527 25.2779 31.5674 23.7216 30.6079C23.1259 30.2145 22.2712 30.3686 21.9259 31.0987C20.8319 32.7031 19.786 34.4421 18.8746 36.1329C18.5292 36.863 18.6834 37.7176 19.2309 37.9767C20.7873 38.9362 22.2956 39.7613 23.852 40.7209C23.1132 42.0466 22.5569 43.4587 22.1832 44.9571C21.6269 46.3692 21.2532 47.8677 21.0139 49.318C19.2466 49.0405 17.4793 48.7629 15.7601 48.6198C15.1262 48.5433 14.4158 49.1007 14.253 49.9171C13.8891 51.867 13.7078 53.9031 13.6128 55.7568C13.5844 56.5251 14.1418 57.2355 14.7757 57.312C16.4949 57.4551 18.3485 57.5501 20.0677 57.6932C20.0109 59.2299 20.223 60.6704 20.3007 62.1589C20.5127 63.5994 20.7729 65.1744 21.1194 66.5667C19.3718 67.192 17.7106 67.6347 15.963 68.2599C15.2908 68.5003 14.9455 69.2304 15.2341 70.037C15.773 71.9671 16.4463 73.8492 17.2059 75.5486C17.4945 76.3552 18.359 76.6525 18.8967 76.4601C20.6443 75.8349 22.2094 75.1233 23.957 74.4981C24.5723 75.7943 25.3702 77.1768 26.12 78.425C26.8698 79.6731 27.7541 80.8731 28.7727 82.025C27.5345 83.2262 26.1618 84.4755 24.9235 85.6766C24.482 86.1379 24.4536 86.9062 25.011 87.6166C26.3084 89.1237 27.6921 90.4483 29.2583 91.8592C29.9021 92.3871 30.8048 92.3674 31.2464 91.9062C32.4365 90.5706 33.6748 89.3694 34.8649 88.0338C36.1044 88.9551 37.3438 89.8764 38.5351 90.6633C39.8609 91.402 41.1866 92.1408 42.5124 92.8796C41.9179 94.6086 41.2753 96.2032 40.6808 97.9323C40.4218 98.4799 40.7104 99.2865 41.5749 99.5837C43.352 100.313 45.2636 100.993 47.1271 101.54C47.9435 101.703 48.7501 101.414 48.8266 100.78C49.4211 99.0512 49.8811 97.3702 50.4756 95.6412C51.9741 96.0149 53.4244 96.2542 54.9611 96.311C56.5458 96.5022 57.9481 96.6071 59.4367 96.5294C59.6105 98.2869 59.7843 100.044 59.9582 101.802C60.0161 102.388 60.708 103.05 61.4282 102.944C63.3682 102.856 65.3945 102.586 67.3727 102.182C68.2274 102.028 68.7552 101.384 68.5148 100.712C68.3409 98.9544 67.9846 97.1106 67.6763 95.4012C69.0687 95.0547 70.5955 94.6601 72.0742 94.1311C73.553 93.6021 74.8492 92.9867 76.2798 92.3232C77.1258 93.8402 78.1543 95.4435 79.0003 96.9605C79.3752 97.5845 80.1916 97.7473 80.8157 97.3724C82.6015 96.4303 84.2048 95.4018 85.8944 94.1907C86.6048 93.6333 86.7676 92.8169 86.3064 92.3753C85.326 90.9065 84.3456 89.4376 83.3652 87.9687C84.5652 87.0845 85.7171 86.0658 86.6865 84.9609C87.6559 83.8559 88.7597 82.7028 89.7291 81.5978C91.1511 82.6054 92.7075 83.565 94.2638 84.5245C94.8595 84.9179 95.7142 84.7638 96.0595 84.0337C97.1535 82.4293 98.1994 80.6903 99.1108 78.9995C99.4562 78.2694 99.302 77.4148 98.7544 77.1557C97.1981 76.1962 95.6898 75.3711 94.1334 74.4115C94.8722 73.0858 95.4285 71.6737 95.8022 70.1753C96.3585 68.7632 96.7322 67.2647 96.9715 65.8144C98.7388 66.0919 100.506 66.3695 102.225 66.5126C102.859 66.5891 103.57 66.0317 103.732 65.2153C104.096 63.2654 104.278 61.2293 104.373 59.3757C104.401 58.6073 103.844 57.8969 103.21 57.8205C101.49 57.6773 99.6369 57.5823 97.9177 57.4392C97.9745 55.9025 97.7624 54.462 97.6847 52.9735C97.4726 51.533 97.2125 49.9581 96.866 48.5657C98.6135 47.9404 100.275 47.4977 102.022 46.8725C102.695 46.6321 103.04 45.902 102.751 45.0954C102.212 43.1653 101.539 41.2832 100.779 39.5838C100.491 38.7772 99.6264 38.4799 99.0887 38.6723C97.3411 39.2975 95.776 40.0091 94.0284 40.6343C93.4131 39.3381 92.6152 37.9556 91.8654 36.7075C91.1156 35.4593 90.2313 34.2593 89.2127 33.1074C90.4509 31.9062 91.8236 30.6569 93.0619 29.4558C93.5034 28.9945 93.5318 28.2262 92.9744 27.5158C91.677 26.0087 90.2933 24.6841 88.7752 23.4076C88.1314 22.8797 87.2287 22.8994 86.7871 23.3607C85.597 24.6963 84.3587 25.8975 83.1685 27.2331C81.9291 26.3118 80.6897 25.3905 79.4984 24.6036C78.1726 23.8648 76.8469 23.126 75.5211 22.3873C76.1637 20.7926 76.7582 19.0636 77.3527 17.3345C77.6117 16.7869 77.3231 15.9804 76.4586 15.6831C74.6815 14.9542 72.7699 14.2733 70.9064 13.7269C70.09 13.5641 69.2834 13.8527 69.2069 14.4866C68.6124 16.2156 68.1523 17.8966 67.5578 19.6257C66.0594 19.2519 64.6091 19.0126 63.0724 18.9558C61.4876 18.7646 60.0854 18.6597 58.5968 18.7374C58.423 16.9799 58.2492 15.2225 58.0753 13.4651C58.1518 12.8312 57.3255 12.217 56.6053 12.323C54.6653 12.4105 52.639 12.6806 50.6608 13.085C49.8061 13.2391 49.2783 13.8829 49.5187 14.555C49.6926 16.3125 50.0489 18.1563 50.3572 19.8656C48.9648 20.2121 47.438 20.6067 45.9593 21.1357C44.4805 21.6648 43.1843 22.2801 41.7537 22.9436C40.9077 21.4266 39.8792 19.8233 39.0332 18.3063C38.7446 17.4998 37.9282 17.337 37.1697 17.76ZM27.3722 67.5141C26.7852 65.4496 26.2463 63.5194 26.1107 61.4451C25.5509 56.4897 26.0284 51.4665 27.6873 46.7789C27.9845 45.9144 28.3299 45.1843 28.6752 44.4542L31.4131 45.7492C31.0677 46.4793 30.8568 47.1613 30.6459 47.8433C29.1597 52.1659 28.6724 56.7377 29.2223 61.2417C29.4442 63.1335 29.8006 64.9773 30.4258 66.7249L27.3722 67.5141ZM65.4569 41.303C62.0851 39.9315 58.1953 39.6551 54.3351 40.7329L50.6319 30.3818C54.3096 29.2177 58.1414 28.9083 62.0312 29.1847C64.8838 29.5289 67.5637 30.2381 70.0709 31.3123L65.4569 41.303ZM72.2612 32.3484C72.8088 32.6074 73.4044 33.0008 73.952 33.2598C77.6123 35.4379 80.7066 38.5767 82.9079 42.1866C83.8883 43.6555 84.5998 45.2206 85.3114 46.7857L74.9603 50.4889C73.3929 46.9555 70.7118 44.1237 67.4646 42.2527L72.2612 32.3484ZM52.0498 41.5505C48.5164 43.1179 45.5502 45.8471 43.8137 49.0462L33.9574 44.384C35.2142 41.9631 36.9705 39.6668 38.8229 37.6394C41.4721 34.8719 44.8132 32.7668 48.3947 31.3339L52.0498 41.5505ZM31.8083 65.927C31.3656 64.2658 30.9229 62.6045 30.7491 60.8471C30.2954 56.612 30.7444 52.3571 32.0099 48.2651C32.2208 47.5831 32.4799 47.0355 32.6908 46.3535L42.547 51.0157C41.2236 54.5219 40.9472 58.4117 41.9769 62.1374L31.7602 65.7926L31.8083 65.927ZM41.5001 85.8116C37.2441 83.2401 33.6887 79.6597 30.978 75.4739C29.9014 73.7361 28.9112 71.8159 28.1034 69.9819L30.9264 68.972C31.5517 70.7195 32.4457 72.3709 33.4742 73.9742C35.9062 77.8049 39.1829 81.0301 43.0738 83.4289C43.6695 83.8224 44.3996 84.1677 44.9953 84.5612L43.7002 87.299C43.0084 86.6367 42.2783 86.2914 41.5001 85.8116ZM66.07 73.5338C69.6034 71.9664 72.4351 69.2853 74.3061 66.0382L84.1624 70.7003C82.9056 73.1212 81.1974 75.5519 79.1624 77.4931C76.5133 80.2605 73.1722 82.3656 69.5907 83.7985L65.9356 73.5819L66.07 73.5338ZM67.4879 84.7025C63.8102 85.8666 59.844 86.2241 56.0886 85.8996C53.2841 85.6899 50.5561 84.8462 48.0489 83.772L52.711 73.9157C56.2172 75.2391 60.107 75.5155 63.8328 74.4858L67.4879 84.7025ZM45.8586 82.7359C45.3111 82.4769 44.7154 82.0835 44.1197 81.69C40.4594 79.5119 37.3652 76.3731 35.1639 72.7632C34.1835 71.2943 33.4719 69.7293 32.7604 68.1642L43.1114 64.461C44.7269 68.1288 47.408 70.9606 50.6071 72.6971L45.8586 82.7359ZM55.515 90.6539C52.211 90.3196 49.0317 89.4858 45.9769 88.1525L47.2719 85.4147C49.9617 86.5753 52.9585 87.3228 55.9455 87.6188C60.0659 88.116 64.301 87.6623 68.2476 86.402L69.2576 89.225C64.7733 90.6776 60.0868 91.1412 55.515 90.6539ZM88.5911 72.9068C87.0753 75.8752 85.0119 78.5847 82.8042 80.8909C79.5791 84.1676 75.7965 86.7339 71.5429 88.4074L70.5329 85.5844C74.3833 84.0552 77.8106 81.7676 80.6806 78.7696C82.8019 76.6459 84.5101 74.2152 85.9395 71.4292L88.5911 72.9068ZM90.7477 47.5702C91.3347 49.6347 91.8735 51.5649 92.0091 53.6393C92.5689 58.5946 92.0914 63.6178 90.4325 68.3054C90.0872 69.0355 89.9243 69.8519 89.579 70.582L86.8411 69.287C87.0521 68.605 87.3974 67.8749 87.6564 67.3274C89.1427 63.0047 89.63 58.433 89.0801 53.929C88.8581 52.0371 88.5018 50.1933 87.8765 48.4457L90.7477 47.5702ZM86.129 49.0709C86.7061 50.6841 87.0144 52.3934 87.1882 54.1509C87.6419 58.386 87.1928 62.6408 85.9274 66.7328C85.7165 67.4148 85.4575 67.9624 85.1984 68.51L75.3422 63.8479C76.6656 60.3417 76.9901 56.5863 75.9123 52.7261L86.129 49.0709ZM63.0326 68.8583C56.8488 71.0706 49.9129 67.7899 47.7006 61.6061C45.4883 55.4223 48.7691 48.4864 54.9528 46.2741C61.271 44.0137 68.0725 47.3425 70.2848 53.5263C72.6316 59.662 69.3508 66.5979 63.0326 68.8583ZM76.5716 29.1383C80.8276 31.7098 84.3831 35.2902 87.0937 39.476C88.1703 41.2138 89.1606 43.134 89.9683 44.9679L87.1453 45.9779C86.5201 44.2303 85.626 42.5789 84.5975 40.9756C82.1656 37.145 78.8888 33.9198 74.9979 31.5209C74.4022 31.1275 73.8066 30.7341 73.1245 30.5231L74.4196 27.7853C75.1114 28.4476 75.8415 28.7929 76.5716 29.1383ZM62.6048 24.4304C65.9088 24.7647 69.1363 25.7329 72.143 26.9318L70.8479 29.6696C68.1582 28.509 65.1613 27.7616 62.1262 27.331C58.0058 26.8339 53.9532 27.374 49.9586 28.4998L48.9486 25.6768C53.3465 24.4067 58.033 23.9431 62.6048 24.4304ZM47.7214 29.4518C43.871 30.981 40.3092 33.3167 37.4392 36.3147C35.3179 38.4384 33.6097 40.8692 32.1322 43.5207L29.3943 42.2256C30.9101 39.2572 32.8391 36.5958 35.1812 34.2415C38.4063 30.9648 42.3233 28.3504 46.577 26.6769L47.7214 29.4518Z" fill="#FF4249"/>
<path d="M37.1695 17.7605C35.3837 18.7027 33.7804 19.7312 32.0907 20.9422C31.3803 21.4996 31.2175 22.3161 31.6788 22.7576C32.6592 24.2265 33.6396 25.6954 34.62 27.1642C33.42 28.0485 32.2681 29.0671 31.2987 30.1721C30.3293 31.2771 29.2254 32.4302 28.256 33.5352C26.8341 32.5275 25.2777 31.568 23.7213 30.6084C23.1257 30.215 22.271 30.3691 21.9257 31.0992C20.8317 32.7037 19.7858 34.4426 18.8743 36.1334C18.529 36.8635 18.6831 37.7182 19.2307 37.9772C20.7871 38.9367 22.2954 39.7618 23.8518 40.7214C23.113 42.0472 22.5567 43.4592 22.183 44.9577C21.6267 46.3698 21.253 47.8682 21.0137 49.3185C19.2464 49.041 17.4791 48.7634 15.7599 48.6203C15.126 48.5438 14.4156 49.1013 14.2528 49.9177C13.8889 51.8675 13.7076 53.9037 13.6125 55.7573C13.5841 56.5256 14.1416 57.236 14.7755 57.3125C16.4947 57.4556 18.3483 57.5506 20.0675 57.6937C20.0107 59.2304 20.2228 60.6709 20.3004 62.1595C20.5125 63.6 20.7727 65.1749 21.1192 66.5673C19.3716 67.1925 17.7103 67.6352 15.9628 68.2604C15.2906 68.5009 14.9453 69.231 15.2338 70.0376C15.5705 70.9786 15.7727 71.9677 16.1094 72.9087L47.4315 61.7028C45.2192 55.5191 48.5 48.5832 54.6837 46.3708C61.0019 44.1104 67.8034 47.4393 70.0157 53.6231L101.338 42.4172C101.001 41.4762 100.665 40.5352 100.193 39.6422C99.9049 38.8357 99.0403 38.5384 98.5026 38.7308C96.755 39.356 95.19 40.0676 93.4424 40.6928C92.827 39.3966 92.0291 38.014 91.2793 36.7659C90.5295 35.5178 89.6453 34.3178 88.6267 33.1659C89.8649 31.9647 91.2376 30.7154 92.4758 29.5142C92.9174 29.053 92.9458 28.2847 92.3883 27.5743C91.091 26.0672 89.7073 24.7426 88.1891 23.4661C87.5454 22.9382 86.6426 22.9579 86.2011 23.4191C85.0109 24.7548 83.7727 25.9559 82.5825 27.2916C81.3431 26.3703 80.1037 25.4489 78.9123 24.6621C77.5866 23.9233 76.2608 23.1845 74.9351 22.4457C75.5776 20.8511 76.1721 19.1221 76.7666 17.393C77.0256 16.8455 76.7371 16.0389 75.8725 15.7416C74.0954 15.0127 72.1838 14.3318 70.3204 13.7854C69.5039 13.6226 68.6973 13.9112 68.6209 14.5451C68.0263 16.2741 67.5663 17.9551 66.9718 19.6841C65.4734 19.3104 64.023 19.0711 62.4864 19.0143C60.9016 18.8231 59.4993 18.7183 58.0108 18.7959C57.8369 17.0385 57.6631 15.281 57.4893 13.5236C57.5658 12.8897 56.7395 12.2755 56.0192 12.3815C54.0793 12.469 52.053 12.739 50.0748 13.1435C49.2201 13.2976 48.6922 13.9414 48.9327 14.6135C49.1065 16.3709 49.4629 18.2147 49.7712 19.9241C48.3788 20.2706 46.8519 20.6652 45.3732 21.1942C43.8945 21.7232 42.5983 22.3386 41.1676 23.0021C40.3217 21.4851 39.2931 19.8818 38.4472 18.3648C38.7444 17.5003 37.928 17.3375 37.1695 17.7605ZM27.3719 67.5147C26.785 65.4501 26.2461 63.52 26.1105 61.4456C25.5507 56.4902 26.0281 51.4671 27.6871 46.7794C27.9843 45.9149 28.3297 45.1848 28.675 44.4547L31.4129 45.7498C31.0675 46.4799 30.8566 47.1618 30.6457 47.8438C29.1594 52.1665 28.6722 56.7382 29.2221 61.2422C29.444 63.1341 29.8003 64.9778 30.4256 66.7254L27.3719 67.5147ZM52.0496 41.551C48.5162 43.1184 45.55 45.8476 43.8134 49.0467L33.9572 44.3846C35.214 41.9637 36.9702 39.6674 38.8227 37.6399C41.4719 34.8725 44.8129 32.7674 48.3944 31.3344L52.0496 41.551ZM50.6317 30.3824C54.3093 29.2183 58.1412 28.9088 62.031 29.1852C64.8835 29.5294 67.5634 30.2386 70.0707 31.3129L65.4085 41.1692C62.0368 39.7977 58.147 39.5213 54.2868 40.5991L50.6317 30.3824ZM42.7293 51.1026C41.4059 54.6088 41.1295 58.4985 42.1592 62.2243L31.8081 65.9276C31.3654 64.2663 30.9227 62.6051 30.7489 60.8476C30.2952 56.6125 30.7442 52.3577 32.0097 48.2657C32.2206 47.5837 32.4796 47.0361 32.6905 46.3541L42.7293 51.1026ZM74.9601 50.4894C73.3927 46.956 70.7116 44.1243 67.4644 42.2533L72.1265 32.397C72.6741 32.656 73.2698 33.0495 73.8173 33.3085C77.4777 35.4866 80.5719 38.6254 82.7732 42.2353C83.7536 43.7042 84.4652 45.2692 85.1767 46.8343L74.9601 50.4894ZM76.5714 29.1388C80.8274 31.7104 84.3829 35.2907 87.0935 39.4766C88.1701 41.2143 89.1604 43.1346 89.9681 44.9685L87.1451 45.9785C86.5199 44.2309 85.6258 42.5795 84.5973 40.9762C82.1653 37.1455 78.8886 33.9204 74.9977 31.5215C74.402 31.1281 73.8063 30.7346 73.1243 30.5237L74.4194 27.7858C75.1112 28.4481 75.8413 28.7935 76.5714 29.1388ZM62.6046 24.4309C65.9085 24.7652 69.136 25.7335 72.1428 26.9323L70.8477 29.6702C68.158 28.5096 65.1611 27.7621 62.126 27.3316C58.0056 26.8344 53.953 27.3745 49.9583 28.5004L48.9484 25.6773C53.3463 24.4072 58.0328 23.9436 62.6046 24.4309ZM47.7211 29.4524C43.8708 30.9815 40.309 33.3173 37.439 36.3153C35.3177 38.4389 33.6095 40.8697 32.1319 43.5212L29.3941 42.2262C30.9099 39.2577 32.8388 36.5963 35.1809 34.2421C38.4061 30.9653 42.3231 28.3509 46.5767 26.6775L47.7211 29.4524Z" fill="#FF4249"/>
<path d="M47.7003 61.6073C49.9608 67.9255 56.8486 71.0718 63.0323 68.8595C69.3505 66.5991 72.4969 59.7113 70.2845 53.5275C68.0241 47.2093 61.1363 44.063 54.9526 46.2753C48.7688 48.4876 45.4399 55.2891 47.7003 61.6073ZM65.3106 55.307C66.513 58.6678 64.6999 62.5008 61.3392 63.7031C57.9784 64.9055 54.1455 63.0924 52.9431 59.7317C51.7408 56.3709 53.5538 52.5379 56.9145 51.3356C60.2753 50.1332 64.0602 51.8118 65.3106 55.307Z" fill="#DC2D33"/>
</svg>
