<svg width="196" height="195" viewBox="0 0 196 195" fill="none" xmlns="http://www.w3.org/2000/svg">
<path d="M122.309 78.2611C132.914 91.9684 130.417 111.53 116.71 122.135C103.003 132.74 83.4412 130.244 72.8363 116.536C62.2314 102.829 64.7276 83.2674 78.4349 72.6625C91.9847 62.1795 111.826 64.7114 122.309 78.2611ZM85.1256 107.028C90.3672 113.803 100.148 115.051 106.923 109.81C113.698 104.568 114.946 94.7876 109.704 88.0128C104.463 81.2379 94.682 79.9898 87.9071 85.2313C81.1322 90.4728 79.8841 100.254 85.1256 107.028Z" fill="#ECB513"/>
<path d="M110.334 87.5234C115.819 94.6134 114.5 104.953 107.41 110.438C100.32 115.924 89.9804 114.604 84.4951 107.514C79.0098 100.424 80.3292 90.0845 87.4192 84.5992C94.6667 78.992 104.849 80.4334 110.334 87.5234ZM90.1671 103.126C93.3364 107.222 99.2048 107.971 103.301 104.802C107.398 101.633 108.147 95.7642 104.977 91.6678C101.808 87.5714 95.9395 86.8225 91.8431 89.9918C87.7466 93.1611 86.9978 99.0296 90.1671 103.126Z" fill="#FFBF01"/>
<path d="M110.338 87.522L104.823 91.7883C101.654 87.6919 95.7857 86.943 91.6892 90.1123C87.5928 93.2816 86.8439 99.1501 90.0132 103.247L84.4988 107.513C79.0135 100.423 80.3329 90.0831 87.4229 84.5978C94.6704 78.9906 104.853 80.432 110.338 87.522Z" fill="#FFD862"/>
<path d="M59.8856 38.9435C61.5831 37.8821 63.2805 36.8207 65.0999 35.9168C66.9192 35.013 68.7385 34.1092 70.6798 33.3629C70.6798 33.3629 74.5389 40.9554 78.9803 39.5341C83.4217 38.1128 82.2202 29.7235 82.2202 29.7235C84.1258 29.2567 86.1533 28.9474 88.1808 28.6381C90.2082 28.3288 92.2001 28.299 94.3495 28.1473C94.3495 28.1473 95.2715 36.5009 99.9359 36.6702C102.329 36.8335 103.854 34.8981 104.978 32.7695C105.944 30.7628 106.351 28.6847 106.351 28.6847C108.307 28.9343 110.385 29.3415 112.463 29.7487C114.541 30.1559 116.462 30.6849 118.382 31.214C118.382 31.214 116.474 39.4905 120.803 41.1789C125.253 43.0248 129.447 35.75 129.447 35.75C131.175 36.6804 133.024 37.7684 134.751 38.6988C136.6 39.7868 138.17 40.8391 139.704 42.1709C139.704 42.1709 135.108 49.2525 138.542 52.3887C142.098 55.6824 148.593 50.4052 148.593 50.4052C149.97 51.8589 151.189 53.4344 152.53 55.1676C153.749 56.7431 154.968 58.3187 156.151 60.1737C156.151 60.1737 149.254 65.2576 151.707 69.4046C153.88 73.516 161.889 70.8459 161.889 70.8459C162.635 72.7872 163.382 74.7284 164.006 76.5121C164.595 78.5752 165.219 80.3589 165.529 82.3864C165.529 82.3864 157.276 84.7413 158.103 89.3908C158.65 94.0047 167.14 94.2361 167.14 94.2361C167.17 96.228 167.2 98.2198 167.072 100.333C166.945 102.447 166.695 104.403 166.567 106.517C166.567 106.517 164.454 106.389 162.269 106.821C160.084 107.252 157.827 108.242 157.227 110.721C156.219 115.279 164.074 118.269 164.074 118.269C163.545 120.189 162.736 122.074 162.049 124.117C161.241 126.001 160.432 127.886 159.502 129.614C159.502 129.614 151.841 126.222 149.192 130.286C146.701 134.228 152.959 139.713 153.081 139.87C151.871 141.562 150.54 143.096 149.208 144.63C147.876 146.164 146.422 147.541 144.969 148.917C144.969 148.917 138.904 143.031 135.122 145.957C131.341 148.882 135.515 156.231 135.515 156.231C133.818 157.292 132.12 158.354 130.301 159.258C128.482 160.161 126.662 161.065 124.721 161.811C124.721 161.811 120.862 154.219 116.421 155.64C111.979 157.062 113.181 165.451 113.181 165.451C111.275 165.918 109.248 166.227 107.22 166.536C105.193 166.846 103.201 166.875 101.052 167.027C101.052 167.027 100.13 158.673 95.4651 158.504C93.0719 158.341 91.5469 160.276 90.4233 162.405C89.4572 164.412 89.05 166.49 89.05 166.49C87.0939 166.24 85.0158 165.833 82.9378 165.426C80.8597 165.019 78.9392 164.489 77.0187 163.96C77.0187 163.96 78.9269 155.684 74.5983 153.995C70.1479 152.15 65.9535 159.424 65.9535 159.424C64.2262 158.494 62.377 157.406 60.6498 156.476C58.8006 155.388 57.2309 154.335 55.6968 153.004C55.6968 153.004 60.2925 145.922 56.8587 142.786C53.303 139.492 46.8075 144.769 46.8075 144.769C45.431 143.316 44.212 141.74 42.8712 140.007C41.6522 138.431 40.4333 136.856 39.25 135.001C39.25 135.001 46.1468 129.917 43.694 125.77C41.5206 121.658 33.5118 124.328 33.5118 124.328C32.7655 122.387 32.0192 120.446 31.3948 118.662C30.8061 116.599 30.1817 114.815 29.8724 112.788C29.8724 112.788 38.125 110.433 37.2983 105.784C36.7511 101.17 28.2605 100.938 28.2605 100.938C28.2307 98.9464 28.2009 96.9546 28.3286 94.8409C28.4563 92.7272 28.5484 90.8929 28.8337 88.6573C28.8337 88.6573 30.9474 88.7851 33.1324 88.3539C35.3174 87.9227 37.5738 86.9326 38.1742 84.4532C39.1817 79.8958 31.3273 76.9055 31.3273 76.9055C31.8564 74.985 32.6649 73.1001 33.3515 71.0577C34.16 69.1729 34.9685 67.2881 35.899 65.5608C35.899 65.5608 43.5602 68.9524 46.2088 64.8884C48.6999 60.9462 42.4417 55.4616 42.3198 55.3041C43.5297 53.6124 44.8614 52.0784 46.1932 50.5443C47.525 49.0102 48.9786 47.6337 50.4323 46.2572C50.4323 46.2572 56.4972 52.1432 60.2786 49.2177C63.9023 46.4141 59.8856 38.9435 59.8856 38.9435ZM118.255 46.6759C118.255 46.6759 118.255 46.6759 118.535 46.7115C118.535 46.7115 118.377 46.8334 118.255 46.6759ZM138.814 75.8534C137.545 73.5614 136.153 71.1119 134.447 68.9061C132.74 66.7003 130.998 64.774 128.819 62.9339C126.152 60.4636 123.012 58.359 119.837 56.5338L114.493 69.4839C117.79 71.4666 120.858 74.1301 123.418 77.4388C125.977 80.7474 127.663 84.2286 128.876 88.0754L142.754 86.1542C141.784 82.6225 140.536 79.0551 138.814 75.8534ZM84.7199 76.9027C84.0897 77.3903 83.3376 77.7203 82.7073 78.2079C82.0771 78.6955 81.4469 79.1831 80.9386 79.8282C75.5966 84.9686 72.9927 92.0203 73.3766 99.0273C73.4628 99.4643 73.4272 99.7438 73.5134 100.181C73.5997 100.618 73.564 100.897 73.6502 101.334C74.132 104.236 75.1726 107.209 76.8078 109.973C76.9297 110.131 76.9297 110.131 77.0516 110.288C77.2954 110.603 77.6611 111.076 77.9049 111.391C78.1487 111.706 78.2706 111.864 78.5144 112.179C86.6814 122.735 102.051 124.697 112.607 116.53C123.164 108.363 125.125 92.9927 116.958 82.4365C116.836 82.2789 116.714 82.1214 116.592 81.9638C115.739 80.8609 114.728 79.8799 113.717 78.8989C113.717 78.8989 113.717 78.899 113.595 78.7414C111.818 77.0945 109.689 75.9709 107.682 75.0048C107.281 74.8116 107.001 74.776 106.6 74.5827C106.199 74.3895 105.919 74.3539 105.518 74.1606C98.5167 72.2732 91.037 73.0228 84.7199 76.9027ZM136.842 122.462C139.842 117.875 141.759 112.865 142.874 107.47C143.617 103.872 143.958 100.082 143.863 96.3778L129.986 98.299C129.826 106.231 126.713 113.928 121.107 120.028L129.762 131.215C132.669 128.462 135.017 125.637 136.842 122.462ZM84.7441 142.368C88.3057 143.391 92.0604 144.012 95.7289 144.196C101.232 144.472 106.598 143.595 111.756 142.123C115.165 140.996 118.646 139.31 121.726 137.431L113.072 126.245C105.881 130.297 97.5268 131.219 89.8092 129.382L84.7441 142.368ZM56.1856 119.128C57.4551 121.42 58.8466 123.869 60.5531 126.075C62.2596 128.281 64.0018 130.207 66.181 132.047C68.8478 134.518 71.9873 136.622 75.1624 138.447L80.5069 125.497C77.2099 123.515 74.1418 120.851 71.582 117.542C69.0222 114.234 67.3364 110.753 66.1232 106.906L52.246 108.827C53.2153 112.359 54.4641 115.926 56.1856 119.128ZM57.9996 72.641C55.0002 77.2283 52.9254 82.3595 51.9684 87.6335C51.2254 91.2307 50.8837 95.0211 50.9791 98.7252L64.8562 96.8041C65.0164 88.8725 68.1286 81.1756 73.7351 75.0749L65.0805 63.8885C62.4526 66.6772 60.1042 69.5016 57.9996 72.641ZM81.7704 68.8583C88.9615 64.8059 97.3152 63.8839 105.033 65.7207L110.377 52.7707C106.816 51.7482 103.061 51.127 99.3926 50.9429C93.8898 50.6667 88.5239 51.544 83.366 53.0158C79.7987 54.2646 76.475 55.8285 73.3953 57.7075L81.9279 68.7364L81.7704 68.8583Z" fill="#FFBF01"/>
<path d="M59.8803 38.9136C61.5777 37.8522 63.2752 36.7908 65.0945 35.8869C66.9139 34.9831 68.7332 34.0792 70.6745 33.3329C70.6745 33.3329 74.5336 40.9254 78.975 39.5042C83.4164 38.0829 82.2149 29.6936 82.2149 29.6936C84.1205 29.2267 86.148 28.9174 88.1754 28.6082C90.2029 28.2989 92.1948 28.2691 94.3441 28.1173C94.3441 28.1173 95.2661 36.471 99.9305 36.6402C102.324 36.8036 103.849 34.8682 104.972 32.7396C105.938 30.7328 106.346 28.6548 106.346 28.6548C108.302 28.9044 110.38 29.3116 112.458 29.7188C114.536 30.1259 116.456 30.655 118.377 31.1841C118.377 31.1841 116.469 39.4606 120.797 41.149C125.248 42.9949 129.442 35.7201 129.442 35.7201C131.169 36.6505 133.019 37.7385 134.746 38.6689C136.595 39.7569 138.165 40.8092 139.699 42.1409C139.699 42.1409 135.103 49.2225 138.537 52.3587C142.093 55.6525 148.588 50.3753 148.588 50.3753C149.965 51.829 151.184 53.4045 152.524 55.1376L134.406 69.1556C132.699 66.9498 130.957 65.0235 128.778 63.1834C126.111 60.7131 122.971 58.6085 119.796 56.7833L114.452 69.7334C117.749 71.7161 120.817 74.3796 123.377 77.6883L116.759 82.8079C116.637 82.6504 116.516 82.4928 116.394 82.3352C115.54 81.2324 114.53 80.2514 113.519 79.2704C113.519 79.2704 113.519 79.2704 113.397 79.1128C111.619 77.4659 109.49 76.3423 107.484 75.3762C107.082 75.183 106.803 75.1474 106.401 74.9541C106 74.7609 105.721 74.7253 105.319 74.5321C98.6333 72.4009 91.1536 73.1504 84.8365 77.0303C84.2063 77.5179 83.4541 77.8479 82.8239 78.3355C82.1937 78.8231 81.5635 79.3107 81.0551 79.9558C75.7132 85.0962 73.1093 92.1479 73.4932 99.155C73.5794 99.592 73.5438 99.8714 73.63 100.308C73.7162 100.745 73.6805 101.025 73.7668 101.462C74.2485 104.363 75.2892 107.336 76.9244 110.101C77.0463 110.258 77.0463 110.258 77.1682 110.416C77.412 110.731 77.7777 111.204 78.0215 111.519C78.2653 111.834 78.3872 111.992 78.631 112.307L72.0136 117.426C69.4538 114.118 67.768 110.636 66.5549 106.79L52.6777 108.711C53.647 112.243 54.8958 115.81 56.6173 119.012C57.8868 121.304 59.2782 123.753 60.9847 125.959L42.8659 139.977C41.6469 138.401 40.428 136.826 39.2447 134.971C39.2447 134.971 46.1415 129.887 43.6886 125.74C41.5153 121.628 33.5065 124.299 33.5065 124.299C32.7602 122.357 32.0139 120.416 31.3895 118.632C30.8008 116.569 30.1764 114.786 29.8671 112.758C29.8671 112.758 38.1197 110.403 37.293 105.754C36.7457 101.14 28.2552 100.908 28.2552 100.908C28.2254 98.9165 28.1955 96.9247 28.3233 94.811C28.451 92.6973 28.5431 90.863 28.8283 88.6274C28.8283 88.6274 30.942 88.7551 33.1271 88.324C35.3121 87.8928 37.5685 86.9027 38.1688 84.4233C39.1764 79.8658 31.322 76.8755 31.322 76.8755C31.851 74.955 32.6596 73.0702 33.3462 71.0278C34.1547 69.143 34.9632 67.2581 35.8936 65.5309C35.8936 65.5309 43.5549 68.9225 46.2035 64.8584C48.6945 60.9163 42.4364 55.4317 42.3145 55.2741C43.5243 53.5825 44.8561 52.0485 46.1879 50.5144C47.5196 48.9803 48.9733 47.6038 50.427 46.2273C50.427 46.2273 56.4919 52.1133 60.2732 49.1878C63.897 46.3842 59.8803 38.9136 59.8803 38.9136ZM57.9943 72.6111C54.9949 77.1984 52.9201 82.3296 51.9631 87.6035C51.2201 91.2007 50.8784 94.9911 50.9737 98.6953L64.8509 96.7742C65.011 88.8426 68.1232 81.1456 73.7297 75.045L65.0752 63.8586C62.4473 66.6473 60.0989 69.4716 57.9943 72.6111ZM81.7651 68.8283C88.9562 64.776 97.3099 63.854 105.028 65.6908L110.372 52.7407C106.811 51.7183 103.056 51.0971 99.3873 50.913C93.8845 50.6368 88.5185 51.5141 83.3607 52.9859C79.7933 54.2347 76.4697 55.7986 73.3899 57.6776L81.9226 68.7065L81.7651 68.8283Z" fill="#FFD862"/>
</svg>
