<svg width="116" height="116" viewBox="0 0 116 116" fill="none" xmlns="http://www.w3.org/2000/svg">
<path d="M25.8698 69.0608C32.2182 86.8055 51.7482 96.0434 69.493 89.695C87.2377 83.3466 96.4756 63.8166 90.1272 46.0719C83.7789 28.3272 64.2488 19.0893 46.5041 25.4377C28.7594 31.786 19.5214 51.3161 25.8698 69.0608ZM85.0189 47.8995C90.3573 62.8212 82.5871 79.2483 67.6654 84.5867C52.7437 89.9251 36.3166 82.1549 30.9782 67.2332C25.6397 52.3115 33.41 35.8844 48.3317 30.546C63.2534 25.2075 79.6805 32.9778 85.0189 47.8995Z" fill="#15B9D7"/>
<path d="M36.1756 17.76C34.3898 18.7021 32.7865 19.7306 31.0968 20.9417C30.3864 21.4991 30.2236 22.3155 30.6848 22.7571C31.6653 24.2259 32.6457 25.6948 33.6261 27.1637C32.4261 28.0479 31.2742 29.0666 30.3048 30.1716C29.3354 31.2765 28.2315 32.4296 27.2621 33.5346C25.8402 32.527 24.2838 31.5674 22.7274 30.6079C22.1318 30.2145 21.2771 30.3686 20.9318 31.0987C19.8378 32.7031 18.7919 34.4421 17.8804 36.1329C17.5351 36.863 17.6892 37.7176 18.2368 37.9767C19.7932 38.9362 21.3015 39.7613 22.8578 40.7209C22.1191 42.0466 21.5628 43.4587 21.1891 44.9571C20.6328 46.3692 20.2591 47.8677 20.0198 49.318C18.2525 49.0405 16.4852 48.7629 14.766 48.6198C14.1321 48.5433 13.4217 49.1007 13.2589 49.9171C12.895 51.867 12.7136 53.9031 12.6186 55.7568C12.5902 56.5251 13.1476 57.2355 13.7815 57.312C15.5007 57.4551 17.3544 57.5501 19.0736 57.6932C19.0168 59.2299 19.2289 60.6704 19.3065 62.1589C19.5186 63.5994 19.7788 65.1744 20.1253 66.5667C18.3777 67.192 16.7164 67.6347 14.9688 68.2599C14.2967 68.5003 13.9514 69.2304 14.2399 70.037C14.7788 71.9671 15.4521 73.8492 16.2118 75.5486C16.5003 76.3552 17.3649 76.6525 17.9026 76.4601C19.6502 75.8349 21.2152 75.1233 22.9628 74.4981C23.5782 75.7943 24.3761 77.1768 25.1259 78.425C25.8757 79.6731 26.7599 80.8731 27.7786 82.025C26.5403 83.2262 25.1676 84.4755 23.9294 85.6766C23.4878 86.1379 23.4594 86.9062 24.0169 87.6166C25.3142 89.1237 26.6979 90.4483 28.2642 91.8592C28.9079 92.3871 29.8107 92.3674 30.2522 91.9062C31.4424 90.5706 32.6806 89.3694 33.8708 88.0338C35.1102 88.9551 36.3497 89.8764 37.541 90.6633C38.8667 91.402 40.1925 92.1408 41.5183 92.8796C40.9238 94.6086 40.2812 96.2032 39.6867 97.9323C39.4276 98.4799 39.7162 99.2865 40.5807 99.5837C42.3579 100.313 44.2695 100.993 46.133 101.54C46.9494 101.703 47.7559 101.414 47.8324 100.78C48.4269 99.0512 48.887 97.3702 49.4815 95.6412C50.9799 96.0149 52.4303 96.2542 53.9669 96.311C55.5517 96.5022 56.9539 96.6071 58.4425 96.5294C58.6163 98.2869 58.7902 100.044 58.964 101.802C59.022 102.388 59.7138 103.05 60.4341 102.944C62.374 102.856 64.4003 102.586 66.3785 102.182C67.2332 102.028 67.7611 101.384 67.5206 100.712C67.3468 98.9544 66.9904 97.1106 66.6822 95.4012C68.0745 95.0547 69.6014 94.6601 71.0801 94.1311C72.5588 93.6021 73.855 92.9867 75.2857 92.3232C76.1316 93.8402 77.1601 95.4435 78.0061 96.9605C78.381 97.5845 79.1975 97.7473 79.8215 97.3724C81.6073 96.4303 83.2106 95.4018 84.9003 94.1907C85.6107 93.6333 85.7735 92.8169 85.3123 92.3753C84.3319 90.9065 83.3514 89.4376 82.371 87.9687C83.571 87.0845 84.723 86.0658 85.6924 84.9609C86.6618 83.8559 87.7656 82.7028 88.735 81.5978C90.1569 82.6054 91.7133 83.565 93.2697 84.5245C93.8654 84.9179 94.72 84.7638 95.0654 84.0337C96.1593 82.4293 97.2052 80.6903 98.1167 78.9995C98.462 78.2694 98.3079 77.4148 97.7603 77.1557C96.2039 76.1962 94.6957 75.3711 93.1393 74.4115C93.8781 73.0858 94.4343 71.6737 94.8081 70.1753C95.3643 68.7632 95.738 67.2647 95.9773 65.8144C97.7446 66.0919 99.5119 66.3695 101.231 66.5126C101.865 66.5891 102.575 66.0317 102.738 65.2153C103.102 63.2654 103.283 61.2293 103.378 59.3757C103.407 58.6073 102.849 57.8969 102.216 57.8205C100.496 57.6773 98.6427 57.5823 96.9235 57.4392C96.9803 55.9025 96.7682 54.462 96.6906 52.9735C96.4785 51.533 96.2183 49.9581 95.8718 48.5657C97.6194 47.9404 99.2807 47.4977 101.028 46.8725C101.7 46.6321 102.046 45.902 101.757 45.0954C101.218 43.1653 100.545 41.2832 99.7853 39.5838C99.4968 38.7772 98.6323 38.4799 98.0945 38.6723C96.347 39.2975 94.7819 40.0091 93.0343 40.6343C92.4189 39.3381 91.621 37.9556 90.8712 36.7075C90.1214 35.4593 89.2372 34.2593 88.2185 33.1074C89.4568 31.9062 90.8295 30.6569 92.0677 29.4558C92.5093 28.9945 92.5377 28.2262 91.9802 27.5158C90.6829 26.0087 89.2992 24.6841 87.781 23.4076C87.1373 22.8797 86.2345 22.8994 85.793 23.3607C84.6028 24.6963 83.3646 25.8975 82.1744 27.2331C80.935 26.3118 79.6956 25.3905 78.5042 24.6036C77.1785 23.8648 75.8527 23.126 74.527 22.3873C75.1695 20.7926 75.764 19.0636 76.3585 17.3345C76.6175 16.7869 76.329 15.9804 75.4645 15.6831C73.6873 14.9542 71.7757 14.2733 69.9123 13.7269C69.0958 13.5641 68.2893 13.8527 68.2128 14.4866C67.6183 16.2156 67.1582 17.8966 66.5637 19.6257C65.0653 19.2519 63.6149 19.0126 62.0783 18.9558C60.4935 18.7646 59.0913 18.6597 57.6027 18.7374C57.4289 16.9799 57.255 15.2225 57.0812 13.4651C57.1577 12.8312 56.3314 12.217 55.6111 12.323C53.6712 12.4105 51.6449 12.6806 49.6667 13.085C48.812 13.2391 48.2841 13.8829 48.5246 14.555C48.6984 16.3125 49.0548 18.1563 49.3631 19.8656C47.9707 20.2121 46.4438 20.6067 44.9651 21.1357C43.4864 21.6648 42.1902 22.2801 40.7596 22.9436C39.9136 21.4266 38.885 19.8233 38.0391 18.3063C37.7505 17.4998 36.9341 17.337 36.1756 17.76ZM26.378 67.5141C25.791 65.4496 25.2521 63.5194 25.1165 61.4451C24.5568 56.4897 25.0342 51.4665 26.6932 46.7789C26.9904 45.9144 27.3358 45.1843 27.6811 44.4542L30.419 45.7492C30.0736 46.4793 29.8627 47.1613 29.6518 47.8433C28.1655 52.1659 27.6782 56.7377 28.2281 61.2417C28.4501 63.1335 28.8064 64.9773 29.4317 66.7249L26.378 67.5141ZM64.4627 41.303C61.091 39.9315 57.2012 39.6551 53.341 40.7329L49.6377 30.3818C53.3154 29.2177 57.1473 28.9083 61.037 29.1847C63.8896 29.5289 66.5695 30.2381 69.0768 31.3123L64.4627 41.303ZM71.2671 32.3484C71.8146 32.6074 72.4103 33.0008 72.9579 33.2598C76.6182 35.4379 79.7124 38.5767 81.9137 42.1866C82.8941 43.6555 83.6057 45.2206 84.3172 46.7857L73.9661 50.4889C72.3987 46.9555 69.7177 44.1237 66.4705 42.2527L71.2671 32.3484ZM51.0557 41.5505C47.5222 43.1179 44.5561 45.8471 42.8195 49.0462L32.9633 44.384C34.2201 41.9631 35.9763 39.6668 37.8288 37.6394C40.478 34.8719 43.819 32.7668 47.4005 31.3339L51.0557 41.5505ZM30.8142 65.927C30.3715 64.2658 29.9288 62.6045 29.755 60.8471C29.3012 56.612 29.7503 52.3571 31.0158 48.2651C31.2267 47.5831 31.4857 47.0355 31.6966 46.3535L41.5529 51.0157C40.2295 54.5219 39.9531 58.4117 40.9828 62.1374L30.7661 65.7926L30.8142 65.927ZM40.506 85.8116C36.25 83.2401 32.6945 79.6597 29.9839 75.4739C28.9073 73.7361 27.917 71.8159 27.1093 69.9819L29.9323 68.972C30.5575 70.7195 31.4516 72.3709 32.4801 73.9742C34.912 77.8049 38.1888 81.0301 42.0797 83.4289C42.6754 83.8224 43.4055 84.1677 44.0011 84.5612L42.7061 87.299C42.0142 86.6367 41.2842 86.2914 40.506 85.8116ZM65.0759 73.5338C68.6093 71.9664 71.441 69.2853 73.312 66.0382L83.1683 70.7003C81.9115 73.1212 80.2033 75.5519 78.1683 77.4931C75.5191 80.2605 72.1781 82.3656 68.5966 83.7985L64.9415 73.5819L65.0759 73.5338ZM66.4938 84.7025C62.8161 85.8666 58.8498 86.2241 55.0945 85.8996C52.29 85.6899 49.562 84.8462 47.0548 83.772L51.7169 73.9157C55.2231 75.2391 59.1129 75.5155 62.8387 74.4858L66.4938 84.7025ZM44.8645 82.7359C44.3169 82.4769 43.7213 82.0835 43.1256 81.69C39.4653 79.5119 36.371 76.3731 34.1697 72.7632C33.1893 71.2943 32.4778 69.7293 31.7662 68.1642L42.1173 64.461C43.7328 68.1288 46.4139 70.9606 49.613 72.6971L44.8645 82.7359ZM54.5209 90.6539C51.2169 90.3196 48.0375 89.4858 44.9827 88.1525L46.2778 85.4147C48.9675 86.5753 51.9644 87.3228 54.9514 87.6188C59.0718 88.116 63.3069 87.6623 67.2535 86.402L68.2634 89.225C63.7791 90.6776 59.0926 91.1412 54.5209 90.6539ZM87.597 72.9068C86.0812 75.8752 84.0178 78.5847 81.8101 80.8909C78.585 84.1676 74.8024 86.7339 70.5487 88.4074L69.5388 85.5844C73.3891 84.0552 76.8165 81.7676 79.6865 78.7696C81.8078 76.6459 83.5159 74.2152 84.9454 71.4292L87.597 72.9068ZM89.7535 47.5702C90.3405 49.6347 90.8794 51.5649 91.015 53.6393C91.5747 58.5946 91.0973 63.6178 89.4384 68.3054C89.093 69.0355 88.9302 69.8519 88.5849 70.582L85.847 69.287C86.0579 68.605 86.4033 67.8749 86.6623 67.3274C88.1485 63.0047 88.6358 58.433 88.0859 53.929C87.864 52.0371 87.5076 50.1933 86.8824 48.4457L89.7535 47.5702ZM85.1348 49.0709C85.712 50.6841 86.0202 52.3934 86.1941 54.1509C86.6478 58.386 86.1987 62.6408 84.9332 66.7328C84.7223 67.4148 84.4633 67.9624 84.2043 68.51L74.348 63.8479C75.6715 60.3417 75.9959 56.5863 74.9182 52.7261L85.1348 49.0709ZM62.0384 68.8583C55.8547 71.0706 48.9188 67.7899 46.7065 61.6061C44.4941 55.4223 47.7749 48.4864 53.9587 46.2741C60.2769 44.0137 67.0784 47.3425 69.2907 53.5263C71.6374 59.662 68.3566 66.5979 62.0384 68.8583ZM75.5775 29.1383C79.8335 31.7098 83.3889 35.2902 86.0996 39.476C87.1762 41.2138 88.1664 43.134 88.9742 44.9679L86.1512 45.9779C85.5259 44.2303 84.6319 42.5789 83.6034 40.9756C81.1714 37.145 77.8947 33.9198 74.0037 31.5209C73.4081 31.1275 72.8124 30.7341 72.1304 30.5231L73.4255 27.7853C74.1173 28.4476 74.8474 28.7929 75.5775 29.1383ZM61.6107 24.4304C64.9146 24.7647 68.1421 25.7329 71.1488 26.9318L69.8538 29.6696C67.164 28.509 64.1672 27.7616 61.1321 27.331C57.0117 26.8339 52.9591 27.374 48.9644 28.4998L47.9545 25.6768C52.3524 24.4067 57.0389 23.9431 61.6107 24.4304ZM46.7272 29.4518C42.8768 30.981 39.315 33.3167 36.4451 36.3147C34.3238 38.4384 32.6156 40.8692 31.138 43.5207L28.4002 42.2256C29.916 39.2572 31.8449 36.5958 34.187 34.2415C37.4122 30.9648 41.3292 28.3504 45.5828 26.6769L46.7272 29.4518Z" fill="#0BDBD8"/>
<path d="M36.1756 17.7605C34.3898 18.7027 32.7865 19.7312 31.0968 20.9422C30.3864 21.4996 30.2236 22.3161 30.6849 22.7576C31.6653 24.2265 32.6457 25.6954 33.6261 27.1642C32.4261 28.0485 31.2742 29.0671 30.3048 30.1721C29.3354 31.2771 28.2315 32.4302 27.2621 33.5352C25.8402 32.5275 24.2838 31.568 22.7274 30.6084C22.1318 30.215 21.2771 30.3691 20.9318 31.0992C19.8378 32.7037 18.7919 34.4426 17.8804 36.1334C17.5351 36.8635 17.6892 37.7182 18.2368 37.9772C19.7932 38.9367 21.3015 39.7618 22.8579 40.7214C22.1191 42.0472 21.5628 43.4592 21.1891 44.9577C20.6328 46.3698 20.2591 47.8682 20.0198 49.3185C18.2525 49.041 16.4852 48.7634 14.766 48.6203C14.1321 48.5438 13.4217 49.1013 13.2589 49.9177C12.895 51.8675 12.7137 53.9037 12.6186 55.7573C12.5902 56.5256 13.1477 57.236 13.7816 57.3125C15.5008 57.4556 17.3544 57.5506 19.0736 57.6937C19.0168 59.2304 19.2289 60.6709 19.3065 62.1595C19.5186 63.6 19.7788 65.1749 20.1253 66.5673C18.3777 67.1925 16.7164 67.6352 14.9689 68.2604C14.2967 68.5009 13.9514 69.231 14.2399 70.0376C14.5766 70.9786 14.7788 71.9677 15.1155 72.9087L46.4376 61.7028C44.2253 55.5191 47.5061 48.5832 53.6898 46.3708C60.008 44.1104 66.8095 47.4393 69.0218 53.6231L100.344 42.4172C100.007 41.4762 99.6706 40.5352 99.1995 39.6422C98.911 38.8357 98.0464 38.5384 97.5087 38.7308C95.7611 39.356 94.1961 40.0676 92.4485 40.6928C91.8331 39.3966 91.0352 38.014 90.2854 36.7659C89.5356 35.5178 88.6514 34.3178 87.6328 33.1659C88.871 31.9647 90.2437 30.7154 91.4819 29.5142C91.9235 29.053 91.9519 28.2847 91.3944 27.5743C90.0971 26.0672 88.7134 24.7426 87.1952 23.4661C86.5515 22.9382 85.6487 22.9579 85.2072 23.4191C84.017 24.7548 82.7788 25.9559 81.5886 27.2916C80.3492 26.3703 79.1098 25.4489 77.9184 24.6621C76.5927 23.9233 75.2669 23.1845 73.9412 22.4457C74.5837 20.8511 75.1782 19.1221 75.7727 17.393C76.0318 16.8455 75.7432 16.0389 74.8786 15.7416C73.1015 15.0127 71.1899 14.3318 69.3265 13.7854C68.51 13.6226 67.7034 13.9112 67.627 14.5451C67.0325 16.2741 66.5724 17.9551 65.9779 19.6841C64.4795 19.3104 63.0292 19.0711 61.4925 19.0143C59.9077 18.8231 58.5054 18.7183 57.0169 18.7959C56.843 17.0385 56.6692 15.281 56.4954 13.5236C56.5719 12.8897 55.7456 12.2755 55.0253 12.3815C53.0854 12.469 51.0591 12.739 49.0809 13.1435C48.2262 13.2976 47.6983 13.9414 47.9388 14.6135C48.1126 16.3709 48.469 18.2147 48.7773 19.9241C47.3849 20.2706 45.858 20.6652 44.3793 21.1942C42.9006 21.7232 41.6044 22.3386 40.1737 23.0021C39.3278 21.4851 38.2993 19.8818 37.4533 18.3648C37.7505 17.5003 36.9341 17.3375 36.1756 17.7605ZM26.378 67.5147C25.7911 65.4501 25.2522 63.52 25.1166 61.4456C24.5568 56.4902 25.0343 51.4671 26.6932 46.7794C26.9904 45.9149 27.3358 45.1848 27.6811 44.4547L30.419 45.7498C30.0736 46.4799 29.8627 47.1618 29.6518 47.8438C28.1655 52.1665 27.6783 56.7382 28.2282 61.2422C28.4501 63.1341 28.8064 64.9778 29.4317 66.7254L26.378 67.5147ZM51.0557 41.551C47.5223 43.1184 44.5561 45.8476 42.8196 49.0467L32.9633 44.3846C34.2201 41.9637 35.9763 39.6674 37.8288 37.6399C40.478 34.8725 43.819 32.7674 47.4006 31.3344L51.0557 41.551ZM49.6378 30.3824C53.3155 29.2183 57.1473 28.9088 61.0371 29.1852C63.8896 29.5294 66.5695 30.2386 69.0768 31.3129L64.4146 41.1692C61.0429 39.7977 57.1531 39.5213 53.2929 40.5991L49.6378 30.3824ZM41.7354 51.1026C40.412 54.6088 40.1356 58.4985 41.1653 62.2243L30.8142 65.9276C30.3715 64.2663 29.9288 62.6051 29.755 60.8476C29.3013 56.6125 29.7503 52.3577 31.0158 48.2657C31.2267 47.5837 31.4857 47.0361 31.6966 46.3541L41.7354 51.1026ZM73.9662 50.4894C72.3988 46.956 69.7177 44.1243 66.4705 42.2533L71.1326 32.397C71.6802 32.656 72.2759 33.0495 72.8234 33.3085C76.4838 35.4866 79.578 38.6254 81.7793 42.2353C82.7597 43.7042 83.4713 45.2692 84.1828 46.8343L73.9662 50.4894ZM75.5775 29.1388C79.8335 31.7104 83.389 35.2907 86.0996 39.4766C87.1762 41.2143 88.1665 43.1346 88.9742 44.9685L86.1512 45.9785C85.526 44.2309 84.6319 42.5795 83.6034 40.9762C81.1714 37.1455 77.8947 33.9204 74.0038 31.5215C73.4081 31.1281 72.8124 30.7346 72.1304 30.5237L73.4255 27.7858C74.1173 28.4481 74.8474 28.7935 75.5775 29.1388ZM61.6107 24.4309C64.9147 24.7652 68.1421 25.7335 71.1489 26.9323L69.8538 29.6702C67.1641 28.5096 64.1672 27.7621 61.1321 27.3316C57.0117 26.8344 52.9591 27.3745 48.9644 28.5004L47.9545 25.6773C52.3524 24.4072 57.0389 23.9436 61.6107 24.4309ZM46.7272 29.4524C42.8769 30.9815 39.3151 33.3173 36.4451 36.3153C34.3238 38.4389 32.6156 40.8697 31.138 43.5212L28.4002 42.2262C29.916 39.2577 31.8449 36.5963 34.187 34.2421C37.4122 30.9653 41.3292 28.3509 45.5828 26.6775L46.7272 29.4524Z" fill="#0EEEE5"/>
<path d="M46.7047 61.6073C48.9652 67.9255 55.853 71.0718 62.0367 68.8595C68.3549 66.5991 71.5013 59.7113 69.2889 53.5275C67.0285 47.2093 60.1407 44.063 53.957 46.2753C47.7732 48.4876 44.4443 55.2891 46.7047 61.6073ZM64.315 55.307C65.5174 58.6678 63.7043 62.5008 60.3436 63.7031C56.9828 64.9055 53.1499 63.0924 51.9475 59.7317C50.7452 56.3709 52.5582 52.5379 55.9189 51.3356C59.2797 50.1332 63.0646 51.8118 64.315 55.307Z" fill="#15B9D7"/>
</svg>
