<svg width="116" height="116" viewBox="0 0 116 116" fill="none" xmlns="http://www.w3.org/2000/svg">
<path d="M25.8649 69.0608C32.2133 86.8055 51.7434 96.0434 69.4881 89.695C87.2328 83.3466 96.4707 63.8166 90.1224 46.0719C83.774 28.3272 64.2439 19.0893 46.4992 25.4377C28.7545 31.786 19.5166 51.3161 25.8649 69.0608ZM85.014 47.8995C90.3524 62.8212 82.5822 79.2483 67.6605 84.5867C52.7388 89.9251 36.3117 82.1549 30.9733 67.2332C25.6349 52.3115 33.4051 35.8844 48.3268 30.546C63.2485 25.2075 79.6756 32.9778 85.014 47.8995Z" fill="#EE9D00"/>
<path d="M36.1717 17.76C34.3859 18.7021 32.7826 19.7306 31.0929 20.9417C30.3825 21.4991 30.2197 22.3155 30.6809 22.7571C31.6614 24.2259 32.6418 25.6948 33.6222 27.1637C32.4222 28.0479 31.2702 29.0666 30.3008 30.1716C29.3314 31.2765 28.2276 32.4296 27.2582 33.5346C25.8363 32.527 24.2799 31.5674 22.7235 30.6079C22.1278 30.2145 21.2732 30.3686 20.9278 31.0987C19.8339 32.7031 18.788 34.4421 17.8765 36.1329C17.5312 36.863 17.6853 37.7176 18.2329 37.9767C19.7893 38.9362 21.2976 39.7613 22.8539 40.7209C22.1152 42.0466 21.5589 43.4587 21.1852 44.9571C20.6289 46.3692 20.2552 47.8677 20.0159 49.318C18.2486 49.0405 16.4813 48.7629 14.7621 48.6198C14.1282 48.5433 13.4178 49.1007 13.255 49.9171C12.8911 51.867 12.7097 53.9031 12.6147 55.7568C12.5863 56.5251 13.1437 57.2355 13.7776 57.312C15.4968 57.4551 17.3505 57.5501 19.0697 57.6932C19.0129 59.2299 19.225 60.6704 19.3026 62.1589C19.5147 63.5994 19.7749 65.1744 20.1214 66.5667C18.3738 67.192 16.7125 67.6347 14.9649 68.2599C14.2928 68.5003 13.9475 69.2304 14.236 70.037C14.7749 71.9671 15.4482 73.8492 16.2079 75.5486C16.4964 76.3552 17.361 76.6525 17.8987 76.4601C19.6463 75.8349 21.2113 75.1233 22.9589 74.4981C23.5743 75.7943 24.3722 77.1768 25.122 78.425C25.8718 79.6731 26.756 80.8731 27.7747 82.025C26.5364 83.2262 25.1637 84.4755 23.9254 85.6766C23.4839 86.1379 23.4555 86.9062 24.013 87.6166C25.3103 89.1237 26.694 90.4483 28.2603 91.8592C28.904 92.3871 29.8068 92.3674 30.2483 91.9062C31.4385 90.5706 32.6767 89.3694 33.8669 88.0338C35.1063 88.9551 36.3457 89.8764 37.5371 90.6633C38.8628 91.402 40.1886 92.1408 41.5144 92.8796C40.9199 94.6086 40.2772 96.2032 39.6827 97.9323C39.4237 98.4799 39.7123 99.2865 40.5768 99.5837C42.354 100.313 44.2656 100.993 46.129 101.54C46.9455 101.703 47.752 101.414 47.8285 100.78C48.423 99.0512 48.8831 97.3702 49.4776 95.6412C50.976 96.0149 52.4264 96.2542 53.963 96.311C55.5478 96.5022 56.95 96.6071 58.4386 96.5294C58.6124 98.2869 58.7863 100.044 58.9601 101.802C59.0181 102.388 59.7099 103.05 60.4302 102.944C62.3701 102.856 64.3964 102.586 66.3746 102.182C67.2293 102.028 67.7572 101.384 67.5167 100.712C67.3429 98.9544 66.9865 97.1106 66.6783 95.4012C68.0706 95.0547 69.5975 94.6601 71.0762 94.1311C72.5549 93.6021 73.8511 92.9867 75.2817 92.3232C76.1277 93.8402 77.1562 95.4435 78.0022 96.9605C78.3771 97.5845 79.1936 97.7473 79.8176 97.3724C81.6034 96.4303 83.2067 95.4018 84.8964 94.1907C85.6068 93.6333 85.7696 92.8169 85.3084 92.3753C84.328 90.9065 83.3475 89.4376 82.3671 87.9687C83.5671 87.0845 84.7191 86.0658 85.6885 84.9609C86.6579 83.8559 87.7617 82.7028 88.7311 81.5978C90.153 82.6054 91.7094 83.565 93.2658 84.5245C93.8615 84.9179 94.7161 84.7638 95.0615 84.0337C96.1554 82.4293 97.2013 80.6903 98.1128 78.9995C98.4581 78.2694 98.304 77.4148 97.7564 77.1557C96.2 76.1962 94.6917 75.3711 93.1354 74.4115C93.8741 73.0858 94.4304 71.6737 94.8041 70.1753C95.3604 68.7632 95.7341 67.2647 95.9734 65.8144C97.7407 66.0919 99.508 66.3695 101.227 66.5126C101.861 66.5891 102.572 66.0317 102.734 65.2153C103.098 63.2654 103.28 61.2293 103.375 59.3757C103.403 58.6073 102.846 57.8969 102.212 57.8205C100.492 57.6773 98.6388 57.5823 96.9196 57.4392C96.9764 55.9025 96.7643 54.462 96.6867 52.9735C96.4746 51.533 96.2144 49.9581 95.8679 48.5657C97.6155 47.9404 99.2768 47.4977 101.024 46.8725C101.697 46.6321 102.042 45.902 101.753 45.0954C101.214 43.1653 100.541 41.2832 99.7814 39.5838C99.4929 38.7772 98.6284 38.4799 98.0906 38.6723C96.3431 39.2975 94.778 40.0091 93.0304 40.6343C92.415 39.3381 91.6171 37.9556 90.8673 36.7075C90.1175 35.4593 89.2333 34.2593 88.2146 33.1074C89.4529 31.9062 90.8256 30.6569 92.0638 29.4558C92.5054 28.9945 92.5338 28.2262 91.9763 27.5158C90.679 26.0087 89.2953 24.6841 87.7771 23.4076C87.1334 22.8797 86.2306 22.8994 85.7891 23.3607C84.5989 24.6963 83.3607 25.8975 82.1705 27.2331C80.9311 26.3118 79.6917 25.3905 78.5003 24.6036C77.1746 23.8648 75.8488 23.126 74.523 22.3873C75.1656 20.7926 75.7601 19.0636 76.3546 17.3345C76.6136 16.7869 76.3251 15.9804 75.4606 15.6831C73.6834 14.9542 71.7718 14.2733 69.9084 13.7269C69.0919 13.5641 68.2854 13.8527 68.2089 14.4866C67.6144 16.2156 67.1543 17.8966 66.5598 19.6257C65.0614 19.2519 63.611 19.0126 62.0744 18.9558C60.4896 18.7646 59.0874 18.6597 57.5988 18.7374C57.4249 16.9799 57.2511 15.2225 57.0773 13.4651C57.1538 12.8312 56.3275 12.217 55.6072 12.323C53.6673 12.4105 51.641 12.6806 49.6628 13.085C48.8081 13.2391 48.2802 13.8829 48.5207 14.555C48.6945 16.3125 49.0509 18.1563 49.3592 19.8656C47.9668 20.2121 46.4399 20.6067 44.9612 21.1357C43.4825 21.6648 42.1863 22.2801 40.7557 22.9436C39.9097 21.4266 38.8811 19.8233 38.0352 18.3063C37.7466 17.4998 36.9302 17.337 36.1717 17.76ZM26.3741 67.5141C25.7871 65.4496 25.2482 63.5194 25.1126 61.4451C24.5529 56.4897 25.0303 51.4665 26.6893 46.7789C26.9865 45.9144 27.3318 45.1843 27.6772 44.4542L30.415 45.7492C30.0697 46.4793 29.8588 47.1613 29.6479 47.8433C28.1616 52.1659 27.6743 56.7377 28.2242 61.2417C28.4462 63.1335 28.8025 64.9773 29.4277 66.7249L26.3741 67.5141ZM64.4588 41.303C61.087 39.9315 57.1973 39.6551 53.3371 40.7329L49.6338 30.3818C53.3115 29.2177 57.1434 28.9083 61.0331 29.1847C63.8857 29.5289 66.5656 30.2381 69.0728 31.3123L64.4588 41.303ZM71.2631 32.3484C71.8107 32.6074 72.4064 33.0008 72.9539 33.2598C76.6143 35.4379 79.7085 38.5767 81.9098 42.1866C82.8902 43.6555 83.6018 45.2206 84.3133 46.7857L73.9622 50.4889C72.3948 46.9555 69.7138 44.1237 66.4666 42.2527L71.2631 32.3484ZM51.0518 41.5505C47.5183 43.1179 44.5522 45.8471 42.8156 49.0462L32.9594 44.384C34.2161 41.9631 35.9724 39.6668 37.8249 37.6394C40.4741 34.8719 43.8151 32.7668 47.3966 31.3339L51.0518 41.5505ZM30.8103 65.927C30.3676 64.2658 29.9249 62.6045 29.751 60.8471C29.2973 56.612 29.7464 52.3571 31.0119 48.2651C31.2228 47.5831 31.4818 47.0355 31.6927 46.3535L41.549 51.0157C40.2256 54.5219 39.9492 58.4117 40.9789 62.1374L30.7622 65.7926L30.8103 65.927ZM40.5021 85.8116C36.2461 83.2401 32.6906 79.6597 29.98 75.4739C28.9034 73.7361 27.9131 71.8159 27.1054 69.9819L29.9284 68.972C30.5536 70.7195 31.4477 72.3709 32.4762 73.9742C34.9081 77.8049 38.1848 81.0301 42.0758 83.4289C42.6715 83.8224 43.4016 84.1677 43.9972 84.5612L42.7022 87.299C42.0103 86.6367 41.2802 86.2914 40.5021 85.8116ZM65.072 73.5338C68.6054 71.9664 71.4371 69.2853 73.3081 66.0382L83.1644 70.7003C81.9076 73.1212 80.1994 75.5519 78.1644 77.4931C75.5152 80.2605 72.1742 82.3656 68.5927 83.7985L64.9376 73.5819L65.072 73.5338ZM66.4899 84.7025C62.8122 85.8666 58.8459 86.2241 55.0906 85.8996C52.2861 85.6899 49.5581 84.8462 47.0509 83.772L51.713 73.9157C55.2192 75.2391 59.109 75.5155 62.8348 74.4858L66.4899 84.7025ZM44.8606 82.7359C44.313 82.4769 43.7173 82.0835 43.1217 81.69C39.4614 79.5119 36.3671 76.3731 34.1658 72.7632C33.1854 71.2943 32.4739 69.7293 31.7623 68.1642L42.1134 64.461C43.7289 68.1288 46.41 70.9606 49.6091 72.6971L44.8606 82.7359ZM54.517 90.6539C51.213 90.3196 48.0336 89.4858 44.9788 88.1525L46.2738 85.4147C48.9636 86.5753 51.9605 87.3228 54.9475 87.6188C59.0679 88.116 63.303 87.6623 67.2496 86.402L68.2595 89.225C63.7752 90.6776 59.0887 91.1412 54.517 90.6539ZM87.593 72.9068C86.0772 75.8752 84.0139 78.5847 81.8062 80.8909C78.581 84.1676 74.7985 86.7339 70.5448 88.4074L69.5349 85.5844C73.3852 84.0552 76.8126 81.7676 79.6826 78.7696C81.8039 76.6459 83.512 74.2152 84.9415 71.4292L87.593 72.9068ZM89.7496 47.5702C90.3366 49.6347 90.8755 51.5649 91.0111 53.6393C91.5708 58.5946 91.0934 63.6178 89.4345 68.3054C89.0891 69.0355 88.9263 69.8519 88.5809 70.582L85.8431 69.287C86.054 68.605 86.3994 67.8749 86.6584 67.3274C88.1446 63.0047 88.6319 58.433 88.082 53.929C87.8601 52.0371 87.5037 50.1933 86.8785 48.4457L89.7496 47.5702ZM85.1309 49.0709C85.7081 50.6841 86.0163 52.3934 86.1902 54.1509C86.6439 58.386 86.1948 62.6408 84.9293 66.7328C84.7184 67.4148 84.4594 67.9624 84.2004 68.51L74.3441 63.8479C75.6676 60.3417 75.992 56.5863 74.9143 52.7261L85.1309 49.0709ZM62.0345 68.8583C55.8508 71.0706 48.9149 67.7899 46.7025 61.6061C44.4902 55.4223 47.771 48.4864 53.9548 46.2741C60.273 44.0137 67.0744 47.3425 69.2868 53.5263C71.6335 59.662 68.3527 66.5979 62.0345 68.8583ZM75.5736 29.1383C79.8296 31.7098 83.385 35.2902 86.0957 39.476C87.1723 41.2138 88.1625 43.134 88.9703 44.9679L86.1472 45.9779C85.522 44.2303 84.628 42.5789 83.5994 40.9756C81.1675 37.145 77.8908 33.9198 73.9998 31.5209C73.4042 31.1275 72.8085 30.7341 72.1265 30.5231L73.4215 27.7853C74.1134 28.4476 74.8435 28.7929 75.5736 29.1383ZM61.6068 24.4304C64.9107 24.7647 68.1382 25.7329 71.1449 26.9318L69.8499 29.6696C67.1601 28.509 64.1633 27.7616 61.1282 27.331C57.0078 26.8339 52.9552 27.374 48.9605 28.4998L47.9506 25.6768C52.3485 24.4067 57.035 23.9431 61.6068 24.4304ZM46.7233 29.4518C42.8729 30.981 39.3111 33.3167 36.4412 36.3147C34.3199 38.4384 32.6117 40.8692 31.1341 43.5207L28.3963 42.2256C29.9121 39.2572 31.841 36.5958 34.1831 34.2415C37.4083 30.9648 41.3252 28.3504 45.5789 26.6769L46.7233 29.4518Z" fill="#FFDC72"/>
<path d="M36.1715 17.7605C34.3856 18.7027 32.7823 19.7312 31.0927 20.9422C30.3823 21.4996 30.2195 22.3161 30.6807 22.7576C31.6611 24.2265 32.6415 25.6954 33.622 27.1642C32.4219 28.0485 31.27 29.0671 30.3006 30.1721C29.3312 31.2771 28.2274 32.4302 27.258 33.5352C25.836 32.5275 24.2797 31.568 22.7233 30.6084C22.1276 30.215 21.273 30.3691 20.9276 31.0992C19.8336 32.7037 18.7877 34.4426 17.8763 36.1334C17.5309 36.8635 17.6851 37.7182 18.2327 37.9772C19.789 38.9367 21.2973 39.7618 22.8537 40.7214C22.1149 42.0472 21.5587 43.4592 21.1849 44.9577C20.6287 46.3698 20.2549 47.8682 20.0156 49.3185C18.2483 49.041 16.481 48.7634 14.7618 48.6203C14.1279 48.5438 13.4176 49.1013 13.2547 49.9177C12.8909 51.8675 12.7095 53.9037 12.6145 55.7573C12.5861 56.5256 13.1435 57.236 13.7774 57.3125C15.4966 57.4556 17.3502 57.5506 19.0694 57.6937C19.0127 59.2304 19.2247 60.6709 19.3024 62.1595C19.5145 63.6 19.7746 65.1749 20.1211 66.5673C18.3736 67.1925 16.7123 67.6352 14.9647 68.2604C14.2926 68.5009 13.9472 69.231 14.2358 70.0376C14.5724 70.9786 14.7747 71.9677 15.1113 72.9087L46.4335 61.7028C44.2211 55.5191 47.5019 48.5832 53.6857 46.3708C60.0039 44.1104 66.8053 47.4393 69.0177 53.6231L100.34 42.4172C100.003 41.4762 99.6665 40.5352 99.1954 39.6422C98.9068 38.8357 98.0423 38.5384 97.5046 38.7308C95.757 39.356 94.1919 40.0676 92.4443 40.6928C91.829 39.3966 91.0311 38.014 90.2813 36.7659C89.5315 35.5178 88.6473 34.3178 87.6286 33.1659C88.8669 31.9647 90.2395 30.7154 91.4778 29.5142C91.9193 29.053 91.9477 28.2847 91.3903 27.5743C90.0929 26.0672 88.7092 24.7426 87.1911 23.4661C86.5473 22.9382 85.6445 22.9579 85.203 23.4191C84.0129 24.7548 82.7746 25.9559 81.5845 27.2916C80.345 26.3703 79.1056 25.4489 77.9143 24.6621C76.5885 23.9233 75.2628 23.1845 73.937 22.4457C74.5796 20.8511 75.1741 19.1221 75.7686 17.393C76.0276 16.8455 75.739 16.0389 74.8745 15.7416C73.0973 15.0127 71.1858 14.3318 69.3223 13.7854C68.5059 13.6226 67.6993 13.9112 67.6228 14.5451C67.0283 16.2741 66.5682 17.9551 65.9738 19.6841C64.4753 19.3104 63.025 19.0711 61.4883 19.0143C59.9036 18.8231 58.5013 18.7183 57.0127 18.7959C56.8389 17.0385 56.6651 15.281 56.4912 13.5236C56.5677 12.8897 55.7414 12.2755 55.0212 12.3815C53.0812 12.469 51.0549 12.739 49.0767 13.1435C48.222 13.2976 47.6942 13.9414 47.9346 14.6135C48.1085 16.3709 48.4648 18.2147 48.7731 19.9241C47.3807 20.2706 45.8539 20.6652 44.3751 21.1942C42.8964 21.7232 41.6002 22.3386 40.1696 23.0021C39.3236 21.4851 38.2951 19.8818 37.4491 18.3648C37.7464 17.5003 36.9299 17.3375 36.1715 17.7605ZM26.3739 67.5147C25.7869 65.4501 25.248 63.52 25.1124 61.4456C24.5527 56.4902 25.0301 51.4671 26.689 46.7794C26.9863 45.9149 27.3316 45.1848 27.677 44.4547L30.4148 45.7498C30.0695 46.4799 29.8585 47.1618 29.6476 47.8438C28.1614 52.1665 27.6741 56.7382 28.224 61.2422C28.4459 63.1341 28.8023 64.9778 29.4275 66.7254L26.3739 67.5147ZM51.0515 41.551C47.5181 43.1184 44.552 45.8476 42.8154 49.0467L32.9591 44.3846C34.2159 41.9637 35.9722 39.6674 37.8247 37.6399C40.4738 34.8725 43.8149 32.7674 47.3964 31.3344L51.0515 41.551ZM49.6336 30.3824C53.3113 29.2183 57.1431 28.9088 61.0329 29.1852C63.8855 29.5294 66.5654 30.2386 69.0726 31.3129L64.4105 41.1692C61.0387 39.7977 57.149 39.5213 53.2887 40.5991L49.6336 30.3824ZM41.7313 51.1026C40.4079 54.6088 40.1315 58.4985 41.1612 62.2243L30.8101 65.9276C30.3674 64.2663 29.9247 62.6051 29.7508 60.8476C29.2971 56.6125 29.7462 52.3577 31.0116 48.2657C31.2226 47.5837 31.4816 47.0361 31.6925 46.3541L41.7313 51.1026ZM73.962 50.4894C72.3946 46.956 69.7135 44.1243 66.4663 42.2533L71.1285 32.397C71.676 32.656 72.2717 33.0495 72.8193 33.3085C76.4796 35.4866 79.5738 38.6254 81.7751 42.2353C82.7556 43.7042 83.4671 45.2692 84.1787 46.8343L73.962 50.4894ZM75.5734 29.1388C79.8293 31.7104 83.3848 35.2907 86.0954 39.4766C87.172 41.2143 88.1623 43.1346 88.9701 44.9685L86.147 45.9785C85.5218 44.2309 84.6277 42.5795 83.5992 40.9762C81.1673 37.1455 77.8905 33.9204 73.9996 31.5215C73.4039 31.1281 72.8083 30.7346 72.1263 30.5237L73.4213 27.7858C74.1132 28.4481 74.8433 28.7935 75.5734 29.1388ZM61.6065 24.4309C64.9105 24.7652 68.138 25.7335 71.1447 26.9323L69.8497 29.6702C67.1599 28.5096 64.163 27.7621 61.1279 27.3316C57.0075 26.8344 52.9549 27.3745 48.9603 28.5004L47.9503 25.6773C52.3483 24.4072 57.0348 23.9436 61.6065 24.4309ZM46.7231 29.4524C42.8727 30.9815 39.3109 33.3173 36.441 36.3153C34.3196 38.4389 32.6114 40.8697 31.1339 43.5212L28.396 42.2262C29.9118 39.2577 31.8408 36.5963 34.1829 34.2421C37.408 30.9653 41.325 28.3509 45.5787 26.6775L46.7231 29.4524Z" fill="#FFBF01"/>
<path d="M46.7003 61.6073C48.9608 67.9255 55.8486 71.0718 62.0323 68.8595C68.3505 66.5991 71.4969 59.7113 69.2845 53.5275C67.0241 47.2093 60.1363 44.063 53.9526 46.2753C47.7688 48.4876 44.4399 55.2891 46.7003 61.6073ZM64.3106 55.307C65.513 58.6678 63.6999 62.5008 60.3392 63.7031C56.9784 64.9055 53.1455 63.0924 51.9431 59.7317C50.7408 56.3709 52.5538 52.5379 55.9145 51.3356C59.2753 50.1332 63.0602 51.8118 64.3106 55.307Z" fill="#EE9D00"/>
</svg>
