<svg width="113" height="113" viewBox="0 0 113 113" fill="none" xmlns="http://www.w3.org/2000/svg">
<path d="M72.7496 47.5148C67.6535 38.6228 56.2086 35.517 47.3166 40.6132C38.4246 45.7093 35.3189 57.1542 40.415 66.0462C45.5112 74.9382 56.956 78.0439 65.848 72.9478C74.8748 67.7744 77.8457 56.4068 72.7496 47.5148ZM49.1148 61.2392C46.644 56.9279 48.2165 51.5521 52.393 49.1585C56.7043 46.6877 62.0801 48.2602 64.4737 52.4368C66.9446 56.748 65.372 62.1238 61.1955 64.5174C57.0189 66.9111 51.5857 65.5504 49.1148 61.2392Z" fill="#05C4E4"/>
<path d="M78.8911 90.7095L79.5648 90.3234C79.8342 90.169 79.8917 89.957 79.7373 89.6876L77.9614 86.5889C78.3656 86.3572 78.8273 85.9136 79.2314 85.682C79.6356 85.4503 80.0973 85.0067 80.4243 84.6404L82.9313 87.1411C83.0085 87.2758 83.3552 87.2561 83.49 87.1789L84.0864 86.6581C84.3558 86.5037 84.3361 86.157 84.1242 86.0995L81.8866 83.4444C82.2135 83.078 82.5405 82.7116 83.0794 82.4028C83.4064 82.0364 83.7333 81.67 84.0603 81.3037L86.8944 83.438C86.9716 83.5727 87.3183 83.553 87.5877 83.3986L87.9722 82.8203C88.0297 82.6084 88.0872 82.3964 88.01 82.2617L85.3682 79.8382C85.6952 79.4718 86.0221 79.1054 86.2719 78.6043C86.5988 78.238 86.8486 77.7369 87.1756 77.3705L90.2018 79.2157C90.4138 79.2732 90.6257 79.3307 90.818 79.0416L91.2025 78.4632C91.26 78.2513 91.3175 78.0394 91.0283 77.8471L88.0595 75.79C88.3093 75.2889 88.6363 74.9225 88.8861 74.4214C89.1358 73.9203 89.4628 73.554 89.5778 73.1301L92.8538 74.4742C93.0658 74.5317 93.3352 74.3773 93.3927 74.1653L93.7 73.4523C93.7575 73.2403 93.7378 72.8937 93.5259 72.8362L90.4421 71.2029C90.6918 70.7018 90.8068 70.2779 91.0566 69.7768C91.3064 69.2757 91.4214 68.8518 91.6712 68.3507L95.0622 69.271C95.2741 69.3285 95.5436 69.174 95.6011 68.9621L95.7737 68.3263C95.8312 68.1143 95.6767 67.8449 95.4648 67.7874L92.1313 66.6552C92.2463 66.2313 92.4188 65.5955 92.5339 65.1716C92.6489 64.7477 92.6867 64.1891 92.9364 63.688L96.4425 64.1844C96.6545 64.2419 96.9239 64.0874 96.9042 63.7408L96.9995 62.9702C97.0571 62.7583 96.9026 62.4888 96.6907 62.4313L93.2421 61.723C93.2799 61.1644 93.3949 60.7406 93.4327 60.182C93.4706 59.6233 93.5856 59.1995 93.6234 58.6408L97.1673 58.5786C97.3793 58.6361 97.5715 58.3469 97.629 58.135L97.5896 57.4416C97.6471 57.2297 97.358 57.0375 97.146 56.9799L93.5824 56.6955C93.6202 56.1369 93.5233 55.6555 93.5611 55.0969C93.5989 54.5383 93.502 54.0569 93.4051 53.5755L96.8521 53.0318C97.064 53.0894 97.2563 52.8002 97.2366 52.4535L97.1972 51.7602C97.2547 51.5483 96.9655 51.356 96.7536 51.2985L93.2869 51.4955C93.19 51.0141 93.0931 50.5327 92.9961 50.0513C92.8992 49.5699 92.8023 49.0885 92.7054 48.6071L96.0555 47.5821C96.1902 47.5049 96.3825 47.2157 96.3053 47.081L96.0539 46.3301C95.8995 46.0606 95.8223 45.9259 95.5528 46.0804L92.0483 46.836C91.9514 46.3546 91.8545 45.8732 91.5456 45.3343C91.4487 44.8529 91.2171 44.4487 91.0429 43.8326L94.2961 42.3261C94.4308 42.2489 94.623 41.9597 94.5458 41.825L94.2945 41.0742C94.1401 40.8047 93.9282 40.7472 93.7934 40.8244L90.5205 41.9842C90.2889 41.58 90.1148 40.9639 89.8831 40.5597C89.6515 40.1555 89.3426 39.6166 89.111 39.2124L92.1325 37.3018C92.2672 37.2246 92.4595 36.9354 92.3051 36.666C92.1506 36.3965 92.0734 36.2618 91.919 35.9923C91.7646 35.7229 91.5526 35.6654 91.2831 35.8198L88.1072 37.461C87.8756 37.0568 87.5667 36.5179 87.3351 36.1137C87.1034 35.7095 86.6598 35.2478 86.4282 34.8437L89.0834 32.606C89.2181 32.5288 89.1984 32.1822 89.1211 32.0474L88.6003 31.451C88.4459 31.1816 88.0993 31.2013 88.0417 31.4132L85.0975 33.4586C84.7311 33.1316 84.4994 32.7274 84.0558 32.2657C83.6895 31.9388 83.4578 31.5346 83.0142 31.0729L85.4378 28.4311C85.5725 28.3539 85.5528 28.0072 85.4756 27.8725L84.9548 27.276C84.8003 27.0066 84.5309 27.161 84.3961 27.2383L81.8182 29.6106C81.4519 29.2836 81.0855 28.9567 80.7191 28.6297C80.3527 28.3027 79.9864 27.9757 79.62 27.6488L81.5424 24.7572C81.5999 24.5453 81.6574 24.3333 81.3683 24.1411L80.79 23.7566C80.578 23.6991 80.3661 23.6416 80.0966 23.796L77.8851 26.4953C77.5187 26.1684 77.0176 25.9186 76.6512 25.5917C76.1501 25.3419 75.7838 25.0149 75.2827 24.7652L76.8387 21.5467C76.8962 21.3347 76.9537 21.1228 76.6646 20.9305L76.0863 20.5461C75.8743 20.4886 75.5276 20.5082 75.4701 20.7202L73.6249 23.7465C73.1238 23.4967 72.7 23.3817 72.1989 23.1319C71.6978 22.8822 71.2739 22.7671 70.7728 22.5174L71.9049 19.1839C71.9625 18.9719 71.808 18.7025 71.5961 18.645L70.8831 18.3377C70.6711 18.2801 70.4017 18.4346 70.2669 18.5118L68.9228 21.7878C68.4989 21.6728 67.9979 21.4231 67.4393 21.3852C67.0154 21.2702 66.3795 21.0977 65.9557 20.9827L66.6639 17.5341C66.7214 17.3221 66.567 17.0527 66.3551 16.9952L65.7193 16.8226C65.5073 16.7651 65.2378 16.9196 65.1803 17.1315L64.2601 20.5225C63.8363 20.4075 63.2776 20.3697 62.719 20.3319C62.1604 20.2941 61.7365 20.1791 61.1779 20.1413L61.3276 16.6549C61.3851 16.4429 61.0959 16.2507 60.884 16.1932L60.1134 16.0979C59.9015 16.0403 59.632 16.1948 59.5745 16.4067L59.0782 19.9128C58.5196 19.875 57.961 19.8372 57.6143 19.8569C57.0557 19.819 56.5743 19.916 56.0157 19.8782L55.7414 16.2767C55.799 16.0648 55.5098 15.8726 55.2979 15.815L54.6045 15.8545C54.3926 15.797 54.2003 16.0861 54.1428 16.298L54.2051 19.8419C53.7237 19.9389 53.1651 19.901 52.6837 19.998C52.2023 20.0949 51.6437 20.057 51.1623 20.154L50.4067 16.6495C50.3295 16.5147 50.1751 16.2453 49.9056 16.3997L49.2123 16.4391C48.8656 16.4588 48.8081 16.6707 48.8278 17.0174L49.2367 20.5416C48.7553 20.6386 48.2739 20.7355 47.7925 20.8324C47.3111 20.9293 46.8297 21.0262 46.2908 21.3351L45.0538 17.9275C44.9766 17.7928 44.6875 17.6005 44.5527 17.6777L43.8019 17.9291C43.5324 18.0835 43.4749 18.2955 43.5521 18.4302L44.4425 21.8574C43.9611 21.9544 43.5569 22.186 42.9408 22.3601C42.5366 22.5918 41.9205 22.7659 41.5163 22.9975L39.7404 19.8988C39.6632 19.7641 39.374 19.5719 39.1045 19.7263L38.4309 20.1124C38.1614 20.2668 38.1039 20.4787 38.1812 20.6135L39.5529 23.9438C39.1487 24.1755 38.6098 24.4843 38.2056 24.716C37.8014 24.9476 37.2625 25.2565 36.8583 25.4881L34.6782 22.621C34.601 22.4863 34.3119 22.2941 34.1196 22.5832L33.446 22.9693C33.1765 23.1237 33.119 23.3357 33.2734 23.6051L35.0494 26.7038C34.6452 26.9355 34.1835 27.3791 33.7793 27.6107C33.3751 27.8424 32.9134 28.2859 32.5865 28.6523L30.0794 26.1516C30.0022 26.0169 29.6555 26.0366 29.5208 26.1138L28.9244 26.6346C28.6549 26.789 28.6746 27.1357 28.8865 27.1932L31.2014 29.983C30.8744 30.3494 30.5475 30.7158 30.0085 31.0246C29.6816 31.391 29.3546 31.7574 29.0276 32.1238L26.1936 29.9894C26.1164 29.8547 25.7697 29.8744 25.5002 30.0288L25.1158 30.6071C25.0583 30.8191 25.0007 31.031 25.0779 31.1657L27.7198 33.5892C27.3928 33.9556 27.0658 34.322 26.8161 34.8231C26.4891 35.1894 26.2393 35.6906 25.9124 36.0569L22.8861 34.2117C22.6742 34.1542 22.4622 34.0967 22.27 34.3859L21.8855 34.9642C21.828 35.1761 21.7704 35.3881 22.0596 35.5803L25.0284 37.6374C24.7786 38.1385 24.4517 38.5049 24.2019 39.006C23.9522 39.5071 23.6252 39.8735 23.5102 40.2973L20.2341 38.9532C20.0222 38.8957 19.7527 39.0502 19.6952 39.2621L19.3879 39.9752C19.3304 40.1871 19.3501 40.5338 19.5621 40.5913L22.6459 42.2245C22.3961 42.7256 22.2811 43.1495 22.0314 43.6506C21.7816 44.1517 21.6666 44.5756 21.4168 45.0767L18.0257 44.1565C17.8138 44.099 17.5443 44.2534 17.4868 44.4653L17.3143 45.1011C17.2568 45.3131 17.4112 45.5825 17.6232 45.64L20.9567 46.7722C20.8417 47.1961 20.6691 47.8319 20.5541 48.2558C20.4391 48.6797 20.4013 49.2383 20.1515 49.7394L16.6454 49.2431C16.4335 49.1856 16.164 49.34 16.1837 49.6866L16.0884 50.4572C16.0309 50.6691 16.1853 50.9386 16.3973 50.9961L19.8458 51.7044C19.808 52.263 19.693 52.6869 19.6552 53.2455C19.6174 53.8041 19.5024 54.228 19.4646 54.7866L15.9207 54.8488C15.7087 54.7913 15.5164 55.0805 15.4589 55.2925L15.4983 55.9858C15.4408 56.1977 15.73 56.3899 15.9419 56.4475L19.5055 56.7319C19.4677 57.2905 19.5646 57.7719 19.5268 58.3305C19.489 58.8891 19.5859 59.3705 19.6829 59.8519L16.2359 60.3955C16.0239 60.338 15.8317 60.6272 15.8514 60.9739L15.8908 61.6672C15.8333 61.8792 16.1224 62.0714 16.3344 62.1289L19.801 61.9319C19.898 62.4133 19.9949 62.8947 20.0918 63.3761C20.1887 63.8575 20.2856 64.3389 20.3825 64.8203L17.0324 65.8454C16.8977 65.9226 16.7055 66.2117 16.7827 66.3464L17.034 67.0973C17.1885 67.3667 17.2657 67.5015 17.5352 67.347L21.0396 66.5914C21.1365 67.0728 21.2335 67.5542 21.5423 68.0931C21.6393 68.5745 21.8709 68.9787 22.045 69.5948L18.7919 71.1013C18.6571 71.1785 18.4649 71.4677 18.5421 71.6024L18.7935 72.3532C18.9479 72.6227 19.1598 72.6802 19.2945 72.603L22.5674 71.4432C22.7991 71.8474 22.9732 72.4635 23.2048 72.8677C23.4365 73.2719 23.7453 73.8108 23.977 74.2149L20.9555 76.1256C20.8207 76.2028 20.6285 76.492 20.7829 76.7614C20.9373 77.0309 21.0145 77.1656 21.169 77.4351C21.3234 77.7045 21.5354 77.762 21.8048 77.6076L24.9807 75.9664C25.2124 76.3706 25.5212 76.9095 25.7529 77.3137C25.9845 77.7179 26.4281 78.1796 26.6598 78.5837L24.0046 80.8214C23.8699 80.8986 23.8896 81.2452 23.9668 81.38L24.4876 81.9764C24.642 82.2459 24.9887 82.2262 25.0462 82.0142L27.9905 79.9688C28.3569 80.2958 28.5885 80.7 29.0321 81.1617C29.3985 81.4886 29.6301 81.8928 30.0737 82.3545L27.6502 84.9963C27.5155 85.0735 27.5352 85.4202 27.6124 85.5549L28.1332 86.1513C28.2876 86.4208 28.5571 86.2664 28.6918 86.1892L31.2697 83.8168C31.6361 84.1438 32.0025 84.4708 32.3688 84.7977C32.7352 85.1247 33.1016 85.4516 33.468 85.7786L31.5455 88.6702C31.488 88.8821 31.4305 89.0941 31.7197 89.2863L32.298 89.6708C32.5099 89.7283 32.7219 89.7858 32.9913 89.6314L35.2029 86.9321C35.5693 87.259 36.0704 87.5088 36.4367 87.8358C36.9378 88.0855 37.3042 88.4125 37.8053 88.6622L36.2493 91.8807C36.1917 92.0927 36.1342 92.3046 36.4234 92.4969L37.0017 92.8814C37.2136 92.9389 37.5603 92.9192 37.6178 92.7072L39.463 89.6809C39.9641 89.9307 40.388 90.0457 40.8891 90.2955C41.3902 90.5453 41.8141 90.6603 42.3152 90.91L41.183 94.2436C41.1255 94.4555 41.2799 94.725 41.4919 94.7825L42.2049 95.0897C42.4168 95.1473 42.6863 94.9928 42.821 94.9156L44.1651 91.6396C44.6662 91.8893 45.0901 92.0044 45.6487 92.0422C46.0726 92.1572 46.7084 92.3297 47.1323 92.4448L46.424 95.8933C46.3665 96.1053 46.521 96.3747 46.7329 96.4323L47.3687 96.6048C47.5806 96.6623 47.8501 96.5079 47.9076 96.2959L48.8278 92.9049C49.2517 93.0199 49.8103 93.0577 50.369 93.0955C50.9276 93.1333 51.3514 93.2484 51.91 93.2862L51.7604 96.7726C51.7028 96.9845 51.992 97.1767 52.204 97.2343L52.9745 97.3296C53.1864 97.3871 53.4559 97.2327 53.5135 97.0207L54.0098 93.5146C54.5684 93.5524 55.127 93.5903 55.4736 93.5706C56.0323 93.6084 56.5136 93.5115 57.0723 93.5493L57.3465 97.1507C57.289 97.3626 57.5781 97.5549 57.7901 97.6124L58.4834 97.573C58.6953 97.6305 58.8876 97.3413 58.9451 97.1294L58.8828 93.5855C59.3642 93.4886 59.9228 93.5264 60.4042 93.4295C60.8856 93.3325 61.4442 93.3704 61.9256 93.2734L62.6812 96.7779C62.7585 96.9127 62.9129 97.1821 63.1824 97.0277L63.8757 96.9883C64.2223 96.9686 64.2799 96.7567 64.2602 96.41L63.8512 92.8858C64.3326 92.7889 64.814 92.6919 65.2954 92.595C65.7768 92.4981 66.2582 92.4012 66.7971 92.0923L67.9569 95.3652C68.0341 95.4999 68.3233 95.6922 68.458 95.615L69.2089 95.3636C69.4783 95.2092 69.5358 94.9973 69.4586 94.8625L68.5683 91.4352C69.0497 91.3383 69.4538 91.1067 70.07 90.9326C70.4741 90.7009 71.0903 90.5268 71.4944 90.2951L73.2704 93.3939C73.3476 93.5286 73.6368 93.7208 73.9062 93.5664L74.5799 93.1803C74.8493 93.0259 74.9068 92.814 74.8296 92.6792L73.4578 89.3489C73.862 89.1172 74.4009 88.8084 74.8051 88.5767C75.2093 88.3451 75.7482 88.0362 76.1524 87.8046L78.3325 90.6717C78.4097 90.8064 78.6217 90.8639 78.8911 90.7095ZM87.7679 58.4171C87.4654 62.886 86.2576 67.3368 84.2596 71.3456L77.8603 67.6749C79.3013 64.8803 80.164 61.7011 80.4681 58.4842L87.7679 58.4171ZM84.3577 42.4736C86.5394 46.5926 87.6236 50.9827 87.8025 55.3546L80.4255 55.287C80.2482 52.1669 79.5123 49.0091 77.9483 45.9679L84.2805 42.3388L84.3577 42.4736ZM82.9679 40.0485L76.6357 43.6775C74.8795 40.9255 72.5268 38.6942 69.8472 36.8293L73.5951 30.5648C77.1422 33.0064 80.382 36.1611 82.9679 40.0485ZM70.8777 29.2585L67.2645 35.4458C64.4699 34.0048 61.2907 33.1421 58.0163 33.05L58.0264 25.885C62.5528 25.9755 66.9264 27.0486 70.8777 29.2585ZM55.0986 25.7731L55.0885 32.9381C51.9685 33.1154 48.8879 33.9861 45.9042 35.3381L42.4295 29.2754C46.4138 27.1709 50.8039 26.0868 55.0986 25.7731ZM30.7327 40.0955C33.0971 36.4137 36.117 33.2511 39.8697 30.7425L43.3443 36.8052C40.5922 38.5614 38.361 40.9141 36.6308 43.5165L30.7327 40.0955ZM25.8212 55.26C25.989 50.8683 27.274 46.5523 29.1373 42.6207L35.1126 46.1764C33.6716 48.971 32.8089 52.1502 32.6395 55.2899L25.8212 55.26ZM29.2116 70.8569C27.2419 66.7954 26.023 62.4826 25.9213 58.2453L32.8744 58.198C33.0517 61.318 33.9223 64.3986 35.2744 67.3823L29.2116 70.8569ZM40.4153 66.0468C35.3191 57.1548 38.4249 45.7099 47.3169 40.6138C56.2089 35.5177 67.6537 38.6234 72.7499 47.5154C77.846 56.4074 74.7403 67.8522 65.8483 72.9484C56.9563 78.0445 45.5114 74.9388 40.4153 66.0468ZM30.6015 73.282L36.6642 69.8074C38.4204 72.5594 40.7731 74.7907 43.3755 76.5209L39.7623 82.7082C36.0805 80.3438 33.0526 77.2466 30.6015 73.282ZM42.2103 84.1689L45.8235 77.9816C48.6181 79.4226 51.7972 80.2853 54.9369 80.4547L54.9268 87.6197C50.5351 87.4519 46.1616 86.3789 42.2103 84.1689ZM57.9318 87.8662L57.9419 80.7012C61.062 80.5239 64.2198 79.788 67.1263 78.3012L70.7553 84.6334C66.5591 86.6804 62.169 87.7645 57.9318 87.8662ZM69.6089 76.6994C72.361 74.9432 74.5922 72.5905 76.3224 69.9881L82.7216 73.6588C80.3572 77.3406 77.2026 80.5804 73.238 83.0316L69.6089 76.6994Z" fill="#0DECE7"/>
<path d="M66.7661 51.1277C63.6003 45.6039 56.6062 43.706 51.0824 46.8717C45.5586 50.0375 43.6607 57.0316 46.8264 62.5554C49.9922 68.0792 56.9863 69.9772 62.5101 66.8114C68.0339 63.6456 69.9319 56.6515 66.7661 51.1277ZM49.1168 61.2428C46.646 56.9315 48.2185 51.5558 52.3951 49.1621C56.7063 46.6913 62.0821 48.2638 64.4757 52.4403C66.9466 56.7516 65.374 62.1274 61.1975 64.521C57.0209 66.9146 51.5877 65.554 49.1168 61.2428Z" fill="#0DECE7"/>
<path d="M66.7652 51.126L66.688 50.9913L64.3976 52.304L64.4749 52.4387C66.9457 56.75 65.3732 62.1258 61.1966 64.5194C56.8853 66.9903 51.5096 65.4177 49.1159 61.2411L49.0387 61.1064L46.7483 62.419L46.8255 62.5538C49.9913 68.0776 56.9854 69.9756 62.5093 66.8098C68.0331 63.644 69.931 56.6499 66.7652 51.126Z" fill="#07E0F2"/>
<path d="M51.08 46.8677C45.5562 50.0335 43.6582 57.0276 46.824 62.5514L46.9012 62.6861L49.1916 61.3735L49.1144 61.2387C46.6435 56.9275 48.2161 51.5517 52.3926 49.1581C56.7039 46.6872 62.0797 48.2598 64.4733 52.4363L64.5505 52.571L66.8409 51.2584L66.7636 51.1237C63.5979 45.5999 56.6038 43.7019 51.08 46.8677Z" fill="#0DECE7"/>
<path d="M78.8919 90.7108L79.5655 90.3247C79.835 90.1703 79.8925 89.9583 79.7381 89.6889L77.9621 86.5902C78.3663 86.3585 78.828 85.9149 79.2322 85.6833C79.6364 85.4516 80.0981 85.0081 80.425 84.6417L82.9321 87.1424C83.0093 87.2772 83.356 87.2575 83.4907 87.1802L84.0871 86.6594C84.3566 86.505 84.3369 86.1583 84.1249 86.1008L81.8873 83.4457C82.2143 83.0793 82.5412 82.7129 83.0802 82.4041C83.4071 82.0377 83.7341 81.6714 84.0611 81.305L86.8951 83.4393C86.9724 83.5741 87.319 83.5543 87.5885 83.3999L87.9729 82.8216C88.0305 82.6097 88.088 82.3977 88.0108 82.263L85.3689 79.8395C85.6959 79.4731 86.0229 79.1068 86.2726 78.6057C86.5996 78.2393 86.8493 77.7382 87.1763 77.3718L90.2026 79.217C90.4145 79.2745 90.6265 79.332 90.8187 79.0429L91.2032 78.4646C91.2607 78.2526 91.3182 78.0407 91.0291 77.8484L88.0603 75.7913C88.3101 75.2902 88.6371 74.9238 88.8868 74.4227C89.1366 73.9216 89.4635 73.5553 89.5785 73.1314L92.8546 74.4755C93.0665 74.533 93.336 74.3786 93.3935 74.1666L93.7008 73.4536C93.7583 73.2416 93.7385 72.895 93.5266 72.8375L90.4428 71.2042C90.6926 70.7031 90.8076 70.2792 91.0573 69.7781C91.3071 69.277 91.4222 68.8532 91.6719 68.3521L95.0629 69.2723C95.2749 69.3298 95.5444 69.1753 95.6019 68.9634L95.7744 68.3276C95.8319 68.1157 95.6775 67.8462 95.4655 67.7887L92.132 66.6565C92.247 66.2326 92.4196 65.5968 92.5346 65.1729C92.6496 64.7491 92.6874 64.1905 92.9372 63.6894L96.4433 64.1857C96.6552 64.2432 96.9247 64.0888 96.905 63.7421L97.0003 62.9715C97.0578 62.7596 96.9034 62.4902 96.6914 62.4326L93.2429 61.7244C93.2807 61.1658 93.3957 60.7419 93.4335 60.1833C93.4713 59.6247 93.5863 59.2008 93.6241 58.6422L97.1681 58.5799C97.38 58.6374 97.5722 58.3482 97.6297 58.1363L97.5904 57.443C97.6479 57.231 97.3587 57.0388 97.1468 56.9813L93.5832 56.6969C93.621 56.1382 93.5241 55.6569 93.5619 55.0983C93.5997 54.5396 93.5028 54.0583 93.4059 53.5769L96.8528 53.0332C97.0648 53.0907 97.257 52.8015 97.2373 52.4549L97.1979 51.7615C97.2554 51.5496 96.9663 51.3573 96.7543 51.2998L93.2876 51.4968C93.1907 51.0154 93.0938 50.5341 92.9969 50.0527C92.9 49.5713 92.8031 49.0899 92.7062 48.6085L96.0562 47.5834C96.1909 47.5062 96.3832 47.217 96.306 47.0823L96.0547 46.3314C95.9002 46.062 95.823 45.9273 95.5535 46.0817L92.049 46.8373C91.9521 46.3559 91.8552 45.8745 91.5463 45.3356C91.4494 44.8542 91.2178 44.45 91.0437 43.8339L94.2968 42.3274C94.4316 42.2502 94.6238 41.9611 94.5466 41.8263L94.2952 41.0755C94.1408 40.806 93.9289 40.7485 93.7942 40.8257L90.5213 41.9855C90.2896 41.5813 90.1155 40.9652 89.8839 40.561C89.6522 40.1568 89.3434 39.6179 89.1117 39.2138L92.1332 37.3031C92.268 37.2259 92.4602 36.9367 92.3058 36.6673C92.2286 36.5326 92.1514 36.3978 92.1514 36.3978L86.4928 39.6408C86.8789 40.3145 87.2649 40.9881 87.5163 41.739C88.1537 43.1634 88.7911 44.5879 89.2938 46.0896C89.7965 47.5913 90.0872 49.0355 90.4552 50.6144C90.746 52.0586 90.9792 53.7148 90.9232 55.1786C90.9445 56.7773 90.8886 58.2412 90.7752 59.917C90.5845 61.4581 90.3939 62.9992 89.9913 64.4828C89.5887 65.9664 89.1861 67.45 88.5716 68.8761C87.957 70.3021 87.3425 71.7282 86.6507 73.0196C85.8243 74.3881 85.1325 75.6794 84.0941 76.9905C83.1904 78.2243 82.0748 79.4007 81.0939 80.4998C79.9783 81.6761 78.9201 82.6405 77.6501 83.5474C76.38 84.4542 75.11 85.3611 73.7627 86.1332C72.4154 86.9054 70.9909 87.5428 69.5664 88.1802C68.142 88.8176 66.6403 89.3203 65.1961 89.611C63.6172 89.979 62.1729 90.2698 60.6515 90.4258C59.1301 90.5818 57.5315 90.6031 55.9329 90.6244C54.3343 90.6457 52.7932 90.455 51.3868 90.1872C49.8457 89.9965 48.3621 89.5939 46.8785 89.1913C45.395 88.7887 43.9689 88.1742 42.5428 87.5597C41.1167 86.9451 39.7482 86.1186 38.3796 85.2922C37.011 84.4657 35.7772 83.562 34.6781 82.5811C33.5789 81.6002 32.4026 80.4846 31.361 79.2917C30.3195 78.0989 29.4126 76.8288 28.5057 75.5588C28.1196 74.8851 27.5988 74.2887 27.2128 73.6151L21.5542 76.8581C21.6314 76.9928 21.7086 77.1275 21.7086 77.1275C21.8631 77.397 22.075 77.4545 22.3445 77.3001L25.5204 75.6589C25.7521 76.063 26.0609 76.6019 26.2925 77.0061C26.5242 77.4103 26.9678 77.872 27.1994 78.2762L24.5443 80.5138C24.4095 80.591 24.4293 80.9377 24.5065 81.0724L25.0273 81.6688C25.1817 81.9383 25.5284 81.9186 25.5859 81.7067L28.5302 79.6613C28.8965 79.9882 29.1282 80.3924 29.5718 80.8541C29.9381 81.1811 30.1698 81.5852 30.6134 82.0469L28.1899 84.6888C28.0552 84.766 28.0748 85.1126 28.152 85.2474L28.6728 85.8438C28.8273 86.1132 29.0968 85.9588 29.2315 85.8816L31.8094 83.5093C32.1758 83.8362 32.5422 84.1632 32.9085 84.4902C33.2749 84.8171 33.6412 85.1441 34.0076 85.4711L32.0852 88.3626C32.0277 88.5746 31.9702 88.7865 32.2593 88.9788L32.8377 89.3632C33.0496 89.4207 33.2615 89.4783 33.531 89.3238L35.7426 86.6245C36.1089 86.9515 36.61 87.2012 36.9764 87.5282C37.4775 87.778 37.8438 88.1049 38.345 88.3547L36.7889 91.5732C36.7314 91.7851 36.6739 91.9971 36.9631 92.1893L37.5414 92.5738C37.7533 92.6313 38.1 92.6116 38.1575 92.3997L40.0027 89.3734C40.5038 89.6231 40.9277 89.7382 41.4288 89.9879C41.9299 90.2377 42.3537 90.3527 42.8548 90.6025L41.7227 93.936C41.6652 94.148 41.8196 94.4174 42.0315 94.4749L42.7446 94.7822C42.9565 94.8397 43.226 94.6853 43.3607 94.6081L44.7048 91.332C45.2059 91.5818 45.6298 91.6968 46.1884 91.7346C46.6123 91.8497 47.2481 92.0222 47.672 92.1372L46.9637 95.5858C46.9062 95.7977 47.0606 96.0672 47.2726 96.1247L47.9084 96.2972C48.1203 96.3547 48.3898 96.2003 48.4473 95.9884L49.3675 92.5973C49.7914 92.7124 50.35 92.7501 50.9086 92.788C51.4672 92.8258 51.8911 92.9408 52.4497 92.9786L52.3001 96.465C52.2426 96.6769 52.5317 96.8692 52.7436 96.9267L53.5142 97.022C53.7262 97.0795 53.9956 96.9251 54.0531 96.7132L54.5494 93.2071C55.108 93.2449 55.6666 93.2827 56.0133 93.263C56.5719 93.3008 57.0533 93.2039 57.612 93.2417L57.8862 96.8431C57.8287 97.0551 58.1178 97.2473 58.3297 97.3048L59.0231 97.2654C59.235 97.3229 59.4273 97.0338 59.4848 96.8218L59.4225 93.2779C59.9039 93.181 60.4625 93.2188 60.9439 93.1219C61.4253 93.025 61.9839 93.0628 62.4653 92.9659L63.2209 96.4704C63.2981 96.6051 63.4526 96.8746 63.722 96.7202L64.4153 96.6808C64.762 96.6611 64.8195 96.4491 64.7998 96.1025L64.3909 92.5782C64.8723 92.4813 65.3537 92.3844 65.8351 92.2875C66.3165 92.1906 66.7979 92.0937 67.3368 91.7848L68.4966 95.0576C68.5738 95.1924 68.8629 95.3846 68.9977 95.3074L69.7485 95.0561C70.018 94.9017 70.0755 94.6897 69.9983 94.555L69.1079 91.1277C69.5893 91.0308 69.9935 90.7991 70.6096 90.625C71.0138 90.3934 71.6299 90.2192 72.0341 89.9876L73.81 93.0863C73.8872 93.2211 74.1764 93.4133 74.4459 93.2589L75.1195 92.8728C75.389 92.7184 75.4465 92.5064 75.3693 92.3717L73.9975 89.0413C74.4017 88.8097 74.9406 88.5008 75.3448 88.2692C75.749 88.0375 76.2879 87.7287 76.6921 87.497L78.8722 90.3641C78.4105 90.8077 78.6224 90.8652 78.8919 90.7108Z" fill="#0DECE6"/>
<path d="M88.0518 38.9262L87.9746 38.7915L85.819 40.0269L83.7981 41.1851L72.8851 47.4395C77.9813 56.3315 74.8756 67.7764 65.9836 72.8725C57.0916 77.9686 45.6467 74.8629 40.5506 65.9709L29.9071 72.0708L27.482 73.4607L25.5958 74.5417L25.673 74.6764C35.5565 91.9215 57.5984 97.9029 74.8435 88.0195C91.9539 78.2133 97.9352 56.1713 88.0518 38.9262ZM80.3686 55.5003C80.1912 52.3802 79.4553 49.2224 77.8913 46.1812L84.3582 42.4749C86.5399 46.5939 87.6241 50.984 87.8031 55.356L80.3686 55.5003ZM30.602 73.2834L36.6648 69.8087C38.421 72.5608 40.7736 74.792 43.376 76.5222L39.7629 82.7095C36.0811 80.3451 33.0532 77.248 30.602 73.2834ZM42.2109 84.1702L45.824 77.9829C48.6187 79.4239 51.7978 80.2867 54.9375 80.456L54.9274 87.621C50.5357 87.4533 46.1621 86.3802 42.2109 84.1702ZM57.9323 87.8676L57.9425 80.7026C61.0625 80.5253 64.2203 79.7894 67.1268 78.3026L70.7559 84.6348C66.5596 86.6818 62.1696 87.7659 57.9323 87.8676ZM73.3157 83.1677L69.6867 76.8355C72.4387 75.0793 74.67 72.7266 76.4002 70.1242L82.7994 73.7949C80.435 77.4767 77.2804 80.7165 73.3157 83.1677ZM77.7837 67.5415C79.2247 64.7469 80.0874 61.5678 80.3914 58.3508L87.7684 58.4185C87.4659 62.8874 86.2581 67.3382 84.2601 71.347L77.7837 67.5415Z" fill="#07E0F2"/>
</svg>
