<svg width="154" height="154" viewBox="0 0 154 154" fill="none" xmlns="http://www.w3.org/2000/svg">
<path d="M62.7881 56.4016C74.2128 48.6194 89.6666 51.5502 97.4487 62.9749C105.231 74.3995 102.3 89.8534 90.8755 97.6355C79.4508 105.418 63.997 102.487 56.2148 91.0623C48.5221 79.7689 51.4947 64.0944 62.7881 56.4016ZM83.8984 87.3927C89.545 83.5463 91.0104 75.8195 87.164 70.1728C83.3177 64.5261 75.5908 63.0607 69.9441 66.9071C64.2974 70.7534 62.8321 78.4803 66.6784 84.127C70.5248 89.7737 78.2517 91.2391 83.8984 87.3927Z" fill="#DC2D33"/>
<path d="M69.5847 66.3823C75.494 62.357 83.6624 63.9061 87.6877 69.8155C91.713 75.7248 90.1639 83.8932 84.2546 87.9185C78.3452 91.9438 70.1768 90.3946 66.1515 84.4853C62.0368 78.4447 63.6754 70.4076 69.5847 66.3823ZM81.0343 83.191C84.4486 80.8653 85.3278 76.2292 83.0021 72.8149C80.6764 69.4006 76.0403 68.5214 72.626 70.8471C69.2117 73.1728 68.3325 77.809 70.6582 81.2232C72.9839 84.6375 77.6201 85.5167 81.0343 83.191Z" fill="#FF4249"/>
<path d="M69.584 66.3813L72.7147 70.9775C69.3005 73.3032 68.4212 77.9393 70.7469 81.3536C73.0726 84.7679 77.7088 85.6471 81.1231 83.3214L84.2539 87.9175C78.3445 91.9428 70.1761 90.3937 66.1508 84.4844C62.0361 78.4437 63.6747 70.4066 69.584 66.3813Z" fill="#FF6268"/>
<path d="M28.4748 104.206C27.7116 102.804 26.9484 101.401 26.3166 99.9089C25.6847 98.4169 25.0528 96.9248 24.5523 95.3432C24.5523 95.3432 30.7833 92.6369 29.8659 89.0323C28.9485 85.4277 22.2113 85.9796 22.2113 85.9796C21.9315 84.44 21.7831 82.8109 21.6346 81.1818C21.4861 79.5526 21.5584 77.9654 21.5413 76.2468C21.5413 76.2468 28.2367 75.9156 28.5963 72.2101C28.8418 70.3127 27.3745 69.0052 25.7339 68.008C24.1828 67.142 22.548 66.7176 22.548 66.7176C22.8411 65.1722 23.2655 63.5374 23.6899 61.9026C24.1142 60.2677 24.6281 58.7642 25.1419 57.2607C25.1419 57.2607 31.6394 59.1791 33.1923 55.8142C34.8766 52.36 29.287 48.6698 29.287 48.6698C30.111 47.3394 31.0664 45.9197 31.8905 44.5893C32.8458 43.1696 33.7594 41.9705 34.8936 40.8134C34.8936 40.8134 40.3101 44.8138 42.9726 42.2312C45.7665 39.5591 41.8782 34.1332 41.8782 34.1332C43.102 33.1074 44.4151 32.2129 45.8596 31.2289C47.1728 30.3344 48.486 29.4399 50.02 28.5873C50.02 28.5873 53.735 34.3234 57.155 32.5706C60.5331 31.0385 58.7935 24.5334 58.7935 24.5334C60.3751 24.0329 61.9566 23.5323 63.4068 23.1213C65.0778 22.752 66.528 22.3409 68.1571 22.1925C68.1571 22.1925 69.6341 28.8764 73.3757 28.4424C77.0755 28.2292 77.6692 21.4806 77.6692 21.4806C79.2564 21.5529 80.8437 21.6252 82.5204 21.8288C84.1971 22.0324 85.7425 22.3255 87.4192 22.5291C87.4192 22.5291 87.2155 24.2058 87.4535 25.9663C87.6914 27.7267 88.3708 29.5709 90.3159 30.1685C93.8957 31.1904 96.6553 25.0812 96.6553 25.0812C98.1588 25.595 99.6205 26.3297 101.213 26.9748C102.675 27.7094 104.137 28.444 105.467 29.2681C105.467 29.2681 102.397 35.2041 105.505 37.5089C108.524 39.6823 113.192 34.9642 113.323 34.8748C114.612 35.9196 115.769 37.0539 116.926 38.1882C118.083 39.3225 119.109 40.5462 120.135 41.7699C120.135 41.7699 115.156 46.3147 117.303 49.4664C119.45 52.618 125.502 49.649 125.502 49.649C126.265 51.0516 127.028 52.4543 127.66 53.9464C128.292 55.4384 128.924 56.9305 129.424 58.5121C129.424 58.5121 123.193 61.2184 124.111 64.823C125.028 68.4276 131.765 67.8757 131.765 67.8757C132.045 69.4153 132.194 71.0444 132.342 72.6735C132.491 74.3027 132.418 75.8899 132.435 77.6085C132.435 77.6085 125.74 77.9397 125.38 81.6452C125.135 83.5427 126.602 84.8501 128.243 85.8474C129.794 86.7133 131.429 87.1377 131.429 87.1377C131.136 88.6831 130.711 90.3179 130.287 91.9527C129.863 93.5876 129.349 95.0911 128.835 96.5946C128.835 96.5946 122.337 94.6762 120.784 98.0411C119.1 101.495 124.69 105.186 124.69 105.186C123.866 106.516 122.91 107.936 122.086 109.266C121.131 110.686 120.217 111.885 119.083 113.042C119.083 113.042 113.667 109.041 111.004 111.624C108.21 114.296 112.099 119.722 112.099 119.722C110.875 120.748 109.562 121.642 108.117 122.626C106.804 123.521 105.491 124.415 103.957 125.268C103.957 125.268 100.242 119.532 96.8218 121.285C93.4436 122.817 95.1832 129.322 95.1832 129.322C93.6017 129.822 92.0201 130.323 90.5699 130.734C88.8989 131.103 87.4487 131.514 85.8196 131.663C85.8196 131.663 84.3427 124.979 80.601 125.413C76.9013 125.626 76.3075 132.375 76.3075 132.375C74.7203 132.302 73.1331 132.23 71.4564 132.026C69.7797 131.823 68.3237 131.661 66.5576 131.326C66.5576 131.326 66.7612 129.649 66.5233 127.889C66.2854 126.129 65.6059 124.284 63.6609 123.687C60.081 122.665 57.3215 128.774 57.3215 128.774C55.8179 128.26 54.3563 127.526 52.7633 126.88C51.3017 126.146 49.8401 125.411 48.5097 124.587C48.5097 124.587 51.5795 118.651 48.4716 116.346C45.4531 114.173 40.7847 118.891 40.6534 118.981C39.3649 117.936 38.2078 116.801 37.0506 115.667C35.8935 114.533 34.8677 113.309 33.8418 112.085C33.8418 112.085 38.8205 107.541 36.6737 104.389C34.6163 101.369 28.4748 104.206 28.4748 104.206ZM37.446 58.1075C37.446 58.1075 37.446 58.1075 37.4878 57.8868C37.4878 57.8868 37.5773 58.0181 37.446 58.1075ZM61.6675 43.1464C59.7815 44.0467 57.7641 45.0363 55.9257 46.2886C54.0872 47.5409 52.4695 48.8351 50.8994 50.4814C48.804 52.4854 46.977 54.8835 45.3708 57.3233L55.4234 62.203C57.1609 59.6737 59.4295 57.3594 62.1872 55.4809C64.9449 53.6025 67.7977 52.4282 70.9189 51.6479L70.0586 40.5067C67.2 41.1081 64.2996 41.9303 61.6675 43.1464ZM59.8942 86.2648C60.252 86.79 60.4784 87.4048 60.8362 87.93C61.194 88.4553 61.5518 88.9806 62.041 89.4164C65.8759 93.9174 71.3647 96.3306 76.9619 96.3629C77.314 96.3153 77.5348 96.3571 77.8868 96.3095C78.2389 96.262 78.4597 96.3039 78.8118 96.2563C81.1451 96.0127 83.5621 95.3275 85.8421 94.1589C85.9734 94.0695 85.9734 94.0695 86.1047 93.98C86.3674 93.8011 86.7613 93.5328 87.024 93.3539C87.2866 93.175 87.4179 93.0855 87.6806 92.9066C96.4789 86.9134 98.7816 74.7712 92.7884 65.9728C86.7953 57.1745 74.653 54.8718 65.8547 60.865C65.7234 60.9544 65.592 61.0439 65.4607 61.1333C64.5415 61.7595 63.7117 62.5169 62.8819 63.2744C62.8819 63.2744 62.8819 63.2744 62.7506 63.3639C61.3537 64.6999 60.3564 66.3404 59.4905 67.8915C59.3173 68.2018 59.2755 68.4225 59.1023 68.7327C58.9291 69.043 58.8872 69.2637 58.714 69.574C56.8737 75.057 57.1098 81.0482 59.8942 86.2648ZM98.6805 46.9639C95.1729 44.3547 91.2771 42.5867 87.0349 41.4391C84.2068 40.674 81.2055 40.2192 78.2517 40.1164L79.1121 51.2576C85.4192 51.7676 91.3971 54.6166 95.9838 59.3745L105.307 53.0235C103.256 50.5761 101.12 48.5701 98.6805 46.9639ZM112.016 89.4026C113.002 86.6164 113.678 83.6569 114.001 80.7451C114.487 76.3773 114.047 72.0628 113.124 67.8853C112.391 65.1162 111.217 62.2634 109.869 59.7208L100.546 66.0717C103.425 71.9925 103.757 78.6878 101.922 84.7438L112.016 89.4026ZM92.1361 111.019C94.0221 110.119 96.0394 109.129 97.8779 107.877C99.7164 106.625 101.334 105.33 102.904 103.684C105 101.68 106.827 99.2821 108.433 96.8422L98.3802 91.9625C96.6426 94.4919 94.3741 96.8061 91.6164 98.6846C88.8587 100.563 86.0058 101.737 82.8846 102.518L83.745 113.659C86.6035 113.057 89.504 112.235 92.1361 111.019ZM55.2125 107.333C58.7201 109.942 62.7054 111.842 66.8581 112.858C69.6862 113.623 72.6875 114.078 75.6413 114.18L74.781 103.039C68.4738 102.529 62.4959 99.6802 57.9092 94.9223L48.5856 101.273C50.6791 103.5 52.8145 105.506 55.2125 107.333ZM53.3472 88.2251C50.4677 82.3044 50.1365 75.609 51.9711 69.5531L41.9185 64.6734C40.9327 67.4597 40.257 70.4191 39.9335 73.331C39.4483 77.6988 39.888 82.0133 40.811 86.1907C41.6332 89.0911 42.7181 91.8127 44.0655 94.3553L53.2578 88.0938L53.3472 88.2251Z" fill="#FF4249"/>
<path d="M28.4504 104.207C27.6872 102.805 26.924 101.402 26.2921 99.91C25.6603 98.4179 25.0284 96.9258 24.5278 95.3443C24.5278 95.3443 30.7588 92.6379 29.8414 89.0333C28.9241 85.4287 22.1869 85.9807 22.1869 85.9807C21.9071 84.441 21.7586 82.8119 21.6101 81.1828C21.4617 79.5537 21.534 77.9664 21.5169 76.2479C21.5169 76.2479 28.2122 75.9167 28.5719 72.2112C28.8174 70.3137 27.35 69.0063 25.7095 68.009C24.1584 67.1431 22.5235 66.7187 22.5235 66.7187C22.8166 65.1733 23.241 63.5385 23.6654 61.9036C24.0898 60.2688 24.6036 58.7653 25.1175 57.2618C25.1175 57.2618 31.6149 59.1801 33.1679 55.8153C34.8522 52.361 29.2625 48.6708 29.2625 48.6708C30.0866 47.3405 31.042 45.9207 31.866 44.5904C32.8214 43.1706 33.7349 41.9716 34.8692 40.8144C34.8692 40.8144 40.2857 44.8149 42.9482 42.2322C45.742 39.5602 41.8538 34.1342 41.8538 34.1342C43.0775 33.1084 44.3907 32.2139 45.8352 31.23L56.122 46.3316C54.2835 47.5839 52.6659 48.878 51.0958 50.5243C49.0004 52.5284 47.1734 54.9264 45.5671 57.3663L55.6197 62.2459C57.3573 59.7166 59.6258 57.4023 62.3835 55.5238L66.1404 61.0392C66.0091 61.1287 65.8778 61.2181 65.7465 61.3076C64.8273 61.9337 63.9975 62.6912 63.1677 63.4486C63.1677 63.4486 63.1677 63.4486 63.0364 63.5381C61.6395 64.8741 60.6422 66.5147 59.7763 68.0658C59.6031 68.376 59.5612 68.5968 59.388 68.907C59.2149 69.2172 59.173 69.438 58.9998 69.7482C56.9806 74.9686 57.2166 80.9598 60.001 86.1764C60.3588 86.7016 60.5853 87.3164 60.9431 87.8416C61.3009 88.3669 61.6587 88.8922 62.1479 89.328C65.9828 93.829 71.4715 96.2422 77.0688 96.2745C77.4209 96.2269 77.6416 96.2687 77.9937 96.2212C78.3458 96.1736 78.5666 96.2155 78.9187 96.1679C81.252 95.9243 83.669 95.2391 85.949 94.0705C86.0803 93.9811 86.0803 93.9811 86.2116 93.8916C86.4743 93.7127 86.8682 93.4444 87.1308 93.2655C87.3935 93.0866 87.5248 92.9971 87.7874 92.8182L91.5444 98.3336C88.7867 100.212 85.9338 101.386 82.8126 102.167L83.673 113.308C86.5315 112.706 89.4319 111.884 92.064 110.668C93.9501 109.768 95.9674 108.778 97.8059 107.526L108.093 122.627C106.78 123.522 105.466 124.416 103.932 125.269C103.932 125.269 100.217 119.533 96.7973 121.286C93.4192 122.818 95.1588 129.323 95.1588 129.323C93.5772 129.823 91.9957 130.324 90.5455 130.735C88.8745 131.104 87.4243 131.515 85.7952 131.664C85.7952 131.664 84.3182 124.98 80.5766 125.414C76.8768 125.627 76.2831 132.376 76.2831 132.376C74.6959 132.303 73.1086 132.231 71.4319 132.028C69.7552 131.824 68.2993 131.662 66.5331 131.327C66.5331 131.327 66.7368 129.651 66.4989 127.89C66.2609 126.13 65.5815 124.285 63.6364 123.688C60.0566 122.666 57.297 128.775 57.297 128.775C55.7935 128.261 54.3318 127.527 52.7389 126.882C51.2772 126.147 49.8156 125.412 48.4853 124.588C48.4853 124.588 51.555 118.652 48.4471 116.347C45.4287 114.174 40.7602 118.892 40.6289 118.982C39.3405 117.937 38.1833 116.802 37.0262 115.668C35.869 114.534 34.8432 113.31 33.8174 112.086C33.8174 112.086 38.7961 107.542 36.6492 104.39C34.5919 101.37 28.4504 104.207 28.4504 104.207ZM55.1881 107.334C58.6957 109.943 62.6809 111.843 66.8337 112.859C69.6618 113.624 72.6631 114.079 75.6168 114.181L74.7565 103.04C68.4494 102.53 62.4715 99.6813 57.8848 94.9234L48.5612 101.274C50.6547 103.501 52.7901 105.507 55.1881 107.334ZM53.3228 88.2262C50.4432 82.3054 50.112 75.61 51.9466 69.5541L41.894 64.6745C40.9082 67.4607 40.2326 70.4202 39.9091 73.332C39.4238 77.6998 39.8635 82.0143 40.7866 86.1918C41.6088 89.0922 42.6936 91.8138 44.0411 94.3564L53.2334 88.0949L53.3228 88.2262Z" fill="#FF6268"/>
</svg>
