<svg width="80" height="81" viewBox="0 0 80 81" fill="none" xmlns="http://www.w3.org/2000/svg">
<path d="M13.832 52.4364C13.2792 51.3578 12.766 50.0703 12.4616 48.8224C12.332 48.3651 12.5354 47.8627 12.9928 47.733C14.0318 47.3891 15.195 46.9605 16.234 46.6166C15.9747 45.7018 15.8397 44.7024 15.5804 43.7877C15.4453 42.7883 15.3949 41.9132 15.2598 40.9138C14.0912 40.8004 13.0072 40.8112 11.8385 40.6977C11.4208 40.6185 11.0426 40.3304 11.0372 39.7884C11.066 38.4955 11.0948 37.2026 11.3325 35.9493C11.3271 35.4073 11.8241 35.0688 12.2418 35.148C13.4105 35.2615 14.5791 35.3749 15.6235 35.573C15.8216 34.5286 15.98 33.693 16.2627 32.7729C16.5454 31.8527 16.8281 30.9326 17.3197 30.052C16.2303 29.5208 15.3497 29.0293 14.2603 28.4981C13.8426 28.4188 13.7525 27.7526 13.956 27.2502C14.4872 26.1608 15.1426 24.9867 15.8827 23.9369C16.1708 23.5588 16.7524 23.3445 17.1306 23.6326C18.0958 24.2484 19.0609 24.8642 20.0261 25.4801C20.6023 24.7238 21.1785 23.9675 21.8394 23.3354C22.5002 22.7034 23.2853 21.9867 23.9461 21.3547C23.2691 20.3607 22.6767 19.491 21.8753 18.5816C21.6214 18.2089 21.7007 17.7911 22.113 17.3283C23.0224 16.527 24.1406 15.7653 25.2192 15.2125C25.5919 14.9586 26.2186 15.0774 26.4725 15.4502C27.1495 16.4442 27.742 17.3139 28.2948 18.3925C29.1249 18.0089 30.0793 17.5407 30.9094 17.1572C31.7395 16.7736 32.6542 16.5143 33.569 16.255C33.3493 15.1314 33.1296 14.0078 32.9099 12.8841C32.7802 12.4268 33.0684 12.0486 33.65 11.8343C34.8978 11.53 36.1061 11.4346 37.4386 11.2545C37.9806 11.2491 38.3588 11.5372 38.4884 11.9946C38.7081 13.1182 38.8036 14.3264 38.8144 15.4105C39.6895 15.36 40.7735 15.3492 41.7333 15.423C42.693 15.4969 43.6528 15.5707 44.573 15.8534C44.8953 14.7243 45.2176 13.5953 45.4157 12.5509C45.4949 12.1331 45.9919 11.7946 46.4943 11.9981C47.7476 12.2358 48.9612 12.6823 50.1749 13.1289C50.6773 13.3324 51.0158 13.8293 50.7277 14.2075C50.4054 15.3365 49.9984 16.3413 49.6761 17.4703C50.472 17.8377 51.4768 18.2446 52.2331 18.8208C53.1137 19.3124 53.87 19.8886 54.6263 20.4648C55.3267 19.6239 56.1514 18.6983 56.8519 17.8574C57.14 17.4793 57.682 17.4739 58.0601 17.762C58.9857 18.5867 59.9113 19.4114 60.9215 20.3603C61.2996 20.6484 61.3896 21.3147 61.0169 21.5686C60.3164 22.4095 59.4071 23.2108 58.622 23.9275C59.2541 24.5884 59.8465 25.4581 60.3543 26.2036C60.8621 26.9491 61.4545 27.8188 61.8381 28.6489C62.7924 28.1807 63.9557 27.7521 64.91 27.284C65.2828 27.0301 65.7852 27.2335 65.9995 27.8151C66.5523 28.8937 67.0655 30.1812 67.3698 31.4291C67.4995 31.8865 67.296 32.3889 66.8386 32.5185C65.7996 32.8625 64.6364 33.291 63.5974 33.635C63.8567 34.5497 63.9918 35.5491 64.2511 36.4639C64.3861 37.4632 64.4366 38.3384 64.5716 39.3378C65.7403 39.4512 66.8243 39.4404 67.9929 39.5538C68.4107 39.633 68.7888 39.9211 68.7942 40.4631C68.7654 41.756 68.652 42.9247 68.499 44.3022C68.5044 44.8442 68.0074 45.1827 67.5896 45.1035C66.421 44.9901 65.2523 44.8767 64.2079 44.6786C64.0099 45.723 63.8514 46.5585 63.5687 47.4787C63.286 48.3988 63.0033 49.319 62.5117 50.1995C63.6012 50.7307 64.4817 51.2223 65.5711 51.7535C65.9889 51.8327 66.0789 52.499 65.8755 53.0013C65.3443 54.0908 64.6888 55.2648 63.9487 56.3146C63.6606 56.6928 63.079 56.9071 62.7009 56.619C61.7357 56.0031 60.7705 55.3873 59.8054 54.7715C59.2291 55.5278 58.6529 56.2841 57.9921 56.9161C57.3312 57.5482 56.5461 58.2649 55.8853 58.8969C56.5623 59.8909 57.1548 60.7606 57.9561 61.6699C58.21 62.0427 58.1308 62.4604 57.7184 62.9232C56.8091 63.7245 55.6909 64.4862 54.6122 65.039C54.1153 65.3776 53.6129 65.1741 53.359 64.8014C52.6819 63.8074 52.0895 62.9377 51.5366 61.8591C50.7065 62.2426 49.7522 62.7108 48.9221 63.0944C48.092 63.4779 47.1772 63.7372 46.2625 63.9965C46.4822 65.1202 46.7019 66.2438 46.9215 67.3674C47.0512 67.8248 46.7631 68.2029 46.1815 68.4172C44.9336 68.7215 43.7253 68.817 42.3928 68.9971C41.8508 69.0025 41.4727 68.7144 41.343 68.257C41.1233 67.1334 41.0279 65.9251 41.0171 64.8411C40.1419 64.8915 39.0579 64.9023 38.0982 64.8285C37.1384 64.7547 36.1786 64.6809 35.2585 64.3982C34.9362 65.5272 34.6138 66.6562 34.4158 67.7006C34.3366 68.1184 33.8396 68.4569 33.3372 68.2535C32.0839 68.0158 30.8702 67.5692 29.6565 67.1227C29.1542 66.9192 28.8156 66.4222 29.1037 66.0441C29.426 64.915 29.833 63.9102 30.1553 62.7812C29.3594 62.4139 28.3546 62.0069 27.5983 61.4307C26.7178 60.9391 25.9615 60.3629 25.2052 59.7867C24.5047 60.6276 23.68 61.5532 22.9796 62.3941C22.6915 62.7723 22.1495 62.7777 21.7713 62.4896C20.8458 61.6649 19.9202 60.8402 18.91 59.8912C18.5318 59.6031 18.4418 58.9368 18.8146 58.6829C19.515 57.842 20.4243 57.0407 21.2094 56.324C20.5774 55.6632 19.985 54.7935 19.4772 54.048C18.9694 53.3025 18.3769 52.4328 17.9934 51.6026C17.039 52.0708 15.8758 52.4994 14.9214 52.9676C14.464 53.0972 13.9616 52.8938 13.832 52.4364ZM38.9263 43.3463C39.6375 43.5894 40.3884 43.6236 41.1789 43.4489C42.5511 43.06 43.6639 41.7563 43.6476 40.1302C43.7161 38.6285 42.7004 37.1375 41.3625 36.7756C39.94 36.2894 38.2348 36.7234 37.3704 37.8578C36.8338 38.4052 36.5907 39.1165 36.6412 39.9917C36.607 40.7425 36.9059 41.4484 37.3291 42.0696C37.5433 42.6513 38.215 43.1032 38.9263 43.3463Z" fill="#DC2D33"/>
<path d="M26.5164 15.2398C27.1935 16.2338 27.7859 17.1035 28.3387 18.1821C29.1688 17.7986 30.1232 17.3304 30.9533 16.9468C31.7834 16.5633 32.6982 16.304 33.6129 16.0447C33.3932 14.921 33.1735 13.7974 32.9539 12.6738C32.8242 12.2164 33.1123 11.8383 33.6939 11.624C34.9418 11.3197 36.15 11.2242 37.4826 11.0441C38.0246 11.0387 38.4027 11.3268 38.5324 11.7842C38.7521 12.9078 38.8475 14.1161 38.8583 15.2001C39.7335 15.1497 40.8175 15.1389 41.7772 15.2127C42.737 15.2865 43.6968 15.3603 44.6169 15.643C44.9392 14.514 45.2616 13.3849 45.4596 12.3405C45.5389 11.9228 46.0358 11.5843 46.5382 11.7877C47.7915 12.0254 49.0052 12.472 50.2188 12.9185C50.7212 13.122 51.0598 13.619 50.7717 13.9971C50.4493 15.1262 50.0424 16.1309 49.7201 17.26C50.516 17.6273 51.5208 18.0343 52.2771 18.6105C53.1576 19.1021 53.9139 19.6783 54.6702 20.2545C55.3707 19.4135 56.1954 18.488 56.8958 17.6471C57.1839 17.2689 57.726 17.2635 58.1041 17.5516C59.0297 18.3763 59.9552 19.201 60.9654 20.15C61.3436 20.4381 61.4336 21.1043 61.0609 21.3582C60.3604 22.1992 59.4511 23.0005 58.666 23.7172C59.298 24.378 59.8904 25.2477 60.3982 25.9932C60.906 26.7387 61.4985 27.6084 61.882 28.4385C62.8364 27.9703 63.9996 27.5418 64.954 27.0736C65.3267 26.8197 65.8291 27.0232 66.0434 27.6048C66.5962 28.6834 67.1095 29.9709 67.4138 31.2187C67.5434 31.6761 67.3399 32.1785 66.8826 32.3082C65.8436 32.6521 64.6803 33.0807 63.6413 33.4246C63.9007 34.3394 64.0357 35.3387 64.295 36.2535C64.4301 37.2529 64.4805 38.128 64.6156 39.1274C65.7842 39.2408 66.8682 39.23 68.0369 39.3434C68.4546 39.4227 68.8328 39.7108 68.8382 40.2528C68.8094 41.5457 68.696 42.7143 68.5429 44.0919C68.5483 44.6339 68.0514 44.9724 67.6336 44.8932C66.4649 44.7797 65.2963 44.6663 64.2519 44.4682C64.1781 45.428 63.8954 46.3482 63.6127 47.2683C63.33 48.1885 63.0473 49.1086 62.5557 49.9892C63.6451 50.5204 64.5257 51.0119 65.6151 51.5431C66.0328 51.6223 66.1229 52.2886 65.9194 52.791C65.3882 53.8804 64.7328 55.0545 63.9927 56.1043C63.7046 56.4824 63.123 56.6967 62.7448 56.4086C61.7796 55.7928 60.8145 55.177 59.8493 54.5611C59.2731 55.3174 58.6969 56.0737 58.036 56.7058C57.3752 57.3378 56.5901 58.0545 55.9292 58.6865C56.6063 59.6805 57.1987 60.5502 58.0001 61.4596C58.254 61.8323 58.1747 62.2501 57.7624 62.7129C57.2654 63.0514 56.7684 63.3899 56.1472 63.8131L51.4077 56.8553C52.6502 56.0089 53.808 55.0384 54.8812 53.9435C57.0276 51.7539 58.5023 49.1122 59.39 46.1429C60.2778 43.1736 60.5388 40.0854 60.0094 37.1719C59.6042 34.1737 58.4085 31.3503 56.6312 28.7411C54.9386 26.2562 52.6247 24.1944 50.0227 22.5108C47.381 21.036 44.4117 20.1483 41.4478 19.8026C38.3596 19.5416 35.3614 19.9467 32.538 21.1424C31.1262 21.7403 29.7991 22.4624 28.5567 23.3087L23.6479 16.1024C24.1449 15.7638 24.6419 15.4253 25.2631 15.0021C25.8447 14.7879 26.2625 14.8671 26.5164 15.2398Z" fill="#FF4249"/>
<path d="M41.3851 21.8442C44.0555 22.0261 46.816 22.8742 49.1641 24.185C51.5122 25.4959 53.5326 27.3938 55.1406 29.7545C56.664 31.991 57.6905 34.5659 58.1353 37.3552C58.4954 40.0202 58.274 42.8995 57.4655 45.4511C56.657 48.0027 55.2219 50.4354 53.324 52.4558C52.375 53.466 51.3414 54.3519 50.2232 55.1136L49.123 53.4984C50.1169 52.8214 51.0263 52.02 51.851 51.0945C53.5004 49.2434 54.7717 47.1041 55.5405 44.7614C56.3094 42.4187 56.4516 39.9572 56.0519 37.5011C55.6521 35.0449 54.7949 32.7184 53.4408 30.7305C52.0867 28.7425 50.1509 26.9689 48.0963 25.8219C45.9571 24.5506 43.4901 23.8664 41.1528 23.6395C38.6913 23.4973 36.2352 23.897 33.9087 24.7542C32.7455 25.1828 31.6668 25.7356 30.6729 26.4127L29.5726 24.7974C30.6908 24.0357 31.8937 23.3983 33.1812 22.8851C35.9254 22.1072 38.7147 21.6624 41.3851 21.8442Z" fill="#FF4249"/>
<path d="M32.8626 28.5605C32.6087 28.1878 32.9364 27.6008 33.6423 27.3018C35.3025 26.5347 36.9231 25.9765 38.6734 25.8756C39.3397 25.7856 39.9267 26.1133 40.0563 26.5707C40.1518 27.779 40.2868 28.7783 40.3823 29.9866C41.4663 29.9758 42.5107 30.1739 43.6397 30.4962C44.6445 30.9031 45.734 31.4343 46.5749 32.1348C47.2753 31.2938 48.1847 30.4925 48.9698 29.7758C49.2579 29.3977 49.8845 29.5165 50.4319 30.0531C51.696 31.3748 52.627 32.7415 53.3941 34.4018C53.693 35.1076 53.5742 35.7343 53.1168 35.8639C52.0382 36.4168 50.9992 36.7607 50.0448 37.2289C50.3888 38.2679 50.4842 39.4761 50.495 40.5601C50.5059 41.6442 50.1835 42.7732 49.7766 43.778C50.866 44.3092 51.8708 44.7161 52.836 45.3319C53.2537 45.4112 53.3438 46.0774 52.9765 46.8733C52.2418 48.4651 51.0047 49.8535 49.8073 51.0329C49.2707 51.5804 48.5198 51.5462 48.3505 51.2977C47.5492 50.3883 46.8325 49.6032 46.0312 48.6939L45.907 48.7785L43.368 45.0511C43.865 44.7126 44.2773 44.2498 44.6897 43.787C45.3901 42.9461 45.8367 41.7324 45.8655 40.4395C45.9789 39.2709 45.5503 38.1077 44.8733 37.1137C44.1962 36.1197 43.1464 35.3796 42.1416 34.9727C41.0126 34.6504 39.8439 34.537 38.5961 34.8413C38.0144 35.0556 37.4328 35.2699 36.9358 35.6084L34.3968 31.881L34.5211 31.7964C33.8836 30.5935 33.4154 29.6391 32.8626 28.5605Z" fill="#FF4249"/>
<path d="M32.1676 51.0421C32.7834 50.077 33.3146 48.9875 33.9304 48.0224C33.0895 47.3219 32.2486 46.6215 31.5715 45.6275C30.9791 44.7578 30.4263 43.6791 30.2066 42.5555C29.0829 42.7752 27.9593 42.9949 26.7511 43.0903C26.2937 43.22 25.8309 42.8077 25.7805 41.9325C25.4707 40.1426 25.5788 38.432 25.8957 36.7609C26.1388 36.0497 26.5511 35.5869 26.9689 35.6661C28.0133 35.8642 29.2666 36.1019 30.3956 36.4242C30.8025 35.4194 31.2095 34.4146 31.9099 33.5737C32.6104 32.7328 33.3955 32.0161 34.2652 31.4236L36.8042 35.151C36.3072 35.4896 35.8949 35.9523 35.4825 36.4151C34.7821 37.2561 34.3355 38.4697 34.3067 39.7626C34.1933 40.9313 34.6219 42.0945 35.2989 43.0885C35.976 44.0824 37.0258 44.8225 38.0306 45.2295C39.1596 45.5518 40.3283 45.6652 41.5761 45.3609C42.1578 45.1466 42.7394 44.9323 43.2364 44.5938L45.7754 48.3212C44.9056 48.9136 43.9513 49.3818 42.9123 49.7257C41.8733 50.0697 40.665 50.1651 39.7053 50.0913C39.5918 51.26 39.3938 52.3044 39.1561 53.5576C39.0769 53.9754 38.5799 54.3139 37.7444 54.1555C36.0733 53.8386 34.3573 53.1885 32.8897 52.3692C32.1784 52.1261 31.8795 51.4203 32.1676 51.0421Z" fill="#FF6268"/>
<path d="M22.6139 34.6289C23.4224 32.0773 24.8575 29.6445 26.7554 27.6241C27.7044 26.6139 28.738 25.728 29.8562 24.9663L30.9564 26.5815C29.9625 27.2586 29.0531 28.0599 28.2284 28.9855C26.579 30.8366 25.3077 32.9758 24.5389 35.3185C23.77 37.6612 23.6278 40.1227 24.0275 42.5789C24.4273 45.035 25.2844 47.3615 26.6386 49.3494C27.9927 51.3374 29.9285 53.111 31.9831 54.2581C34.1223 55.5293 36.5892 56.2136 38.9265 56.4404C41.3881 56.5827 43.8442 56.1829 46.1707 55.3257C47.3339 54.8972 48.4125 54.3443 49.4065 53.6673L50.5067 55.2825C49.3885 56.0442 48.1857 56.6816 46.8982 57.1948C44.3232 58.2212 41.6582 58.5814 38.8635 58.4842C36.1931 58.3024 33.4327 57.4543 31.0845 56.1434C28.7364 54.8325 26.7161 52.9346 25.108 50.5739C23.5846 48.3375 22.5582 45.7625 22.1134 42.9732C21.584 40.0597 21.8054 37.1804 22.6139 34.6289Z" fill="#FF6268"/>
<path d="M18.8986 58.8059C19.599 57.965 20.5084 57.1637 21.2935 56.447C20.6614 55.7861 20.069 54.9164 19.5612 54.1709C19.0534 53.4255 18.4609 52.5557 18.0774 51.7256C17.123 52.1938 15.9598 52.6224 15.0054 53.0906C14.6327 53.3445 14.1303 53.141 13.916 52.5594C13.3632 51.4808 12.85 50.1933 12.5457 48.9454C12.416 48.488 12.6195 47.9856 13.0768 47.856C14.1158 47.512 15.2791 47.0835 16.3181 46.7395C16.0588 45.8248 15.9237 44.8254 15.6644 43.9107C15.5293 42.9113 15.4789 42.0361 15.3439 41.0368C14.1752 40.9233 13.0912 40.9342 11.9225 40.8207C11.5048 40.7415 11.1266 40.4534 11.1212 39.9114C11.15 38.6185 11.2635 37.4498 11.4165 36.0723C11.4111 35.5303 11.9081 35.1918 12.3259 35.271C13.4945 35.3844 14.6631 35.4979 15.7075 35.6959C15.9056 34.6515 16.0641 33.816 16.3468 32.8959C16.6295 31.9757 16.9122 31.0555 17.4037 30.175C16.3143 29.6438 15.4338 29.1522 14.3443 28.621C13.9266 28.5418 13.8366 27.8756 14.04 27.3732C14.5712 26.2838 15.2267 25.1097 15.9667 24.0599C16.2548 23.6817 16.8365 23.4674 17.2146 23.7556C18.1798 24.3714 19.145 24.9872 20.1101 25.603C20.6863 24.8467 21.2626 24.0904 21.9234 23.4584C22.5842 22.8263 23.3693 22.1097 24.0302 21.4776C23.3531 20.4837 22.7607 19.6139 21.9594 18.7046C21.7055 18.3318 21.7847 17.9141 22.197 17.4513C22.694 17.1128 23.191 16.7742 23.8123 16.3511L28.5517 23.3089C27.3093 24.1552 26.1514 25.1258 25.0782 26.2206C22.9318 28.4103 21.4571 31.0519 20.5694 34.0212C19.6817 36.9906 19.4206 40.0788 19.95 42.9923C20.3552 45.9904 21.5509 48.8139 23.3282 51.4231C25.0209 53.908 27.3348 55.9698 29.9368 57.6534C32.5784 59.1281 35.5477 60.0158 38.5117 60.3615C41.5999 60.6226 44.598 60.2174 47.4215 59.0217C48.8332 58.4239 50.1603 57.7018 51.4028 56.8555L56.3115 64.0618C55.8145 64.4003 55.3175 64.7389 54.6963 65.162C54.3235 65.4159 53.6969 65.2971 53.443 64.9243C52.7659 63.9304 52.1735 63.0606 51.6207 61.982C50.7906 62.3656 49.8362 62.8338 49.0061 63.2173C48.176 63.6009 47.2612 63.8602 46.3465 64.1195C46.5662 65.2431 46.7859 66.3667 47.0056 67.4904C47.1352 67.9477 46.8471 68.3259 46.2655 68.5402C45.0176 68.8445 43.8094 68.94 42.4769 69.12C41.9349 69.1254 41.5567 68.8373 41.427 68.38C41.2074 67.2563 41.1119 66.0481 41.1011 64.9641C40.226 65.0145 39.1419 65.0253 38.1822 64.9515C37.2224 64.8777 36.2626 64.8038 35.3425 64.5211C35.0202 65.6502 34.6979 66.7792 34.4998 67.8236C34.4206 68.2414 33.9236 68.5799 33.4212 68.3764C32.1679 68.1388 30.9542 67.6922 29.7406 67.2456C29.2382 67.0422 28.8997 66.5452 29.1878 66.167C29.5101 65.038 29.917 64.0332 30.2393 62.9042C29.4434 62.5368 28.4386 62.1299 27.6823 61.5537C26.8018 61.0621 26.0455 60.4859 25.2892 59.9097C24.5888 60.7506 23.7641 61.6762 23.0636 62.5171C22.7755 62.8952 22.2335 62.9006 21.8553 62.6125C20.9298 61.7878 20.0042 60.9631 18.994 60.0142C18.5312 59.6018 18.5258 59.0598 18.8986 58.8059Z" fill="#FF6268"/>
</svg>
