<svg width="112" height="112" viewBox="0 0 112 112" fill="none" xmlns="http://www.w3.org/2000/svg">
<path d="M72.0636 46.5882C66.9674 37.6962 55.5226 34.5905 46.6306 39.6866C37.7386 44.7828 34.6328 56.2276 39.729 65.1196C44.8251 74.0116 56.27 77.1174 65.162 72.0212C74.1887 66.8479 77.1597 55.4802 72.0636 46.5882ZM48.4288 60.3126C45.9579 56.0013 47.5305 50.6256 51.707 48.232C56.0183 45.7611 61.3941 47.3337 63.7877 51.5102C66.2586 55.8215 64.686 61.1972 60.5094 63.5909C56.3329 65.9845 50.8996 64.6239 48.4288 60.3126Z" fill="#ECB513"/>
<path d="M78.2051 89.783L78.8787 89.3969C79.1482 89.2425 79.2057 89.0305 79.0513 88.761L77.2754 85.6623C77.6795 85.4307 78.1412 84.9871 78.5454 84.7555C78.9496 84.5238 79.4113 84.0802 79.7383 83.7139L82.2453 86.2146C82.3225 86.3493 82.6692 86.3296 82.8039 86.2524L83.4004 85.7316C83.6698 85.5772 83.6501 85.2305 83.4381 85.173L81.2005 82.5179C81.5275 82.1515 81.8545 81.7851 82.3934 81.4762C82.7203 81.1099 83.0473 80.7435 83.3743 80.3772L86.2084 82.5115C86.2856 82.6462 86.6322 82.6265 86.9017 82.4721L87.2862 81.8938C87.3437 81.6818 87.4012 81.4699 87.324 81.3351L84.6822 78.9117C85.0091 78.5453 85.3361 78.1789 85.5858 77.6778C85.9128 77.3115 86.1626 76.8104 86.4895 76.444L89.5158 78.2892C89.7278 78.3467 89.9397 78.4042 90.1319 78.1151L90.5164 77.5367C90.574 77.3248 90.6314 77.1128 90.3423 76.9206L87.3735 74.8635C87.6233 74.3624 87.9503 73.996 88.2 73.4949C88.4498 72.9938 88.7767 72.6275 88.8918 72.2036L92.1678 73.5477C92.3797 73.6052 92.6492 73.4508 92.7067 73.2388L93.014 72.5258C93.0715 72.3138 93.0518 71.9672 92.8398 71.9096L89.7561 70.2764C90.0058 69.7753 90.1208 69.3514 90.3706 68.8503C90.6203 68.3492 90.7354 67.9253 90.9851 67.4242L94.3762 68.3444C94.5881 68.402 94.8576 68.2475 94.9151 68.0356L95.0876 67.3998C95.1451 67.1878 94.9907 66.9184 94.7788 66.8609L91.4452 65.7287C91.5602 65.3048 91.7328 64.669 91.8478 64.2451C91.9629 63.8212 92.0006 63.2626 92.2504 62.7615L95.7565 63.2578C95.9685 63.3154 96.2379 63.1609 96.2182 62.8142L96.3135 62.0437C96.371 61.8318 96.2166 61.5623 96.0047 61.5048L92.5561 60.7965C92.5939 60.2379 92.7089 59.8141 92.7467 59.2554C92.7845 58.6968 92.8996 58.2729 92.9374 57.7143L96.4813 57.6521C96.6932 57.7096 96.8854 57.4204 96.943 57.2085L96.9036 56.5151C96.9611 56.3032 96.6719 56.1109 96.46 56.0534L92.8964 55.769C92.9342 55.2104 92.8373 54.729 92.8751 54.1704C92.9129 53.6118 92.816 53.1304 92.7191 52.649L96.1661 52.1053C96.378 52.1628 96.5702 51.8737 96.5505 51.527L96.5112 50.8337C96.5687 50.6218 96.2795 50.4295 96.0676 50.372L92.6009 50.569C92.504 50.0876 92.407 49.6062 92.3101 49.1248C92.2132 48.6434 92.1163 48.162 92.0194 47.6806L95.3694 46.6556C95.5042 46.5784 95.6964 46.2892 95.6192 46.1544L95.3679 45.4036C95.2135 45.1341 95.1362 44.9994 94.8668 45.1539L91.3622 45.9095C91.2653 45.4281 91.1684 44.9467 90.8596 44.4078C90.7627 43.9264 90.531 43.5222 90.3569 42.9061L93.6101 41.3996C93.7448 41.3224 93.937 41.0332 93.8598 40.8985L93.6085 40.1476C93.454 39.8782 93.2421 39.8207 93.1074 39.8979L89.8345 41.0577C89.6029 40.6535 89.4287 40.0374 89.1971 39.6332C88.9655 39.229 88.6566 38.6901 88.425 38.2859L91.4465 36.3753C91.5812 36.2981 91.7735 36.0089 91.619 35.7395C91.4646 35.47 91.3874 35.3353 91.233 35.0658C91.0785 34.7964 90.8666 34.7389 90.5971 34.8933L87.4212 36.5345C87.1895 36.1303 86.8807 35.5914 86.649 35.1872C86.4174 34.783 85.9738 34.3213 85.7422 33.9171L88.3973 31.6795C88.532 31.6023 88.5123 31.2556 88.4351 31.1209L87.9143 30.5245C87.7599 30.255 87.4132 30.2747 87.3557 30.4867L84.4114 32.5321C84.045 32.2051 83.8134 31.8009 83.3698 31.3392C83.0034 31.0123 82.7718 30.6081 82.3282 30.1464L84.7517 27.5046C84.8864 27.4274 84.8668 27.0807 84.7895 26.946L84.2687 26.3495C84.1143 26.0801 83.8448 26.2345 83.7101 26.3117L81.1322 28.6841C80.7658 28.3571 80.3994 28.0302 80.0331 27.7032C79.6667 27.3762 79.3003 27.0492 78.934 26.7223L80.8564 23.8307C80.9139 23.6188 80.9714 23.4068 80.6823 23.2146L80.1039 22.8301C79.892 22.7726 79.68 22.7151 79.4106 22.8695L77.199 25.5688C76.8327 25.2419 76.3316 24.9921 75.9652 24.6651C75.4641 24.4154 75.0977 24.0884 74.5966 23.8387L76.1527 20.6201C76.2102 20.4082 76.2677 20.1963 75.9785 20.004L75.4002 19.6196C75.1883 19.562 74.8416 19.5817 74.7841 19.7937L72.9389 22.82C72.4378 22.5702 72.0139 22.4552 71.5128 22.2054C71.0117 21.9557 70.5879 21.8406 70.0868 21.5909L71.2189 18.2573C71.2764 18.0454 71.122 17.7759 70.9101 17.7184L70.197 17.4111C69.9851 17.3536 69.7156 17.5081 69.5809 17.5853L68.2368 20.8613C67.8129 20.7463 67.3118 20.4965 66.7532 20.4587C66.3293 20.3437 65.6935 20.1712 65.2696 20.0561L65.9779 16.6076C66.0354 16.3956 65.881 16.1262 65.669 16.0687L65.0332 15.8961C64.8213 15.8386 64.5518 15.993 64.4943 16.205L63.5741 19.596C63.1502 19.481 62.5916 19.4432 62.033 19.4054C61.4744 19.3676 61.0505 19.2526 60.4919 19.2147L60.6415 15.7284C60.699 15.5164 60.4099 15.3242 60.198 15.2666L59.4274 15.1713C59.2154 15.1138 58.946 15.2682 58.8885 15.4802L58.3922 18.9863C57.8336 18.9485 57.275 18.9106 56.9283 18.9303C56.3697 18.8925 55.8883 18.9895 55.3296 18.9517L55.0554 15.3502C55.1129 15.1383 54.8238 14.946 54.6119 14.8885L53.9185 14.928C53.7066 14.8704 53.5143 15.1596 53.4568 15.3715L53.5191 18.9154C53.0377 19.0123 52.4791 18.9745 51.9977 19.0714C51.5163 19.1684 50.9577 19.1305 50.4763 19.2275L49.7207 15.7229C49.6435 15.5882 49.489 15.3188 49.2196 15.4732L48.5262 15.5126C48.1796 15.5323 48.1221 15.7442 48.1418 16.0909L48.5507 19.6151C48.0693 19.712 47.5879 19.809 47.1065 19.9059C46.6251 20.0028 46.1437 20.0997 45.6048 20.4086L44.3678 17.001C44.2906 16.8662 44.0014 16.674 43.8667 16.7512L43.1159 17.0026C42.8464 17.157 42.7889 17.3689 42.8661 17.5037L43.7565 20.9309C43.2751 21.0278 42.8709 21.2595 42.2548 21.4336C41.8506 21.6653 41.2344 21.8394 40.8303 22.071L39.0543 18.9723C38.9771 18.8376 38.6879 18.6454 38.4185 18.7998L37.7449 19.1859C37.4754 19.3403 37.4179 19.5522 37.4951 19.6869L38.8668 23.0173C38.4627 23.249 37.9237 23.5578 37.5196 23.7895C37.1154 24.0211 36.5765 24.33 36.1723 24.5616L33.9922 21.6945C33.915 21.5598 33.6258 21.3675 33.4336 21.6567L32.76 22.0428C32.4905 22.1972 32.433 22.4092 32.5874 22.6786L34.3633 25.7773C33.9591 26.009 33.4975 26.4526 33.0933 26.6842C32.6891 26.9158 32.2274 27.3594 31.9004 27.7258L29.3933 25.2251C29.3161 25.0904 28.9695 25.1101 28.8347 25.1873L28.2383 25.7081C27.9689 25.8625 27.9885 26.2092 28.2005 26.2667L30.5154 29.0565C30.1884 29.4229 29.8614 29.7893 29.3225 30.0981C28.9955 30.4645 28.6685 30.8309 28.3416 31.1973L25.5075 29.0629C25.4303 28.9282 25.0837 28.9479 24.8142 29.1023L24.4297 29.6806C24.3722 29.8925 24.3147 30.1045 24.3919 30.2392L27.0337 32.6627C26.7068 33.0291 26.3798 33.3955 26.13 33.8966C25.8031 34.2629 25.5533 34.764 25.2263 35.1304L22.2001 33.2852C21.9881 33.2277 21.7762 33.1702 21.5839 33.4594L21.1994 34.0377C21.1419 34.2496 21.0844 34.4615 21.3736 34.6538L24.3423 36.7109C24.0926 37.212 23.7656 37.5784 23.5159 38.0795C23.2661 38.5806 22.9392 38.9469 22.8241 39.3708L19.5481 38.0267C19.3362 37.9692 19.0667 38.1237 19.0092 38.3356L18.7019 39.0486C18.6444 39.2606 18.6641 39.6072 18.876 39.6648L21.9598 41.298C21.7101 41.7991 21.5951 42.223 21.3453 42.7241C21.0956 43.2252 20.9805 43.6491 20.7308 44.1502L17.3397 43.2299C17.1277 43.1724 16.8583 43.3269 16.8008 43.5388L16.6283 44.1746C16.5708 44.3866 16.7252 44.656 16.9371 44.7135L20.2707 45.8457C20.1557 46.2696 19.9831 46.9054 19.8681 47.3293C19.753 47.7532 19.7153 48.3118 19.4655 48.8129L15.9594 48.3166C15.7474 48.259 15.478 48.4135 15.4977 48.7601L15.4024 49.5307C15.3449 49.7426 15.4993 50.0121 15.7112 50.0696L19.1598 50.7779C19.122 51.3365 19.007 51.7604 18.9691 52.319C18.9313 52.8776 18.8163 53.3014 18.7785 53.8601L15.2346 53.9223C15.0227 53.8648 14.8304 54.154 14.7729 54.3659L14.8123 55.0593C14.7548 55.2712 15.044 55.4634 15.2559 55.5209L18.8195 55.8053C18.7817 56.3639 18.8786 56.8454 18.8408 57.404C18.803 57.9626 18.8999 58.444 18.9968 58.9254L15.5498 59.469C15.3379 59.4115 15.1456 59.7007 15.1653 60.0473L15.2047 60.7407C15.1472 60.9526 15.4364 61.1449 15.6483 61.2024L19.115 61.0054C19.2119 61.4868 19.3088 61.9682 19.4057 62.4496C19.5027 62.931 19.5996 63.4124 19.6965 63.8938L16.3464 64.9188C16.2117 64.9961 16.0195 65.2852 16.0967 65.4199L16.348 66.1708C16.5024 66.4402 16.5797 66.575 16.8491 66.4205L20.3536 65.6649C20.4505 66.1463 20.5474 66.6277 20.8563 67.1666C20.9532 67.648 21.1848 68.0522 21.359 68.6683L18.1058 70.1748C17.9711 70.252 17.7788 70.5412 17.8561 70.6759L18.1074 71.4267C18.2619 71.6962 18.4738 71.7537 18.6085 71.6765L21.8814 70.5167C22.113 70.9209 22.2871 71.537 22.5188 71.9412C22.7504 72.3453 23.0593 72.8843 23.2909 73.2884L20.2694 75.1991C20.1347 75.2763 19.9424 75.5655 20.0969 75.8349C20.2513 76.1044 20.3285 76.2391 20.4829 76.5086C20.6374 76.778 20.8493 76.8355 21.1188 76.6811L24.2947 75.0399C24.5264 75.4441 24.8352 75.983 25.0669 76.3872C25.2985 76.7913 25.7421 77.253 25.9737 77.6572L23.3186 79.8949C23.1838 79.9721 23.2036 80.3187 23.2808 80.4534L23.8015 81.0499C23.956 81.3193 24.3027 81.2996 24.3602 81.0877L27.3045 79.0423C27.6708 79.3693 27.9025 79.7735 28.3461 80.2352C28.7124 80.5621 28.9441 80.9663 29.3876 81.428L26.9642 84.0698C26.8295 84.147 26.8491 84.4937 26.9263 84.6284L27.4471 85.2248C27.6016 85.4943 27.871 85.3399 28.0058 85.2627L30.5837 82.8903C30.9501 83.2173 31.3164 83.5443 31.6828 83.8712C32.0492 84.1982 32.4155 84.5251 32.7819 84.8521L30.8595 87.7437C30.802 87.9556 30.7445 88.1676 31.0336 88.3598L31.612 88.7443C31.8239 88.8018 32.0358 88.8593 32.3053 88.7049L34.5169 86.0056C34.8832 86.3325 35.3843 86.5823 35.7507 86.9092C36.2518 87.159 36.6182 87.486 37.1193 87.7357L35.5632 90.9542C35.5057 91.1662 35.4482 91.3781 35.7374 91.5704L36.3156 91.9549C36.5276 92.0124 36.8743 91.9927 36.9318 91.7807L38.777 88.7544C39.2781 89.0042 39.7019 89.1192 40.203 89.369C40.7041 89.6187 41.128 89.7338 41.6291 89.9835L40.497 93.3171C40.4395 93.529 40.5939 93.7984 40.8058 93.8559L41.5189 94.1632C41.7308 94.2207 42.0003 94.0663 42.135 93.9891L43.4791 90.7131C43.9802 90.9628 44.4041 91.0779 44.9627 91.1157C45.3866 91.2307 46.0224 91.4032 46.4463 91.5182L45.738 94.9668C45.6805 95.1788 45.8349 95.4482 46.0469 95.5057L46.6827 95.6783C46.8946 95.7358 47.1641 95.5814 47.2216 95.3694L48.1418 91.9784C48.5657 92.0934 49.1243 92.1312 49.6829 92.169C50.2415 92.2068 50.6654 92.3218 51.224 92.3597L51.0743 95.846C51.0168 96.058 51.306 96.2502 51.5179 96.3077L52.2885 96.4031C52.5004 96.4606 52.7699 96.3061 52.8274 96.0942L53.3237 92.5881C53.8823 92.6259 54.4409 92.6637 54.7876 92.644C55.3462 92.6819 55.8276 92.5849 56.3862 92.6228L56.6604 96.2242C56.6029 96.4361 56.8921 96.6284 57.104 96.6859L57.7974 96.6465C58.0093 96.704 58.2016 96.4148 58.2591 96.2029L58.1968 92.659C58.6782 92.5621 59.2368 92.5999 59.7182 92.5029C60.1996 92.406 60.7582 92.4438 61.2396 92.3469L61.9952 95.8514C62.0724 95.9862 62.2269 96.2556 62.4963 96.1012L63.1896 96.0618C63.5363 96.0421 63.5938 95.8302 63.5741 95.4835L63.1652 91.9593C63.6466 91.8624 64.128 91.7654 64.6094 91.6685C65.0908 91.5716 65.5722 91.4747 66.1111 91.1658L67.2708 94.4387C67.3481 94.5734 67.6372 94.7657 67.772 94.6885L68.5228 94.4371C68.7923 94.2827 68.8498 94.0707 68.7726 93.936L67.8822 90.5087C68.3636 90.4118 68.7678 90.1802 69.3839 90.006C69.7881 89.7744 70.4042 89.6003 70.8084 89.3686L72.5843 92.4673C72.6615 92.6021 72.9507 92.7943 73.2202 92.6399L73.8938 92.2538C74.1633 92.0994 74.2208 91.8874 74.1436 91.7527L72.7718 88.4224C73.176 88.1907 73.7149 87.8819 74.1191 87.6502C74.5233 87.4186 75.0622 87.1097 75.4663 86.8781L77.6465 89.7451C77.7237 89.8799 77.9356 89.9374 78.2051 89.783ZM87.0818 57.4906C86.7793 61.9595 85.5716 66.4103 83.5735 70.4191L77.1743 66.7484C78.6153 63.9537 79.478 60.7746 79.7821 57.5577L87.0818 57.4906ZM83.6717 41.5471C85.8534 45.6661 86.9376 50.0562 87.1165 54.4281L79.7395 54.3604C79.5622 51.2404 78.8263 48.0826 77.2623 45.0414L83.5945 41.4123L83.6717 41.5471ZM82.2818 39.122L75.9497 42.751C74.1934 39.9989 71.8408 37.7677 69.1612 35.9028L72.9091 29.6383C76.4561 32.0799 79.6959 35.2346 82.2818 39.122ZM70.1916 28.332L66.5785 34.5193C63.7838 33.0783 60.6047 32.2156 57.3303 32.1235L57.3404 24.9585C61.8668 25.049 66.2404 26.1221 70.1916 28.332ZM54.4126 24.8466L54.4025 32.0116C51.2824 32.1889 48.2018 33.0596 45.2181 34.4116L41.7435 28.3489C45.7278 26.2444 50.1179 25.1602 54.4126 24.8466ZM30.0467 39.169C32.4111 35.4872 35.431 32.3246 39.1836 29.816L42.6583 35.8787C39.9062 37.6349 37.675 39.9876 35.9448 42.59L30.0467 39.169ZM25.1352 54.3335C25.3029 49.9418 26.5879 45.6258 28.4512 41.6942L34.4266 45.2499C32.9856 48.0445 32.1229 51.2237 31.9535 54.3634L25.1352 54.3335ZM28.5256 69.9304C26.5558 65.8689 25.337 61.556 25.2353 57.3188L32.1883 57.2714C32.3656 60.3915 33.2363 63.4721 34.5883 66.4558L28.5256 69.9304ZM39.7292 65.1203C34.6331 56.2283 37.7388 44.7834 46.6308 39.6873C55.5228 34.5912 66.9677 37.6969 72.0638 46.5889C77.16 55.4809 74.0542 66.9257 65.1622 72.0219C56.2702 77.118 44.8254 74.0123 39.7292 65.1203ZM29.9155 72.3555L35.9782 68.8809C37.7344 71.6329 40.0871 73.8642 42.6895 75.5943L39.0763 81.7817C35.3945 79.4173 32.3666 76.3201 29.9155 72.3555ZM41.5243 83.2424L45.1374 77.0551C47.9321 78.4961 51.1112 79.3588 54.2509 79.5281L54.2408 86.6932C49.8491 86.5254 45.4755 85.4523 41.5243 83.2424ZM57.2458 86.9397L57.2559 79.7747C60.3759 79.5974 63.5337 78.8615 66.4402 77.3747L70.0693 83.7069C65.8731 85.7539 61.483 86.838 57.2458 86.9397ZM68.9229 75.7729C71.6749 74.0167 73.9062 71.664 75.6364 69.0616L82.0356 72.7323C79.6712 76.4141 76.5166 79.6539 72.5519 82.1051L68.9229 75.7729Z" fill="#FFD862"/>
<path d="M66.0801 50.2012C62.9143 44.6774 55.9202 42.7795 50.3964 45.9452C44.8726 49.111 42.9746 56.1051 46.1404 61.6289C49.3062 67.1527 56.3002 69.0507 61.8241 65.8849C67.3479 62.7191 69.2458 55.725 66.0801 50.2012ZM48.4308 60.3162C45.9599 56.005 47.5325 50.6292 51.709 48.2356C56.0203 45.7647 61.3961 47.3373 63.7897 51.5138C66.2606 55.8251 64.688 61.2008 60.5114 63.5945C56.3349 65.9881 50.9016 64.6275 48.4308 60.3162Z" fill="#0DECE7"/>
<path d="M66.0792 50.1996L66.002 50.0648L63.7116 51.3775L63.7888 51.5122C66.2597 55.8235 64.6871 61.1993 60.5106 63.5929C56.1993 66.0638 50.8235 64.4912 48.4299 60.3146L48.3527 60.1799L46.0623 61.4926L46.1395 61.6273C49.3053 67.1511 56.2994 69.0491 61.8232 65.8833C67.347 62.7175 69.245 55.7234 66.0792 50.1996Z" fill="#FFBF01"/>
<path d="M50.3939 45.9412C44.8701 49.107 42.9722 56.1011 46.138 61.6249L46.2152 61.7596L48.5056 60.447L48.4283 60.3122C45.9575 56.0009 47.53 50.6252 51.7066 48.2316C56.0179 45.7607 61.3936 47.3333 63.7873 51.5098L63.8645 51.6445L66.1548 50.3319L66.0776 50.1972C62.9118 44.6733 55.9178 42.7754 50.3939 45.9412Z" fill="#FFD862"/>
<path d="M78.2058 89.7843L78.8795 89.3982C79.1489 89.2438 79.2065 89.0318 79.052 88.7624L77.2761 85.6637C77.6803 85.432 78.142 84.9884 78.5462 84.7568C78.9503 84.5251 79.412 84.0816 79.739 83.7152L82.2461 86.2159C82.3233 86.3506 82.67 86.3309 82.8047 86.2537L83.4011 85.7329C83.6706 85.5785 83.6508 85.2318 83.4389 85.1743L81.2013 82.5192C81.5283 82.1528 81.8552 81.7864 82.3941 81.4776C82.7211 81.1112 83.0481 80.7448 83.375 80.3785L86.2091 82.5128C86.2863 82.6475 86.633 82.6278 86.9024 82.4734L87.2869 81.8951C87.3444 81.6832 87.4019 81.4712 87.3247 81.3365L84.6829 78.913C85.0099 78.5466 85.3368 78.1802 85.5866 77.6791C85.9136 77.3128 86.1633 76.8117 86.4903 76.4453L89.5166 78.2905C89.7285 78.348 89.9404 78.4055 90.1327 78.1164L90.5172 77.538C90.5747 77.3261 90.6322 77.1142 90.343 76.9219L87.3743 74.8648C87.624 74.3637 87.951 73.9973 88.2008 73.4962C88.4505 72.9951 88.7775 72.6288 88.8925 72.2049L92.1685 73.549C92.3805 73.6065 92.6499 73.4521 92.7074 73.2401L93.0147 72.5271C93.0722 72.3151 93.0525 71.9685 92.8406 71.911L89.7568 70.2777C90.0065 69.7766 90.1216 69.3527 90.3713 68.8516C90.6211 68.3505 90.7361 67.9266 90.9859 67.4255L94.3769 68.3458C94.5888 68.4033 94.8583 68.2488 94.9158 68.0369L95.0884 67.4011C95.1459 67.1891 94.9914 66.9197 94.7795 66.8622L91.446 65.73C91.561 65.3061 91.7335 64.6703 91.8486 64.2464C91.9636 63.8225 92.0014 63.2639 92.2511 62.7628L95.7573 63.2592C95.9692 63.3167 96.2386 63.1622 96.2189 62.8156L96.3142 62.045C96.3718 61.8331 96.2173 61.5636 96.0054 61.5061L92.5568 60.7978C92.5947 60.2392 92.7096 59.8154 92.7475 59.2568C92.7853 58.6981 92.9003 58.2743 92.9381 57.7156L96.482 57.6534C96.694 57.7109 96.8862 57.4217 96.9437 57.2098L96.9043 56.5164C96.9618 56.3045 96.6727 56.1123 96.4607 56.0547L92.8971 55.7703C92.9349 55.2117 92.838 54.7303 92.8758 54.1717C92.9136 53.6131 92.8167 53.1317 92.7198 52.6503L96.1668 52.1066C96.3787 52.1642 96.571 51.875 96.5513 51.5283L96.5119 50.835C96.5694 50.6231 96.2802 50.4308 96.0683 50.3733L92.6016 50.5703C92.5047 50.0889 92.4078 49.6075 92.3109 49.1261C92.2139 48.6447 92.117 48.1633 92.0201 47.6819L95.3702 46.6569C95.5049 46.5797 95.6972 46.2905 95.62 46.1558L95.3686 45.4049C95.2142 45.1354 95.137 45.0007 94.8675 45.1552L91.363 45.9108C91.2661 45.4294 91.1692 44.948 90.8603 44.4091C90.7634 43.9277 90.5318 43.5235 90.3576 42.9074L93.6108 41.4009C93.7455 41.3237 93.9377 41.0345 93.8605 40.8998L93.6092 40.149C93.4548 39.8795 93.2428 39.822 93.1081 39.8992L89.8352 41.059C89.6036 40.6548 89.4295 40.0387 89.1978 39.6345C88.9662 39.2303 88.6573 38.6914 88.4257 38.2872L91.4472 36.3766C91.5819 36.2994 91.7742 36.0102 91.6198 35.7408C91.5425 35.606 91.4653 35.4713 91.4653 35.4713L85.8068 38.7143C86.1928 39.388 86.5789 40.0616 86.8302 40.8124C87.4677 42.2369 88.1051 43.6614 88.6078 45.1631C89.1105 46.6648 89.4012 48.109 89.7692 49.6879C90.0599 51.1321 90.2931 52.7882 90.2372 54.2521C90.2585 55.8507 90.2026 57.3146 90.0891 58.9905C89.8985 60.5316 89.7078 62.0727 89.3053 63.5563C88.9027 65.0399 88.5001 66.5235 87.8855 67.9495C87.271 69.3756 86.6565 70.8017 85.9647 72.093C85.1382 73.4616 84.4465 74.7529 83.4081 76.064C82.5044 77.2978 81.3888 78.4742 80.4078 79.5733C79.2922 80.7496 78.2341 81.714 76.9641 82.6208C75.694 83.5277 74.4239 84.4346 73.0767 85.2067C71.7294 85.9789 70.3049 86.6163 68.8804 87.2537C67.4559 87.8911 65.9542 88.3938 64.51 88.6845C62.9311 89.0525 61.4869 89.3433 59.9655 89.4993C58.4441 89.6553 56.8455 89.6766 55.2469 89.6979C53.6483 89.7192 52.1072 89.5285 50.7008 89.2606C49.1597 89.07 47.6761 88.6674 46.1925 88.2648C44.7089 87.8622 43.2828 87.2477 41.8568 86.6331C40.4307 86.0186 39.0621 85.1921 37.6935 84.3657C36.325 83.5392 35.0911 82.6355 33.992 81.6546C32.8929 80.6737 31.7166 79.5581 30.675 78.3652C29.6334 77.1724 28.7266 75.9023 27.8197 74.6322C27.4336 73.9586 26.9128 73.3622 26.5267 72.6886L20.8682 75.9316C20.9454 76.0663 21.0226 76.201 21.0226 76.201C21.177 76.4705 21.389 76.528 21.6585 76.3735L24.8344 74.7323C25.066 75.1365 25.3749 75.6754 25.6065 76.0796C25.8382 76.4838 26.2817 76.9455 26.5134 77.3497L23.8582 79.5873C23.7235 79.6645 23.7432 80.0112 23.8204 80.1459L24.3412 80.7423C24.4957 81.0118 24.8423 80.9921 24.8999 80.7801L27.8441 78.7348C28.2105 79.0617 28.4422 79.4659 28.8857 79.9276C29.2521 80.2546 29.4838 80.6587 29.9274 81.1204L27.5038 83.7623C27.3691 83.8395 27.3888 84.1861 27.466 84.3209L27.9868 84.9173C28.1412 85.1867 28.4107 85.0323 28.5455 84.9551L31.1234 82.5828C31.4897 82.9097 31.8561 83.2367 32.2225 83.5636C32.5889 83.8906 32.9552 84.2176 33.3216 84.5446L31.3992 87.4361C31.3417 87.648 31.2841 87.86 31.5733 88.0522L32.1516 88.4367C32.3636 88.4942 32.5755 88.5517 32.8449 88.3973L35.0565 85.698C35.4229 86.025 35.924 86.2747 36.2904 86.6017C36.7915 86.8514 37.1578 87.1784 37.6589 87.4282L36.1029 90.6467C36.0454 90.8586 35.9879 91.0706 36.277 91.2628L36.8553 91.6473C37.0673 91.7048 37.414 91.6851 37.4715 91.4732L39.3166 88.4469C39.8177 88.6966 40.2416 88.8117 40.7427 89.0614C41.2438 89.3112 41.6677 89.4262 42.1688 89.676L41.0367 93.0095C40.9791 93.2214 41.1336 93.4909 41.3455 93.5484L42.0585 93.8557C42.2705 93.9132 42.5399 93.7588 42.6746 93.6816L44.0188 90.4055C44.5199 90.6553 44.9437 90.7703 45.5023 90.8081C45.9262 90.9231 46.5621 91.0957 46.9859 91.2107L46.2777 94.6593C46.2201 94.8712 46.3746 95.1407 46.5865 95.1982L47.2223 95.3707C47.4343 95.4282 47.7038 95.2738 47.7613 95.0618L48.6815 91.6708C49.1053 91.7858 49.664 91.8236 50.2226 91.8614C50.7812 91.8993 51.2051 92.0143 51.7637 92.0521L51.614 95.5385C51.5565 95.7504 51.8456 95.9427 52.0576 96.0002L52.8282 96.0955C53.0401 96.153 53.3096 95.9986 53.3671 95.7867L53.8634 92.2806C54.422 92.3184 54.9806 92.3562 55.3273 92.3365C55.8859 92.3743 56.3673 92.2774 56.9259 92.3152L57.2001 95.9166C57.1426 96.1285 57.4318 96.3208 57.6437 96.3783L58.3371 96.3389C58.549 96.3964 58.7412 96.1073 58.7987 95.8953L58.7365 92.3514C59.2179 92.2545 59.7765 92.2923 60.2579 92.1954C60.7393 92.0985 61.2979 92.1363 61.7793 92.0394L62.5349 95.5439C62.6121 95.6786 62.7665 95.9481 63.036 95.7937L63.7293 95.7542C64.076 95.7345 64.1335 95.5226 64.1138 95.176L63.7049 91.6517C64.1863 91.5548 64.6676 91.4579 65.149 91.361C65.6304 91.2641 66.1118 91.1672 66.6508 90.8583L67.8105 94.1311C67.8878 94.2659 68.1769 94.4581 68.3116 94.3809L69.0625 94.1296C69.3319 93.9752 69.3895 93.7632 69.3123 93.6285L68.4219 90.2012C68.9033 90.1043 69.3075 89.8726 69.9236 89.6985C70.3278 89.4669 70.9439 89.2927 71.3481 89.0611L73.124 92.1598C73.2012 92.2945 73.4904 92.4868 73.7599 92.3324L74.4335 91.9463C74.7029 91.7919 74.7604 91.5799 74.6832 91.4452L73.3115 88.1148C73.7157 87.8832 74.2546 87.5743 74.6588 87.3427C75.063 87.111 75.6019 86.8022 76.006 86.5705L78.1861 89.4376C77.7244 89.8812 77.9364 89.9387 78.2058 89.7843Z" fill="#FFBF01"/>
<path d="M87.3658 37.9997L87.2886 37.865L85.1329 39.1004L83.112 40.2586L72.1991 46.513C77.2952 55.405 74.1895 66.8499 65.2975 71.946C56.4055 77.0421 44.9607 73.9364 39.8645 65.0444L29.2211 71.1443L26.796 72.5342L24.9098 73.6152L24.987 73.7499C34.8704 90.995 56.9124 96.9764 74.1575 87.093C91.2678 77.2868 97.2492 55.2448 87.3658 37.9997ZM79.6825 54.5737C79.5052 51.4537 78.7693 48.2959 77.2053 45.2547L83.6722 41.5484C85.8539 45.6674 86.9381 50.0575 87.117 54.4295L79.6825 54.5737ZM29.916 72.3568L35.9787 68.8822C37.735 71.6343 40.0876 73.8655 42.69 75.5957L39.0768 81.783C35.395 79.4186 32.3672 76.3215 29.916 72.3568ZM41.5248 83.2437L45.138 77.0564C47.9326 78.4974 51.1117 79.3601 54.2515 79.5295L54.2413 86.6945C49.8496 86.5267 45.4761 85.4537 41.5248 83.2437ZM57.2463 86.9411L57.2565 79.7761C60.3765 79.5988 63.5343 78.8628 66.4408 77.3761L70.0699 83.7083C65.8736 85.7552 61.4836 86.8394 57.2463 86.9411ZM72.6297 82.2412L69.0006 75.909C71.7527 74.1528 73.984 71.8001 75.7141 69.1977L82.1134 72.8684C79.749 76.5502 76.5943 79.79 72.6297 82.2412ZM77.0976 66.615C78.5386 63.8204 79.4013 60.6413 79.7054 57.4243L87.0824 57.492C86.7799 61.9609 85.5721 66.4117 83.5741 70.4204L77.0976 66.615Z" fill="#FFBF01"/>
</svg>
