<svg width="80" height="81" viewBox="0 0 80 81" fill="none" xmlns="http://www.w3.org/2000/svg">
<path d="M13.8271 52.4364C13.2743 51.3578 12.7611 50.0703 12.4568 48.8224C12.3271 48.3651 12.5306 47.8627 12.9879 47.733C14.0269 47.3891 15.1902 46.9605 16.2292 46.6166C15.9699 45.7018 15.8348 44.7024 15.5755 43.7877C15.4404 42.7883 15.39 41.9132 15.2549 40.9138C14.0863 40.8004 13.0023 40.8112 11.8336 40.6977C11.4159 40.6185 11.0377 40.3304 11.0323 39.7884C11.0611 38.4955 11.0899 37.2026 11.3276 35.9493C11.3222 35.4073 11.8192 35.0688 12.2369 35.148C13.4056 35.2615 14.5742 35.3749 15.6186 35.573C15.8167 34.5286 15.9751 33.693 16.2578 32.7729C16.5405 31.8527 16.8232 30.9326 17.3148 30.052C16.2254 29.5208 15.3449 29.0293 14.2554 28.4981C13.8377 28.4188 13.7476 27.7526 13.9511 27.2502C14.4823 26.1608 15.1377 24.9867 15.8778 23.9369C16.1659 23.5588 16.7476 23.3445 17.1257 23.6326C18.0909 24.2484 19.056 24.8642 20.0212 25.4801C20.5974 24.7238 21.1736 23.9675 21.8345 23.3354C22.4953 22.7034 23.2804 21.9867 23.9413 21.3547C23.2642 20.3607 22.6718 19.491 21.8705 18.5816C21.6166 18.2089 21.6958 17.7911 22.1081 17.3283C23.0175 16.527 24.1357 15.7653 25.2143 15.2125C25.587 14.9586 26.2137 15.0774 26.4676 15.4502C27.1447 16.4442 27.7371 17.3139 28.2899 18.3925C29.12 18.0089 30.0744 17.5407 30.9045 17.1572C31.7346 16.7736 32.6494 16.5143 33.5641 16.255C33.3444 15.1314 33.1247 14.0078 32.905 12.8841C32.7754 12.4268 33.0635 12.0486 33.6451 11.8343C34.893 11.53 36.1012 11.4346 37.4337 11.2545C37.9757 11.2491 38.3539 11.5372 38.4835 11.9946C38.7032 13.1182 38.7987 14.3264 38.8095 15.4105C39.6846 15.36 40.7686 15.3492 41.7284 15.423C42.6882 15.4969 43.6479 15.5707 44.5681 15.8534C44.8904 14.7243 45.2127 13.5953 45.4108 12.5509C45.49 12.1331 45.987 11.7946 46.4894 11.9981C47.7427 12.2358 48.9563 12.6823 50.17 13.1289C50.6724 13.3324 51.0109 13.8293 50.7228 14.2075C50.4005 15.3365 49.9936 16.3413 49.6712 17.4703C50.4672 17.8377 51.4719 18.2446 52.2282 18.8208C53.1088 19.3124 53.8651 19.8886 54.6214 20.4648C55.3218 19.6239 56.1465 18.6983 56.847 17.8574C57.1351 17.4793 57.6771 17.4739 58.0552 17.762C58.9808 18.5867 59.9064 19.4114 60.9166 20.3603C61.2947 20.6484 61.3847 21.3147 61.012 21.5686C60.3115 22.4095 59.4022 23.2108 58.6171 23.9275C59.2492 24.5884 59.8416 25.4581 60.3494 26.2036C60.8572 26.9491 61.4496 27.8188 61.8332 28.6489C62.7876 28.1807 63.9508 27.7521 64.9052 27.284C65.2779 27.0301 65.7803 27.2335 65.9946 27.8151C66.5474 28.8937 67.0606 30.1812 67.3649 31.4291C67.4946 31.8865 67.2911 32.3889 66.8337 32.5185C65.7947 32.8625 64.6315 33.291 63.5925 33.635C63.8518 34.5497 63.9869 35.5491 64.2462 36.4639C64.3812 37.4632 64.4317 38.3384 64.5667 39.3378C65.7354 39.4512 66.8194 39.4404 67.988 39.5538C68.4058 39.633 68.7839 39.9211 68.7893 40.4631C68.7605 41.756 68.6471 42.9247 68.4941 44.3022C68.4995 44.8442 68.0025 45.1827 67.5847 45.1035C66.4161 44.9901 65.2474 44.8767 64.203 44.6786C64.005 45.723 63.8465 46.5585 63.5638 47.4787C63.2811 48.3988 62.9984 49.319 62.5069 50.1995C63.5963 50.7307 64.4768 51.2223 65.5662 51.7535C65.984 51.8327 66.074 52.499 65.8706 53.0013C65.3394 54.0908 64.6839 55.2648 63.9439 56.3146C63.6558 56.6928 63.0741 56.9071 62.696 56.619C61.7308 56.0031 60.7656 55.3873 59.8005 54.7715C59.2243 55.5278 58.648 56.2841 57.9872 56.9161C57.3263 57.5482 56.5412 58.2649 55.8804 58.8969C56.5575 59.8909 57.1499 60.7606 57.9512 61.6699C58.2051 62.0427 58.1259 62.4604 57.7135 62.9232C56.8042 63.7245 55.686 64.4862 54.6074 65.039C54.1104 65.3776 53.608 65.1741 53.3541 64.8014C52.677 63.8074 52.0846 62.9377 51.5318 61.8591C50.7017 62.2426 49.7473 62.7108 48.9172 63.0944C48.0871 63.4779 47.1723 63.7372 46.2576 63.9965C46.4773 65.1202 46.697 66.2438 46.9167 67.3674C47.0463 67.8248 46.7582 68.2029 46.1766 68.4172C44.9287 68.7215 43.7205 68.817 42.3879 68.9971C41.8459 69.0025 41.4678 68.7144 41.3381 68.257C41.1184 67.1334 41.023 65.9251 41.0122 64.8411C40.1371 64.8915 39.053 64.9023 38.0933 64.8285C37.1335 64.7547 36.1737 64.6809 35.2536 64.3982C34.9313 65.5272 34.609 66.6562 34.4109 67.7006C34.3317 68.1184 33.8347 68.4569 33.3323 68.2535C32.079 68.0158 30.8653 67.5692 29.6517 67.1227C29.1493 66.9192 28.8107 66.4222 29.0989 66.0441C29.4212 64.915 29.8281 63.9102 30.1504 62.7812C29.3545 62.4139 28.3497 62.0069 27.5934 61.4307C26.7129 60.9391 25.9566 60.3629 25.2003 59.7867C24.4999 60.6276 23.6751 61.5532 22.9747 62.3941C22.6866 62.7723 22.1446 62.7777 21.7664 62.4896C20.8409 61.6649 19.9153 60.8402 18.9051 59.8912C18.527 59.6031 18.4369 58.9368 18.8097 58.6829C19.5101 57.842 20.4195 57.0407 21.2046 56.324C20.5725 55.6632 19.9801 54.7935 19.4723 54.048C18.9645 53.3025 18.372 52.4328 17.9885 51.6026C17.0341 52.0708 15.8709 52.4994 14.9165 52.9676C14.4592 53.0972 13.9568 52.8938 13.8271 52.4364ZM38.9214 43.3463C39.6327 43.5894 40.3836 43.6236 41.1741 43.4489C42.5462 43.06 43.659 41.7563 43.6428 40.1302C43.7112 38.6285 42.6956 37.1375 41.3577 36.7756C39.9351 36.2894 38.2299 36.7234 37.3656 37.8578C36.829 38.4052 36.5859 39.1165 36.6363 39.9917C36.6021 40.7425 36.901 41.4484 37.3242 42.0696C37.5385 42.6513 38.2101 43.1032 38.9214 43.3463Z" fill="#E6B219"/>
<path d="M26.5115 15.2398C27.1886 16.2338 27.781 17.1035 28.3338 18.1821C29.164 17.7986 30.1183 17.3304 30.9484 16.9468C31.7785 16.5633 32.6933 16.304 33.608 16.0447C33.3883 14.921 33.1687 13.7974 32.949 12.6738C32.8193 12.2164 33.1074 11.8383 33.689 11.624C34.9369 11.3197 36.1452 11.2242 37.4777 11.0441C38.0197 11.0387 38.3978 11.3268 38.5275 11.7842C38.7472 12.9078 38.8426 14.1161 38.8534 15.2001C39.7286 15.1497 40.8126 15.1389 41.7724 15.2127C42.7321 15.2865 43.6919 15.3603 44.612 15.643C44.9344 14.514 45.2567 13.3849 45.4547 12.3405C45.534 11.9228 46.0309 11.5843 46.5333 11.7877C47.7866 12.0254 49.0003 12.472 50.214 12.9185C50.7164 13.122 51.0549 13.619 50.7668 13.9971C50.4445 15.1262 50.0375 16.1309 49.7152 17.26C50.5111 17.6273 51.5159 18.0343 52.2722 18.6105C53.1527 19.1021 53.909 19.6783 54.6653 20.2545C55.3658 19.4135 56.1905 18.488 56.8909 17.6471C57.1791 17.2689 57.7211 17.2635 58.0992 17.5516C59.0248 18.3763 59.9503 19.201 60.9605 20.15C61.3387 20.4381 61.4287 21.1043 61.056 21.3582C60.3555 22.1992 59.4462 23.0005 58.6611 23.7172C59.2931 24.378 59.8856 25.2477 60.3934 25.9932C60.9012 26.7387 61.4936 27.6084 61.8772 28.4385C62.8315 27.9703 63.9948 27.5418 64.9491 27.0736C65.3219 26.8197 65.8242 27.0232 66.0385 27.6048C66.5914 28.6834 67.1046 29.9709 67.4089 31.2187C67.5386 31.6761 67.3351 32.1785 66.8777 32.3082C65.8387 32.6521 64.6755 33.0807 63.6365 33.4246C63.8958 34.3394 64.0308 35.3387 64.2901 36.2535C64.4252 37.2529 64.4756 38.128 64.6107 39.1274C65.7793 39.2408 66.8633 39.23 68.032 39.3434C68.4498 39.4227 68.8279 39.7108 68.8333 40.2528C68.8045 41.5457 68.6911 42.7143 68.538 44.0919C68.5434 44.6339 68.0465 44.9724 67.6287 44.8932C66.4601 44.7797 65.2914 44.6663 64.247 44.4682C64.1732 45.428 63.8905 46.3482 63.6078 47.2683C63.3251 48.1885 63.0424 49.1086 62.5508 49.9892C63.6402 50.5204 64.5208 51.0119 65.6102 51.5431C66.0279 51.6223 66.118 52.2886 65.9145 52.791C65.3833 53.8804 64.7279 55.0545 63.9878 56.1043C63.6997 56.4824 63.1181 56.6967 62.7399 56.4086C61.7748 55.7928 60.8096 55.177 59.8444 54.5611C59.2682 55.3174 58.692 56.0737 58.0311 56.7058C57.3703 57.3378 56.5852 58.0545 55.9243 58.6865C56.6014 59.6805 57.1939 60.5502 57.9952 61.4596C58.2491 61.8323 58.1698 62.2501 57.7575 62.7129C57.2605 63.0514 56.7635 63.3899 56.1423 63.8131L51.4028 56.8553C52.6453 56.0089 53.8031 55.0384 54.8763 53.9435C57.0227 51.7539 58.4975 49.1122 59.3852 46.1429C60.2729 43.1736 60.5339 40.0854 60.0045 37.1719C59.5993 34.1737 58.4037 31.3503 56.6264 28.7411C54.9337 26.2562 52.6198 24.1944 50.0178 22.5108C47.3762 21.036 44.4068 20.1483 41.4429 19.8026C38.3547 19.5416 35.3565 19.9467 32.5331 21.1424C31.1213 21.7403 29.7942 22.4624 28.5518 23.3087L23.643 16.1024C24.14 15.7638 24.637 15.4253 25.2582 15.0021C25.8399 14.7879 26.2576 14.8671 26.5115 15.2398Z" fill="#FFBF01"/>
<path d="M41.38 21.8442C44.0504 22.0261 46.8109 22.8742 49.159 24.185C51.5071 25.4959 53.5275 27.3938 55.1355 29.7545C56.6589 31.991 57.6853 34.5659 58.1301 37.3552C58.4903 40.0202 58.2688 42.8995 57.4603 45.4511C56.6519 48.0027 55.2167 50.4354 53.3188 52.4558C52.3699 53.466 51.3363 54.3519 50.2181 55.1136L49.1178 53.4984C50.1118 52.8214 51.0212 52.02 51.8459 51.0945C53.4953 49.2434 54.7665 47.1041 55.5354 44.7614C56.3043 42.4187 56.4465 39.9572 56.0467 37.5011C55.647 35.0449 54.7898 32.7184 53.4357 30.7305C52.0815 28.7425 50.1458 26.9689 48.0912 25.8219C45.952 24.5506 43.485 23.8664 41.1477 23.6395C38.6862 23.4973 36.2301 23.897 33.9036 24.7542C32.7403 25.1828 31.6617 25.7356 30.6677 26.4127L29.5675 24.7974C30.6857 24.0357 31.8886 23.3983 33.1761 22.8851C35.9203 22.1072 38.7096 21.6624 41.38 21.8442Z" fill="#FFBF01"/>
<path d="M32.858 28.5605C32.6041 28.1878 32.9318 27.6008 33.6377 27.3018C35.2979 26.5347 36.9185 25.9765 38.6688 25.8756C39.335 25.7856 39.9221 26.1133 40.0517 26.5707C40.1472 27.779 40.2822 28.7783 40.3777 29.9866C41.4617 29.9758 42.5061 30.1739 43.6351 30.4962C44.6399 30.9031 45.7293 31.4343 46.5702 32.1348C47.2707 31.2938 48.18 30.4925 48.9651 29.7758C49.2532 29.3977 49.8799 29.5165 50.4273 30.0531C51.6914 31.3748 52.6223 32.7415 53.3895 34.4018C53.6884 35.1076 53.5695 35.7343 53.1122 35.8639C52.0336 36.4168 50.9946 36.7607 50.0402 37.2289C50.3842 38.2679 50.4796 39.4761 50.4904 40.5601C50.5012 41.6442 50.1789 42.7732 49.772 43.778C50.8614 44.3092 51.8662 44.7161 52.8313 45.3319C53.2491 45.4112 53.3391 46.0774 52.9718 46.8733C52.2372 48.4651 51.0001 49.8535 49.8026 51.0329C49.266 51.5804 48.5152 51.5462 48.3459 51.2977C47.5446 50.3883 46.8279 49.6032 46.0266 48.6939L45.9023 48.7785L43.3633 45.0511C43.8603 44.7126 44.2727 44.2498 44.685 43.787C45.3855 42.9461 45.832 41.7324 45.8608 40.4395C45.9743 39.2709 45.5457 38.1077 44.8686 37.1137C44.1916 36.1197 43.1418 35.3796 42.137 34.9727C41.0079 34.6504 39.8393 34.537 38.5914 34.8413C38.0098 35.0556 37.4282 35.2699 36.9312 35.6084L34.3922 31.881L34.5164 31.7964C33.879 30.5935 33.4108 29.6391 32.858 28.5605Z" fill="#FFBF01"/>
<path d="M32.2401 51.2448C32.8559 50.2796 33.3871 49.1902 34.0029 48.225C33.162 47.5245 32.3211 46.8241 31.644 45.8301C31.0516 44.9604 30.4988 43.8818 30.2791 42.7582C29.1555 42.9778 28.0318 43.1975 26.8236 43.293C26.3662 43.4226 25.9034 43.0103 25.853 42.1352C25.5433 40.3453 25.6513 38.6346 25.9682 36.9636C26.2113 36.2523 26.6236 35.7895 27.0414 35.8688C28.0858 36.0668 29.3391 36.3045 30.4681 36.6268C30.8751 35.622 31.282 34.6172 31.9824 33.7763C32.6829 32.9354 33.468 32.2187 34.3377 31.6263L36.8767 35.3537C36.3797 35.6922 35.9674 36.155 35.555 36.6178C34.8546 37.4587 34.408 38.6724 34.3792 39.9653C34.2658 41.1339 34.6944 42.2971 35.3714 43.2911C36.0485 44.2851 37.0983 45.0252 38.1031 45.4321C39.2321 45.7544 40.4008 45.8678 41.6487 45.5635C42.2303 45.3492 42.8119 45.1349 43.3089 44.7964L45.8479 48.5238C44.9781 49.1162 44.0238 49.5844 42.9848 49.9284C41.9458 50.2723 40.7375 50.3678 39.7778 50.2939C39.6644 51.4626 39.4663 52.507 39.2286 53.7603C39.1494 54.178 38.6524 54.5166 37.8169 54.3581C36.1458 54.0412 34.4298 53.3912 32.9622 52.5719C32.2509 52.3288 31.952 51.6229 32.2401 51.2448Z" fill="#FFD455"/>
<path d="M22.6093 34.6289C23.4178 32.0773 24.8529 29.6445 26.7508 27.6241C27.6998 26.6139 28.7333 25.728 29.8516 24.9663L30.9518 26.5815C29.9578 27.2586 29.0485 28.0599 28.2238 28.9855C26.5744 30.8366 25.3031 32.9758 24.5342 35.3185C23.7653 37.6612 23.6231 40.1227 24.0229 42.5789C24.4227 45.035 25.2798 47.3615 26.6339 49.3494C27.9881 51.3374 29.9238 53.111 31.9784 54.2581C34.1177 55.5293 36.5846 56.2136 38.9219 56.4404C41.3834 56.5827 43.8396 56.1829 46.166 55.3257C47.3293 54.8972 48.4079 54.3443 49.4019 53.6673L50.5021 55.2825C49.3839 56.0442 48.181 56.6816 46.8936 57.1948C44.3186 58.2212 41.6536 58.5814 38.8589 58.4842C36.1885 58.3024 33.428 57.4543 31.0799 56.1434C28.7318 54.8325 26.7114 52.9346 25.1034 50.5739C23.58 48.3375 22.5536 45.7625 22.1088 42.9732C21.5793 40.0597 21.8008 37.1804 22.6093 34.6289Z" fill="#FFD455"/>
<path d="M18.8939 58.8059C19.5944 57.965 20.5037 57.1637 21.2888 56.447C20.6568 55.7861 20.0643 54.9164 19.5565 54.1709C19.0487 53.4255 18.4563 52.5557 18.0728 51.7256C17.1184 52.1938 15.9552 52.6224 15.0008 53.0906C14.6281 53.3445 14.1257 53.141 13.9114 52.5594C13.3585 51.4808 12.8453 50.1933 12.541 48.9454C12.4114 48.488 12.6148 47.9856 13.0722 47.856C14.1112 47.512 15.2744 47.0835 16.3134 46.7395C16.0541 45.8248 15.9191 44.8254 15.6598 43.9107C15.5247 42.9113 15.4743 42.0361 15.3392 41.0368C14.1706 40.9233 13.0866 40.9342 11.9179 40.8207C11.5001 40.7415 11.122 40.4534 11.1166 39.9114C11.1454 38.6185 11.2588 37.4498 11.4119 36.0723C11.4065 35.5303 11.9035 35.1918 12.3212 35.271C13.4899 35.3844 14.6585 35.4979 15.7029 35.6959C15.901 34.6515 16.0594 33.816 16.3421 32.8959C16.6248 31.9757 16.9075 31.0555 17.3991 30.175C16.3097 29.6438 15.4291 29.1522 14.3397 28.621C13.9219 28.5418 13.8319 27.8756 14.0354 27.3732C14.5666 26.2838 15.222 25.1097 15.9621 24.0599C16.2502 23.6817 16.8318 23.4674 17.21 23.7556C18.1751 24.3714 19.1403 24.9872 20.1055 25.603C20.6817 24.8467 21.2579 24.0904 21.9188 23.4584C22.5796 22.8263 23.3647 22.1097 24.0255 21.4776C23.3485 20.4837 22.7561 19.6139 21.9547 18.7046C21.7008 18.3318 21.7801 17.9141 22.1924 17.4513C22.6894 17.1128 23.1864 16.7742 23.8076 16.3511L28.5471 23.3089C27.3046 24.1552 26.1468 25.1258 25.0736 26.2206C22.9272 28.4103 21.4525 31.0519 20.5647 34.0212C19.677 36.9906 19.416 40.0788 19.9454 42.9923C20.3506 45.9904 21.5463 48.8139 23.3236 51.4231C25.0162 53.908 27.3301 55.9698 29.9321 57.6534C32.5738 59.1281 35.5431 60.0158 38.507 60.3615C41.5952 60.6226 44.5933 60.2174 47.4168 59.0217C48.8285 58.4239 50.1556 57.7018 51.3981 56.8555L56.3069 64.0618C55.8099 64.4003 55.3129 64.7389 54.6916 65.162C54.3189 65.4159 53.6923 65.2971 53.4384 64.9243C52.7613 63.9304 52.1689 63.0606 51.616 61.982C50.7859 62.3656 49.8316 62.8338 49.0015 63.2173C48.1713 63.6009 47.2566 63.8602 46.3418 64.1195C46.5615 65.2431 46.7812 66.3667 47.0009 67.4904C47.1306 67.9477 46.8425 68.3259 46.2609 68.5402C45.013 68.8445 43.8047 68.94 42.4722 69.12C41.9302 69.1254 41.5521 68.8373 41.4224 68.38C41.2027 67.2563 41.1073 66.0481 41.0965 64.9641C40.2213 65.0145 39.1373 65.0253 38.1775 64.9515C37.2178 64.8777 36.258 64.8038 35.3379 64.5211C35.0155 65.6502 34.6932 66.7792 34.4952 67.8236C34.4159 68.2414 33.919 68.5799 33.4166 68.3764C32.1633 68.1388 30.9496 67.6922 29.7359 67.2456C29.2335 67.0422 28.895 66.5452 29.1831 66.167C29.5054 65.038 29.9124 64.0332 30.2347 62.9042C29.4388 62.5368 28.434 62.1299 27.6777 61.5537C26.7972 61.0621 26.0409 60.4859 25.2846 59.9097C24.5841 60.7506 23.7594 61.6762 23.059 62.5171C22.7708 62.8952 22.2288 62.9006 21.8507 62.6125C20.9251 61.7878 19.9996 60.9631 18.9894 60.0142C18.5266 59.6018 18.5212 59.0598 18.8939 58.8059Z" fill="#FFD453"/>
</svg>
