<svg width="22" height="22" viewBox="0 0 22 22" fill="none" xmlns="http://www.w3.org/2000/svg">
<path d="M6.7539 11.514C6.39632 12.217 6.80232 12.553 7.72865 13.127C8.51615 13.6135 9.60407 13.7914 10.3029 13.8625C10.0165 14.1379 11.329 12.8755 7.54899 16.5115C6.74749 17.2797 8.03782 18.5123 8.83874 17.7604L11.007 15.6691C11.8371 16.4677 12.6327 17.233 13.1752 17.7633C13.9767 18.5181 15.2665 17.296 14.4737 16.5144C14.4142 16.4578 11.5355 13.6963 11.7111 13.8655C12.4187 13.7943 13.4902 13.6059 14.2684 13.1299L14.2678 13.1293C15.1942 12.5524 15.6002 12.217 15.2478 11.514C15.0349 11.115 14.4609 10.7814 13.6967 11.3583C13.6967 11.3583 12.6648 12.1487 11.0006 12.1487C9.33574 12.1487 8.3044 11.3583 8.3044 11.3583C7.54082 10.7785 6.96449 11.115 6.7539 11.514Z" fill="white"/>
<path d="M10.9996 11.0828C13.0284 11.0828 14.6851 9.49733 14.6851 7.5455C14.6851 5.5855 13.0284 4 10.9996 4C8.97014 4 7.31348 5.5855 7.31348 7.5455C7.31348 9.49733 8.97014 11.0828 10.9996 11.0828ZM10.9996 5.79608C11.9965 5.79608 12.8096 6.57833 12.8096 7.5455C12.8096 8.5045 11.9965 9.28675 10.9996 9.28675C10.0026 9.28675 9.18948 8.5045 9.18948 7.5455C9.18889 6.57775 10.0021 5.79608 10.9996 5.79608Z" fill="white"/>
<path d="M15.9286 0H6.07104C2.72347 0 0 2.7236 0 6.07117V15.9287C0 19.2764 2.72347 21.9999 6.07104 21.9999H15.9286C19.2764 21.9999 21.9999 19.2763 21.9999 15.9287V6.07117C22 2.7236 19.2764 0 15.9286 0ZM20.0481 15.9287C20.0481 18.2001 18.2001 20.0479 15.9287 20.0479H6.07104C3.79977 20.0481 1.95193 18.2001 1.95193 15.9287V6.07117C1.95193 3.7999 3.79977 1.95193 6.07104 1.95193H15.9286C18.2 1.95193 20.0479 3.7999 20.0479 6.07117V15.9287H20.0481Z" fill="white"/>
</svg>
