<svg width="26" height="26" viewBox="0 0 26 26" fill="none" xmlns="http://www.w3.org/2000/svg">
<path d="M22.1915 3.80574C17.1139 -1.2703 8.88276 -1.26909 3.80671 3.80853C-1.26933 8.88615 -1.26811 17.1173 3.80951 22.1933C8.88713 27.2694 17.1183 27.2681 22.1943 22.1905C24.6321 19.752 26.0013 16.4448 26.0005 12.9967C25.9998 9.5492 24.6297 6.24314 22.1915 3.80574ZM19.6886 18.1084C19.688 18.1089 19.6874 18.1095 19.6868 18.1101V18.1058L19.0281 18.7601C18.1763 19.6227 16.9356 19.9776 15.7565 19.6961C14.5684 19.3781 13.4391 18.8719 12.4111 18.1968C11.4561 17.5864 10.5711 16.873 9.77214 16.0691C9.03698 15.3393 8.37652 14.538 7.80046 13.6771C7.17036 12.7508 6.67164 11.7416 6.31846 10.6784C5.91358 9.42941 6.24909 8.05887 7.18514 7.1381L7.95646 6.36679C8.17091 6.15137 8.51937 6.15061 8.73473 6.36506C8.73529 6.36562 8.7359 6.36618 8.73646 6.36679L11.1718 8.8021C11.3872 9.01655 11.3879 9.36502 11.1735 9.58038C11.1729 9.58094 11.1724 9.5815 11.1718 9.5821L9.74177 11.0121C9.33146 11.4179 9.27987 12.0629 9.62046 12.5288C10.1377 13.2386 10.71 13.9065 11.3321 14.5265C12.0258 15.2231 12.7798 15.8568 13.5855 16.4202C14.051 16.7448 14.6821 16.6901 15.0848 16.2902L16.4671 14.8862C16.6815 14.6707 17.03 14.67 17.2454 14.8844C17.2459 14.885 17.2465 14.8855 17.2471 14.8862L19.6868 17.3302C19.9022 17.5446 19.903 17.893 19.6886 18.1084Z" fill="#FF4249"/>
</svg>
