<svg width="80" height="80" viewBox="0 0 80 80" fill="none" xmlns="http://www.w3.org/2000/svg">
<path d="M79.7595 23.5083C79.5648 19.2505 78.8885 16.3428 77.8998 13.7988C76.8958 11.1298 75.321 8.71216 73.2861 6.71387C71.2885 4.67896 68.8702 3.10364 66.2012 2.099C63.6566 1.11084 60.7495 0.435181 56.4917 0.241699C52.226 0.0463867 50.863 0 40 0C29.137 0 27.774 0.0463867 23.5083 0.240478C19.2505 0.435181 16.3434 1.11145 13.7988 2.10022C11.1298 3.10425 8.71216 4.67896 6.71387 6.71387C4.67896 8.71155 3.10364 11.1292 2.099 13.7982C1.11084 16.3428 0.435181 19.2505 0.241699 23.5077C0.0463867 27.774 0 29.1364 0 39.9994C0 50.863 0.0463867 52.226 0.241699 56.4917C0.435791 60.7489 1.11206 63.6566 2.10083 66.2012C3.10486 68.8696 4.67957 71.2878 6.71448 73.2855C8.71216 75.3204 11.1304 76.8951 13.7994 77.8992C16.3434 78.8885 19.2511 79.5642 23.5089 79.7589C27.7753 79.9536 29.1376 79.9994 40.0006 79.9994C50.8636 79.9994 52.2266 79.9536 56.4923 79.7589C60.7501 79.5642 63.6572 78.8885 66.2018 77.8992C71.5747 75.8215 75.8221 71.5741 77.8998 66.2012C78.8892 63.6566 79.5648 60.7489 79.7595 56.4917C79.9536 52.2253 80 50.863 80 40C80 29.1364 79.9536 27.774 79.7595 23.5083ZM72.5592 56.1639C72.3816 60.0641 71.7297 62.182 71.1823 63.5913C69.8364 67.0801 67.0795 69.837 63.5907 71.1829C62.1814 71.7303 60.0635 72.3822 56.1633 72.5598C51.9464 72.7527 50.6812 72.793 40 72.793C29.3182 72.793 28.0536 72.7527 23.8361 72.5598C19.9365 72.3822 17.8186 71.7303 16.4087 71.1829C14.6716 70.5414 13.1 69.519 11.8097 68.1903C10.481 66.9 9.45862 65.329 8.81714 63.5913C8.26965 62.182 7.6178 60.0641 7.44019 56.1639C7.24792 51.9464 7.20703 50.6812 7.20703 40.0006C7.20703 29.3195 7.24792 28.0548 7.44019 23.8367C7.61841 19.9365 8.26965 17.8186 8.81714 16.4093C9.45862 14.6716 10.4816 13.1 11.8097 11.8097C13.1 10.481 14.6716 9.45862 16.4093 8.81775C17.8186 8.26965 19.9365 7.61841 23.8367 7.44019C28.0542 7.24792 29.3195 7.20703 40 7.20703H39.9994C50.6799 7.20703 51.9452 7.24792 56.1633 7.4408C60.0635 7.61841 62.1808 8.27026 63.5907 8.81775C65.3278 9.45923 66.8994 10.4816 68.1897 11.8097C69.5184 13.1 70.5408 14.6716 71.1816 16.4093C71.7297 17.8186 72.3816 19.9365 72.5592 23.8367C72.7515 28.0542 72.7924 29.3195 72.7924 40C72.7924 50.6812 72.7521 51.9458 72.5592 56.1639Z" fill="url(#paint0_linear)"/>
<path d="M39.9994 19.4592C28.6554 19.4592 19.4592 28.656 19.4592 40C19.4592 51.344 28.6554 60.5402 39.9994 60.5402C51.344 60.5402 60.5402 51.344 60.5402 40C60.5402 28.656 51.344 19.4592 39.9994 19.4592ZM39.9994 53.3331C32.6361 53.3325 26.6663 47.3633 26.6669 39.9994C26.6669 32.6361 32.6361 26.6663 40 26.6663C47.3639 26.6669 53.3331 32.6361 53.3331 39.9994C53.3331 47.3633 47.3633 53.3331 39.9994 53.3331Z" fill="url(#paint1_linear)"/>
<path d="M66.1517 18.6481C66.1517 21.2988 64.0027 23.4479 61.3519 23.4479C58.7006 23.4479 56.5515 21.2988 56.5515 18.6481C56.5515 15.9967 58.7006 13.8477 61.3519 13.8477C64.0027 13.8477 66.1517 15.9967 66.1517 18.6481Z" fill="url(#paint2_linear)"/>
<rect x="0.5" y="0.5" width="79" height="79" stroke="white"/>
<defs>
<linearGradient id="paint0_linear" x1="6.71346" y1="73.2859" x2="73.2865" y2="6.71282" gradientUnits="userSpaceOnUse">
<stop stop-color="#FFD600"/>
<stop offset="0.5" stop-color="#FF0100"/>
<stop offset="1" stop-color="#D800B9"/>
</linearGradient>
<linearGradient id="paint1_linear" x1="25.4755" y1="54.524" x2="54.524" y2="25.4755" gradientUnits="userSpaceOnUse">
<stop stop-color="#FF6400"/>
<stop offset="0.5" stop-color="#FF0100"/>
<stop offset="1" stop-color="#FD0056"/>
</linearGradient>
<linearGradient id="paint2_linear" x1="57.9577" y1="22.0418" x2="64.7457" y2="15.2538" gradientUnits="userSpaceOnUse">
<stop stop-color="#F30072"/>
<stop offset="1" stop-color="#E50097"/>
</linearGradient>
</defs>
</svg>
