<svg width="2078" height="1115" viewBox="0 0 2078 1115" fill="none" xmlns="http://www.w3.org/2000/svg">
<path d="M446.095 97.8334C418.588 32.1582 343.57 0.384728 294.057 8.14891C244.544 15.9131 156.523 49.5823 99.5088 235.613C99.6486 278.109 66.0004 -34.9774 66.0003 39.3326L66.0003 737.334C274.052 679.936 246.045 873.655 293.057 959.317C340.068 1044.98 440.593 1074.63 592.631 1025.43C782.679 963.93 902.709 963.93 1014.74 1039.26C1126.76 1114.6 1253.3 1119.72 1481.85 1025.43C1664.7 949.99 1796.43 965.856 1850.95 990.967C1905.46 1016.08 2037.99 1131.39 2070 1062.2V657.341V480.022C2070 422.624 2052 573.294 2001.98 551.769C1951.97 530.245 1959.97 468.747 1838.94 491.296C1717.91 513.846 1645.39 361.762 1481.85 333.576C1318.31 305.389 1267.8 384.311 1151.77 401.736C1035.74 419.16 986.23 391.999 902.709 315.126C819.188 238.254 759.173 241.329 640.143 250.041C521.114 258.753 486.708 194.803 446.095 97.8334Z" fill="url(#paint0_linear)"/>
<path d="M409.172 121.235C388.356 22.8749 317.848 -9.50683 253.564 2.32498C189.28 14.1568 168.41 73.3148 117.344 73.3148C41.3254 73.3148 5.95918e-05 -25.3509 6.3302e-05 31.1335L4.19272e-05 187.235C8.41499e-06 375.871 -4.20309e-05 659.824 6.3304e-05 712.762C0.000284404 823.881 234.687 541.53 301.012 835.788C367.336 1130.05 574.473 1073.97 697.938 1022.53C821.404 971.085 992.828 977.259 1113.23 1047.74C1233.64 1118.21 1398.94 1164.51 1531.59 1022.53C1637.71 908.941 1830.05 918.174 1908.62 954.109C1987.19 990.044 2078 1021.94 2078 954.109V686.012C2078 553.801 2073.41 579.523 2025.45 590.841C1977.49 602.158 1968.82 545.056 1919.84 548.657C1870.86 552.258 1782.09 661.394 1750.46 581.142C1695.17 440.877 1624.44 494.717 1531.59 398.002C1438.73 301.288 1281.59 328.039 1148.95 373.309C1016.3 418.58 919.03 377.14 858.648 328.039C779.569 263.734 710.183 265.792 592.839 284.312C475.496 302.832 435.191 244.186 409.172 121.235Z" fill="url(#paint1_linear)"/>
<defs>
<linearGradient id="paint0_linear" x1="169.526" y1="230.955" x2="2044.77" y2="944.106" gradientUnits="userSpaceOnUse">
<stop stop-color="#10B3F1"/>
<stop offset="1" stop-color="#6070FF"/>
</linearGradient>
<linearGradient id="paint1_linear" x1="1791.28" y1="1051.26" x2="329.338" y2="275.799" gradientUnits="userSpaceOnUse">
<stop stop-color="#0FF0E3"/>
<stop offset="1" stop-color="#00D1FF"/>
</linearGradient>
</defs>
</svg>
