<svg width="757" height="524" viewBox="0 0 757 524" fill="none" xmlns="http://www.w3.org/2000/svg">
<path d="M213.829 413.341C139.907 409.209 98.9075 339.709 75.4077 319.709C51.908 299.709 13.4075 268.209 -43.5925 299.209C-86.8827 293.012 -82.0925 308.127 -82.0924 237.709C-82.0924 166.209 -33.0927 -0.159127 -33.0927 -0.159127L745.829 -0.1594C758.826 115.841 652.327 177.34 531.327 148.84C435.439 126.255 361.829 167.022 361.829 262.841C361.829 364.209 315.141 419.003 213.829 413.341Z" fill="url(#paint0_linear)"/>
<path d="M717.407 48.71C717.407 -30.79 640.574 -68.4567 594.407 -86.79H-14.0928V310.501C78 283.001 137.5 382.001 221.5 382.001C305.5 382.001 310.907 297.21 334.907 230.71C358.907 164.21 414.907 129.21 487.407 139.71C559.907 150.21 717.407 145.725 717.407 48.71Z" fill="url(#paint1_linear)"/>
<defs>
<linearGradient id="paint0_linear" x1="780.5" y1="-9.49999" x2="676.605" y2="688.228" gradientUnits="userSpaceOnUse">
<stop offset="0.0001" stop-color="#FFA34E"/>
<stop offset="1" stop-color="#F8D146"/>
</linearGradient>
<linearGradient id="paint1_linear" x1="717.407" y1="-51.6523" x2="236.19" y2="-206.055" gradientUnits="userSpaceOnUse">
<stop stop-color="#FFBF01"/>
<stop offset="1" stop-color="#FFE8A3"/>
</linearGradient>
</defs>
</svg>
