<svg width="759" height="524" viewBox="0 0 759 524" fill="none" xmlns="http://www.w3.org/2000/svg">
<path d="M215.829 413.341C141.907 409.209 100.907 339.709 77.4077 319.709C53.908 299.709 15.4075 268.209 -41.5925 299.209C-84.8827 293.012 -80.0925 308.127 -80.0924 237.709C-80.0924 166.209 -31.0927 -0.159127 -31.0927 -0.159127L747.829 -0.1594C760.826 115.841 654.327 177.34 533.327 148.84C437.439 126.255 363.829 167.022 363.829 262.841C363.829 364.209 317.141 419.003 215.829 413.341Z" fill="url(#paint0_linear)"/>
<path d="M719.407 48.71C719.407 -30.79 642.574 -68.4567 596.407 -86.79H-12.0928V310.501C80 283.001 139.5 382.001 223.5 382.001C307.5 382.001 312.907 297.21 336.907 230.71C360.907 164.21 416.907 129.21 489.407 139.71C561.907 150.21 719.407 145.725 719.407 48.71Z" fill="url(#paint1_linear)"/>
<defs>
<linearGradient id="paint0_linear" x1="786.705" y1="-20.0391" x2="770.102" y2="473.622" gradientUnits="userSpaceOnUse">
<stop stop-color="#009C22"/>
<stop offset="0.0001" stop-color="#019B22"/>
<stop offset="1" stop-color="#18CA3E"/>
</linearGradient>
<linearGradient id="paint1_linear" x1="770.206" y1="-211.278" x2="-251.547" y2="-186.5" gradientUnits="userSpaceOnUse">
<stop stop-color="#26C248"/>
<stop offset="1" stop-color="#9BF7AF"/>
</linearGradient>
</defs>
</svg>
