<svg width="756" height="526" viewBox="0 0 756 526" fill="none" xmlns="http://www.w3.org/2000/svg">
<path d="M221.486 414.773C148.744 410.618 108.398 340.726 85.2737 320.613C62.1489 300.501 24.2628 268.823 -31.8277 299.998C-74.4271 293.766 -69.7134 308.966 -69.7133 238.151C-69.7133 166.247 -21.4954 -1.05977 -21.4954 -1.05977L744.997 -1.06002C757.787 115.595 652.987 177.441 533.918 148.781C439.56 126.068 367.125 167.064 367.125 263.424C367.125 365.364 321.182 420.467 221.486 414.773Z" fill="url(#paint0_linear)"/>
<path d="M717.03 48.0839C717.03 -31.8647 641.422 -69.7439 595.992 -88.1807H-2.79858V311.352C87.8247 283.697 146.375 383.255 229.035 383.255C311.695 383.255 317.016 297.986 340.633 231.111C364.25 164.236 419.356 129.038 490.699 139.597C562.042 150.157 717.03 145.647 717.03 48.0839Z" fill="url(#paint1_linear)"/>
<defs>
<linearGradient id="paint0_linear" x1="173.802" y1="408.017" x2="759.576" y2="101.689" gradientUnits="userSpaceOnUse">
<stop stop-color="#09B9F0"/>
<stop offset="1" stop-color="#6070FF"/>
</linearGradient>
<linearGradient id="paint1_linear" x1="753.93" y1="-212.879" x2="11.4907" y2="-199.823" gradientUnits="userSpaceOnUse">
<stop stop-color="#02D1FD"/>
<stop offset="1" stop-color="#0FF0E3"/>
</linearGradient>
</defs>
</svg>
