<svg width="758" height="524" viewBox="0 0 758 524" fill="none" xmlns="http://www.w3.org/2000/svg">
<path d="M214.829 413.341C140.907 409.209 99.9075 339.709 76.4077 319.709C52.908 299.709 14.4075 268.209 -42.5925 299.209C-85.8827 293.012 -81.0925 308.127 -81.0924 237.709C-81.0924 166.209 -32.0927 -0.159127 -32.0927 -0.159127L746.829 -0.1594C759.826 115.841 653.327 177.34 532.327 148.84C436.439 126.255 362.829 167.022 362.829 262.841C362.829 364.209 316.141 419.003 214.829 413.341Z" fill="url(#paint0_linear)"/>
<path d="M718.406 48.71C718.406 -30.79 641.573 -68.4567 595.406 -86.79H-13.0938V310.501C78.999 283.001 138.499 382.001 222.499 382.001C306.499 382.001 311.906 297.21 335.906 230.71C359.906 164.21 415.906 129.21 488.406 139.71C560.906 150.21 718.406 145.725 718.406 48.71Z" fill="url(#paint1_linear)"/>
<defs>
<linearGradient id="paint0_linear" x1="778" y1="6.99999" x2="233.932" y2="464.85" gradientUnits="userSpaceOnUse">
<stop stop-color="#AB2D4F"/>
<stop offset="1" stop-color="#D95B7D"/>
</linearGradient>
<linearGradient id="paint1_linear" x1="764.5" y1="-21.5" x2="235.11" y2="-175.829" gradientUnits="userSpaceOnUse">
<stop stop-color="#CA4467"/>
<stop offset="1" stop-color="#F590AB"/>
</linearGradient>
</defs>
</svg>
