<svg width="757" height="525" viewBox="0 0 757 525" fill="none" xmlns="http://www.w3.org/2000/svg">
<path d="M213.829 414.341C139.907 410.209 98.9075 340.709 75.4077 320.709C51.908 300.709 13.4075 269.209 -43.5925 300.209C-86.8827 294.012 -82.0925 309.127 -82.0924 238.709C-82.0924 167.209 -33.0927 0.840873 -33.0927 0.840873L745.829 0.8406C758.826 116.841 652.327 178.34 531.327 149.84C435.439 127.255 361.829 168.022 361.829 263.841C361.829 365.209 315.141 420.003 213.829 414.341Z" fill="url(#paint0_linear)"/>
<path d="M717.407 49.71C717.407 -29.79 640.574 -67.4567 594.407 -85.79H-14.0928V311.501C78 284.001 137.5 383.001 221.5 383.001C305.5 383.001 310.907 298.21 334.907 231.71C358.907 165.21 414.907 130.21 487.407 140.71C559.907 151.21 717.407 146.725 717.407 49.71Z" fill="url(#paint1_linear)"/>
<defs>
<linearGradient id="paint0_linear" x1="1009.54" y1="-91.1274" x2="736.43" y2="759.671" gradientUnits="userSpaceOnUse">
<stop offset="0.0001" stop-color="#6E07D6"/>
<stop offset="1" stop-color="#9C53C9"/>
</linearGradient>
<linearGradient id="paint1_linear" x1="669.5" y1="-29" x2="263.438" y2="-119.671" gradientUnits="userSpaceOnUse">
<stop stop-color="#9428FF"/>
<stop offset="1" stop-color="#C780FE"/>
</linearGradient>
</defs>
</svg>
