<svg width="756" height="525" viewBox="0 0 756 525" fill="none" xmlns="http://www.w3.org/2000/svg">
<path d="M212.829 414.341C138.907 410.209 97.9075 340.709 74.4077 320.709C50.908 300.709 12.4075 269.209 -44.5925 300.209C-87.8827 294.012 -83.0925 309.127 -83.0924 238.709C-83.0924 167.209 -34.0927 0.840873 -34.0927 0.840873L744.829 0.8406C757.826 116.841 651.327 178.34 530.327 149.84C434.439 127.255 360.829 168.022 360.829 263.841C360.829 365.209 314.141 420.003 212.829 414.341Z" fill="url(#paint0_linear)"/>
<path d="M716.407 49.71C716.407 -29.79 639.574 -67.4567 593.407 -85.79H-15.0928V311.501C77 284.001 136.5 383.001 220.5 383.001C304.5 383.001 309.907 298.21 333.907 231.71C357.907 165.21 413.907 130.21 486.407 140.71C558.907 151.21 716.407 146.725 716.407 49.71Z" fill="url(#paint1_linear)"/>
<defs>
<linearGradient id="paint0_linear" x1="1008.54" y1="-91.1274" x2="715.062" y2="785.517" gradientUnits="userSpaceOnUse">
<stop offset="0.0001" stop-color="#CA113D"/>
<stop offset="1" stop-color="#FF506F"/>
</linearGradient>
<linearGradient id="paint1_linear" x1="716" y1="-36.5" x2="252.712" y2="-150.832" gradientUnits="userSpaceOnUse">
<stop stop-color="#FF4249"/>
<stop offset="1" stop-color="#FB8185"/>
</linearGradient>
</defs>
</svg>
