<svg width="744" height="574" viewBox="0 0 744 574" fill="none" xmlns="http://www.w3.org/2000/svg">
<path d="M472.958 556.338C633.502 571.113 674.683 442.017 680.471 377.181C689.408 315.143 685.047 210.51 601.509 112.56C517.97 14.6099 446.004 41.5002 418.776 51.6868C365.017 71.7992 348.002 51.6868 282.002 51.6868C192.153 57.3872 146.707 109.372 95.002 148.5C37.4343 192.065 -2.49807 273.5 38.002 353.5C73.893 424.396 152.221 433.873 175.742 441.41C199.263 448.947 261.796 447.718 303.997 451.064C346.199 454.411 371.537 488.979 377.45 494.896C383.363 500.813 416.399 551.133 472.958 556.338Z" fill="url(#paint0_linear)"/>
<path d="M557.003 57.4351C614.327 97.2345 721.594 220.715 692.071 396.24C716.036 316.223 722.573 136.439 557.003 57.4351Z" fill="url(#paint1_linear)"/>
<path d="M270.363 491.002C227.458 503.276 122.91 506.411 47.954 420.756C77.8722 465.005 164.239 541.003 270.363 491.002Z" fill="url(#paint2_linear)"/>
<defs>
<linearGradient id="paint0_linear" x1="86.5" y1="-126" x2="1060.65" y2="111.578" gradientUnits="userSpaceOnUse">
<stop stop-color="#FFBF01"/>
<stop offset="1" stop-color="#FFE8A3"/>
</linearGradient>
<linearGradient id="paint1_linear" x1="603.188" y1="208.425" x2="736.008" y2="197.522" gradientUnits="userSpaceOnUse">
<stop stop-color="#FFBF01"/>
<stop offset="1" stop-color="#FFE8A3"/>
</linearGradient>
<linearGradient id="paint2_linear" x1="176.915" y1="452.761" x2="128.559" y2="522.934" gradientUnits="userSpaceOnUse">
<stop stop-color="#FFBF01"/>
<stop offset="1" stop-color="#FFE8A3"/>
</linearGradient>
</defs>
</svg>
