<svg width="741" height="574" viewBox="0 0 741 574" fill="none" xmlns="http://www.w3.org/2000/svg">
<path d="M472.925 555.534C636.465 575.196 674.651 441.213 680.438 376.377C689.376 314.338 685.015 209.706 601.476 111.756C517.937 13.8057 445.972 40.696 418.744 50.8826C364.984 70.995 347.969 50.8826 281.969 50.8826C192.12 56.583 146.675 108.568 94.9695 147.696C37.4018 191.261 -2.53054 272.696 37.9695 352.696C73.8605 423.592 152.189 433.069 175.71 440.606C199.23 448.143 261.763 446.913 303.965 450.26C346.167 453.606 371.505 488.175 377.417 494.092C383.33 500.009 416.533 548.754 472.925 555.534Z" fill="url(#paint0_linear)"/>
<path d="M554.005 56.4351C611.329 96.2345 718.597 219.715 689.073 395.24C713.038 315.223 719.575 135.439 554.005 56.4351Z" fill="url(#paint1_linear)"/>
<path d="M267.365 490.002C224.46 502.276 119.911 505.411 44.9555 419.756C74.8736 464.005 161.241 540.003 267.365 490.002Z" fill="url(#paint2_linear)"/>
<defs>
<linearGradient id="paint0_linear" x1="603.47" y1="28.6961" x2="422.469" y2="573.196" gradientUnits="userSpaceOnUse">
<stop stop-color="#6070FF"/>
<stop offset="1" stop-color="#0FF0E3"/>
</linearGradient>
<linearGradient id="paint1_linear" x1="501.649" y1="37.4251" x2="784.137" y2="394.904" gradientUnits="userSpaceOnUse">
<stop stop-color="#4D8FF8"/>
<stop offset="1" stop-color="#1BDDE7"/>
</linearGradient>
<linearGradient id="paint2_linear" x1="297.966" y1="471.774" x2="6.64816" y2="466.959" gradientUnits="userSpaceOnUse">
<stop stop-color="#4D8FF8"/>
<stop offset="1" stop-color="#1BDDE7"/>
</linearGradient>
</defs>
</svg>
