<svg width="692" height="1061" viewBox="0 0 692 1061" fill="none" xmlns="http://www.w3.org/2000/svg">
<path d="M246 398.083C85.5237 398.083 141 141.584 -51.5 109.584C-244 77.5845 -288.5 -196.917 -285 268.083C-285 396.441 -285 616.074 -285 769.949L-285 885.583C-285 981.583 -246 871.083 -184 990.083C-122 1109.08 -38.0001 1048.08 -15.0002 1020.58C7.99976 993.082 94.4998 849.083 152 849.083C308 849.083 597.461 933.636 677 780.083C713 710.583 640.5 574.583 445.5 501.583C324.319 456.218 389 398.083 246 398.083Z" fill="url(#paint0_linear)"/>
<path d="M207.5 387.585C50.9998 423.085 123 154.587 -53.5001 127.585C-230 100.583 -223.5 -64.9169 -298 28.0832L-298 808.585C-298 928.085 -221.5 932.583 -187 985.085C-152.5 1037.59 -100 1054.08 -53.5001 1010.09C-7.00021 966.087 48.9998 817.585 170.5 835.085C342.868 859.912 614 939.085 682 780.085C715.45 701.87 667.5 574.085 495.5 528.085C370.5 494.655 348.144 355.682 207.5 387.585Z" fill="url(#paint1_linear)"/>
<defs>
<linearGradient id="paint0_linear" x1="733.709" y1="245.713" x2="-21.7141" y2="914.924" gradientUnits="userSpaceOnUse">
<stop stop-color="#09B9F0"/>
<stop offset="1" stop-color="#6070FF"/>
</linearGradient>
<linearGradient id="paint1_linear" x1="720.882" y1="-40.4814" x2="-394.708" y2="-154.71" gradientUnits="userSpaceOnUse">
<stop stop-color="#02D1FD"/>
<stop offset="1" stop-color="#0FF0E3"/>
</linearGradient>
</defs>
</svg>
