<svg width="2037" height="1084" viewBox="0 0 2037 1084" fill="none" xmlns="http://www.w3.org/2000/svg">
<path d="M1640 92.3787C1667.5 28.3032 1742.5 -2.69633 1792 4.87873C1841.5 12.4538 1929.5 45.3029 1986.5 226.803C1986.36 268.263 2020 -37.1971 2020 35.3029L2020 716.303C1812 660.303 1840 849.303 1793 932.879C1746 1016.45 1645.5 1045.38 1493.5 997.379C1303.5 937.379 1183.5 937.379 1071.5 1010.88C959.5 1084.38 833 1089.38 604.5 997.379C421.7 923.779 290 939.258 235.5 963.758C181 988.258 48.5 1100.76 16.5 1033.26V638.258V465.258C16.5 409.258 34.5 556.258 84.5 535.258C134.5 514.258 126.5 454.258 247.5 476.258C368.5 498.258 441 349.879 604.5 322.379C768 294.879 818.5 371.879 934.5 388.879C1050.5 405.879 1100 379.379 1183.5 304.379C1267 229.379 1327 232.379 1446 240.879C1565 249.379 1599.4 186.986 1640 92.3787Z" fill="url(#paint0_linear)"/>
<path d="M1635.5 117.833C1655.9 22.2329 1725 -9.24003 1788 2.25973C1851 13.7595 1871.45 71.2573 1921.5 71.2573C1996 71.2573 2036.5 -24.6394 2036.5 30.2597L2036.5 181.98C2036.5 365.322 2036.5 641.307 2036.5 692.76C2036.5 800.76 1806.5 526.333 1741.5 812.333C1676.5 1098.33 1473.5 1043.83 1352.5 993.833C1231.5 943.833 1063.5 949.833 945.5 1018.33C827.5 1086.83 665.501 1131.83 535.501 993.833C431.501 883.433 243.001 892.407 166.001 927.333C89.0006 962.26 0 993.26 0 927.333V666.76C0 538.26 4.50061 563.26 51.5006 574.26C98.5006 585.26 107.001 529.76 155.001 533.26C203.001 536.76 290.001 642.833 321.001 564.833C375.182 428.505 444.501 480.833 535.501 386.833C626.501 292.833 780.5 318.833 910.5 362.833C1040.5 406.833 1135.82 366.556 1195 318.833C1272.5 256.333 1340.5 258.333 1455.5 276.333C1570.5 294.333 1610 237.333 1635.5 117.833Z" fill="url(#paint1_linear)"/>
<defs>
<linearGradient id="paint0_linear" x1="1916.5" y1="222.258" x2="53.5004" y2="948.259" gradientUnits="userSpaceOnUse">
<stop stop-color="#10B3F1"/>
<stop offset="1" stop-color="#6070FF"/>
</linearGradient>
<linearGradient id="paint1_linear" x1="280.999" y1="1021.76" x2="1708.5" y2="258.259" gradientUnits="userSpaceOnUse">
<stop stop-color="#0FF0E3"/>
<stop offset="1" stop-color="#00D1FF"/>
</linearGradient>
</defs>
</svg>
